  0
SECTION
  2
HEADER
  9
$ANGDIR
 70
0
  9
$INSBASE
 10
0.0
 20
0.0
 30
0.0
  9
$EXTMAX
 10
100.0
 20
100.0
 30
0.0
  9
$UNITMODE
 70
0
  9
$ANGBASE
 50
0.0
  9
$ACADVER
  1
AC1009
  9
$EXTMIN
 10
0.0
 20
0.0
 30
0.0
  9
$AUNITS
 70
0
  0
ENDSEC
  0
SECTION
  2
TABLES
  0
TABLE
  2
LTYPE
 70
19
  0
LTYPE
  2
DASHDOT2
 70
0
  3
Dash dot (.5x) _ . _ . _ . _ . _ . _ . _ . _
 72
65
 73
4
 40
0.7
 49
0.5
 49
-0.1
 49
0.0
 49
-0.1
  0
LTYPE
  2
DOT
 70
0
  3
Dot .  .  .  .  .  .  .  .  .  .  .  .  .  .  .  .
 72
65
 73
2
 40
0.2
 49
0.0
 49
-0.2
  0
LTYPE
  2
DIVIDE
 70
0
  3
Divide __ . . __ . . __ . . __ . . __ . . __
 72
65
 73
6
 40
1.6
 49
1.0
 49
-0.2
 49
0.0
 49
-0.2
 49
0.0
 49
-0.2
  0
LTYPE
  2
DASHDOT
 70
0
  3
Dash dot __ . __ . __ . __ . __ . __ . __ . __
 72
65
 73
4
 40
1.4
 49
1.0
 49
-0.2
 49
0.0
 49
-0.2
  0
LTYPE
  2
CENTER
 70
0
  3
Center ____ _ ____ _ ____ _ ____ _ ____ _ ____
 72
65
 73
4
 40
2.0
 49
1.25
 49
-0.25
 49
0.25
 49
-0.25
  0
LTYPE
  2
PHANTOMX2
 70
0
  3
Phantom (2x)____________    ____    ____    ____________
 72
65
 73
6
 40
4.25
 49
2.5
 49
-0.25
 49
0.5
 49
-0.25
 49
0.5
 49
-0.25
  0
LTYPE
  2
CONTINUOUS
 70
0
  3
Solid
 72
65
 73
0
 40
0.0
  0
LTYPE
  2
DIVIDEX2
 70
0
  3
Divide (2x) ____  . .  ____  . .  ____  . .  ____
 72
65
 73
6
 40
2.6
 49
2.0
 49
-0.2
 49
0.0
 49
-0.2
 49
0.0
 49
-0.2
  0
LTYPE
  2
CENTERX2
 70
0
  3
Center (2x) ________  __  ________  __  ________
 72
65
 73
4
 40
3.5
 49
2.5
 49
-0.25
 49
0.5
 49
-0.25
  0
LTYPE
  2
PHANTOM2
 70
0
  3
Phantom (.5x) ___ _ _ ___ _ _ ___ _ _ ___ _ _ ___
 72
65
 73
6
 40
1.25
 49
0.625
 49
-0.125
 49
0.125
 49
-0.125
 49
0.125
 49
-0.125
  0
LTYPE
  2
DASHDOTX2
 70
0
  3
Dash dot (2x) ____  .  ____  .  ____  .  ____
 72
65
 73
4
 40
2.4
 49
2.0
 49
-0.2
 49
0.0
 49
-0.2
  0
LTYPE
  2
DIVIDE2
 70
0
  3
Divide(.5x) _ . _ . _ . _ . _ . _ . _ . _
 72
65
 73
6
 40
0.8
 49
0.5
 49
-0.1
 49
0.0
 49
-0.1
 49
0.0
 49
-0.1
  0
LTYPE
  2
PHANTOM
 70
0
  3
Phantom ______  __  __  ______  __  __  ______
 72
65
 73
6
 40
2.5
 49
1.25
 49
-0.25
 49
0.25
 49
-0.25
 49
0.25
 49
-0.25
  0
LTYPE
  2
DASHED2
 70
0
  3
Dashed (.5x) _ _ _ _ _ _ _ _ _ _ _ _ _ _
 72
65
 73
2
 40
0.3
 49
0.25
 49
-0.05
  0
LTYPE
  2
DASHED
 70
0
  3
Dashed __ __ __ __ __ __ __ __ __ __ __ __ __ _
 72
65
 73
2
 40
0.6
 49
0.5
 49
-0.1
  0
LTYPE
  2
DOT2
 70
0
  3
Dot (.5) . . . . . . . . . . . . . . . . . . . 
 72
65
 73
2
 40
0.1
 49
0.0
 49
-0.1
  0
LTYPE
  2
DASHEDX2
 70
0
  3
Dashed (2x) ____  ____  ____  ____  ____  ____
 72
65
 73
2
 40
1.2
 49
1.0
 49
-0.2
  0
LTYPE
  2
DOTX2
 70
0
  3
Dot (2x) .    .    .    .    .    .    .    . 
 72
65
 73
2
 40
0.4
 49
0.0
 49
-0.4
  0
LTYPE
  2
CENTER2
 70
0
  3
Center (.5x) ____ _ ____ _ ____ _ ____ _ ____
 72
65
 73
4
 40
1.0
 49
0.625
 49
-0.125
 49
0.125
 49
-0.125
  0
ENDTAB
  0
TABLE
  2
LAYER
 70
5
  0
LAYER
  2
TABLEGRID
 70
0
 62
1
  6
CONTINUOUS
  0
LAYER
  2
TABLEBACKGROUND
 70
0
 62
1
  6
CONTINUOUS
  0
LAYER
  2
TABLECONTENT
 70
0
 62
1
  6
CONTINUOUS
  0
LAYER
  2
VIEWPORTS
 70
0
 62
7
  6
CONTINUOUS
  0
LAYER
  2
DIMENSIONS
 70
0
 62
1
  6
CONTINUOUS
  0
ENDTAB
  0
TABLE
  2
STYLE
 70
12
  0
STYLE
  2
ARIAL_BLACK
 70
0
 40
0.0
 41
1.0
 42
1.0
 50
0.0
 71
0
  3
ariblk.ttf
  4

  0
STYLE
  2
ARIAL_BOLD
 70
0
 40
0.0
 41
1.0
 42
1.0
 50
0.0
 71
0
  3
arialbd.ttf
  4

  0
STYLE
  2
ARIAL_BOLD_ITALIC
 70
0
 40
0.0
 41
1.0
 42
1.0
 50
0.0
 71
0
  3
arialbi.ttf
  4

  0
STYLE
  2
STANDARD
 70
0
 40
0.0
 41
1.0
 42
1.0
 50
0.0
 71
0
  3
arial.ttf
  4

  0
STYLE
  2
TIMES_ITALIC
 70
0
 40
0.0
 41
1.0
 42
1.0
 50
0.0
 71
0
  3
timesi.ttf
  4

  0
STYLE
  2
ARIAL_ITALIC
 70
0
 40
0.0
 41
1.0
 42
1.0
 50
0.0
 71
0
  3
ariali.ttf
  4

  0
STYLE
  2
ISOCPEUR_ITALIC
 70
0
 40
0.0
 41
1.0
 42
1.0
 50
0.0
 71
0
  3
isocpeui.ttf
  4

  0
STYLE
  2
TIMES_BOLD_ITALIC
 70
0
 40
0.0
 41
1.0
 42
1.0
 50
0.0
 71
0
  3
timesbi.ttf
  4

  0
STYLE
  2
TIMES
 70
0
 40
0.0
 41
1.0
 42
1.0
 50
0.0
 71
0
  3
times.ttf
  4

  0
STYLE
  2
ARIAL
 70
0
 40
0.0
 41
1.0
 42
1.0
 50
0.0
 71
0
  3
arial.ttf
  4

  0
STYLE
  2
ISOCPEUR
 70
0
 40
0.0
 41
1.0
 42
1.0
 50
0.0
 71
0
  3
isocpeur.ttf
  4

  0
STYLE
  2
TIMES_BOLD
 70
0
 40
0.0
 41
1.0
 42
1.0
 50
0.0
 71
0
  3
timesbd.ttf
  4

  0
ENDTAB
  0
TABLE
  2
VIEW
 70
0
  0
ENDTAB
  0
TABLE
  2
APPID
 70
1
  0
APPID
  2
DXFWRITE
 70
0
  0
ENDTAB
  0
TABLE
  2
VPORT
 70
0
  0
ENDTAB
  0
TABLE
  2
UCS
 70
0
  0
ENDTAB
  0
ENDSEC
  0
SECTION
  2
BLOCKS
  0
ENDSEC
  0
SECTION
  2
ENTITIES
  0
VIEWPORT
  8
VIEWPORTS
 67
1
 10
0.0
 20
0.0
 30
0.0
 40
1.0
 41
1.0
 68
1
 69
1
1001
ACAD
1000
MVIEW
1002
{
1070
16
1010
0.0
1020
0.0
1030
0.0
1010
0.0
1020
0.0
1030
0.0
1040
0.0
1040
1.0
1040
0.0
1040
0.0
1040
50.0
1040
0.0
1040
0.0
1070
0
1070
100
1070
1
1070
3
1070
0
1070
0
1070
0
1070
0
1040
0.0
1040
0.0
1040
0.0
1040
0.1
1040
0.1
1040
0.1
1040
0.1
1070
0
1002
{
1002
}
1002
}
  0
POLYLINE
  6
LINE
  8
0
 66
1
 10
0.0
 20
0.0
 30
0.0
 70
8
  0
VERTEX
  8
0
 10
5.2
 20
0.0
 30
0.0
  0
VERTEX
  8
0
 10
0.381
 20
0.0
 30
0.0
  0
VERTEX
  8
0
 10
0.381
 20
3.164
 30
0.0
  0
VERTEX
  8
0
 10
2.0
 20
3.164
 30
0.0
  0
VERTEX
  8
0
 10
2.0
 20
4.1
 30
0.0
  0
VERTEX
  8
0
 10
3.78
 20
4.1
 30
0.0
  0
VERTEX
  8
0
 10
3.78
 20
6.477
 30
0.0
  0
VERTEX
  8
0
 10
1.898
 20
6.477
 30
0.0
  0
VERTEX
  8
0
 10
1.898
 20
7.0
 30
0.0
  0
VERTEX
  8
0
 10
3.18
 20
7.0
 30
0.0
  0
VERTEX
  8
0
 10
3.18
 20
9.6
 30
0.0
  0
VERTEX
  8
0
 10
1.898
 20
9.6
 30
0.0
  0
VERTEX
  8
0
 10
1.898
 20
9.6
 30
0.0
  0
VERTEX
  8
0
 10
1.901684524048773
 20
9.854871230414544
 30
0.0
  0
VERTEX
  8
0
 10
1.9126589288456441
 20
10.11035031469681
 30
0.0
  0
VERTEX
  8
0
 10
1.930804463366447
 20
10.366371706041129
 30
0.0
  0
VERTEX
  8
0
 10
1.9560023765870107
 20
10.62286985764182
 30
0.0
  0
VERTEX
  8
0
 10
1.9881339174831674
 20
10.879779222693212
 30
0.0
  0
VERTEX
  8
0
 10
2.0270803350307487
 20
11.137034254389627
 30
0.0
  0
VERTEX
  8
0
 10
2.0727228782055835
 20
11.39456940592539
 30
0.0
  0
VERTEX
  8
0
 10
2.1249427959835065
 20
11.65231913049483
 30
0.0
  0
VERTEX
  8
0
 10
2.1836213373403455
 20
11.910217881292258
 30
0.0
  0
VERTEX
  8
0
 10
2.248639751251934
 20
12.16820011151202
 30
0.0
  0
VERTEX
  8
0
 10
2.319879286694101
 20
12.426200274348423
 30
0.0
  0
VERTEX
  8
0
 10
2.39722119264268
 20
12.6841528229958
 30
0.0
  0
VERTEX
  8
0
 10
2.4805467180735015
 20
12.941992210648472
 30
0.0
  0
VERTEX
  8
0
 10
2.5697371119623953
 20
13.199652890500762
 30
0.0
  0
VERTEX
  8
0
 10
2.6646736232851937
 20
13.457069315747004
 30
0.0
  0
VERTEX
  8
0
 10
2.7652375010177273
 20
13.714175939581509
 30
0.0
  0
VERTEX
  8
0
 10
2.8713099941358284
 20
13.970907215198615
 30
0.0
  0
VERTEX
  8
0
 10
2.982772351615326
 20
14.227197595792633
 30
0.0
  0
VERTEX
  8
0
 10
3.0995058224320546
 20
14.482981534557904
 30
0.0
  0
VERTEX
  8
0
 10
3.2213916555618427
 20
14.738193484688741
 30
0.0
  0
VERTEX
  8
0
 10
3.3483110999805215
 20
14.992767899379468
 30
0.0
  0
VERTEX
  8
0
 10
3.4801454046639235
 20
15.246639231824417
 30
0.0
  0
VERTEX
  8
0
 10
3.616775818587879
 20
15.499741935217905
 30
0.0
  0
VERTEX
  8
0
 10
3.758083590728219
 20
15.752010462754264
 30
0.0
  0
VERTEX
  8
0
 10
3.9039499700607747
 20
16.00337926762781
 30
0.0
  0
VERTEX
  8
0
 10
4.05425620556138
 20
16.25378280303288
 30
0.0
  0
VERTEX
  8
0
 10
4.208883546205861
 20
16.50315552216379
 30
0.0
  0
VERTEX
  8
0
 10
4.367713240970052
 20
16.751431878214863
 30
0.0
  0
VERTEX
  8
0
 10
4.530626538829782
 20
16.99854632438042
 30
0.0
  0
VERTEX
  8
0
 10
4.697504688760888
 20
17.244433313854806
 30
0.0
  0
VERTEX
  8
0
 10
4.868228939739194
 20
17.48902729983232
 30
0.0
  0
VERTEX
  8
0
 10
5.042680540740535
 20
17.7322627355073
 30
0.0
  0
VERTEX
  8
0
 10
5.220740740740741
 20
17.974074074074075
 30
0.0
  0
VERTEX
  8
0
 10
5.402290788715645
 20
18.214395768726966
 30
0.0
  0
VERTEX
  8
0
 10
5.587211933641075
 20
18.453162272660286
 30
0.0
  0
VERTEX
  8
0
 10
5.775385424492862
 20
18.690308039068366
 30
0.0
  0
VERTEX
  8
0
 10
5.966692510246842
 20
18.92576752114555
 30
0.0
  0
VERTEX
  8
0
 10
6.1610144398788425
 20
19.15947517208613
 30
0.0
  0
VERTEX
  8
0
 10
6.358232462364693
 20
19.39136544508445
 30
0.0
  0
VERTEX
  8
0
 10
6.5582278266802305
 20
19.62137279333484
 30
0.0
  0
VERTEX
  8
0
 10
6.760881781801282
 20
19.849431670031613
 30
0.0
  0
VERTEX
  8
0
 10
6.966075576703676
 20
20.075476528369087
 30
0.0
  0
VERTEX
  8
0
 10
7.173690460363249
 20
20.29944182154161
 30
0.0
  0
VERTEX
  8
0
 10
7.383607681755831
 20
20.52126200274349
 30
0.0
  0
VERTEX
  8
0
 10
7.595708489857251
 20
20.740871525169048
 30
0.0
  0
VERTEX
  8
0
 10
7.8098741336433415
 20
20.958204842012613
 30
0.0
  0
VERTEX
  8
0
 10
8.025985862089936
 20
21.173196406468524
 30
0.0
  0
VERTEX
  8
0
 10
8.243924924172859
 20
21.385780671731084
 30
0.0
  0
VERTEX
  8
0
 10
8.463572568867946
 20
21.59589209099463
 30
0.0
  0
VERTEX
  8
0
 10
8.684810045151032
 20
21.803465117453488
 30
0.0
  0
VERTEX
  8
0
 10
8.907518601997944
 20
22.008434204301977
 30
0.0
  0
VERTEX
  8
0
 10
9.13157948838451
 20
22.210733804734417
 30
0.0
  0
VERTEX
  8
0
 10
9.356873953286565
 20
22.410298371945142
 30
0.0
  0
VERTEX
  8
0
 10
9.58328324567994
 20
22.607062359128477
 30
0.0
  0
VERTEX
  8
0
 10
9.810688614540467
 20
22.80096021947874
 30
0.0
  0
VERTEX
  8
0
 10
10.038971308843978
 20
22.991926406190256
 30
0.0
  0
VERTEX
  8
0
 10
10.268012577566298
 20
23.179895372457356
 30
0.0
  0
VERTEX
  8
0
 10
10.497693669683263
 20
23.36480157147436
 30
0.0
  0
VERTEX
  8
0
 10
10.727895834170706
 20
23.546579456435595
 30
0.0
  0
VERTEX
  8
0
 10
10.958500320004452
 20
23.725163480535382
 30
0.0
  0
VERTEX
  8
0
 10
11.18938837616034
 20
23.90048809696805
 30
0.0
  0
VERTEX
  8
0
 10
11.420441251614195
 20
24.07248775892792
 30
0.0
  0
VERTEX
  8
0
 10
11.65154019534185
 20
24.24109691960932
 30
0.0
  0
VERTEX
  8
0
 10
11.882566456319136
 20
24.40625003220657
 30
0.0
  0
VERTEX
  8
0
 10
12.113401283521885
 20
24.567881549914
 30
0.0
  0
VERTEX
  8
0
 10
12.343925925925927
 20
24.725925925925928
 30
0.0
  0
VERTEX
  8
0
 10
12.574021632507094
 20
24.880317613436684
 30
0.0
  0
VERTEX
  8
0
 10
12.803569652241219
 20
25.030991065640592
 30
0.0
  0
VERTEX
  8
0
 10
13.032451234104128
 20
25.177880735731975
 30
0.0
  0
VERTEX
  8
0
 10
13.260547627071658
 20
25.32092107690516
 30
0.0
  0
VERTEX
  8
0
 10
13.487740080119636
 20
25.46004654235447
 30
0.0
  0
VERTEX
  8
0
 10
13.713909842223892
 20
25.59519158527423
 30
0.0
  0
VERTEX
  8
0
 10
13.938938162360262
 20
25.726290658858765
 30
0.0
  0
VERTEX
  8
0
 10
14.162706289504577
 20
25.8532782163024
 30
0.0
  0
VERTEX
  8
0
 10
14.385095472632665
 20
25.976088710799456
 30
0.0
  0
VERTEX
  8
0
 10
14.605986960720358
 20
26.09465659554426
 30
0.0
  0
VERTEX
  8
0
 10
14.825262002743484
 20
26.208916323731138
 30
0.0
  0
VERTEX
  8
0
 10
15.042801847677882
 20
26.318802348554414
 30
0.0
  0
VERTEX
  8
0
 10
15.258487744499377
 20
26.424249123208416
 30
0.0
  0
VERTEX
  8
0
 10
15.472200942183804
 20
26.52519110088746
 30
0.0
  0
VERTEX
  8
0
 10
15.68382268970699
 20
26.621562734785876
 30
0.0
  0
VERTEX
  8
0
 10
15.89323423604477
 20
26.71329847809799
 30
0.0
  0
VERTEX
  8
0
 10
16.100316830172968
 20
26.80033278401812
 30
0.0
  0
VERTEX
  8
0
 10
16.304951721067425
 20
26.882600105740604
 30
0.0
  0
VERTEX
  8
0
 10
16.50702015770397
 20
26.960034896459753
 30
0.0
  0
VERTEX
  8
0
 10
16.706403389058423
 20
27.032571609369896
 30
0.0
  0
VERTEX
  8
0
 10
16.902982664106634
 20
27.100144697665357
 30
0.0
  0
VERTEX
  8
0
 10
17.09663923182442
 20
27.162688614540468
 30
0.0
  0
VERTEX
  8
0
 10
17.287254341187616
 20
27.220137813189545
 30
0.0
  0
VERTEX
  8
0
 10
17.474709241172054
 20
27.27242674680691
 30
0.0
  0
VERTEX
  8
0
 10
17.658885180753565
 20
27.3194898685869
 30
0.0
  0
VERTEX
  8
0
 10
17.839663408907978
 20
27.36126163172383
 30
0.0
  0
VERTEX
  8
0
 10
18.016925174611124
 20
27.397676489412024
 30
0.0
  0
VERTEX
  8
0
 10
18.190551726838844
 20
27.428668894845813
 30
0.0
  0
VERTEX
  8
0
 10
18.360424314566956
 20
27.45417330121952
 30
0.0
  0
VERTEX
  8
0
 10
18.526424186771294
 20
27.474124161727467
 30
0.0
  0
VERTEX
  8
0
 10
18.688432592427695
 20
27.48845592956398
 30
0.0
  0
VERTEX
  8
0
 10
18.846330780511988
 20
27.497103057923383
 30
0.0
  0
VERTEX
  8
0
 10
19.0
 20
27.5
 30
0.0
  0
VERTEX
  8
0
 10
19.0
 20
27.5
 30
0.0
  0
VERTEX
  8
0
 10
19.060299969390876
 20
27.499542924397534
 30
0.0
  0
VERTEX
  8
0
 10
19.11998775635139
 20
27.49817994247134
 30
0.0
  0
VERTEX
  8
0
 10
19.179063360881543
 20
27.495923421543257
 30
0.0
  0
VERTEX
  8
0
 10
19.237526782981327
 20
27.4927857289351
 30
0.0
  0
VERTEX
  8
0
 10
19.295378022650752
 20
27.488779231968703
 30
0.0
  0
VERTEX
  8
0
 10
19.35261707988981
 20
27.483916297965887
 30
0.0
  0
VERTEX
  8
0
 10
19.4092439546985
 20
27.478209294248472
 30
0.0
  0
VERTEX
  8
0
 10
19.46525864707683
 20
27.471670588138302
 30
0.0
  0
VERTEX
  8
0
 10
19.520661157024787
 20
27.46431254695717
 30
0.0
  0
VERTEX
  8
0
 10
19.575451484542395
 20
27.456147538026936
 30
0.0
  0
VERTEX
  8
0
 10
19.629629629629626
 20
27.447187928669404
 30
0.0
  0
VERTEX
  8
0
 10
19.683195592286506
 20
27.437446086206418
 30
0.0
  0
VERTEX
  8
0
 10
19.73614937251301
 20
27.426934377959785
 30
0.0
  0
VERTEX
  8
0
 10
19.788490970309155
 20
27.415665171251334
 30
0.0
  0
VERTEX
  8
0
 10
19.840220385674932
 20
27.403650833402907
 30
0.0
  0
VERTEX
  8
0
 10
19.89133761861034
 20
27.390903731736294
 30
0.0
  0
VERTEX
  8
0
 10
19.941842669115392
 20
27.377436233573366
 30
0.0
  0
VERTEX
  8
0
 10
19.991735537190078
 20
27.36326070623591
 30
0.0
  0
VERTEX
  8
0
 10
20.041016222834408
 20
27.348389517045774
 30
0.0
  0
VERTEX
  8
0
 10
20.089684726048365
 20
27.332835033324784
 30
0.0
  0
VERTEX
  8
0
 10
20.137741046831955
 20
27.316609622394747
 30
0.0
  0
VERTEX
  8
0
 10
20.185185185185187
 20
27.299725651577507
 30
0.0
  0
VERTEX
  8
0
 10
20.23201714110805
 20
27.28219548819487
 30
0.0
  0
VERTEX
  8
0
 10
20.278236914600548
 20
27.264031499568688
 30
0.0
  0
VERTEX
  8
0
 10
20.32384450566268
 20
27.24524605302076
 30
0.0
  0
VERTEX
  8
0
 10
20.368839914294462
 20
27.225851515872947
 30
0.0
  0
VERTEX
  8
0
 10
20.41322314049587
 20
27.205860255447035
 30
0.0
  0
VERTEX
  8
0
 10
20.45699418426691
 20
27.185284639064868
 30
0.0
  0
VERTEX
  8
0
 10
20.500153045607586
 20
27.164137034048263
 30
0.0
  0
VERTEX
  8
0
 10
20.542699724517913
 20
27.14242980771907
 30
0.0
  0
VERTEX
  8
0
 10
20.584634220997856
 20
27.120175327399078
 30
0.0
  0
VERTEX
  8
0
 10
20.62595653504744
 20
27.097385960410133
 30
0.0
  0
VERTEX
  8
0
 10
20.666666666666664
 20
27.074074074074073
 30
0.0
  0
VERTEX
  8
0
 10
20.70676461585553
 20
27.05025203571271
 30
0.0
  0
VERTEX
  8
0
 10
20.746250382614022
 20
27.025932212647856
 30
0.0
  0
VERTEX
  8
0
 10
20.785123966942148
 20
27.001126972201348
 30
0.0
  0
VERTEX
  8
0
 10
20.823385368839915
 20
26.97584868169503
 30
0.0
  0
VERTEX
  8
0
 10
20.86103458830732
 20
26.950109708450697
 30
0.0
  0
VERTEX
  8
0
 10
20.898071625344347
 20
26.923922419790184
 30
0.0
  0
VERTEX
  8
0
 10
20.934496479951026
 20
26.897299183035337
 30
0.0
  0
VERTEX
  8
0
 10
20.970309152127335
 20
26.87025236550796
 30
0.0
  0
VERTEX
  8
0
 10
21.005509641873278
 20
26.842794334529867
 30
0.0
  0
VERTEX
  8
0
 10
21.040097949188855
 20
26.814937457422918
 30
0.0
  0
VERTEX
  8
0
 10
21.074074074074076
 20
26.78669410150892
 30
0.0
  0
VERTEX
  8
0
 10
21.107438016528928
 20
26.758076634109692
 30
0.0
  0
VERTEX
  8
0
 10
21.140189776553413
 20
26.72909742254707
 30
0.0
  0
VERTEX
  8
0
 10
21.172329354147536
 20
26.69976883414288
 30
0.0
  0
VERTEX
  8
0
 10
21.203856749311296
 20
26.67010323621894
 30
0.0
  0
VERTEX
  8
0
 10
21.234771962044686
 20
26.64011299609707
 30
0.0
  0
VERTEX
  8
0
 10
21.26507499234772
 20
26.609810481099125
 30
0.0
  0
VERTEX
  8
0
 10
21.29476584022039
 20
26.579208058546907
 30
0.0
  0
VERTEX
  8
0
 10
21.323844505662688
 20
26.548318095762237
 30
0.0
  0
VERTEX
  8
0
 10
21.352310988674628
 20
26.517152960066948
 30
0.0
  0
VERTEX
  8
0
 10
21.380165289256198
 20
26.48572501878287
 30
0.0
  0
VERTEX
  8
0
 10
21.407407407407412
 20
26.454046639231827
 30
0.0
  0
VERTEX
  8
0
 10
21.434037343128253
 20
26.422130188735636
 30
0.0
  0
VERTEX
  8
0
 10
21.460055096418735
 20
26.38998803461613
 30
0.0
  0
VERTEX
  8
0
 10
21.485460667278847
 20
26.35763254419514
 30
0.0
  0
VERTEX
  8
0
 10
21.510254055708604
 20
26.325076084794482
 30
0.0
  0
VERTEX
  8
0
 10
21.534435261707987
 20
26.292331023735983
 30
0.0
  0
VERTEX
  8
0
 10
21.558004285277015
 20
26.259409728341474
 30
0.0
  0
VERTEX
  8
0
 10
21.580961126415673
 20
26.226324565932767
 30
0.0
  0
VERTEX
  8
0
 10
21.603305785123965
 20
26.193087903831707
 30
0.0
  0
VERTEX
  8
0
 10
21.625038261401897
 20
26.159712109360104
 30
0.0
  0
VERTEX
  8
0
 10
21.646158555249464
 20
26.126209549839793
 30
0.0
  0
VERTEX
  8
0
 10
21.666666666666664
 20
26.092592592592595
 30
0.0
  0
VERTEX
  8
0
 10
21.686562595653506
 20
26.05887360494033
 30
0.0
  0
VERTEX
  8
0
 10
21.705846342209977
 20
26.025064954204836
 30
0.0
  0
VERTEX
  8
0
 10
21.72451790633609
 20
25.991179007707935
 30
0.0
  0
VERTEX
  8
0
 10
21.742577288031836
 20
25.957228132771444
 30
0.0
  0
VERTEX
  8
0
 10
21.760024487297216
 20
25.9232246967172
 30
0.0
  0
VERTEX
  8
0
 10
21.776859504132233
 20
25.889181066867017
 30
0.0
  0
VERTEX
  8
0
 10
21.793082338536884
 20
25.855109610542733
 30
0.0
  0
VERTEX
  8
0
 10
21.808692990511172
 20
25.821022695066162
 30
0.0
  0
VERTEX
  8
0
 10
21.823691460055095
 20
25.786932687759133
 30
0.0
  0
VERTEX
  8
0
 10
21.838077747168658
 20
25.752851955943477
 30
0.0
  0
VERTEX
  8
0
 10
21.851851851851855
 20
25.718792866941016
 30
0.0
  0
VERTEX
  8
0
 10
21.865013774104682
 20
25.68476778807357
 30
0.0
  0
VERTEX
  8
0
 10
21.87756351392715
 20
25.65078908666298
 30
0.0
  0
VERTEX
  8
0
 10
21.889501071319252
 20
25.616869130031056
 30
0.0
  0
VERTEX
  8
0
 10
21.90082644628099
 20
25.583020285499625
 30
0.0
  0
VERTEX
  8
0
 10
21.911539638812364
 20
25.549254920390517
 30
0.0
  0
VERTEX
  8
0
 10
21.921640648913375
 20
25.51558540202556
 30
0.0
  0
VERTEX
  8
0
 10
21.931129476584022
 20
25.48202409772658
 30
0.0
  0
VERTEX
  8
0
 10
21.940006121824304
 20
25.448583374815392
 30
0.0
  0
VERTEX
  8
0
 10
21.948270584634223
 20
25.415275600613832
 30
0.0
  0
VERTEX
  8
0
 10
21.955922865013775
 20
25.38211314244372
 30
0.0
  0
VERTEX
  8
0
 10
21.962962962962962
 20
25.349108367626886
 30
0.0
  0
VERTEX
  8
0
 10
21.96939087848179
 20
25.316273643485154
 30
0.0
  0
VERTEX
  8
0
 10
21.97520661157025
 20
25.283621337340342
 30
0.0
  0
VERTEX
  8
0
 10
21.980410162228345
 20
25.251163816514293
 30
0.0
  0
VERTEX
  8
0
 10
21.985001530456078
 20
25.218913448328813
 30
0.0
  0
VERTEX
  8
0
 10
21.98898071625344
 20
25.18688260010574
 30
0.0
  0
VERTEX
  8
0
 10
21.992347719620447
 20
25.155083639166893
 30
0.0
  0
VERTEX
  8
0
 10
21.995102540557088
 20
25.123528932834105
 30
0.0
  0
VERTEX
  8
0
 10
21.997245179063363
 20
25.092230848429196
 30
0.0
  0
VERTEX
  8
0
 10
21.99877563513927
 20
25.06120175327399
 30
0.0
  0
VERTEX
  8
0
 10
21.99969390878482
 20
25.030454014690317
 30
0.0
  0
VERTEX
  8
0
 10
22.0
 20
25.0
 30
0.0
  0
VERTEX
  8
0
 10
22.0
 20
25.0
 30
0.0
  0
VERTEX
  8
0
 10
21.99191997342054
 20
24.901979186312417
 30
0.0
  0
VERTEX
  8
0
 10
21.968009151554007
 20
24.80965454894188
 30
0.0
  0
VERTEX
  8
0
 10
21.928760526309272
 20
24.722611575665027
 30
0.0
  0
VERTEX
  8
0
 10
21.87466576718386
 20
24.640447615581298
 30
0.0
  0
VERTEX
  8
0
 10
21.806215059748123
 20
24.5627715636523
 30
0.0
  0
VERTEX
  8
0
 10
21.723896944129333
 20
24.489203545241015
 30
0.0
  0
VERTEX
  8
0
 10
21.628198153495738
 20
24.41937460065112
 30
0.0
  0
VERTEX
  8
0
 10
21.519603452540817
 20
24.352926369666328
 30
0.0
  0
VERTEX
  8
0
 10
21.39859547596724
 20
24.289510776089557
 30
0.0
  0
VERTEX
  8
0
 10
21.26565456697109
 20
24.228789712282353
 30
0.0
  0
VERTEX
  8
0
 10
21.12125861572592
 20
24.170434723704037
 30
0.0
  0
VERTEX
  8
0
 10
20.965882897866898
 20
24.114126693451112
 30
0.0
  0
VERTEX
  8
0
 10
20.799999912974908
 20
24.05955552679648
 30
0.0
  0
VERTEX
  8
0
 10
20.624079223060654
 20
24.006419835728718
 30
0.0
  0
VERTEX
  8
0
 10
20.4385872910488
 20
23.95442662349143
 30
0.0
  0
VERTEX
  8
0
 10
20.24398731926206
 20
23.90329096912247
 30
0.0
  0
VERTEX
  8
0
 10
20.04073908790536
 20
23.85273571199328
 30
0.0
  0
VERTEX
  8
0
 10
19.82929879354986
 20
23.802491136348102
 30
0.0
  0
VERTEX
  8
0
 10
19.610118887617187
 20
23.752294655843382
 30
0.0
  0
VERTEX
  8
0
 10
19.38364791486343
 20
23.70189049808691
 30
0.0
  0
VERTEX
  8
0
 10
19.150330351863335
 20
23.651029389177204
 30
0.0
  0
VERTEX
  8
0
 10
18.910606445494423
 20
23.599468238242817
 30
0.0
  0
VERTEX
  8
0
 10
18.66491205142103
 20
23.54696982198152
 30
0.0
  0
VERTEX
  8
0
 10
18.413678472578518
 20
23.493302469199687
 30
0.0
  0
VERTEX
  8
0
 10
18.157332297657298
 20
23.438239745351506
 30
0.0
  0
VERTEX
  8
0
 10
17.896295239587026
 20
23.38156013707836
 30
0.0
  0
VERTEX
  8
0
 10
17.630983974020655
 20
23.323046736747994
 30
0.0
  0
VERTEX
  8
0
 10
17.36180997781857
 20
23.262486926993873
 30
0.0
  0
VERTEX
  8
0
 10
17.089179367532726
 20
23.199672065254486
 30
0.0
  0
VERTEX
  8
0
 10
16.813492737890744
 20
23.13439716831259
 30
0.0
  0
VERTEX
  8
0
 10
16.535145000279986
 20
23.066460596834474
 30
0.0
  0
VERTEX
  8
0
 10
16.254525221231752
 20
22.99566373990933
 30
0.0
  0
VERTEX
  8
0
 10
15.972016460905351
 20
22.921810699588477
 30
0.0
  0
VERTEX
  8
0
 10
15.687995611572175
 20
22.844707975424644
 30
0.0
  0
VERTEX
  8
0
 10
15.402833236099875
 20
22.76416414901125
 30
0.0
  0
VERTEX
  8
0
 10
15.116893406436471
 20
22.679989568521773
 30
0.0
  0
VERTEX
  8
0
 10
14.830533542094429
 20
22.591996033248936
 30
0.0
  0
VERTEX
  8
0
 10
14.544104248634788
 20
22.499996478144016
 30
0.0
  0
VERTEX
  8
0
 10
14.257949156151307
 20
22.403804658356176
 30
0.0
  0
VERTEX
  8
0
 10
13.972404757754552
 20
22.303234833771732
 30
0.0
  0
VERTEX
  8
0
 10
13.687800248055996
 20
22.198101453553395
 30
0.0
  0
VERTEX
  8
0
 10
13.404457361652145
 20
22.088218840679577
 30
0.0
  0
VERTEX
  8
0
 10
13.1226902116087
 20
21.97340087648377
 30
0.0
  0
VERTEX
  8
0
 10
12.84280512794459
 20
21.853460685193657
 30
0.0
  0
VERTEX
  8
0
 10
12.565100496116134
 20
21.728210318470545
 30
0.0
  0
VERTEX
  8
0
 10
12.289866595501163
 20
21.597460439948602
 30
0.0
  0
VERTEX
  8
0
 10
12.017385437883117
 20
21.46102000977413
 30
0.0
  0
VERTEX
  8
0
 10
11.747930605935146
 20
21.318695969144862
 30
0.0
  0
VERTEX
  8
0
 10
11.481767091704242
 20
21.17029292484924
 30
0.0
  0
VERTEX
  8
0
 10
11.219151135095382
 20
21.015612833805736
 30
0.0
  0
VERTEX
  8
0
 10
10.960330062355574
 20
20.85445468760209
 30
0.0
  0
VERTEX
  8
0
 10
10.705542124558036
 20
20.68661419703462
 30
0.0
  0
VERTEX
  8
0
 10
10.455016336086274
 20
20.511883476647508
 30
0.0
  0
VERTEX
  8
0
 10
10.208972313118203
 20
20.33005072927209
 30
0.0
  0
VERTEX
  8
0
 10
9.967620112110282
 20
20.14089993056614
 30
0.0
  0
VERTEX
  8
0
 10
9.731160068281593
 20
19.944210513553134
 30
0.0
  0
VERTEX
  8
0
 10
9.499782634097986
 20
19.73975705316157
 30
0.0
  0
VERTEX
  8
0
 10
9.273668217756185
 20
19.527308950764237
 30
0.0
  0
VERTEX
  8
0
 10
9.05298702166789
 20
19.3066301187175
 30
0.0
  0
VERTEX
  8
0
 10
8.837898880943907
 20
19.077478664900593
 30
0.0
  0
VERTEX
  8
0
 10
8.628553101878254
 20
18.839606577254894
 30
0.0
  0
VERTEX
  8
0
 10
8.425088300432279
 20
18.592759408323225
 30
0.0
  0
VERTEX
  8
0
 10
8.227632240718776
 20
18.336675959789133
 30
0.0
  0
VERTEX
  8
0
 10
8.036301673486099
 20
18.07108796701617
 30
0.0
  0
VERTEX
  8
0
 10
7.851202174602268
 20
17.79571978358719
 30
0.0
  0
VERTEX
  8
0
 10
7.6724279835390945
 20
17.51028806584362
 30
0.0
  0
VERTEX
  8
0
 10
7.500061841856292
 20
17.214501457424767
 30
0.0
  0
VERTEX
  8
0
 10
7.334174831685584
 20
16.908060273807074
 30
0.0
  0
VERTEX
  8
0
 10
7.17482621421484
 20
16.59065618684345
 30
0.0
  0
VERTEX
  8
0
 10
7.022063268172159
 20
16.261971909302517
 30
0.0
  0
VERTEX
  8
0
 10
6.87592112831001
 20
15.921680879407905
 30
0.0
  0
VERTEX
  8
0
 10
6.736422623889327
 20
15.56944694537755
 30
0.0
  0
VERTEX
  8
0
 10
6.603578117163641
 20
15.204924049962969
 30
0.0
  0
VERTEX
  8
0
 10
6.477385341863187
 20
14.827755914988568
 30
0.0
  0
VERTEX
  8
0
 10
6.357829241679008
 20
14.43757572589088
 30
0.0
  0
VERTEX
  8
0
 10
6.244881808747092
 20
14.03400581625791
 30
0.0
  0
VERTEX
  8
0
 10
6.138501922132466
 20
13.616657352368371
 30
0.0
  0
VERTEX
  8
0
 10
6.038635186313319
 20
13.185130017731005
 30
0.0
  0
VERTEX
  8
0
 10
5.94521376966512
 20
12.73901169762386
 30
0.0
  0
VERTEX
  8
0
 10
5.858156242944723
 20
12.277878163633556
 30
0.0
  0
VERTEX
  8
0
 10
5.777367417774494
 20
11.801292758194606
 30
0.0
  0
VERTEX
  8
0
 10
5.7027381851264085
 20
11.308806079128669
 30
0.0
  0
VERTEX
  8
0
 10
5.634145353806188
 20
10.79995566418386
 30
0.0
  0
VERTEX
  8
0
 10
5.5714514889373925
 20
10.274265675574025
 30
0.0
  0
VERTEX
  8
0
 10
5.51450475044555
 20
9.73124658451802
 30
0.0
  0
VERTEX
  8
0
 10
5.463138731542264
 20
9.170394855779024
 30
0.0
  0
VERTEX
  8
0
 10
5.417172297209332
 20
8.591192632203791
 30
0.0
  0
VERTEX
  8
0
 10
5.3764094226828565
 20
7.993107419261965
 30
0.0
  0
VERTEX
  8
0
 10
5.3406390319373624
 20
7.375591769585341
 30
0.0
  0
VERTEX
  8
0
 10
5.309634836169909
 20
6.738082967507182
 30
0.0
  0
VERTEX
  8
0
 10
5.283155172284206
 20
6.080002713601471
 30
0.0
  0
VERTEX
  8
0
 10
5.260942841374728
 20
5.4007568092222105
 30
0.0
  0
VERTEX
  8
0
 10
5.242724947210828
 20
4.699734841042733
 30
0.0
  0
VERTEX
  8
0
 10
5.228212734720854
 20
3.976309865594937
 30
0.0
  0
VERTEX
  8
0
 10
5.21710142847626
 20
3.2298380938086355
 30
0.0
  0
VERTEX
  8
0
 10
5.209070071175725
 20
2.459658575550779
 30
0.0
  0
VERTEX
  8
0
 10
5.2037813621292655
 20
1.6650928841647736
 30
0.0
  0
VERTEX
  8
0
 10
5.200881495742346
 20
0.8454448010097906
 30
0.0
  0
VERTEX
  8
0
 10
5.2
 20
0.0
 30
0.0
  0
SEQEND
  0
ENDSEC
  0
EOF
