  0
SECTION
  2
HEADER
  9
$EXTMAX
 10
100.0
 20
100.0
 30
0.0
  9
$ANGBASE
 50
0.0
  9
$AUNITS
 70
0
  9
$ACADVER
  1
AC1009
  9
$ANGDIR
 70
0
  9
$UNITMODE
 70
0
  9
$INSBASE
 10
0.0
 20
0.0
 30
0.0
  9
$EXTMIN
 10
0.0
 20
0.0
 30
0.0
  0
ENDSEC
  0
SECTION
  2
TABLES
  0
TABLE
  2
LTYPE
 70
19
  0
LTYPE
  2
DOT2
 70
0
  3
Dot (.5) . . . . . . . . . . . . . . . . . . . 
 72
65
 73
2
 40
0.1
 49
0.0
 49
-0.1
  0
LTYPE
  2
DOT
 70
0
  3
Dot .  .  .  .  .  .  .  .  .  .  .  .  .  .  .  .
 72
65
 73
2
 40
0.2
 49
0.0
 49
-0.2
  0
LTYPE
  2
PHANTOM2
 70
0
  3
Phantom (.5x) ___ _ _ ___ _ _ ___ _ _ ___ _ _ ___
 72
65
 73
6
 40
1.25
 49
0.625
 49
-0.125
 49
0.125
 49
-0.125
 49
0.125
 49
-0.125
  0
LTYPE
  2
CENTER2
 70
0
  3
Center (.5x) ____ _ ____ _ ____ _ ____ _ ____
 72
65
 73
4
 40
1.0
 49
0.625
 49
-0.125
 49
0.125
 49
-0.125
  0
LTYPE
  2
DIVIDEX2
 70
0
  3
Divide (2x) ____  . .  ____  . .  ____  . .  ____
 72
65
 73
6
 40
2.6
 49
2.0
 49
-0.2
 49
0.0
 49
-0.2
 49
0.0
 49
-0.2
  0
LTYPE
  2
DOTX2
 70
0
  3
Dot (2x) .    .    .    .    .    .    .    . 
 72
65
 73
2
 40
0.4
 49
0.0
 49
-0.4
  0
LTYPE
  2
DASHDOTX2
 70
0
  3
Dash dot (2x) ____  .  ____  .  ____  .  ____
 72
65
 73
4
 40
2.4
 49
2.0
 49
-0.2
 49
0.0
 49
-0.2
  0
LTYPE
  2
CENTERX2
 70
0
  3
Center (2x) ________  __  ________  __  ________
 72
65
 73
4
 40
3.5
 49
2.5
 49
-0.25
 49
0.5
 49
-0.25
  0
LTYPE
  2
DASHED
 70
0
  3
Dashed __ __ __ __ __ __ __ __ __ __ __ __ __ _
 72
65
 73
2
 40
0.6
 49
0.5
 49
-0.1
  0
LTYPE
  2
DASHEDX2
 70
0
  3
Dashed (2x) ____  ____  ____  ____  ____  ____
 72
65
 73
2
 40
1.2
 49
1.0
 49
-0.2
  0
LTYPE
  2
PHANTOM
 70
0
  3
Phantom ______  __  __  ______  __  __  ______
 72
65
 73
6
 40
2.5
 49
1.25
 49
-0.25
 49
0.25
 49
-0.25
 49
0.25
 49
-0.25
  0
LTYPE
  2
PHANTOMX2
 70
0
  3
Phantom (2x)____________    ____    ____    ____________
 72
65
 73
6
 40
4.25
 49
2.5
 49
-0.25
 49
0.5
 49
-0.25
 49
0.5
 49
-0.25
  0
LTYPE
  2
DASHDOT2
 70
0
  3
Dash dot (.5x) _ . _ . _ . _ . _ . _ . _ . _
 72
65
 73
4
 40
0.7
 49
0.5
 49
-0.1
 49
0.0
 49
-0.1
  0
LTYPE
  2
CENTER
 70
0
  3
Center ____ _ ____ _ ____ _ ____ _ ____ _ ____
 72
65
 73
4
 40
2.0
 49
1.25
 49
-0.25
 49
0.25
 49
-0.25
  0
LTYPE
  2
DIVIDE
 70
0
  3
Divide __ . . __ . . __ . . __ . . __ . . __
 72
65
 73
6
 40
1.6
 49
1.0
 49
-0.2
 49
0.0
 49
-0.2
 49
0.0
 49
-0.2
  0
LTYPE
  2
DASHED2
 70
0
  3
Dashed (.5x) _ _ _ _ _ _ _ _ _ _ _ _ _ _
 72
65
 73
2
 40
0.3
 49
0.25
 49
-0.05
  0
LTYPE
  2
DIVIDE2
 70
0
  3
Divide(.5x) _ . _ . _ . _ . _ . _ . _ . _
 72
65
 73
6
 40
0.8
 49
0.5
 49
-0.1
 49
0.0
 49
-0.1
 49
0.0
 49
-0.1
  0
LTYPE
  2
CONTINUOUS
 70
0
  3
Solid
 72
65
 73
0
 40
0.0
  0
LTYPE
  2
DASHDOT
 70
0
  3
Dash dot __ . __ . __ . __ . __ . __ . __ . __
 72
65
 73
4
 40
1.4
 49
1.0
 49
-0.2
 49
0.0
 49
-0.2
  0
ENDTAB
  0
TABLE
  2
LAYER
 70
5
  0
LAYER
  2
TABLEGRID
 70
0
 62
1
  6
CONTINUOUS
  0
LAYER
  2
TABLECONTENT
 70
0
 62
1
  6
CONTINUOUS
  0
LAYER
  2
VIEWPORTS
 70
0
 62
7
  6
CONTINUOUS
  0
LAYER
  2
DIMENSIONS
 70
0
 62
1
  6
CONTINUOUS
  0
LAYER
  2
TABLEBACKGROUND
 70
0
 62
1
  6
CONTINUOUS
  0
ENDTAB
  0
TABLE
  2
STYLE
 70
12
  0
STYLE
  2
ARIAL
 70
0
 40
0.0
 41
1.0
 42
1.0
 50
0.0
 71
0
  3
arial.ttf
  4

  0
STYLE
  2
STANDARD
 70
0
 40
0.0
 41
1.0
 42
1.0
 50
0.0
 71
0
  3
arial.ttf
  4

  0
STYLE
  2
ARIAL_ITALIC
 70
0
 40
0.0
 41
1.0
 42
1.0
 50
0.0
 71
0
  3
ariali.ttf
  4

  0
STYLE
  2
ARIAL_BOLD
 70
0
 40
0.0
 41
1.0
 42
1.0
 50
0.0
 71
0
  3
arialbd.ttf
  4

  0
STYLE
  2
ISOCPEUR_ITALIC
 70
0
 40
0.0
 41
1.0
 42
1.0
 50
0.0
 71
0
  3
isocpeui.ttf
  4

  0
STYLE
  2
TIMES_ITALIC
 70
0
 40
0.0
 41
1.0
 42
1.0
 50
0.0
 71
0
  3
timesi.ttf
  4

  0
STYLE
  2
TIMES
 70
0
 40
0.0
 41
1.0
 42
1.0
 50
0.0
 71
0
  3
times.ttf
  4

  0
STYLE
  2
ARIAL_BOLD_ITALIC
 70
0
 40
0.0
 41
1.0
 42
1.0
 50
0.0
 71
0
  3
arialbi.ttf
  4

  0
STYLE
  2
TIMES_BOLD_ITALIC
 70
0
 40
0.0
 41
1.0
 42
1.0
 50
0.0
 71
0
  3
timesbi.ttf
  4

  0
STYLE
  2
TIMES_BOLD
 70
0
 40
0.0
 41
1.0
 42
1.0
 50
0.0
 71
0
  3
timesbd.ttf
  4

  0
STYLE
  2
ISOCPEUR
 70
0
 40
0.0
 41
1.0
 42
1.0
 50
0.0
 71
0
  3
isocpeur.ttf
  4

  0
STYLE
  2
ARIAL_BLACK
 70
0
 40
0.0
 41
1.0
 42
1.0
 50
0.0
 71
0
  3
ariblk.ttf
  4

  0
ENDTAB
  0
TABLE
  2
VIEW
 70
0
  0
ENDTAB
  0
TABLE
  2
APPID
 70
1
  0
APPID
  2
DXFWRITE
 70
0
  0
ENDTAB
  0
TABLE
  2
VPORT
 70
0
  0
ENDTAB
  0
TABLE
  2
UCS
 70
0
  0
ENDTAB
  0
ENDSEC
  0
SECTION
  2
BLOCKS
  0
ENDSEC
  0
SECTION
  2
ENTITIES
  0
VIEWPORT
  8
VIEWPORTS
 67
1
 10
0.0
 20
0.0
 30
0.0
 40
1.0
 41
1.0
 68
1
 69
1
1001
ACAD
1000
MVIEW
1002
{
1070
16
1010
0.0
1020
0.0
1030
0.0
1010
0.0
1020
0.0
1030
0.0
1040
0.0
1040
1.0
1040
0.0
1040
0.0
1040
50.0
1040
0.0
1040
0.0
1070
0
1070
100
1070
1
1070
3
1070
0
1070
0
1070
0
1070
0
1040
0.0
1040
0.0
1040
0.0
1040
0.1
1040
0.1
1040
0.1
1040
0.1
1070
0
1002
{
1002
}
1002
}
  0
POLYLINE
  6
LINE
  8
0
 66
1
 10
0.0
 20
0.0
 30
0.0
 70
8
  0
VERTEX
  8
0
 10
5.2
 20
0.0
 30
0.0
  0
VERTEX
  8
0
 10
0.381
 20
0.0
 30
0.0
  0
VERTEX
  8
0
 10
0.381
 20
3.164
 30
0.0
  0
VERTEX
  8
0
 10
2.0
 20
3.164
 30
0.0
  0
VERTEX
  8
0
 10
2.0
 20
4.1
 30
0.0
  0
VERTEX
  8
0
 10
3.78
 20
4.1
 30
0.0
  0
VERTEX
  8
0
 10
3.78
 20
6.477
 30
0.0
  0
VERTEX
  8
0
 10
1.898
 20
6.477
 30
0.0
  0
VERTEX
  8
0
 10
1.898
 20
7.0
 30
0.0
  0
VERTEX
  8
0
 10
3.18
 20
7.0
 30
0.0
  0
VERTEX
  8
0
 10
3.18
 20
9.6
 30
0.0
  0
VERTEX
  8
0
 10
1.898
 20
9.6
 30
0.0
  0
VERTEX
  8
0
 10
1.898
 20
9.6
 30
0.0
  0
VERTEX
  8
0
 10
1.9403826315142074
 20
10.472454795194556
 30
0.0
  0
VERTEX
  8
0
 10
2.0643809094263808
 20
11.350149657632539
 30
0.0
  0
VERTEX
  8
0
 10
2.2652704087908484
 20
12.23047685431957
 30
0.0
  0
VERTEX
  8
0
 10
2.5383267046619373
 20
13.110828652261263
 30
0.0
  0
VERTEX
  8
0
 10
2.8788253720939774
 20
13.988597318463244
 30
0.0
  0
VERTEX
  8
0
 10
3.2820419861412935
 20
14.861175119931119
 30
0.0
  0
VERTEX
  8
0
 10
3.7432521218582138
 20
15.725954323670503
 30
0.0
  0
VERTEX
  8
0
 10
4.257731354299069
 20
16.580327196687033
 30
0.0
  0
VERTEX
  8
0
 10
4.820755258518186
 20
17.421686005986306
 30
0.0
  0
VERTEX
  8
0
 10
5.427599409569888
 20
18.247423018573947
 30
0.0
  0
VERTEX
  8
0
 10
6.073539382508508
 20
19.054930501455573
 30
0.0
  0
VERTEX
  8
0
 10
6.753850752388374
 20
19.84160072163681
 30
0.0
  0
VERTEX
  8
0
 10
7.463809094263809
 20
20.604825946123253
 30
0.0
  0
VERTEX
  8
0
 10
8.19868998318914
 20
21.341998441920534
 30
0.0
  0
VERTEX
  8
0
 10
8.953768994218706
 20
22.05051047603428
 30
0.0
  0
VERTEX
  8
0
 10
9.724321702406822
 20
22.727754315470087
 30
0.0
  0
VERTEX
  8
0
 10
10.505623682807823
 20
23.371122227233585
 30
0.0
  0
VERTEX
  8
0
 10
11.292950510476034
 20
23.978006478330393
 30
0.0
  0
VERTEX
  8
0
 10
12.081577760465784
 20
24.545799335766123
 30
0.0
  0
VERTEX
  8
0
 10
12.866781007831399
 20
25.071893066546394
 30
0.0
  0
VERTEX
  8
0
 10
13.64383582762721
 20
25.553679937676826
 30
0.0
  0
VERTEX
  8
0
 10
14.40801779490754
 20
25.988552216163022
 30
0.0
  0
VERTEX
  8
0
 10
15.154602484726722
 20
26.37390216901062
 30
0.0
  0
VERTEX
  8
0
 10
15.87886547213908
 20
26.707122063225228
 30
0.0
  0
VERTEX
  8
0
 10
16.57608233219894
 20
26.985604165812454
 30
0.0
  0
VERTEX
  8
0
 10
17.241528639960638
 20
27.206740743777935
 30
0.0
  0
VERTEX
  8
0
 10
17.870479970478495
 20
27.36792406412727
 30
0.0
  0
VERTEX
  8
0
 10
18.458211898806837
 20
27.466546393866086
 30
0.0
  0
VERTEX
  8
0
 10
19.0
 20
27.5
 30
0.0
  0
VERTEX
  8
0
 10
19.0
 20
27.5
 30
0.0
  0
VERTEX
  8
0
 10
19.203329369797864
 20
27.4947312312928
 30
0.0
  0
VERTEX
  8
0
 10
19.399524375743162
 20
27.479252941900036
 30
0.0
  0
VERTEX
  8
0
 10
19.588585017835914
 20
27.45405715691501
 30
0.0
  0
VERTEX
  8
0
 10
19.770511296076098
 20
27.41963590143097
 30
0.0
  0
VERTEX
  8
0
 10
19.945303210463738
 20
27.376481200541228
 30
0.0
  0
VERTEX
  8
0
 10
20.112960760998813
 20
27.32508507933905
 30
0.0
  0
VERTEX
  8
0
 10
20.273483947681324
 20
27.265939562917705
 30
0.0
  0
VERTEX
  8
0
 10
20.426872770511295
 20
27.199536676370496
 30
0.0
  0
VERTEX
  8
0
 10
20.57312722948871
 20
27.126368444790693
 30
0.0
  0
VERTEX
  8
0
 10
20.712247324613553
 20
27.046926893271554
 30
0.0
  0
VERTEX
  8
0
 10
20.84423305588585
 20
26.961704046906394
 30
0.0
  0
VERTEX
  8
0
 10
20.969084423305592
 20
26.871191930788473
 30
0.0
  0
VERTEX
  8
0
 10
21.08680142687277
 20
26.77588257001107
 30
0.0
  0
VERTEX
  8
0
 10
21.197384066587396
 20
26.676267989667473
 30
0.0
  0
VERTEX
  8
0
 10
21.300832342449468
 20
26.57284021485096
 30
0.0
  0
VERTEX
  8
0
 10
21.397146254458974
 20
26.466091270654807
 30
0.0
  0
VERTEX
  8
0
 10
21.48632580261593
 20
26.356513182172293
 30
0.0
  0
VERTEX
  8
0
 10
21.568370986920332
 20
26.244597974496696
 30
0.0
  0
VERTEX
  8
0
 10
21.643281807372176
 20
26.13083767272131
 30
0.0
  0
VERTEX
  8
0
 10
21.711058263971463
 20
26.015724301939397
 30
0.0
  0
VERTEX
  8
0
 10
21.771700356718195
 20
25.899749887244248
 30
0.0
  0
VERTEX
  8
0
 10
21.825208085612367
 20
25.783406453729143
 30
0.0
  0
VERTEX
  8
0
 10
21.871581450653984
 20
25.66718602648735
 30
0.0
  0
VERTEX
  8
0
 10
21.910820451843044
 20
25.551580630612165
 30
0.0
  0
VERTEX
  8
0
 10
21.942925089179546
 20
25.43708229119685
 30
0.0
  0
VERTEX
  8
0
 10
21.967895362663498
 20
25.324183033334698
 30
0.0
  0
VERTEX
  8
0
 10
21.98573127229489
 20
25.213374882118988
 30
0.0
  0
VERTEX
  8
0
 10
21.99643281807372
 20
25.105149862642996
 30
0.0
  0
VERTEX
  8
0
 10
22.0
 20
25.0
 30
0.0
  0
VERTEX
  8
0
 10
22.0
 20
25.0
 30
0.0
  0
VERTEX
  8
0
 10
21.908149036409423
 20
24.688043561089636
 30
0.0
  0
VERTEX
  8
0
 10
21.645631475837845
 20
24.43116302260785
 30
0.0
  0
VERTEX
  8
0
 10
21.231831117798425
 20
24.214499636270986
 30
0.0
  0
VERTEX
  8
0
 10
20.68584625853968
 20
24.02459876821137
 30
0.0
  0
VERTEX
  8
0
 10
20.0264148049434
 20
23.849263637059046
 30
0.0
  0
VERTEX
  8
0
 10
19.271839388422368
 20
23.67740905202337
 30
0.0
  0
VERTEX
  8
0
 10
18.439912478818226
 20
23.498915150974714
 30
0.0
  0
VERTEX
  8
0
 10
17.54784149829929
 20
23.30448113852617
 30
0.0
  0
VERTEX
  8
0
 10
16.612173935258333
 20
23.085479024115138
 30
0.0
  0
VERTEX
  8
0
 10
15.64872245821041
 20
22.833807360084993
 30
0.0
  0
VERTEX
  8
0
 10
14.672490029690685
 20
22.54174497976686
 30
0.0
  0
VERTEX
  8
0
 10
13.697595020152216
 20
22.20180473556114
 30
0.0
  0
VERTEX
  8
0
 10
12.737196321863781
 20
21.80658723701924
 30
0.0
  0
VERTEX
  8
0
 10
11.803418462807718
 20
21.34863458892527
 30
0.0
  0
VERTEX
  8
0
 10
10.907276720577672
 20
20.820284129377633
 30
0.0
  0
VERTEX
  8
0
 10
10.058602236276478
 20
20.21352216787075
 30
0.0
  0
VERTEX
  8
0
 10
9.26596712841392
 20
19.51983772337669
 30
0.0
  0
VERTEX
  8
0
 10
8.536609606804573
 20
18.730076262426838
 30
0.0
  0
VERTEX
  8
0
 10
7.87635908646561
 20
17.834293437193597
 30
0.0
  0
VERTEX
  8
0
 10
7.289561301514604
 20
16.821608823572
 30
0.0
  0
VERTEX
  8
0
 10
6.779003419067357
 20
15.680059659261408
 30
0.0
  0
VERTEX
  8
0
 10
6.345839153135692
 20
14.396454581847172
 30
0.0
  0
VERTEX
  8
0
 10
5.989513878525284
 20
12.956227366882274
 30
0.0
  0
VERTEX
  8
0
 10
5.707689744733463
 20
11.343290665969032
 30
0.0
  0
VERTEX
  8
0
 10
5.4961707898470245
 20
9.539889744840725
 30
0.0
  0
VERTEX
  8
0
 10
5.348828054440051
 20
7.526456221443273
 30
0.0
  0
VERTEX
  8
0
 10
5.257524695471716
 20
5.28146180401693
 30
0.0
  0
VERTEX
  8
0
 10
5.2120411001841
 20
2.781272029177893
 30
0.0
  0
VERTEX
  8
0
 10
5.2
 20
0.0
 30
0.0
  0
SEQEND
  0
ENDSEC
  0
EOF
