  0
SECTION
  2
HEADER
  9
$ANGDIR
 70
0
  9
$INSBASE
 10
0.0
 20
0.0
 30
0.0
  9
$EXTMIN
 10
0.0
 20
0.0
 30
0.0
  9
$UNITMODE
 70
0
  9
$ACADVER
  1
AC1009
  9
$EXTMAX
 10
100.0
 20
100.0
 30
0.0
  9
$ANGBASE
 50
0.0
  9
$AUNITS
 70
0
  0
ENDSEC
  0
SECTION
  2
TABLES
  0
TABLE
  2
LTYPE
 70
19
  0
LTYPE
  2
DASHDOT2
 70
0
  3
Dash dot (.5x) _ . _ . _ . _ . _ . _ . _ . _
 72
65
 73
4
 40
0.7
 49
0.5
 49
-0.1
 49
0.0
 49
-0.1
  0
LTYPE
  2
DOT2
 70
0
  3
Dot (.5) . . . . . . . . . . . . . . . . . . . 
 72
65
 73
2
 40
0.1
 49
0.0
 49
-0.1
  0
LTYPE
  2
DIVIDE2
 70
0
  3
Divide(.5x) _ . _ . _ . _ . _ . _ . _ . _
 72
65
 73
6
 40
0.8
 49
0.5
 49
-0.1
 49
0.0
 49
-0.1
 49
0.0
 49
-0.1
  0
LTYPE
  2
DOT
 70
0
  3
Dot .  .  .  .  .  .  .  .  .  .  .  .  .  .  .  .
 72
65
 73
2
 40
0.2
 49
0.0
 49
-0.2
  0
LTYPE
  2
CENTERX2
 70
0
  3
Center (2x) ________  __  ________  __  ________
 72
65
 73
4
 40
3.5
 49
2.5
 49
-0.25
 49
0.5
 49
-0.25
  0
LTYPE
  2
DIVIDE
 70
0
  3
Divide __ . . __ . . __ . . __ . . __ . . __
 72
65
 73
6
 40
1.6
 49
1.0
 49
-0.2
 49
0.0
 49
-0.2
 49
0.0
 49
-0.2
  0
LTYPE
  2
DASHDOT
 70
0
  3
Dash dot __ . __ . __ . __ . __ . __ . __ . __
 72
65
 73
4
 40
1.4
 49
1.0
 49
-0.2
 49
0.0
 49
-0.2
  0
LTYPE
  2
CENTER2
 70
0
  3
Center (.5x) ____ _ ____ _ ____ _ ____ _ ____
 72
65
 73
4
 40
1.0
 49
0.625
 49
-0.125
 49
0.125
 49
-0.125
  0
LTYPE
  2
DASHDOTX2
 70
0
  3
Dash dot (2x) ____  .  ____  .  ____  .  ____
 72
65
 73
4
 40
2.4
 49
2.0
 49
-0.2
 49
0.0
 49
-0.2
  0
LTYPE
  2
PHANTOM
 70
0
  3
Phantom ______  __  __  ______  __  __  ______
 72
65
 73
6
 40
2.5
 49
1.25
 49
-0.25
 49
0.25
 49
-0.25
 49
0.25
 49
-0.25
  0
LTYPE
  2
DOTX2
 70
0
  3
Dot (2x) .    .    .    .    .    .    .    . 
 72
65
 73
2
 40
0.4
 49
0.0
 49
-0.4
  0
LTYPE
  2
PHANTOMX2
 70
0
  3
Phantom (2x)____________    ____    ____    ____________
 72
65
 73
6
 40
4.25
 49
2.5
 49
-0.25
 49
0.5
 49
-0.25
 49
0.5
 49
-0.25
  0
LTYPE
  2
DASHED2
 70
0
  3
Dashed (.5x) _ _ _ _ _ _ _ _ _ _ _ _ _ _
 72
65
 73
2
 40
0.3
 49
0.25
 49
-0.05
  0
LTYPE
  2
PHANTOM2
 70
0
  3
Phantom (.5x) ___ _ _ ___ _ _ ___ _ _ ___ _ _ ___
 72
65
 73
6
 40
1.25
 49
0.625
 49
-0.125
 49
0.125
 49
-0.125
 49
0.125
 49
-0.125
  0
LTYPE
  2
DASHED
 70
0
  3
Dashed __ __ __ __ __ __ __ __ __ __ __ __ __ _
 72
65
 73
2
 40
0.6
 49
0.5
 49
-0.1
  0
LTYPE
  2
DIVIDEX2
 70
0
  3
Divide (2x) ____  . .  ____  . .  ____  . .  ____
 72
65
 73
6
 40
2.6
 49
2.0
 49
-0.2
 49
0.0
 49
-0.2
 49
0.0
 49
-0.2
  0
LTYPE
  2
DASHEDX2
 70
0
  3
Dashed (2x) ____  ____  ____  ____  ____  ____
 72
65
 73
2
 40
1.2
 49
1.0
 49
-0.2
  0
LTYPE
  2
CONTINUOUS
 70
0
  3
Solid
 72
65
 73
0
 40
0.0
  0
LTYPE
  2
CENTER
 70
0
  3
Center ____ _ ____ _ ____ _ ____ _ ____ _ ____
 72
65
 73
4
 40
2.0
 49
1.25
 49
-0.25
 49
0.25
 49
-0.25
  0
ENDTAB
  0
TABLE
  2
LAYER
 70
5
  0
LAYER
  2
VIEWPORTS
 70
0
 62
7
  6
CONTINUOUS
  0
LAYER
  2
TABLECONTENT
 70
0
 62
1
  6
CONTINUOUS
  0
LAYER
  2
TABLEBACKGROUND
 70
0
 62
1
  6
CONTINUOUS
  0
LAYER
  2
DIMENSIONS
 70
0
 62
1
  6
CONTINUOUS
  0
LAYER
  2
TABLEGRID
 70
0
 62
1
  6
CONTINUOUS
  0
ENDTAB
  0
TABLE
  2
STYLE
 70
12
  0
STYLE
  2
TIMES_BOLD
 70
0
 40
0.0
 41
1.0
 42
1.0
 50
0.0
 71
0
  3
timesbd.ttf
  4

  0
STYLE
  2
ARIAL_BLACK
 70
0
 40
0.0
 41
1.0
 42
1.0
 50
0.0
 71
0
  3
ariblk.ttf
  4

  0
STYLE
  2
TIMES_BOLD_ITALIC
 70
0
 40
0.0
 41
1.0
 42
1.0
 50
0.0
 71
0
  3
timesbi.ttf
  4

  0
STYLE
  2
ISOCPEUR_ITALIC
 70
0
 40
0.0
 41
1.0
 42
1.0
 50
0.0
 71
0
  3
isocpeui.ttf
  4

  0
STYLE
  2
ARIAL_BOLD_ITALIC
 70
0
 40
0.0
 41
1.0
 42
1.0
 50
0.0
 71
0
  3
arialbi.ttf
  4

  0
STYLE
  2
TIMES
 70
0
 40
0.0
 41
1.0
 42
1.0
 50
0.0
 71
0
  3
times.ttf
  4

  0
STYLE
  2
STANDARD
 70
0
 40
0.0
 41
1.0
 42
1.0
 50
0.0
 71
0
  3
arial.ttf
  4

  0
STYLE
  2
ISOCPEUR
 70
0
 40
0.0
 41
1.0
 42
1.0
 50
0.0
 71
0
  3
isocpeur.ttf
  4

  0
STYLE
  2
ARIAL
 70
0
 40
0.0
 41
1.0
 42
1.0
 50
0.0
 71
0
  3
arial.ttf
  4

  0
STYLE
  2
TIMES_ITALIC
 70
0
 40
0.0
 41
1.0
 42
1.0
 50
0.0
 71
0
  3
timesi.ttf
  4

  0
STYLE
  2
ARIAL_ITALIC
 70
0
 40
0.0
 41
1.0
 42
1.0
 50
0.0
 71
0
  3
ariali.ttf
  4

  0
STYLE
  2
ARIAL_BOLD
 70
0
 40
0.0
 41
1.0
 42
1.0
 50
0.0
 71
0
  3
arialbd.ttf
  4

  0
ENDTAB
  0
TABLE
  2
VIEW
 70
0
  0
ENDTAB
  0
TABLE
  2
APPID
 70
1
  0
APPID
  2
DXFWRITE
 70
0
  0
ENDTAB
  0
TABLE
  2
VPORT
 70
0
  0
ENDTAB
  0
TABLE
  2
UCS
 70
0
  0
ENDTAB
  0
ENDSEC
  0
SECTION
  2
BLOCKS
  0
ENDSEC
  0
SECTION
  2
ENTITIES
  0
VIEWPORT
  8
VIEWPORTS
 67
1
 10
0.0
 20
0.0
 30
0.0
 40
1.0
 41
1.0
 68
1
 69
1
1001
ACAD
1000
MVIEW
1002
{
1070
16
1010
0.0
1020
0.0
1030
0.0
1010
0.0
1020
0.0
1030
0.0
1040
0.0
1040
1.0
1040
0.0
1040
0.0
1040
50.0
1040
0.0
1040
0.0
1070
0
1070
100
1070
1
1070
3
1070
0
1070
0
1070
0
1070
0
1040
0.0
1040
0.0
1040
0.0
1040
0.1
1040
0.1
1040
0.1
1040
0.1
1070
0
1002
{
1002
}
1002
}
  0
POLYLINE
  6
LINE
  8
0
 66
1
 10
0.0
 20
0.0
 30
0.0
 70
8
  0
VERTEX
  8
0
 10
5.2
 20
0.0
 30
0.0
  0
VERTEX
  8
0
 10
0.381
 20
0.0
 30
0.0
  0
VERTEX
  8
0
 10
0.381
 20
3.164
 30
0.0
  0
VERTEX
  8
0
 10
2.0
 20
3.164
 30
0.0
  0
VERTEX
  8
0
 10
2.0
 20
4.1
 30
0.0
  0
VERTEX
  8
0
 10
3.78
 20
4.1
 30
0.0
  0
VERTEX
  8
0
 10
3.78
 20
6.477
 30
0.0
  0
VERTEX
  8
0
 10
1.898
 20
6.477
 30
0.0
  0
VERTEX
  8
0
 10
1.898
 20
7.0
 30
0.0
  0
VERTEX
  8
0
 10
3.18
 20
7.0
 30
0.0
  0
VERTEX
  8
0
 10
3.18
 20
9.6
 30
0.0
  0
VERTEX
  8
0
 10
1.898
 20
9.6
 30
0.0
  0
VERTEX
  8
0
 10
1.898
 20
9.6
 30
0.0
  0
VERTEX
  8
0
 10
1.9129579681935245
 20
10.115570043094285
 30
0.0
  0
VERTEX
  8
0
 10
1.957178947547365
 20
10.633348349752229
 30
0.0
  0
VERTEX
  8
0
 10
2.0296835502214217
 20
11.152794328893574
 30
0.0
  0
VERTEX
  8
0
 10
2.129492388375592
 20
11.673367389438074
 30
0.0
  0
VERTEX
  8
0
 10
2.2556260741697765
 20
12.194526940305485
 30
0.0
  0
VERTEX
  8
0
 10
2.407105219763874
 20
12.715732390415557
 30
0.0
  0
VERTEX
  8
0
 10
2.5829504373177845
 20
13.23644314868805
 30
0.0
  0
VERTEX
  8
0
 10
2.7821823389914067
 20
13.756118624042704
 30
0.0
  0
VERTEX
  8
0
 10
3.0038215369446397
 20
14.27421822539928
 30
0.0
  0
VERTEX
  8
0
 10
3.246888643337384
 20
14.79020136167753
 30
0.0
  0
VERTEX
  8
0
 10
3.5104042703295386
 20
15.303527441797206
 30
0.0
  0
VERTEX
  8
0
 10
3.793389030081003
 20
15.813655874678066
 30
0.0
  0
VERTEX
  8
0
 10
4.094863534751675
 20
16.320046069239854
 30
0.0
  0
VERTEX
  8
0
 10
4.413848396501458
 20
16.82215743440233
 30
0.0
  0
VERTEX
  8
0
 10
4.749364227490247
 20
17.31944937908525
 30
0.0
  0
VERTEX
  8
0
 10
5.100431639877941
 20
17.81138131220835
 30
0.0
  0
VERTEX
  8
0
 10
5.466071245824444
 20
18.2974126426914
 30
0.0
  0
VERTEX
  8
0
 10
5.845303657489651
 20
18.777002779454136
 30
0.0
  0
VERTEX
  8
0
 10
6.237149487033464
 20
19.24961113141633
 30
0.0
  0
VERTEX
  8
0
 10
6.640629346615779
 20
19.714697107497724
 30
0.0
  0
VERTEX
  8
0
 10
7.0547638483965
 20
20.171720116618076
 30
0.0
  0
VERTEX
  8
0
 10
7.478573604535524
 20
20.620139567697134
 30
0.0
  0
VERTEX
  8
0
 10
7.91107922719275
 20
21.05941486965465
 30
0.0
  0
VERTEX
  8
0
 10
8.35130132852808
 20
21.48900543141038
 30
0.0
  0
VERTEX
  8
0
 10
8.798260520701408
 20
21.90837066188408
 30
0.0
  0
VERTEX
  8
0
 10
9.250977415872635
 20
22.31696996999549
 30
0.0
  0
VERTEX
  8
0
 10
9.708472626201667
 20
22.714262764664383
 30
0.0
  0
VERTEX
  8
0
 10
10.169766763848395
 20
23.099708454810497
 30
0.0
  0
VERTEX
  8
0
 10
10.633880440972725
 20
23.472766449353585
 30
0.0
  0
VERTEX
  8
0
 10
11.099834269734549
 20
23.832896157213405
 30
0.0
  0
VERTEX
  8
0
 10
11.566648862293771
 20
24.17955698730971
 30
0.0
  0
VERTEX
  8
0
 10
12.03334483081029
 20
24.512208348562247
 30
0.0
  0
VERTEX
  8
0
 10
12.498942787444008
 20
24.830309649890776
 30
0.0
  0
VERTEX
  8
0
 10
12.962463344354818
 20
25.133320300215047
 30
0.0
  0
VERTEX
  8
0
 10
13.422927113702622
 20
25.420699708454812
 30
0.0
  0
VERTEX
  8
0
 10
13.879354707647321
 20
25.691907283529822
 30
0.0
  0
VERTEX
  8
0
 10
14.330766738348816
 20
25.946402434359833
 30
0.0
  0
VERTEX
  8
0
 10
14.776183817967004
 20
26.183644569864597
 30
0.0
  0
VERTEX
  8
0
 10
15.21462655866178
 20
26.40309309896387
 30
0.0
  0
VERTEX
  8
0
 10
15.645115572593049
 20
26.604207430577397
 30
0.0
  0
VERTEX
  8
0
 10
16.066671471920714
 20
26.786446973624937
 30
0.0
  0
VERTEX
  8
0
 10
16.478314868804667
 20
26.94927113702624
 30
0.0
  0
VERTEX
  8
0
 10
16.879066375404804
 20
27.09213932970106
 30
0.0
  0
VERTEX
  8
0
 10
17.267946603881033
 20
27.21451096056915
 30
0.0
  0
VERTEX
  8
0
 10
17.64397616639325
 20
27.315845438550266
 30
0.0
  0
VERTEX
  8
0
 10
18.00617567510136
 20
27.395602172564153
 30
0.0
  0
VERTEX
  8
0
 10
18.353565742165255
 20
27.453240571530568
 30
0.0
  0
VERTEX
  8
0
 10
18.685166979744835
 20
27.488220044369267
 30
0.0
  0
VERTEX
  8
0
 10
19.0
 20
27.5
 30
0.0
  0
VERTEX
  8
0
 10
19.0
 20
27.5
 30
0.0
  0
VERTEX
  8
0
 10
19.121199500208245
 20
27.49814278064412
 30
0.0
  0
VERTEX
  8
0
 10
19.23990004164931
 20
27.492639121454488
 30
0.0
  0
VERTEX
  8
0
 10
19.356101624323202
 20
27.48359102074816
 30
0.0
  0
VERTEX
  8
0
 10
19.46980424822991
 20
27.47110047684213
 30
0.0
  0
VERTEX
  8
0
 10
19.58100791336943
 20
27.45526948805345
 30
0.0
  0
VERTEX
  8
0
 10
19.689712619741773
 20
27.436200052699128
 30
0.0
  0
VERTEX
  8
0
 10
19.79591836734694
 20
27.413994169096217
 30
0.0
  0
VERTEX
  8
0
 10
19.899625156184925
 20
27.388753835561715
 30
0.0
  0
VERTEX
  8
0
 10
20.00083298625573
 20
27.36058105041267
 30
0.0
  0
VERTEX
  8
0
 10
20.09954185755935
 20
27.3295778119661
 30
0.0
  0
VERTEX
  8
0
 10
20.195751770095793
 20
27.29584611853904
 30
0.0
  0
VERTEX
  8
0
 10
20.28946272386505
 20
27.259487968448518
 30
0.0
  0
VERTEX
  8
0
 10
20.38067471886714
 20
27.220605360011557
 30
0.0
  0
VERTEX
  8
0
 10
20.46938775510204
 20
27.17930029154519
 30
0.0
  0
VERTEX
  8
0
 10
20.55560183256977
 20
27.13567476136644
 30
0.0
  0
VERTEX
  8
0
 10
20.639316951270306
 20
27.089830767792336
 30
0.0
  0
VERTEX
  8
0
 10
20.72053311120367
 20
27.041870309139902
 30
0.0
  0
VERTEX
  8
0
 10
20.799250312369846
 20
26.991895383726167
 30
0.0
  0
VERTEX
  8
0
 10
20.875468554768847
 20
26.940007989868164
 30
0.0
  0
VERTEX
  8
0
 10
20.949187838400665
 20
26.886310125882922
 30
0.0
  0
VERTEX
  8
0
 10
21.0204081632653
 20
26.830903790087458
 30
0.0
  0
VERTEX
  8
0
 10
21.089129529362765
 20
26.773890980798818
 30
0.0
  0
VERTEX
  8
0
 10
21.155351936693044
 20
26.715373696334012
 30
0.0
  0
VERTEX
  8
0
 10
21.21907538525614
 20
26.65545393501007
 30
0.0
  0
VERTEX
  8
0
 10
21.280299875052062
 20
26.59423369514403
 30
0.0
  0
VERTEX
  8
0
 10
21.339025406080797
 20
26.53181497505291
 30
0.0
  0
VERTEX
  8
0
 10
21.39525197834236
 20
26.468299773053744
 30
0.0
  0
VERTEX
  8
0
 10
21.448979591836736
 20
26.403790087463562
 30
0.0
  0
VERTEX
  8
0
 10
21.500208246563933
 20
26.338387916599377
 30
0.0
  0
VERTEX
  8
0
 10
21.54893794252395
 20
26.272195258778233
 30
0.0
  0
VERTEX
  8
0
 10
21.595168679716785
 20
26.205314112317147
 30
0.0
  0
VERTEX
  8
0
 10
21.63890045814244
 20
26.137846475533152
 30
0.0
  0
VERTEX
  8
0
 10
21.680133277800916
 20
26.06989434674328
 30
0.0
  0
VERTEX
  8
0
 10
21.71886713869221
 20
26.001559724264553
 30
0.0
  0
VERTEX
  8
0
 10
21.755102040816325
 20
25.932944606413994
 30
0.0
  0
VERTEX
  8
0
 10
21.78883798417326
 20
25.864150991508637
 30
0.0
  0
VERTEX
  8
0
 10
21.820074968763016
 20
25.795280877865515
 30
0.0
  0
VERTEX
  8
0
 10
21.84881299458559
 20
25.726436263801645
 30
0.0
  0
VERTEX
  8
0
 10
21.875052061640986
 20
25.657719147634065
 30
0.0
  0
VERTEX
  8
0
 10
21.898792169929195
 20
25.589231527679793
 30
0.0
  0
VERTEX
  8
0
 10
21.920033319450233
 20
25.521075402255864
 30
0.0
  0
VERTEX
  8
0
 10
21.93877551020408
 20
25.453352769679302
 30
0.0
  0
VERTEX
  8
0
 10
21.955018742190752
 20
25.386165628267133
 30
0.0
  0
VERTEX
  8
0
 10
21.968763015410246
 20
25.319615976336387
 30
0.0
  0
VERTEX
  8
0
 10
21.980008329862557
 20
25.2538058122041
 30
0.0
  0
VERTEX
  8
0
 10
21.98875468554769
 20
25.18883713418729
 30
0.0
  0
VERTEX
  8
0
 10
21.99500208246564
 20
25.12481194060298
 30
0.0
  0
VERTEX
  8
0
 10
21.99875052061641
 20
25.061832229768207
 30
0.0
  0
VERTEX
  8
0
 10
22.0
 20
25.0
 30
0.0
  0
VERTEX
  8
0
 10
22.0
 20
25.0
 30
0.0
  0
VERTEX
  8
0
 10
21.967359799371305
 20
24.807826755823125
 30
0.0
  0
VERTEX
  8
0
 10
21.872149557429008
 20
24.63719192969009
 30
0.0
  0
VERTEX
  8
0
 10
21.71841743061886
 20
24.484824544751536
 30
0.0
  0
VERTEX
  8
0
 10
21.51018404731099
 20
24.347640543189684
 30
0.0
  0
VERTEX
  8
0
 10
21.251437070155482
 20
24.222732165818886
 30
0.0
  0
VERTEX
  8
0
 10
20.946125758437688
 20
24.107357331686075
 30
0.0
  0
VERTEX
  8
0
 10
20.59815553043375
 20
23.998929017671212
 30
0.0
  0
VERTEX
  8
0
 10
20.211382525766002
 20
23.895004638087784
 30
0.0
  0
VERTEX
  8
0
 10
19.78960816775844
 20
23.79327542428328
 30
0.0
  0
VERTEX
  8
0
 10
19.336573725792167
 20
23.69155580423968
 30
0.0
  0
VERTEX
  8
0
 10
18.855954877660796
 20
23.58777278217391
 30
0.0
  0
VERTEX
  8
0
 10
18.351356271925965
 20
23.47995531813833
 30
0.0
  0
VERTEX
  8
0
 10
17.826306090272713
 20
23.366223707621195
 30
0.0
  0
VERTEX
  8
0
 10
17.28425060986494
 20
23.24477896114714
 30
0.0
  0
VERTEX
  8
0
 10
16.72854876570089
 20
23.113892183877685
 30
0.0
  0
VERTEX
  8
0
 10
16.162466712968545
 20
22.971893955211637
 30
0.0
  0
VERTEX
  8
0
 10
15.589172389401101
 20
22.817163708385657
 30
0.0
  0
VERTEX
  8
0
 10
15.011730077632398
 20
22.64811911007467
 30
0.0
  0
VERTEX
  8
0
 10
14.433094967552362
 20
22.46320543999237
 30
0.0
  0
VERTEX
  8
0
 10
13.856107718662455
 20
22.260884970491688
 30
0.0
  0
VERTEX
  8
0
 10
13.283489022431127
 20
22.03962634616528
 30
0.0
  0
VERTEX
  8
0
 10
12.717834164649238
 20
21.797893963445983
 30
0.0
  0
VERTEX
  8
0
 10
12.161607587785507
 20
21.53413735020727
 30
0.0
  0
VERTEX
  8
0
 10
11.617137453341975
 20
21.246780545363816
 30
0.0
  0
VERTEX
  8
0
 10
11.086610204209428
 20
20.934211478471873
 30
0.0
  0
VERTEX
  8
0
 10
10.572065127022865
 20
20.594771349329797
 30
0.0
  0
VERTEX
  8
0
 10
10.075388914516898
 20
20.22674400757852
 30
0.0
  0
VERTEX
  8
0
 10
9.59831022788124
 20
19.828345332302018
 30
0.0
  0
VERTEX
  8
0
 10
9.142394259116132
 20
19.39771261162779
 30
0.0
  0
VERTEX
  8
0
 10
8.709037293387786
 20
18.932893922327334
 30
0.0
  0
VERTEX
  8
0
 10
8.29946127138382
 20
18.431837509416624
 30
0.0
  0
VERTEX
  8
0
 10
7.9147083516687164
 20
17.892381165756582
 30
0.0
  0
VERTEX
  8
0
 10
7.55563547303927
 20
17.31224161165356
 30
0.0
  0
VERTEX
  8
0
 10
7.222908916880005
 20
16.68900387445981
 30
0.0
  0
VERTEX
  8
0
 10
6.916998869518655
 20
16.020110668173977
 30
0.0
  0
VERTEX
  8
0
 10
6.6381739845815675
 20
15.302851773041542
 30
0.0
  0
VERTEX
  8
0
 10
6.38649594534918
 20
14.534353415155325
 30
0.0
  0
VERTEX
  8
0
 10
6.161814027111451
 20
13.711567646055958
 30
0.0
  0
VERTEX
  8
0
 10
5.963759659523303
 20
12.831261722332357
 30
0.0
  0
VERTEX
  8
0
 10
5.791740988960064
 20
11.890007485222188
 30
0.0
  0
VERTEX
  8
0
 10
5.644937440872917
 20
10.88417074021236
 30
0.0
  0
VERTEX
  8
0
 10
5.522294282144346
 20
9.809900636639497
 30
0.0
  0
VERTEX
  8
0
 10
5.422517183443567
 20
8.663119047290406
 30
0.0
  0
VERTEX
  8
0
 10
5.3440667815819864
 20
7.4395099480025655
 30
0.0
  0
VERTEX
  8
0
 10
5.2851532418686356
 20
6.134508797264576
 30
0.0
  0
VERTEX
  8
0
 10
5.243730820465619
 20
4.7432919158166715
 30
0.0
  0
VERTEX
  8
0
 10
5.217492426743556
 20
3.260765866251173
 30
0.0
  0
VERTEX
  8
0
 10
5.2038641856370225
 20
1.6815568326129717
 30
0.0
  0
VERTEX
  8
0
 10
5.2
 20
0.0
 30
0.0
  0
SEQEND
  0
ENDSEC
  0
EOF
