  0
SECTION
  2
HEADER
  9
$ACADVER
  1
AC1009
  9
$UNITMODE
 70
0
  9
$EXTMIN
 10
0.0
 20
0.0
 30
0.0
  9
$AUNITS
 70
0
  9
$ANGDIR
 70
0
  9
$INSBASE
 10
0.0
 20
0.0
 30
0.0
  9
$EXTMAX
 10
100.0
 20
100.0
 30
0.0
  9
$ANGBASE
 50
0.0
  0
ENDSEC
  0
SECTION
  2
TABLES
  0
TABLE
  2
LTYPE
 70
19
  0
LTYPE
  2
PHANTOM
 70
0
  3
Phantom ______  __  __  ______  __  __  ______
 72
65
 73
6
 40
2.5
 49
1.25
 49
-0.25
 49
0.25
 49
-0.25
 49
0.25
 49
-0.25
  0
LTYPE
  2
CENTER
 70
0
  3
Center ____ _ ____ _ ____ _ ____ _ ____ _ ____
 72
65
 73
4
 40
2.0
 49
1.25
 49
-0.25
 49
0.25
 49
-0.25
  0
LTYPE
  2
DOT2
 70
0
  3
Dot (.5) . . . . . . . . . . . . . . . . . . . 
 72
65
 73
2
 40
0.1
 49
0.0
 49
-0.1
  0
LTYPE
  2
PHANTOM2
 70
0
  3
Phantom (.5x) ___ _ _ ___ _ _ ___ _ _ ___ _ _ ___
 72
65
 73
6
 40
1.25
 49
0.625
 49
-0.125
 49
0.125
 49
-0.125
 49
0.125
 49
-0.125
  0
LTYPE
  2
DASHEDX2
 70
0
  3
Dashed (2x) ____  ____  ____  ____  ____  ____
 72
65
 73
2
 40
1.2
 49
1.0
 49
-0.2
  0
LTYPE
  2
CENTERX2
 70
0
  3
Center (2x) ________  __  ________  __  ________
 72
65
 73
4
 40
3.5
 49
2.5
 49
-0.25
 49
0.5
 49
-0.25
  0
LTYPE
  2
DASHED2
 70
0
  3
Dashed (.5x) _ _ _ _ _ _ _ _ _ _ _ _ _ _
 72
65
 73
2
 40
0.3
 49
0.25
 49
-0.05
  0
LTYPE
  2
CONTINUOUS
 70
0
  3
Solid
 72
65
 73
0
 40
0.0
  0
LTYPE
  2
DASHED
 70
0
  3
Dashed __ __ __ __ __ __ __ __ __ __ __ __ __ _
 72
65
 73
2
 40
0.6
 49
0.5
 49
-0.1
  0
LTYPE
  2
DIVIDE2
 70
0
  3
Divide(.5x) _ . _ . _ . _ . _ . _ . _ . _
 72
65
 73
6
 40
0.8
 49
0.5
 49
-0.1
 49
0.0
 49
-0.1
 49
0.0
 49
-0.1
  0
LTYPE
  2
DASHDOT
 70
0
  3
Dash dot __ . __ . __ . __ . __ . __ . __ . __
 72
65
 73
4
 40
1.4
 49
1.0
 49
-0.2
 49
0.0
 49
-0.2
  0
LTYPE
  2
DOT
 70
0
  3
Dot .  .  .  .  .  .  .  .  .  .  .  .  .  .  .  .
 72
65
 73
2
 40
0.2
 49
0.0
 49
-0.2
  0
LTYPE
  2
CENTER2
 70
0
  3
Center (.5x) ____ _ ____ _ ____ _ ____ _ ____
 72
65
 73
4
 40
1.0
 49
0.625
 49
-0.125
 49
0.125
 49
-0.125
  0
LTYPE
  2
DIVIDEX2
 70
0
  3
Divide (2x) ____  . .  ____  . .  ____  . .  ____
 72
65
 73
6
 40
2.6
 49
2.0
 49
-0.2
 49
0.0
 49
-0.2
 49
0.0
 49
-0.2
  0
LTYPE
  2
DOTX2
 70
0
  3
Dot (2x) .    .    .    .    .    .    .    . 
 72
65
 73
2
 40
0.4
 49
0.0
 49
-0.4
  0
LTYPE
  2
DIVIDE
 70
0
  3
Divide __ . . __ . . __ . . __ . . __ . . __
 72
65
 73
6
 40
1.6
 49
1.0
 49
-0.2
 49
0.0
 49
-0.2
 49
0.0
 49
-0.2
  0
LTYPE
  2
DASHDOTX2
 70
0
  3
Dash dot (2x) ____  .  ____  .  ____  .  ____
 72
65
 73
4
 40
2.4
 49
2.0
 49
-0.2
 49
0.0
 49
-0.2
  0
LTYPE
  2
PHANTOMX2
 70
0
  3
Phantom (2x)____________    ____    ____    ____________
 72
65
 73
6
 40
4.25
 49
2.5
 49
-0.25
 49
0.5
 49
-0.25
 49
0.5
 49
-0.25
  0
LTYPE
  2
DASHDOT2
 70
0
  3
Dash dot (.5x) _ . _ . _ . _ . _ . _ . _ . _
 72
65
 73
4
 40
0.7
 49
0.5
 49
-0.1
 49
0.0
 49
-0.1
  0
ENDTAB
  0
TABLE
  2
LAYER
 70
5
  0
LAYER
  2
VIEWPORTS
 70
0
 62
7
  6
CONTINUOUS
  0
LAYER
  2
DIMENSIONS
 70
0
 62
1
  6
CONTINUOUS
  0
LAYER
  2
TABLEGRID
 70
0
 62
1
  6
CONTINUOUS
  0
LAYER
  2
TABLECONTENT
 70
0
 62
1
  6
CONTINUOUS
  0
LAYER
  2
TABLEBACKGROUND
 70
0
 62
1
  6
CONTINUOUS
  0
ENDTAB
  0
TABLE
  2
STYLE
 70
12
  0
STYLE
  2
TIMES
 70
0
 40
0.0
 41
1.0
 42
1.0
 50
0.0
 71
0
  3
times.ttf
  4

  0
STYLE
  2
ARIAL_BOLD
 70
0
 40
0.0
 41
1.0
 42
1.0
 50
0.0
 71
0
  3
arialbd.ttf
  4

  0
STYLE
  2
ARIAL_ITALIC
 70
0
 40
0.0
 41
1.0
 42
1.0
 50
0.0
 71
0
  3
ariali.ttf
  4

  0
STYLE
  2
TIMES_BOLD_ITALIC
 70
0
 40
0.0
 41
1.0
 42
1.0
 50
0.0
 71
0
  3
timesbi.ttf
  4

  0
STYLE
  2
TIMES_BOLD
 70
0
 40
0.0
 41
1.0
 42
1.0
 50
0.0
 71
0
  3
timesbd.ttf
  4

  0
STYLE
  2
ISOCPEUR
 70
0
 40
0.0
 41
1.0
 42
1.0
 50
0.0
 71
0
  3
isocpeur.ttf
  4

  0
STYLE
  2
ARIAL
 70
0
 40
0.0
 41
1.0
 42
1.0
 50
0.0
 71
0
  3
arial.ttf
  4

  0
STYLE
  2
TIMES_ITALIC
 70
0
 40
0.0
 41
1.0
 42
1.0
 50
0.0
 71
0
  3
timesi.ttf
  4

  0
STYLE
  2
STANDARD
 70
0
 40
0.0
 41
1.0
 42
1.0
 50
0.0
 71
0
  3
arial.ttf
  4

  0
STYLE
  2
ARIAL_BOLD_ITALIC
 70
0
 40
0.0
 41
1.0
 42
1.0
 50
0.0
 71
0
  3
arialbi.ttf
  4

  0
STYLE
  2
ISOCPEUR_ITALIC
 70
0
 40
0.0
 41
1.0
 42
1.0
 50
0.0
 71
0
  3
isocpeui.ttf
  4

  0
STYLE
  2
ARIAL_BLACK
 70
0
 40
0.0
 41
1.0
 42
1.0
 50
0.0
 71
0
  3
ariblk.ttf
  4

  0
ENDTAB
  0
TABLE
  2
VIEW
 70
0
  0
ENDTAB
  0
TABLE
  2
APPID
 70
1
  0
APPID
  2
DXFWRITE
 70
0
  0
ENDTAB
  0
TABLE
  2
VPORT
 70
0
  0
ENDTAB
  0
TABLE
  2
UCS
 70
0
  0
ENDTAB
  0
ENDSEC
  0
SECTION
  2
BLOCKS
  0
ENDSEC
  0
SECTION
  2
ENTITIES
  0
VIEWPORT
  8
VIEWPORTS
 67
1
 10
0.0
 20
0.0
 30
0.0
 40
1.0
 41
1.0
 68
1
 69
1
1001
ACAD
1000
MVIEW
1002
{
1070
16
1010
0.0
1020
0.0
1030
0.0
1010
0.0
1020
0.0
1030
0.0
1040
0.0
1040
1.0
1040
0.0
1040
0.0
1040
50.0
1040
0.0
1040
0.0
1070
0
1070
100
1070
1
1070
3
1070
0
1070
0
1070
0
1070
0
1040
0.0
1040
0.0
1040
0.0
1040
0.1
1040
0.1
1040
0.1
1040
0.1
1070
0
1002
{
1002
}
1002
}
  0
POLYLINE
  6
LINE
  8
0
 66
1
 10
0.0
 20
0.0
 30
0.0
 70
8
  0
VERTEX
  8
0
 10
5.2
 20
0.0
 30
0.0
  0
VERTEX
  8
0
 10
0.381
 20
0.0
 30
0.0
  0
VERTEX
  8
0
 10
0.381
 20
3.164
 30
0.0
  0
VERTEX
  8
0
 10
2.0
 20
3.164
 30
0.0
  0
VERTEX
  8
0
 10
2.0
 20
4.1
 30
0.0
  0
VERTEX
  8
0
 10
3.78
 20
4.1
 30
0.0
  0
VERTEX
  8
0
 10
3.78
 20
6.477
 30
0.0
  0
VERTEX
  8
0
 10
1.898
 20
6.477
 30
0.0
  0
VERTEX
  8
0
 10
1.898
 20
7.0
 30
0.0
  0
VERTEX
  8
0
 10
3.18
 20
7.0
 30
0.0
  0
VERTEX
  8
0
 10
3.18
 20
9.6
 30
0.0
  0
VERTEX
  8
0
 10
1.898
 20
9.6
 30
0.0
  0
VERTEX
  8
0
 10
1.898
 20
9.6
 30
0.0
  0
VERTEX
  8
0
 10
1.898505717746343
 20
9.6843174522488
 30
0.0
  0
VERTEX
  8
0
 10
1.9000186505511842
 20
9.768706349906152
 30
0.0
  0
VERTEX
  8
0
 10
1.9025324677632427
 20
9.85316431370303
 30
0.0
  0
VERTEX
  8
0
 10
1.9060408387312375
 20
9.937688964370409
 30
0.0
  0
VERTEX
  8
0
 10
1.9105374328038875
 20
10.022277922639265
 30
0.0
  0
VERTEX
  8
0
 10
1.916015919329911
 20
10.106928809240571
 30
0.0
  0
VERTEX
  8
0
 10
1.9224699676580275
 20
10.191639244905305
 30
0.0
  0
VERTEX
  8
0
 10
1.9298932471369556
 20
10.276406850364442
 30
0.0
  0
VERTEX
  8
0
 10
1.9382794271154142
 20
10.361229246348953
 30
0.0
  0
VERTEX
  8
0
 10
1.9476221769421223
 20
10.446104053589817
 30
0.0
  0
VERTEX
  8
0
 10
1.9579151659657985
 20
10.531028892818009
 30
0.0
  0
VERTEX
  8
0
 10
1.969152063535162
 20
10.6160013847645
 30
0.0
  0
VERTEX
  8
0
 10
1.9813265389989316
 20
10.701019150160269
 30
0.0
  0
VERTEX
  8
0
 10
1.994432261705826
 20
10.786079809736293
 30
0.0
  0
VERTEX
  8
0
 10
2.008462901004564
 20
10.871180984223539
 30
0.0
  0
VERTEX
  8
0
 10
2.0234121262438647
 20
10.95632029435299
 30
0.0
  0
VERTEX
  8
0
 10
2.039273606772447
 20
11.041495360855615
 30
0.0
  0
VERTEX
  8
0
 10
2.05604101193903
 20
11.126703804462394
 30
0.0
  0
VERTEX
  8
0
 10
2.073708011092332
 20
11.211943245904303
 30
0.0
  0
VERTEX
  8
0
 10
2.0922682735810723
 20
11.297211305912308
 30
0.0
  0
VERTEX
  8
0
 10
2.111715468753969
 20
11.382505605217395
 30
0.0
  0
VERTEX
  8
0
 10
2.132043265959742
 20
11.46782376455053
 30
0.0
  0
VERTEX
  8
0
 10
2.15324533454711
 20
11.553163404642698
 30
0.0
  0
VERTEX
  8
0
 10
2.175315343864791
 20
11.638522146224863
 30
0.0
  0
VERTEX
  8
0
 10
2.198246963261505
 20
11.723897610028008
 30
0.0
  0
VERTEX
  8
0
 10
2.2220338620859703
 20
11.809287416783102
 30
0.0
  0
VERTEX
  8
0
 10
2.246669709686906
 20
11.894689187221127
 30
0.0
  0
VERTEX
  8
0
 10
2.2721481754130304
 20
11.980100542073053
 30
0.0
  0
VERTEX
  8
0
 10
2.2984629286130627
 20
12.065519102069855
 30
0.0
  0
VERTEX
  8
0
 10
2.3256076386357223
 20
12.15094248794251
 30
0.0
  0
VERTEX
  8
0
 10
2.3535759748297274
 20
12.236368320421994
 30
0.0
  0
VERTEX
  8
0
 10
2.3823616065437974
 20
12.321794220239282
 30
0.0
  0
VERTEX
  8
0
 10
2.4119582031266513
 20
12.407217808125347
 30
0.0
  0
VERTEX
  8
0
 10
2.4423594339270065
 20
12.49263670481116
 30
0.0
  0
VERTEX
  8
0
 10
2.4735589682935832
 20
12.578048531027704
 30
0.0
  0
VERTEX
  8
0
 10
2.505550475575101
 20
12.663450907505952
 30
0.0
  0
VERTEX
  8
0
 10
2.5383276251202767
 20
12.748841454976878
 30
0.0
  0
VERTEX
  8
0
 10
2.5718840862778314
 20
12.834217794171455
 30
0.0
  0
VERTEX
  8
0
 10
2.606213528396482
 20
12.91957754582066
 30
0.0
  0
VERTEX
  8
0
 10
2.641309620824948
 20
13.00491833065547
 30
0.0
  0
VERTEX
  8
0
 10
2.6771660329119493
 20
13.090237769406857
 30
0.0
  0
VERTEX
  8
0
 10
2.7137764340062036
 20
13.175533482805795
 30
0.0
  0
VERTEX
  8
0
 10
2.75113449345643
 20
13.260803091583263
 30
0.0
  0
VERTEX
  8
0
 10
2.7892338806113472
 20
13.346044216470233
 30
0.0
  0
VERTEX
  8
0
 10
2.8280682648196755
 20
13.431254478197683
 30
0.0
  0
VERTEX
  8
0
 10
2.867631315430132
 20
13.516431497496587
 30
0.0
  0
VERTEX
  8
0
 10
2.9079167017914362
 20
13.601572895097917
 30
0.0
  0
VERTEX
  8
0
 10
2.948918093252307
 20
13.686676291732649
 30
0.0
  0
VERTEX
  8
0
 10
2.990629159161463
 20
13.771739308131762
 30
0.0
  0
VERTEX
  8
0
 10
3.0330435688676243
 20
13.856759565026227
 30
0.0
  0
VERTEX
  8
0
 10
3.0761549917195077
 20
13.94173468314702
 30
0.0
  0
VERTEX
  8
0
 10
3.1199570970658335
 20
14.026662283225116
 30
0.0
  0
VERTEX
  8
0
 10
3.1644435542553206
 20
14.111539985991493
 30
0.0
  0
VERTEX
  8
0
 10
3.209608032636688
 20
14.196365412177121
 30
0.0
  0
VERTEX
  8
0
 10
3.2554442015586535
 20
14.281136182512977
 30
0.0
  0
VERTEX
  8
0
 10
3.3019457303699364
 20
14.365849917730037
 30
0.0
  0
VERTEX
  8
0
 10
3.3491062884192555
 20
14.45050423855928
 30
0.0
  0
VERTEX
  8
0
 10
3.396919545055331
 20
14.535096765731675
 30
0.0
  0
VERTEX
  8
0
 10
3.4453791696268805
 20
14.619625119978197
 30
0.0
  0
VERTEX
  8
0
 10
3.4944788314826227
 20
14.704086922029822
 30
0.0
  0
VERTEX
  8
0
 10
3.544212199971277
 20
14.788479792617526
 30
0.0
  0
VERTEX
  8
0
 10
3.5945729444415617
 20
14.872801352472283
 30
0.0
  0
VERTEX
  8
0
 10
3.6455547342421974
 20
14.957049222325074
 30
0.0
  0
VERTEX
  8
0
 10
3.6971512387219008
 20
15.041221022906862
 30
0.0
  0
VERTEX
  8
0
 10
3.749356127229391
 20
15.125314374948632
 30
0.0
  0
VERTEX
  8
0
 10
3.8021630691133885
 20
15.209326899181356
 30
0.0
  0
VERTEX
  8
0
 10
3.855565733722611
 20
15.293256216336008
 30
0.0
  0
VERTEX
  8
0
 10
3.909557790405777
 20
15.377099947143567
 30
0.0
  0
VERTEX
  8
0
 10
3.9641329085116066
 20
15.460855712335002
 30
0.0
  0
VERTEX
  8
0
 10
4.019284757388818
 20
15.544521132641295
 30
0.0
  0
VERTEX
  8
0
 10
4.075007006386129
 20
15.628093828793409
 30
0.0
  0
VERTEX
  8
0
 10
4.131293324852261
 20
15.711571421522333
 30
0.0
  0
VERTEX
  8
0
 10
4.188137382135931
 20
15.794951531559038
 30
0.0
  0
VERTEX
  8
0
 10
4.245532847585858
 20
15.878231779634493
 30
0.0
  0
VERTEX
  8
0
 10
4.303473390550762
 20
15.96140978647968
 30
0.0
  0
VERTEX
  8
0
 10
4.361952680379361
 20
16.044483172825572
 30
0.0
  0
VERTEX
  8
0
 10
4.420964386420373
 20
16.127449559403143
 30
0.0
  0
VERTEX
  8
0
 10
4.48050217802252
 20
16.21030656694337
 30
0.0
  0
VERTEX
  8
0
 10
4.540559724534516
 20
16.293051816177226
 30
0.0
  0
VERTEX
  8
0
 10
4.601130695305083
 20
16.37568292783568
 30
0.0
  0
VERTEX
  8
0
 10
4.662208759682941
 20
16.458197522649723
 30
0.0
  0
VERTEX
  8
0
 10
4.7237875870168065
 20
16.540593221350314
 30
0.0
  0
VERTEX
  8
0
 10
4.7858608466554
 20
16.62286764466844
 30
0.0
  0
VERTEX
  8
0
 10
4.848422207947438
 20
16.705018413335065
 30
0.0
  0
VERTEX
  8
0
 10
4.911465340241643
 20
16.787043148081175
 30
0.0
  0
VERTEX
  8
0
 10
4.97498391288673
 20
16.868939469637734
 30
0.0
  0
VERTEX
  8
0
 10
5.03897159523142
 20
16.95070499873573
 30
0.0
  0
VERTEX
  8
0
 10
5.1034220566244315
 20
17.032337356106126
 30
0.0
  0
VERTEX
  8
0
 10
5.168328966414484
 20
17.113834162479904
 30
0.0
  0
VERTEX
  8
0
 10
5.2336859939502975
 20
17.19519303858804
 30
0.0
  0
VERTEX
  8
0
 10
5.299486808580586
 20
17.276411605161503
 30
0.0
  0
VERTEX
  8
0
 10
5.365725079654074
 20
17.35748748293127
 30
0.0
  0
VERTEX
  8
0
 10
5.432394476519477
 20
17.43841829262832
 30
0.0
  0
VERTEX
  8
0
 10
5.499488668525514
 20
17.519201654983622
 30
0.0
  0
VERTEX
  8
0
 10
5.5670013250209065
 20
17.599835190728154
 30
0.0
  0
VERTEX
  8
0
 10
5.63492611535437
 20
17.680316520592893
 30
0.0
  0
VERTEX
  8
0
 10
5.703256708874625
 20
17.76064326530881
 30
0.0
  0
VERTEX
  8
0
 10
5.771986774930391
 20
17.840813045606883
 30
0.0
  0
VERTEX
  8
0
 10
5.8411099828703845
 20
17.92082348221809
 30
0.0
  0
VERTEX
  8
0
 10
5.910620002043328
 20
18.000672195873396
 30
0.0
  0
VERTEX
  8
0
 10
5.980510501797938
 20
18.08035680730379
 30
0.0
  0
VERTEX
  8
0
 10
6.0507751514829335
 20
18.159874937240232
 30
0.0
  0
VERTEX
  8
0
 10
6.121407620447034
 20
18.239224206413706
 30
0.0
  0
VERTEX
  8
0
 10
6.192401578038957
 20
18.31840223555519
 30
0.0
  0
VERTEX
  8
0
 10
6.263750693607424
 20
18.39740664539565
 30
0.0
  0
VERTEX
  8
0
 10
6.335448636501151
 20
18.47623505666607
 30
0.0
  0
VERTEX
  8
0
 10
6.407489076068859
 20
18.554885090097418
 30
0.0
  0
VERTEX
  8
0
 10
6.479865681659266
 20
18.633354366420672
 30
0.0
  0
VERTEX
  8
0
 10
6.55257212262109
 20
18.71164050636681
 30
0.0
  0
VERTEX
  8
0
 10
6.625602068303053
 20
18.789741130666798
 30
0.0
  0
VERTEX
  8
0
 10
6.698949188053869
 20
18.867653860051618
 30
0.0
  0
VERTEX
  8
0
 10
6.772607151222261
 20
18.945376315252247
 30
0.0
  0
VERTEX
  8
0
 10
6.846569627156946
 20
19.022906116999653
 30
0.0
  0
VERTEX
  8
0
 10
6.920830285206642
 20
19.10024088602482
 30
0.0
  0
VERTEX
  8
0
 10
6.995382794720072
 20
19.17737824305872
 30
0.0
  0
VERTEX
  8
0
 10
7.070220825045952
 20
19.25431580883232
 30
0.0
  0
VERTEX
  8
0
 10
7.145338045533
 20
19.3310512040766
 30
0.0
  0
VERTEX
  8
0
 10
7.220728125529936
 20
19.407582049522542
 30
0.0
  0
VERTEX
  8
0
 10
7.2963847343854775
 20
19.483905965901116
 30
0.0
  0
VERTEX
  8
0
 10
7.372301541448344
 20
19.56002057394329
 30
0.0
  0
VERTEX
  8
0
 10
7.448472216067257
 20
19.635923494380044
 30
0.0
  0
VERTEX
  8
0
 10
7.5248904275909325
 20
19.711612347942363
 30
0.0
  0
VERTEX
  8
0
 10
7.60154984536809
 20
19.787084755361207
 30
0.0
  0
VERTEX
  8
0
 10
7.678444138747448
 20
19.862338337367554
 30
0.0
  0
VERTEX
  8
0
 10
7.755566977077725
 20
19.937370714692392
 30
0.0
  0
VERTEX
  8
0
 10
7.832912029707643
 20
20.01217950806668
 30
0.0
  0
VERTEX
  8
0
 10
7.910472965985917
 20
20.086762338221398
 30
0.0
  0
VERTEX
  8
0
 10
7.988243455261271
 20
20.16111682588753
 30
0.0
  0
VERTEX
  8
0
 10
8.066217166882417
 20
20.235240591796035
 30
0.0
  0
VERTEX
  8
0
 10
8.144387770198078
 20
20.309131256677897
 30
0.0
  0
VERTEX
  8
0
 10
8.222748934556972
 20
20.3827864412641
 30
0.0
  0
VERTEX
  8
0
 10
8.301294329307819
 20
20.456203766285604
 30
0.0
  0
VERTEX
  8
0
 10
8.380017623799334
 20
20.529380852473388
 30
0.0
  0
VERTEX
  8
0
 10
8.458912487380243
 20
20.602315320558432
 30
0.0
  0
VERTEX
  8
0
 10
8.537972589399256
 20
20.675004791271707
 30
0.0
  0
VERTEX
  8
0
 10
8.6171915992051
 20
20.74744688534419
 30
0.0
  0
VERTEX
  8
0
 10
8.69656318614649
 20
20.819639223506854
 30
0.0
  0
VERTEX
  8
0
 10
8.776081019572144
 20
20.891579426490672
 30
0.0
  0
VERTEX
  8
0
 10
8.855738768830783
 20
20.963265115026626
 30
0.0
  0
VERTEX
  8
0
 10
8.935530103271125
 20
21.034693909845682
 30
0.0
  0
VERTEX
  8
0
 10
9.015448692241888
 20
21.10586343167882
 30
0.0
  0
VERTEX
  8
0
 10
9.095488205091794
 20
21.176771301257023
 30
0.0
  0
VERTEX
  8
0
 10
9.175642311169558
 20
21.247415139311254
 30
0.0
  0
VERTEX
  8
0
 10
9.2559046798239
 20
21.317792566572493
 30
0.0
  0
VERTEX
  8
0
 10
9.33626898040354
 20
21.38790120377171
 30
0.0
  0
VERTEX
  8
0
 10
9.416728882257196
 20
21.457738671639888
 30
0.0
  0
VERTEX
  8
0
 10
9.497278054733588
 20
21.527302590908
 30
0.0
  0
VERTEX
  8
0
 10
9.577910167181434
 20
21.596590582307012
 30
0.0
  0
VERTEX
  8
0
 10
9.658618888949452
 20
21.665600266567917
 30
0.0
  0
VERTEX
  8
0
 10
9.73939788938636
 20
21.73432926442167
 30
0.0
  0
VERTEX
  8
0
 10
9.820240837840881
 20
21.802775196599264
 30
0.0
  0
VERTEX
  8
0
 10
9.901141403661732
 20
21.870935683831657
 30
0.0
  0
VERTEX
  8
0
 10
9.982093256197633
 20
21.93880834684984
 30
0.0
  0
VERTEX
  8
0
 10
10.063090064797295
 20
22.006390806384772
 30
0.0
  0
VERTEX
  8
0
 10
10.14412549880945
 20
22.073680683167446
 30
0.0
  0
VERTEX
  8
0
 10
10.225193227582807
 20
22.140675597928826
 30
0.0
  0
VERTEX
  8
0
 10
10.306286920466086
 20
22.207373171399883
 30
0.0
  0
VERTEX
  8
0
 10
10.38740024680801
 20
22.273771024311603
 30
0.0
  0
VERTEX
  8
0
 10
10.468526875957295
 20
22.339866777394953
 30
0.0
  0
VERTEX
  8
0
 10
10.549660477262659
 20
22.40565805138091
 30
0.0
  0
VERTEX
  8
0
 10
10.630794720072828
 20
22.471142467000455
 30
0.0
  0
VERTEX
  8
0
 10
10.711923273736508
 20
22.53631764498455
 30
0.0
  0
VERTEX
  8
0
 10
10.79303980760243
 20
22.60118120606419
 30
0.0
  0
VERTEX
  8
0
 10
10.874137991019305
 20
22.665730770970328
 30
0.0
  0
VERTEX
  8
0
 10
10.955211493335858
 20
22.729963960433956
 30
0.0
  0
VERTEX
  8
0
 10
11.036253983900803
 20
22.793878395186034
 30
0.0
  0
VERTEX
  8
0
 10
11.11725913206286
 20
22.857471695957553
 30
0.0
  0
VERTEX
  8
0
 10
11.19822060717075
 20
22.920741483479475
 30
0.0
  0
VERTEX
  8
0
 10
11.27913207857319
 20
22.983685378482782
 30
0.0
  0
VERTEX
  8
0
 10
11.359987215618897
 20
23.046301001698446
 30
0.0
  0
VERTEX
  8
0
 10
11.440779687656594
 20
23.108585973857444
 30
0.0
  0
VERTEX
  8
0
 10
11.521503164034996
 20
23.170537915690748
 30
0.0
  0
VERTEX
  8
0
 10
11.602151314102827
 20
23.23215444792934
 30
0.0
  0
VERTEX
  8
0
 10
11.682717807208801
 20
23.29343319130419
 30
0.0
  0
VERTEX
  8
0
 10
11.763196312701641
 20
23.354371766546272
 30
0.0
  0
VERTEX
  8
0
 10
11.84358049993006
 20
23.414967794386563
 30
0.0
  0
VERTEX
  8
0
 10
11.923864038242783
 20
23.475218895556036
 30
0.0
  0
VERTEX
  8
0
 10
12.004040596988524
 20
23.53512269078567
 30
0.0
  0
VERTEX
  8
0
 10
12.084103845516005
 20
23.594676800806436
 30
0.0
  0
VERTEX
  8
0
 10
12.164047453173946
 20
23.653878846349315
 30
0.0
  0
VERTEX
  8
0
 10
12.243865089311061
 20
23.712726448145272
 30
0.0
  0
VERTEX
  8
0
 10
12.323550423276075
 20
23.771217226925287
 30
0.0
  0
VERTEX
  8
0
 10
12.4030971244177
 20
23.82934880342034
 30
0.0
  0
VERTEX
  8
0
 10
12.482498862084661
 20
23.8871187983614
 30
0.0
  0
VERTEX
  8
0
 10
12.561749305625673
 20
23.94452483247945
 30
0.0
  0
VERTEX
  8
0
 10
12.640842124389458
 20
24.00156452650545
 30
0.0
  0
VERTEX
  8
0
 10
12.719770987724731
 20
24.05823550117039
 30
0.0
  0
VERTEX
  8
0
 10
12.798529564980214
 20
24.114535377205236
 30
0.0
  0
VERTEX
  8
0
 10
12.877111525504624
 20
24.170461775340964
 30
0.0
  0
VERTEX
  8
0
 10
12.955510538646681
 20
24.22601231630856
 30
0.0
  0
VERTEX
  8
0
 10
13.033720273755105
 20
24.281184620838978
 30
0.0
  0
VERTEX
  8
0
 10
13.111734400178609
 20
24.33597630966321
 30
0.0
  0
VERTEX
  8
0
 10
13.189546587265923
 20
24.39038500351223
 30
0.0
  0
VERTEX
  8
0
 10
13.267150504365754
 20
24.444408323117003
 30
0.0
  0
VERTEX
  8
0
 10
13.344539820826826
 20
24.498043889208514
 30
0.0
  0
VERTEX
  8
0
 10
13.421708205997861
 20
24.551289322517736
 30
0.0
  0
VERTEX
  8
0
 10
13.498649329227574
 20
24.60414224377564
 30
0.0
  0
VERTEX
  8
0
 10
13.575356859864684
 20
24.656600273713202
 30
0.0
  0
VERTEX
  8
0
 10
13.65182446725791
 20
24.708661033061404
 30
0.0
  0
VERTEX
  8
0
 10
13.728045820755971
 20
24.76032214255121
 30
0.0
  0
VERTEX
  8
0
 10
13.804014589707588
 20
24.811581222913603
 30
0.0
  0
VERTEX
  8
0
 10
13.879724443461479
 20
24.862435894879553
 30
0.0
  0
VERTEX
  8
0
 10
13.95516905136636
 20
24.912883779180042
 30
0.0
  0
VERTEX
  8
0
 10
14.030342082770954
 20
24.962922496546035
 30
0.0
  0
VERTEX
  8
0
 10
14.105237207023977
 20
25.01254966770852
 30
0.0
  0
VERTEX
  8
0
 10
14.179848093474149
 20
25.061762913398464
 30
0.0
  0
VERTEX
  8
0
 10
14.254168411470186
 20
25.110559854346835
 30
0.0
  0
VERTEX
  8
0
 10
14.328191830360812
 20
25.15893811128462
 30
0.0
  0
VERTEX
  8
0
 10
14.401912019494741
 20
25.20689530494279
 30
0.0
  0
VERTEX
  8
0
 10
14.475322648220697
 20
25.254429056052324
 30
0.0
  0
VERTEX
  8
0
 10
14.548417385887394
 20
25.301536985344185
 30
0.0
  0
VERTEX
  8
0
 10
14.621189901843554
 20
25.348216713549363
 30
0.0
  0
VERTEX
  8
0
 10
14.693633865437896
 20
25.394465861398825
 30
0.0
  0
VERTEX
  8
0
 10
14.765742946019136
 20
25.440282049623544
 30
0.0
  0
VERTEX
  8
0
 10
14.837510812935996
 20
25.4856628989545
 30
0.0
  0
VERTEX
  8
0
 10
14.908931135537193
 20
25.53060603012267
 30
0.0
  0
VERTEX
  8
0
 10
14.979997583171443
 20
25.575109063859017
 30
0.0
  0
VERTEX
  8
0
 10
15.050703825187473
 20
25.61916962089453
 30
0.0
  0
VERTEX
  8
0
 10
15.121043530933996
 20
25.66278532196018
 30
0.0
  0
VERTEX
  8
0
 10
15.191010369759729
 20
25.705953787786935
 30
0.0
  0
VERTEX
  8
0
 10
15.260598011013396
 20
25.748672639105777
 30
0.0
  0
VERTEX
  8
0
 10
15.329800124043711
 20
25.79093949664768
 30
0.0
  0
VERTEX
  8
0
 10
15.3986103781994
 20
25.832751981143616
 30
0.0
  0
VERTEX
  8
0
 10
15.467022442829176
 20
25.87410771332457
 30
0.0
  0
VERTEX
  8
0
 10
15.53502998728176
 20
25.915004313921507
 30
0.0
  0
VERTEX
  8
0
 10
15.602626680905868
 20
25.955439403665398
 30
0.0
  0
VERTEX
  8
0
 10
15.66980619305022
 20
25.995410603287226
 30
0.0
  0
VERTEX
  8
0
 10
15.736562193063538
 20
26.034915533517967
 30
0.0
  0
VERTEX
  8
0
 10
15.802888350294541
 20
26.0739518150886
 30
0.0
  0
VERTEX
  8
0
 10
15.868778334091942
 20
26.112517068730085
 30
0.0
  0
VERTEX
  8
0
 10
15.934225813804467
 20
26.15060891517341
 30
0.0
  0
VERTEX
  8
0
 10
15.99922445878083
 20
26.188224975149545
 30
0.0
  0
VERTEX
  8
0
 10
16.06376793836975
 20
26.225362869389468
 30
0.0
  0
VERTEX
  8
0
 10
16.12784992191995
 20
26.26202021862415
 30
0.0
  0
VERTEX
  8
0
 10
16.191464078780143
 20
26.298194643584566
 30
0.0
  0
VERTEX
  8
0
 10
16.254604078299053
 20
26.333883765001694
 30
0.0
  0
VERTEX
  8
0
 10
16.317263589825394
 20
26.36908520360651
 30
0.0
  0
VERTEX
  8
0
 10
16.37943628270789
 20
26.403796580129985
 30
0.0
  0
VERTEX
  8
0
 10
16.441115826295253
 20
26.438015515303096
 30
0.0
  0
VERTEX
  8
0
 10
16.502295889936214
 20
26.47173962985682
 30
0.0
  0
VERTEX
  8
0
 10
16.56297014297948
 20
26.504966544522127
 30
0.0
  0
VERTEX
  8
0
 10
16.623132254773775
 20
26.537693880029998
 30
0.0
  0
VERTEX
  8
0
 10
16.682775894667813
 20
26.569919257111405
 30
0.0
  0
VERTEX
  8
0
 10
16.741894732010323
 20
26.601640296497322
 30
0.0
  0
VERTEX
  8
0
 10
16.800482436150016
 20
26.632854618918728
 30
0.0
  0
VERTEX
  8
0
 10
16.858532676435612
 20
26.663559845106597
 30
0.0
  0
VERTEX
  8
0
 10
16.916039122215828
 20
26.693753595791897
 30
0.0
  0
VERTEX
  8
0
 10
16.972995442839387
 20
26.723433491705606
 30
0.0
  0
VERTEX
  8
0
 10
17.02939530765501
 20
26.752597153578712
 30
0.0
  0
VERTEX
  8
0
 10
17.08523238601141
 20
26.781242202142174
 30
0.0
  0
VERTEX
  8
0
 10
17.14050034725731
 20
26.80936625812697
 30
0.0
  0
VERTEX
  8
0
 10
17.19519286074142
 20
26.83696694226408
 30
0.0
  0
VERTEX
  8
0
 10
17.24930359581247
 20
26.86404187528448
 30
0.0
  0
VERTEX
  8
0
 10
17.302826221819178
 20
26.890588677919133
 30
0.0
  0
VERTEX
  8
0
 10
17.355754408110254
 20
26.916604970899037
 30
0.0
  0
VERTEX
  8
0
 10
17.408081824034426
 20
26.94208837495514
 30
0.0
  0
VERTEX
  8
0
 10
17.459802138940407
 20
26.967036510818435
 30
0.0
  0
VERTEX
  8
0
 10
17.510909022176918
 20
26.991446999219892
 30
0.0
  0
VERTEX
  8
0
 10
17.56139614309268
 20
27.015317460890483
 30
0.0
  0
VERTEX
  8
0
 10
17.61125717103641
 20
27.03864551656119
 30
0.0
  0
VERTEX
  8
0
 10
17.660485775356825
 20
27.061428786962978
 30
0.0
  0
VERTEX
  8
0
 10
17.709075625402647
 20
27.08366489282684
 30
0.0
  0
VERTEX
  8
0
 10
17.75702039052259
 20
27.10535145488373
 30
0.0
  0
VERTEX
  8
0
 10
17.804313740065382
 20
27.126486093864628
 30
0.0
  0
VERTEX
  8
0
 10
17.85094934337973
 20
27.147066430500523
 30
0.0
  0
VERTEX
  8
0
 10
17.896920869814366
 20
27.167090085522375
 30
0.0
  0
VERTEX
  8
0
 10
17.942221988718
 20
27.186554679661164
 30
0.0
  0
VERTEX
  8
0
 10
17.986846369439352
 20
27.20545783364787
 30
0.0
  0
VERTEX
  8
0
 10
18.03078768132714
 20
27.223797168213462
 30
0.0
  0
VERTEX
  8
0
 10
18.074039593730088
 20
27.241570304088913
 30
0.0
  0
VERTEX
  8
0
 10
18.11659577599691
 20
27.258774862005204
 30
0.0
  0
VERTEX
  8
0
 10
18.158449897476324
 20
27.275408462693303
 30
0.0
  0
VERTEX
  8
0
 10
18.199595627517056
 20
27.291468726884197
 30
0.0
  0
VERTEX
  8
0
 10
18.240026635467817
 20
27.30695327530885
 30
0.0
  0
VERTEX
  8
0
 10
18.279736590677327
 20
27.321859728698236
 30
0.0
  0
VERTEX
  8
0
 10
18.31871916249431
 20
27.33618570778334
 30
0.0
  0
VERTEX
  8
0
 10
18.35696802026748
 20
27.34992883329513
 30
0.0
  0
VERTEX
  8
0
 10
18.39447683334556
 20
27.363086725964585
 30
0.0
  0
VERTEX
  8
0
 10
18.431239271077263
 20
27.375657006522676
 30
0.0
  0
VERTEX
  8
0
 10
18.467249002811315
 20
27.38763729570038
 30
0.0
  0
VERTEX
  8
0
 10
18.50249969789643
 20
27.399025214228672
 30
0.0
  0
VERTEX
  8
0
 10
18.53698502568133
 20
27.409818382838527
 30
0.0
  0
VERTEX
  8
0
 10
18.57069865551473
 20
27.42001442226092
 30
0.0
  0
VERTEX
  8
0
 10
18.60363425674535
 20
27.429610953226828
 30
0.0
  0
VERTEX
  8
0
 10
18.63578549872191
 20
27.438605596467223
 30
0.0
  0
VERTEX
  8
0
 10
18.66714605079313
 20
27.446995972713076
 30
0.0
  0
VERTEX
  8
0
 10
18.697709582307724
 20
27.454779702695372
 30
0.0
  0
VERTEX
  8
0
 10
18.72746976261442
 20
27.461954407145075
 30
0.0
  0
VERTEX
  8
0
 10
18.756420261061926
 20
27.468517706793175
 30
0.0
  0
VERTEX
  8
0
 10
18.784554746998968
 20
27.474467222370635
 30
0.0
  0
VERTEX
  8
0
 10
18.811866889774265
 20
27.479800574608436
 30
0.0
  0
VERTEX
  8
0
 10
18.83835035873653
 20
27.484515384237547
 30
0.0
  0
VERTEX
  8
0
 10
18.86399882323449
 20
27.488609271988942
 30
0.0
  0
VERTEX
  8
0
 10
18.88880595261686
 20
27.49207985859361
 30
0.0
  0
VERTEX
  8
0
 10
18.912765416232354
 20
27.494924764782507
 30
0.0
  0
VERTEX
  8
0
 10
18.935870883429697
 20
27.497141611286622
 30
0.0
  0
VERTEX
  8
0
 10
18.958116023557608
 20
27.49872801883693
 30
0.0
  0
VERTEX
  8
0
 10
18.979494505964798
 20
27.499681608164394
 30
0.0
  0
VERTEX
  8
0
 10
19.0
 20
27.5
 30
0.0
  0
VERTEX
  8
0
 10
19.0
 20
27.5
 30
0.0
  0
VERTEX
  8
0
 10
19.02003333296048
 20
27.49994973981234
 30
0.0
  0
VERTEX
  8
0
 10
19.039999552577715
 20
27.499799258528494
 30
0.0
  0
VERTEX
  8
0
 10
19.059898658851687
 20
27.49954900506713
 30
0.0
  0
VERTEX
  8
0
 10
19.07973065178242
 20
27.499199428346948
 30
0.0
  0
VERTEX
  8
0
 10
19.099495531369897
 20
27.498750977286623
 30
0.0
  0
VERTEX
  8
0
 10
19.11919329761412
 20
27.49820410080484
 30
0.0
  0
VERTEX
  8
0
 10
19.138823950515096
 20
27.497559247820284
 30
0.0
  0
VERTEX
  8
0
 10
19.158387490072823
 20
27.496816867251642
 30
0.0
  0
VERTEX
  8
0
 10
19.17788391628729
 20
27.495977408017595
 30
0.0
  0
VERTEX
  8
0
 10
19.19731322915851
 20
27.49504131903682
 30
0.0
  0
VERTEX
  8
0
 10
19.21667542868648
 20
27.49400904922801
 30
0.0
  0
VERTEX
  8
0
 10
19.235970514871198
 20
27.49288104750985
 30
0.0
  0
VERTEX
  8
0
 10
19.255198487712665
 20
27.49165776280102
 30
0.0
  0
VERTEX
  8
0
 10
19.274359347210883
 20
27.490339644020207
 30
0.0
  0
VERTEX
  8
0
 10
19.29345309336585
 20
27.48892714008609
 30
0.0
  0
VERTEX
  8
0
 10
19.31247972617756
 20
27.48742069991735
 30
0.0
  0
VERTEX
  8
0
 10
19.33143924564602
 20
27.485820772432685
 30
0.0
  0
VERTEX
  8
0
 10
19.350331651771235
 20
27.484127806550763
 30
0.0
  0
VERTEX
  8
0
 10
19.369156944553197
 20
27.482342251190282
 30
0.0
  0
VERTEX
  8
0
 10
19.387915123991903
 20
27.48046455526992
 30
0.0
  0
VERTEX
  8
0
 10
19.406606190087363
 20
27.478495167708356
 30
0.0
  0
VERTEX
  8
0
 10
19.425230142839567
 20
27.47643453742428
 30
0.0
  0
VERTEX
  8
0
 10
19.443786982248522
 20
27.47428311333637
 30
0.0
  0
VERTEX
  8
0
 10
19.462276708314228
 20
27.472041344363323
 30
0.0
  0
VERTEX
  8
0
 10
19.480699321036685
 20
27.4697096794238
 30
0.0
  0
VERTEX
  8
0
 10
19.499054820415882
 20
27.467288567436515
 30
0.0
  0
VERTEX
  8
0
 10
19.517343206451837
 20
27.46477845732013
 30
0.0
  0
VERTEX
  8
0
 10
19.53556447914453
 20
27.46217979799333
 30
0.0
  0
VERTEX
  8
0
 10
19.553718638493976
 20
27.459493038374802
 30
0.0
  0
VERTEX
  8
0
 10
19.571805684500173
 20
27.456718627383236
 30
0.0
  0
VERTEX
  8
0
 10
19.589825617163118
 20
27.45385701393731
 30
0.0
  0
VERTEX
  8
0
 10
19.60777843648281
 20
27.450908646955718
 30
0.0
  0
VERTEX
  8
0
 10
19.625664142459254
 20
27.44787397535713
 30
0.0
  0
VERTEX
  8
0
 10
19.643482735092448
 20
27.444753448060233
 30
0.0
  0
VERTEX
  8
0
 10
19.661234214382386
 20
27.441547513983718
 30
0.0
  0
VERTEX
  8
0
 10
19.67891858032908
 20
27.438256622046268
 30
0.0
  0
VERTEX
  8
0
 10
19.69653583293252
 20
27.434881221166556
 30
0.0
  0
VERTEX
  8
0
 10
19.714085972192706
 20
27.431421760263277
 30
0.0
  0
VERTEX
  8
0
 10
19.731568998109637
 20
27.42787868825511
 30
0.0
  0
VERTEX
  8
0
 10
19.748984910683326
 20
27.424252454060746
 30
0.0
  0
VERTEX
  8
0
 10
19.76633370991376
 20
27.420543506598857
 30
0.0
  0
VERTEX
  8
0
 10
19.78361539580094
 20
27.416752294788136
 30
0.0
  0
VERTEX
  8
0
 10
19.80082996834487
 20
27.412879267547265
 30
0.0
  0
VERTEX
  8
0
 10
19.81797742754555
 20
27.408924873794927
 30
0.0
  0
VERTEX
  8
0
 10
19.835057773402987
 20
27.404889562449807
 30
0.0
  0
VERTEX
  8
0
 10
19.85207100591716
 20
27.400773782430587
 30
0.0
  0
VERTEX
  8
0
 10
19.869017125088085
 20
27.396577982655952
 30
0.0
  0
VERTEX
  8
0
 10
19.885896130915764
 20
27.392302612044585
 30
0.0
  0
VERTEX
  8
0
 10
19.902708023400187
 20
27.387948119515173
 30
0.0
  0
VERTEX
  8
0
 10
19.919452802541358
 20
27.383514953986396
 30
0.0
  0
VERTEX
  8
0
 10
19.93613046833928
 20
27.37900356437694
 30
0.0
  0
VERTEX
  8
0
 10
19.95274102079395
 20
27.374414399605485
 30
0.0
  0
VERTEX
  8
0
 10
19.969284459905367
 20
27.36974790859073
 30
0.0
  0
VERTEX
  8
0
 10
19.985760785673538
 20
27.365004540251338
 30
0.0
  0
VERTEX
  8
0
 10
20.002169998098456
 20
27.360184743506004
 30
0.0
  0
VERTEX
  8
0
 10
20.018512097180125
 20
27.355288967273417
 30
0.0
  0
VERTEX
  8
0
 10
20.034787082918537
 20
27.350317660472253
 30
0.0
  0
VERTEX
  8
0
 10
20.0509949553137
 20
27.345271272021193
 30
0.0
  0
VERTEX
  8
0
 10
20.067135714365616
 20
27.340150250838928
 30
0.0
  0
VERTEX
  8
0
 10
20.083209360074274
 20
27.33495504584414
 30
0.0
  0
VERTEX
  8
0
 10
20.099215892439684
 20
27.329686105955513
 30
0.0
  0
VERTEX
  8
0
 10
20.115155311461844
 20
27.324343880091725
 30
0.0
  0
VERTEX
  8
0
 10
20.13102761714075
 20
27.318928817171475
 30
0.0
  0
VERTEX
  8
0
 10
20.146832809476404
 20
27.313441366113427
 30
0.0
  0
VERTEX
  8
0
 10
20.16257088846881
 20
27.30788197583628
 30
0.0
  0
VERTEX
  8
0
 10
20.178241854117964
 20
27.302251095258715
 30
0.0
  0
VERTEX
  8
0
 10
20.19384570642387
 20
27.29654917329941
 30
0.0
  0
VERTEX
  8
0
 10
20.209382445386517
 20
27.290776658877057
 30
0.0
  0
VERTEX
  8
0
 10
20.224852071005916
 20
27.28493400091034
 30
0.0
  0
VERTEX
  8
0
 10
20.240254583282073
 20
27.279021648317933
 30
0.0
  0
VERTEX
  8
0
 10
20.255589982214957
 20
27.273040050018516
 30
0.0
  0
VERTEX
  8
0
 10
20.27085826780461
 20
27.266989654930796
 30
0.0
  0
VERTEX
  8
0
 10
20.286059440051
 20
27.260870911973434
 30
0.0
  0
VERTEX
  8
0
 10
20.301193498954145
 20
27.254684270065137
 30
0.0
  0
VERTEX
  8
0
 10
20.316260444514036
 20
27.24843017812457
 30
0.0
  0
VERTEX
  8
0
 10
20.33126027673068
 20
27.24210908507042
 30
0.0
  0
VERTEX
  8
0
 10
20.34619299560407
 20
27.235721439821376
 30
0.0
  0
VERTEX
  8
0
 10
20.36105860113421
 20
27.229267691296126
 30
0.0
  0
VERTEX
  8
0
 10
20.375857093321102
 20
27.22274828841334
 30
0.0
  0
VERTEX
  8
0
 10
20.390588472164737
 20
27.216163680091714
 30
0.0
  0
VERTEX
  8
0
 10
20.40525273766512
 20
27.20951431524992
 30
0.0
  0
VERTEX
  8
0
 10
20.419849889822256
 20
27.20280064280666
 30
0.0
  0
VERTEX
  8
0
 10
20.43437992863614
 20
27.1960231116806
 30
0.0
  0
VERTEX
  8
0
 10
20.448842854106772
 20
27.18918217079043
 30
0.0
  0
VERTEX
  8
0
 10
20.463238666234155
 20
27.182278269054844
 30
0.0
  0
VERTEX
  8
0
 10
20.477567365018285
 20
27.17531185539251
 30
0.0
  0
VERTEX
  8
0
 10
20.491828950459162
 20
27.168283378722123
 30
0.0
  0
VERTEX
  8
0
 10
20.506023422556794
 20
27.161193287962362
 30
0.0
  0
VERTEX
  8
0
 10
20.520150781311166
 20
27.154042032031914
 30
0.0
  0
VERTEX
  8
0
 10
20.534211026722293
 20
27.146830059849464
 30
0.0
  0
VERTEX
  8
0
 10
20.54820415879017
 20
27.139557820333685
 30
0.0
  0
VERTEX
  8
0
 10
20.562130177514792
 20
27.132225762403273
 30
0.0
  0
VERTEX
  8
0
 10
20.575989082896164
 20
27.12483433497691
 30
0.0
  0
VERTEX
  8
0
 10
20.589780874934288
 20
27.11738398697328
 30
0.0
  0
VERTEX
  8
0
 10
20.603505553629155
 20
27.10987516731106
 30
0.0
  0
VERTEX
  8
0
 10
20.61716311898077
 20
27.10230832490894
 30
0.0
  0
VERTEX
  8
0
 10
20.63075357098914
 20
27.0946839086856
 30
0.0
  0
VERTEX
  8
0
 10
20.644276909654252
 20
27.08700236755973
 30
0.0
  0
VERTEX
  8
0
 10
20.65773313497612
 20
27.07926415045001
 30
0.0
  0
VERTEX
  8
0
 10
20.67112224695473
 20
27.071469706275124
 30
0.0
  0
VERTEX
  8
0
 10
20.684444245590097
 20
27.063619483953754
 30
0.0
  0
VERTEX
  8
0
 10
20.697699130882206
 20
27.055713932404593
 30
0.0
  0
VERTEX
  8
0
 10
20.710886902831067
 20
27.047753500546314
 30
0.0
  0
VERTEX
  8
0
 10
20.72400756143667
 20
27.039738637297607
 30
0.0
  0
VERTEX
  8
0
 10
20.73706110669903
 20
27.031669791577155
 30
0.0
  0
VERTEX
  8
0
 10
20.750047538618137
 20
27.023547412303643
 30
0.0
  0
VERTEX
  8
0
 10
20.76296685719399
 20
27.01537194839575
 30
0.0
  0
VERTEX
  8
0
 10
20.775819062426596
 20
27.007143848772163
 30
0.0
  0
VERTEX
  8
0
 10
20.788604154315948
 20
26.99886356235157
 30
0.0
  0
VERTEX
  8
0
 10
20.801322132862047
 20
26.99053153805265
 30
0.0
  0
VERTEX
  8
0
 10
20.813972998064898
 20
26.982148224794088
 30
0.0
  0
VERTEX
  8
0
 10
20.826556749924496
 20
26.97371407149457
 30
0.0
  0
VERTEX
  8
0
 10
20.839073388440845
 20
26.965229527072772
 30
0.0
  0
VERTEX
  8
0
 10
20.85152291361394
 20
26.956695040447382
 30
0.0
  0
VERTEX
  8
0
 10
20.863905325443785
 20
26.948111060537098
 30
0.0
  0
VERTEX
  8
0
 10
20.876220623930383
 20
26.93947803626059
 30
0.0
  0
VERTEX
  8
0
 10
20.88846880907373
 20
26.93079641653654
 30
0.0
  0
VERTEX
  8
0
 10
20.90064988087382
 20
26.922066650283632
 30
0.0
  0
VERTEX
  8
0
 10
20.91276383933066
 20
26.91328918642056
 30
0.0
  0
VERTEX
  8
0
 10
20.92481068444425
 20
26.904464473865996
 30
0.0
  0
VERTEX
  8
0
 10
20.93679041621459
 20
26.895592961538636
 30
0.0
  0
VERTEX
  8
0
 10
20.948703034641678
 20
26.886675098357156
 30
0.0
  0
VERTEX
  8
0
 10
20.96054853972551
 20
26.87771133324024
 30
0.0
  0
VERTEX
  8
0
 10
20.972326931466096
 20
26.868702115106572
 30
0.0
  0
VERTEX
  8
0
 10
20.984038209863424
 20
26.85964789287484
 30
0.0
  0
VERTEX
  8
0
 10
20.99568237491751
 20
26.850549115463725
 30
0.0
  0
VERTEX
  8
0
 10
21.00725942662834
 20
26.84140623179191
 30
0.0
  0
VERTEX
  8
0
 10
21.018769364995926
 20
26.83221969077808
 30
0.0
  0
VERTEX
  8
0
 10
21.030212190020247
 20
26.822989941340925
 30
0.0
  0
VERTEX
  8
0
 10
21.041587901701327
 20
26.813717432399116
 30
0.0
  0
VERTEX
  8
0
 10
21.05289650003915
 20
26.80440261287135
 30
0.0
  0
VERTEX
  8
0
 10
21.064137985033724
 20
26.795045931676306
 30
0.0
  0
VERTEX
  8
0
 10
21.07531235668505
 20
26.785647837732654
 30
0.0
  0
VERTEX
  8
0
 10
21.086419614993126
 20
26.77620877995911
 30
0.0
  0
VERTEX
  8
0
 10
21.097459759957946
 20
26.766729207274327
 30
0.0
  0
VERTEX
  8
0
 10
21.10843279157952
 20
26.757209568597006
 30
0.0
  0
VERTEX
  8
0
 10
21.119338709857832
 20
26.747650312845828
 30
0.0
  0
VERTEX
  8
0
 10
21.130177514792905
 20
26.738051888939466
 30
0.0
  0
VERTEX
  8
0
 10
21.14094920638472
 20
26.728414745796623
 30
0.0
  0
VERTEX
  8
0
 10
21.151653784633286
 20
26.718739332335968
 30
0.0
  0
VERTEX
  8
0
 10
21.162291249538594
 20
26.709026097476183
 30
0.0
  0
VERTEX
  8
0
 10
21.17286160110066
 20
26.699275490135964
 30
0.0
  0
VERTEX
  8
0
 10
21.183364839319474
 20
26.689487959233993
 30
0.0
  0
VERTEX
  8
0
 10
21.193800964195034
 20
26.679663953688948
 30
0.0
  0
VERTEX
  8
0
 10
21.20416997572734
 20
26.669803922419522
 30
0.0
  0
VERTEX
  8
0
 10
21.214471873916402
 20
26.659908314344385
 30
0.0
  0
VERTEX
  8
0
 10
21.224706658762205
 20
26.64997757838223
 30
0.0
  0
VERTEX
  8
0
 10
21.234874330264763
 20
26.640012163451743
 30
0.0
  0
VERTEX
  8
0
 10
21.244974888424064
 20
26.630012518471602
 30
0.0
  0
VERTEX
  8
0
 10
21.255008333240117
 20
26.61997909236049
 30
0.0
  0
VERTEX
  8
0
 10
21.264974664712923
 20
26.609912334037098
 30
0.0
  0
VERTEX
  8
0
 10
21.274873882842474
 20
26.59981269242011
 30
0.0
  0
VERTEX
  8
0
 10
21.284705987628772
 20
26.5896806164282
 30
0.0
  0
VERTEX
  8
0
 10
21.294470979071818
 20
26.57951655498006
 30
0.0
  0
VERTEX
  8
0
 10
21.30416885717162
 20
26.56932095699438
 30
0.0
  0
VERTEX
  8
0
 10
21.31379962192817
 20
26.559094271389824
 30
0.0
  0
VERTEX
  8
0
 10
21.32336327334146
 20
26.548836947085093
 30
0.0
  0
VERTEX
  8
0
 10
21.332859811411502
 20
26.53854943299887
 30
0.0
  0
VERTEX
  8
0
 10
21.3422892361383
 20
26.52823217804983
 30
0.0
  0
VERTEX
  8
0
 10
21.35165154752184
 20
26.51788563115666
 30
0.0
  0
VERTEX
  8
0
 10
21.36094674556213
 20
26.507510241238055
 30
0.0
  0
VERTEX
  8
0
 10
21.370174830259167
 20
26.49710645721268
 30
0.0
  0
VERTEX
  8
0
 10
21.379335801612957
 20
26.486674727999237
 30
0.0
  0
VERTEX
  8
0
 10
21.388429659623494
 20
26.476215502516393
 30
0.0
  0
VERTEX
  8
0
 10
21.397456404290782
 20
26.465729229682847
 30
0.0
  0
VERTEX
  8
0
 10
21.406416035614814
 20
26.455216358417275
 30
0.0
  0
VERTEX
  8
0
 10
21.415308553595597
 20
26.444677337638367
 30
0.0
  0
VERTEX
  8
0
 10
21.42413395823313
 20
26.434112616264795
 30
0.0
  0
VERTEX
  8
0
 10
21.432892249527413
 20
26.423522643215257
 30
0.0
  0
VERTEX
  8
0
 10
21.441583427478438
 20
26.412907867408425
 30
0.0
  0
VERTEX
  8
0
 10
21.450207492086218
 20
26.402268737762988
 30
0.0
  0
VERTEX
  8
0
 10
21.458764443350745
 20
26.391605703197634
 30
0.0
  0
VERTEX
  8
0
 10
21.46725428127202
 20
26.380919212631042
 30
0.0
  0
VERTEX
  8
0
 10
21.475677005850045
 20
26.370209714981904
 30
0.0
  0
VERTEX
  8
0
 10
21.48403261708482
 20
26.359477659168892
 30
0.0
  0
VERTEX
  8
0
 10
21.492321114976342
 20
26.34872349411069
 30
0.0
  0
VERTEX
  8
0
 10
21.500542499524613
 20
26.33794766872599
 30
0.0
  0
VERTEX
  8
0
 10
21.508696770729635
 20
26.327150631933478
 30
0.0
  0
VERTEX
  8
0
 10
21.516783928591405
 20
26.316332832651835
 30
0.0
  0
VERTEX
  8
0
 10
21.52480397310992
 20
26.305494719799732
 30
0.0
  0
VERTEX
  8
0
 10
21.532756904285186
 20
26.294636742295868
 30
0.0
  0
VERTEX
  8
0
 10
21.5406427221172
 20
26.283759349058926
 30
0.0
  0
VERTEX
  8
0
 10
21.548461426605968
 20
26.272862989007592
 30
0.0
  0
VERTEX
  8
0
 10
21.556213017751478
 20
26.261948111060537
 30
0.0
  0
VERTEX
  8
0
 10
21.563897495553743
 20
26.251015164136454
 30
0.0
  0
VERTEX
  8
0
 10
21.57151486001275
 20
26.240064597154024
 30
0.0
  0
VERTEX
  8
0
 10
21.579065111128514
 20
26.22909685903194
 30
0.0
  0
VERTEX
  8
0
 10
21.58654824890102
 20
26.218112398688874
 30
0.0
  0
VERTEX
  8
0
 10
21.593964273330275
 20
26.207111665043513
 30
0.0
  0
VERTEX
  8
0
 10
21.601313184416284
 20
26.196095107014543
 30
0.0
  0
VERTEX
  8
0
 10
21.608594982159033
 20
26.185063173520653
 30
0.0
  0
VERTEX
  8
0
 10
21.61580966655854
 20
26.174016313480514
 30
0.0
  0
VERTEX
  8
0
 10
21.62295723761479
 20
26.162954975812823
 30
0.0
  0
VERTEX
  8
0
 10
21.630037695327793
 20
26.151879609436254
 30
0.0
  0
VERTEX
  8
0
 10
21.63705103969754
 20
26.1407906632695
 30
0.0
  0
VERTEX
  8
0
 10
21.643997270724043
 20
26.12968858623124
 30
0.0
  0
VERTEX
  8
0
 10
21.65087638840729
 20
26.118573827240155
 30
0.0
  0
VERTEX
  8
0
 10
21.657688392747282
 20
26.10744683521493
 30
0.0
  0
VERTEX
  8
0
 10
21.66443328374403
 20
26.096308059074257
 30
0.0
  0
VERTEX
  8
0
 10
21.671111061397525
 20
26.08515794773681
 30
0.0
  0
VERTEX
  8
0
 10
21.67772172570777
 20
26.073996950121277
 30
0.0
  0
VERTEX
  8
0
 10
21.684265276674758
 20
26.06282551514635
 30
0.0
  0
VERTEX
  8
0
 10
21.690741714298497
 20
26.051644091730697
 30
0.0
  0
VERTEX
  8
0
 10
21.697151038578987
 20
26.04045312879301
 30
0.0
  0
VERTEX
  8
0
 10
21.703493249516228
 20
26.02925307525198
 30
0.0
  0
VERTEX
  8
0
 10
21.709768347110213
 20
26.018044380026275
 30
0.0
  0
VERTEX
  8
0
 10
21.715976331360945
 20
26.00682749203459
 30
0.0
  0
VERTEX
  8
0
 10
21.722117202268432
 20
25.99560286019561
 30
0.0
  0
VERTEX
  8
0
 10
21.728190959832666
 20
25.984370933428018
 30
0.0
  0
VERTEX
  8
0
 10
21.734197604053648
 20
25.97313216065049
 30
0.0
  0
VERTEX
  8
0
 10
21.740137134931373
 20
25.961886990781714
 30
0.0
  0
VERTEX
  8
0
 10
21.746009552465857
 20
25.95063587274038
 30
0.0
  0
VERTEX
  8
0
 10
21.751814856657084
 20
25.939379255445168
 30
0.0
  0
VERTEX
  8
0
 10
21.757553047505063
 20
25.92811758781476
 30
0.0
  0
VERTEX
  8
0
 10
21.763224125009785
 20
25.91685131876784
 30
0.0
  0
VERTEX
  8
0
 10
21.768828089171265
 20
25.905580897223096
 30
0.0
  0
VERTEX
  8
0
 10
21.774364939989486
 20
25.894306772099206
 30
0.0
  0
VERTEX
  8
0
 10
21.779834677464457
 20
25.88302939231486
 30
0.0
  0
VERTEX
  8
0
 10
21.78523730159618
 20
25.871749206788746
 30
0.0
  0
VERTEX
  8
0
 10
21.790572812384653
 20
25.860466664439535
 30
0.0
  0
VERTEX
  8
0
 10
21.795841209829867
 20
25.849182214185916
 30
0.0
  0
VERTEX
  8
0
 10
21.801042493931835
 20
25.83789630494657
 30
0.0
  0
VERTEX
  8
0
 10
21.806176664690547
 20
25.82660938564019
 30
0.0
  0
VERTEX
  8
0
 10
21.811243722106017
 20
25.815321905185456
 30
0.0
  0
VERTEX
  8
0
 10
21.81624366617823
 20
25.804034312501052
 30
0.0
  0
VERTEX
  8
0
 10
21.821176496907192
 20
25.792747056505654
 30
0.0
  0
VERTEX
  8
0
 10
21.826042214292904
 20
25.78146058611796
 30
0.0
  0
VERTEX
  8
0
 10
21.830840818335364
 20
25.770175350256643
 30
0.0
  0
VERTEX
  8
0
 10
21.835572309034575
 20
25.758891797840395
 30
0.0
  0
VERTEX
  8
0
 10
21.840236686390533
 20
25.747610377787893
 30
0.0
  0
VERTEX
  8
0
 10
21.844833950403242
 20
25.736331539017826
 30
0.0
  0
VERTEX
  8
0
 10
21.849364101072695
 20
25.725055730448872
 30
0.0
  0
VERTEX
  8
0
 10
21.8538271383989
 20
25.71378340099972
 30
0.0
  0
VERTEX
  8
0
 10
21.858223062381853
 20
25.702514999589056
 30
0.0
  0
VERTEX
  8
0
 10
21.862551873021552
 20
25.691250975135553
 30
0.0
  0
VERTEX
  8
0
 10
21.86681357031801
 20
25.67999177655791
 30
0.0
  0
VERTEX
  8
0
 10
21.871008154271205
 20
25.668737852774797
 30
0.0
  0
VERTEX
  8
0
 10
21.875135624881153
 20
25.65748965270491
 30
0.0
  0
VERTEX
  8
0
 10
21.87919598214785
 20
25.646247625266923
 30
0.0
  0
VERTEX
  8
0
 10
21.883189226071295
 20
25.635012219379526
 30
0.0
  0
VERTEX
  8
0
 10
21.887115356651492
 20
25.6237838839614
 30
0.0
  0
VERTEX
  8
0
 10
21.890974373888433
 20
25.612563067931237
 30
0.0
  0
VERTEX
  8
0
 10
21.894766277782125
 20
25.601350220207706
 30
0.0
  0
VERTEX
  8
0
 10
21.898491068332568
 20
25.590145789709503
 30
0.0
  0
VERTEX
  8
0
 10
21.90214874553976
 20
25.578950225355307
 30
0.0
  0
VERTEX
  8
0
 10
21.9057393094037
 20
25.56776397606381
 30
0.0
  0
VERTEX
  8
0
 10
21.90926275992438
 20
25.556587490753678
 30
0.0
  0
VERTEX
  8
0
 10
21.91271909710182
 20
25.54542121834361
 30
0.0
  0
VERTEX
  8
0
 10
21.916108320936008
 20
25.53426560775229
 30
0.0
  0
VERTEX
  8
0
 10
21.91943043142694
 20
25.52312110789839
 30
0.0
  0
VERTEX
  8
0
 10
21.922685428574624
 20
25.511988167700608
 30
0.0
  0
VERTEX
  8
0
 10
21.925873312379053
 20
25.500867236077617
 30
0.0
  0
VERTEX
  8
0
 10
21.92899408284024
 20
25.48975876194811
 30
0.0
  0
VERTEX
  8
0
 10
21.932047739958165
 20
25.478663194230766
 30
0.0
  0
VERTEX
  8
0
 10
21.935034283732843
 20
25.46758098184427
 30
0.0
  0
VERTEX
  8
0
 10
21.93795371416427
 20
25.4565125737073
 30
0.0
  0
VERTEX
  8
0
 10
21.94080603125245
 20
25.445458418738554
 30
0.0
  0
VERTEX
  8
0
 10
21.94359123499737
 20
25.434418965856704
 30
0.0
  0
VERTEX
  8
0
 10
21.946309325399042
 20
25.42339466398044
 30
0.0
  0
VERTEX
  8
0
 10
21.94896030245747
 20
25.412385962028438
 30
0.0
  0
VERTEX
  8
0
 10
21.95154416617264
 20
25.40139330891939
 30
0.0
  0
VERTEX
  8
0
 10
21.95406091654456
 20
25.39041715357198
 30
0.0
  0
VERTEX
  8
0
 10
21.956510553573228
 20
25.379457944904885
 30
0.0
  0
VERTEX
  8
0
 10
21.958893077258644
 20
25.36851613183679
 30
0.0
  0
VERTEX
  8
0
 10
21.961208487600807
 20
25.35759216328639
 30
0.0
  0
VERTEX
  8
0
 10
21.963456784599725
 20
25.34668648817236
 30
0.0
  0
VERTEX
  8
0
 10
21.96563796825539
 20
25.33579955541338
 30
0.0
  0
VERTEX
  8
0
 10
21.967752038567802
 20
25.324931813928146
 30
0.0
  0
VERTEX
  8
0
 10
21.969798995536962
 20
25.314083712635327
 30
0.0
  0
VERTEX
  8
0
 10
21.971778839162873
 20
25.303255700453622
 30
0.0
  0
VERTEX
  8
0
 10
21.973691569445535
 20
25.292448226301705
 30
0.0
  0
VERTEX
  8
0
 10
21.97553718638494
 20
25.281661739098265
 30
0.0
  0
VERTEX
  8
0
 10
21.977315689981097
 20
25.270896687761983
 30
0.0
  0
VERTEX
  8
0
 10
21.979027080234
 20
25.260153521211542
 30
0.0
  0
VERTEX
  8
0
 10
21.980671357143656
 20
25.249432688365623
 30
0.0
  0
VERTEX
  8
0
 10
21.98224852071006
 20
25.238734638142923
 30
0.0
  0
VERTEX
  8
0
 10
21.98375857093321
 20
25.228059819462114
 30
0.0
  0
VERTEX
  8
0
 10
21.985201507813112
 20
25.217408681241885
 30
0.0
  0
VERTEX
  8
0
 10
21.986577331349764
 20
25.206781672400915
 30
0.0
  0
VERTEX
  8
0
 10
21.98788604154316
 20
25.196179241857894
 30
0.0
  0
VERTEX
  8
0
 10
21.989127638393306
 20
25.185601838531507
 30
0.0
  0
VERTEX
  8
0
 10
21.9903021219002
 20
25.175049911340427
 30
0.0
  0
VERTEX
  8
0
 10
21.991409492063845
 20
25.16452390920335
 30
0.0
  0
VERTEX
  8
0
 10
21.99244974888424
 20
25.154024281038957
 30
0.0
  0
VERTEX
  8
0
 10
21.993422892361384
 20
25.143551475765932
 30
0.0
  0
VERTEX
  8
0
 10
21.994328922495274
 20
25.13310594230295
 30
0.0
  0
VERTEX
  8
0
 10
21.995167839285912
 20
25.122688129568708
 30
0.0
  0
VERTEX
  8
0
 10
21.9959396427333
 20
25.11229848648188
 30
0.0
  0
VERTEX
  8
0
 10
21.99664433283744
 20
25.101937461961153
 30
0.0
  0
VERTEX
  8
0
 10
21.99728190959833
 20
25.09160550492522
 30
0.0
  0
VERTEX
  8
0
 10
21.997852373015963
 20
25.081303064292747
 30
0.0
  0
VERTEX
  8
0
 10
21.99835572309035
 20
25.071030588982435
 30
0.0
  0
VERTEX
  8
0
 10
21.998791959821478
 20
25.06078852791296
 30
0.0
  0
VERTEX
  8
0
 10
21.999161083209362
 20
25.050577330003005
 30
0.0
  0
VERTEX
  8
0
 10
21.99946309325399
 20
25.04039744417126
 30
0.0
  0
VERTEX
  8
0
 10
21.999697989955372
 20
25.0302493193364
 30
0.0
  0
VERTEX
  8
0
 10
21.9998657733135
 20
25.02013340441711
 30
0.0
  0
VERTEX
  8
0
 10
21.999966443328372
 20
25.010050148332084
 30
0.0
  0
VERTEX
  8
0
 10
22.0
 20
25.0
 30
0.0
  0
VERTEX
  8
0
 10
22.0
 20
25.0
 30
0.0
  0
VERTEX
  8
0
 10
21.999108147708714
 20
24.966888138215793
 30
0.0
  0
VERTEX
  8
0
 10
21.996444555844214
 20
24.934431784978006
 30
0.0
  0
VERTEX
  8
0
 10
21.992027162333617
 20
24.902615451773553
 30
0.0
  0
VERTEX
  8
0
 10
21.985873891807362
 20
24.87142379771868
 30
0.0
  0
VERTEX
  8
0
 10
21.978002654956487
 20
24.84084162830358
 30
0.0
  0
VERTEX
  8
0
 10
21.968431347889858
 20
24.81085389413711
 30
0.0
  0
VERTEX
  8
0
 10
21.957177851491423
 20
24.781445689691363
 30
0.0
  0
VERTEX
  8
0
 10
21.94426003077752
 20
24.752602252046383
 30
0.0
  0
VERTEX
  8
0
 10
21.92969573425407
 20
24.724308959634747
 30
0.0
  0
VERTEX
  8
0
 10
21.91350279327391
 20
24.696551330986274
 30
0.0
  0
VERTEX
  8
0
 10
21.895699021393973
 20
24.669315023472652
 30
0.0
  0
VERTEX
  8
0
 10
21.876302213732625
 20
24.642585832052045
 30
0.0
  0
VERTEX
  8
0
 10
21.85533014632689
 20
24.616349688013834
 30
0.0
  0
VERTEX
  8
0
 10
21.83280057548967
 20
24.590592657723175
 30
0.0
  0
VERTEX
  8
0
 10
21.808731237167102
 20
24.56530094136568
 30
0.0
  0
VERTEX
  8
0
 10
21.78313984629573
 20
24.540460871692108
 30
0.0
  0
VERTEX
  8
0
 10
21.756044096159794
 20
24.516058912762926
 30
0.0
  0
VERTEX
  8
0
 10
21.7274616577485
 20
24.492081658693042
 30
0.0
  0
VERTEX
  8
0
 10
21.697410179113284
 20
24.468515832396406
 30
0.0
  0
VERTEX
  8
0
 10
21.665907284725044
 20
24.445348284330663
 30
0.0
  0
VERTEX
  8
0
 10
21.632970574831432
 20
24.42256599124182
 30
0.0
  0
VERTEX
  8
0
 10
21.598617624814082
 20
24.400156054908894
 30
0.0
  0
VERTEX
  8
0
 10
21.5628659845459
 20
24.378105700888522
 30
0.0
  0
VERTEX
  8
0
 10
21.525733177748325
 20
24.35640227725966
 30
0.0
  0
VERTEX
  8
0
 10
21.48723670134853
 20
24.335033253368202
 30
0.0
  0
VERTEX
  8
0
 10
21.44739402483678
 20
24.31398621857164
 30
0.0
  0
VERTEX
  8
0
 10
21.406222589623614
 20
24.293248880983704
 30
0.0
  0
VERTEX
  8
0
 10
21.36373980839712
 20
24.272809066219022
 30
0.0
  0
VERTEX
  8
0
 10
21.319963064480234
 20
24.252654716137748
 30
0.0
  0
VERTEX
  8
0
 10
21.274909711187952
 20
24.232773887590252
 30
0.0
  0
VERTEX
  8
0
 10
21.22859707118463
 20
24.21315475116172
 30
0.0
  0
VERTEX
  8
0
 10
21.181042435841185
 20
24.19378558991682
 30
0.0
  0
VERTEX
  8
0
 10
21.132263064592443
 20
24.17465479814438
 30
0.0
  0
VERTEX
  8
0
 10
21.08227618429431
 20
24.15575088010198
 30
0.0
  0
VERTEX
  8
0
 10
21.0310989885811
 20
24.13706244876065
 30
0.0
  0
VERTEX
  8
0
 10
20.978748637222754
 20
24.1185782245495
 30
0.0
  0
VERTEX
  8
0
 10
20.925242255482114
 20
24.100287034100347
 30
0.0
  0
VERTEX
  8
0
 10
20.870596933472175
 20
24.082177808992427
 30
0.0
  0
VERTEX
  8
0
 10
20.81482972551338
 20
24.064239584496967
 30
0.0
  0
VERTEX
  8
0
 10
20.757957649490834
 20
24.046461498321886
 30
0.0
  0
VERTEX
  8
0
 10
20.699997686211567
 20
24.028832789356414
 30
0.0
  0
VERTEX
  8
0
 10
20.640966778761843
 20
24.011342796415768
 30
0.0
  0
VERTEX
  8
0
 10
20.580881831864364
 20
23.993980956985766
 30
0.0
  0
VERTEX
  8
0
 10
20.519759711235565
 20
23.97673680596752
 30
0.0
  0
VERTEX
  8
0
 10
20.457617242942852
 20
23.95959997442203
 30
0.0
  0
VERTEX
  8
0
 10
20.39447121276189
 20
23.942560188314886
 30
0.0
  0
VERTEX
  8
0
 10
20.330338365533816
 20
23.925607267260894
 30
0.0
  0
VERTEX
  8
0
 10
20.26523540452256
 20
23.908731123268694
 30
0.0
  0
VERTEX
  8
0
 10
20.199178990772047
 20
23.89192175948547
 30
0.0
  0
VERTEX
  8
0
 10
20.132185742463513
 20
23.87516926894156
 30
0.0
  0
VERTEX
  8
0
 10
20.064272234272696
 20
23.858463833295094
 30
0.0
  0
VERTEX
  8
0
 10
19.99545499672718
 20
23.841795721576677
 30
0.0
  0
VERTEX
  8
0
 10
19.925750515563575
 20
23.82515528893402
 30
0.0
  0
VERTEX
  8
0
 10
19.85517523108483
 20
23.80853297537658
 30
0.0
  0
VERTEX
  8
0
 10
19.783745537517483
 20
23.79191930452022
 30
0.0
  0
VERTEX
  8
0
 10
19.711477782368885
 20
23.77530488233186
 30
0.0
  0
VERTEX
  8
0
 10
19.638388265784535
 20
23.758680395874116
 30
0.0
  0
VERTEX
  8
0
 10
19.564493239905243
 20
23.74203661204996
 30
0.0
  0
VERTEX
  8
0
 10
19.48980890822447
 20
23.725364376347354
 30
0.0
  0
VERTEX
  8
0
 10
19.41435142494557
 20
23.70865461158391
 30
0.0
  0
VERTEX
  8
0
 10
19.33813689433901
 20
23.691898316651535
 30
0.0
  0
VERTEX
  8
0
 10
19.261181370099685
 20
23.675086565261072
 30
0.0
  0
VERTEX
  8
0
 10
19.18350085470414
 20
23.65821050468698
 30
0.0
  0
VERTEX
  8
0
 10
19.105111298767834
 20
23.64126135451193
 30
0.0
  0
VERTEX
  8
0
 10
19.026028600402437
 20
23.624230405371506
 30
0.0
  0
VERTEX
  8
0
 10
18.94626860457303
 20
23.6071090176988
 30
0.0
  0
VERTEX
  8
0
 10
18.865847102455422
 20
23.589888620469136
 30
0.0
  0
VERTEX
  8
0
 10
18.78477983079337
 20
23.57256070994463
 30
0.0
  0
VERTEX
  8
0
 10
18.70308247125586
 20
23.55511684841891
 30
0.0
  0
VERTEX
  8
0
 10
18.620770649794355
 20
23.53754866296172
 30
0.0
  0
VERTEX
  8
0
 10
18.53785993600007
 20
23.51984784416358
 30
0.0
  0
VERTEX
  8
0
 10
18.454365842461222
 20
23.502006144880472
 30
0.0
  0
VERTEX
  8
0
 10
18.37030382412029
 20
23.484015378978427
 30
0.0
  0
VERTEX
  8
0
 10
18.28568927763127
 20
23.46586742007822
 30
0.0
  0
VERTEX
  8
0
 10
18.20053754071696
 20
23.44755420029998
 30
0.0
  0
VERTEX
  8
0
 10
18.114863891526173
 20
23.429067709007874
 30
0.0
  0
VERTEX
  8
0
 10
18.028683547991054
 20
23.410399991554748
 30
0.0
  0
VERTEX
  8
0
 10
17.942011667184293
 20
23.391543148026756
 30
0.0
  0
VERTEX
  8
0
 10
17.854863344676417
 20
23.372489331988024
 30
0.0
  0
VERTEX
  8
0
 10
17.767253613893022
 20
23.353230749225308
 30
0.0
  0
VERTEX
  8
0
 10
17.679197445472063
 20
23.33375965649262
 30
0.0
  0
VERTEX
  8
0
 10
17.59070974662109
 20
23.31406836025589
 30
0.0
  0
VERTEX
  8
0
 10
17.501805360474528
 20
23.294149215437614
 30
0.0
  0
VERTEX
  8
0
 10
17.412499065450902
 20
23.273994624161503
 30
0.0
  0
VERTEX
  8
0
 10
17.322805574610157
 20
23.25359703449712
 30
0.0
  0
VERTEX
  8
0
 10
17.232739535010857
 20
23.23294893920454
 30
0.0
  0
VERTEX
  8
0
 10
17.142315527067474
 20
23.212042874479017
 30
0.0
  0
VERTEX
  8
0
 10
17.051548063907653
 20
23.190871418695583
 30
0.0
  0
VERTEX
  8
0
 10
16.960451590729445
 20
23.169427191153748
 30
0.0
  0
VERTEX
  8
0
 10
16.86904048415862
 20
23.147702850822114
 30
0.0
  0
VERTEX
  8
0
 10
16.777329051605857
 20
23.12569109508303
 30
0.0
  0
VERTEX
  8
0
 10
16.68533153062406
 20
23.103384658477268
 30
0.0
  0
VERTEX
  8
0
 10
16.5930620882656
 20
23.08077631144863
 30
0.0
  0
VERTEX
  8
0
 10
16.500534820439555
 20
23.057858859088633
 30
0.0
  0
VERTEX
  8
0
 10
16.40776375126901
 20
23.034625139881125
 30
0.0
  0
VERTEX
  8
0
 10
16.314762832448277
 20
23.011068024446967
 30
0.0
  0
VERTEX
  8
0
 10
16.221545942600187
 20
22.987180414288655
 30
0.0
  0
VERTEX
  8
0
 10
16.128126886633332
 20
22.962955240534967
 30
0.0
  0
VERTEX
  8
0
 10
16.03451939509932
 20
22.938385462685645
 30
0.0
  0
VERTEX
  8
0
 10
15.940737123550067
 20
22.91346406735601
 30
0.0
  0
VERTEX
  8
0
 10
15.84679365189501
 20
22.88818406702163
 30
0.0
  0
VERTEX
  8
0
 10
15.752702483758412
 20
22.862538498762934
 30
0.0
  0
VERTEX
  8
0
 10
15.65847704583658
 20
22.83652042300993
 30
0.0
  0
VERTEX
  8
0
 10
15.564130687255169
 20
22.81012292228677
 30
0.0
  0
VERTEX
  8
0
 10
15.469676678926406
 20
22.783339099956468
 30
0.0
  0
VERTEX
  8
0
 10
15.375128212906379
 20
22.7561620789655
 30
0.0
  0
VERTEX
  8
0
 10
15.280498401752258
 20
22.728585000588488
 30
0.0
  0
VERTEX
  8
0
 10
15.185800277879602
 20
22.700601023172823
 30
0.0
  0
VERTEX
  8
0
 10
15.091046792919585
 20
22.67220332088333
 30
0.0
  0
VERTEX
  8
0
 10
14.99625081707627
 20
22.643385082446905
 30
0.0
  0
VERTEX
  8
0
 10
14.901425138483868
 20
22.614139509897168
 30
0.0
  0
VERTEX
  8
0
 10
14.806582462563997
 20
22.58445981731913
 30
0.0
  0
VERTEX
  8
0
 10
14.711735411382929
 20
22.554339229593793
 30
0.0
  0
VERTEX
  8
0
 10
14.616896523008887
 20
22.52377098114285
 30
0.0
  0
VERTEX
  8
0
 10
14.52207825086926
 20
22.492748314673317
 30
0.0
  0
VERTEX
  8
0
 10
14.427292963107899
 20
22.46126447992217
 30
0.0
  0
VERTEX
  8
0
 10
14.332552941942344
 20
22.429312732401
 30
0.0
  0
VERTEX
  8
0
 10
14.237870383021123
 20
22.396886332140657
 30
0.0
  0
VERTEX
  8
0
 10
14.14325739478097
 20
22.363978542435927
 30
0.0
  0
VERTEX
  8
0
 10
14.048725997804127
 20
22.330582628590133
 30
0.0
  0
VERTEX
  8
0
 10
13.954288124175566
 20
22.296691856659823
 30
0.0
  0
VERTEX
  8
0
 10
13.859955616840278
 20
22.262299492199407
 30
0.0
  0
VERTEX
  8
0
 10
13.765740228960516
 20
22.22739879900579
 30
0.0
  0
VERTEX
  8
0
 10
13.67165362327306
 20
22.191983037863043
 30
0.0
  0
VERTEX
  8
0
 10
13.577707371446483
 20
22.156045465287047
 30
0.0
  0
VERTEX
  8
0
 10
13.483912953438399
 20
22.11957933227012
 30
0.0
  0
VERTEX
  8
0
 10
13.390281756852733
 20
22.082577883025703
 30
0.0
  0
VERTEX
  8
0
 10
13.296825076296983
 20
22.045034353732966
 30
0.0
  0
VERTEX
  8
0
 10
13.203554112739464
 20
22.0069419712815
 30
0.0
  0
VERTEX
  8
0
 10
13.110479972866584
 20
21.968293952015927
 30
0.0
  0
VERTEX
  8
0
 10
13.017613668440106
 20
21.92908350048058
 30
0.0
  0
VERTEX
  8
0
 10
12.92496611565439
 20
21.889303808164122
 30
0.0
  0
VERTEX
  8
0
 10
12.83254813449367
 20
21.84894805224423
 30
0.0
  0
VERTEX
  8
0
 10
12.740370448089312
 20
21.808009394332203
 30
0.0
  0
VERTEX
  8
0
 10
12.648443682077065
 20
21.766480979217643
 30
0.0
  0
VERTEX
  8
0
 10
12.556778363954326
 20
21.724355933613086
 30
0.0
  0
VERTEX
  8
0
 10
12.465384922437401
 20
21.681627364898663
 30
0.0
  0
VERTEX
  8
0
 10
12.374273686818771
 20
21.638288359866742
 30
0.0
  0
VERTEX
  8
0
 10
12.283454886324337
 20
21.594331983466567
 30
0.0
  0
VERTEX
  8
0
 10
12.192938649470696
 20
21.549751277548925
 30
0.0
  0
VERTEX
  8
0
 10
12.10273500342238
 20
21.50453925961077
 30
0.0
  0
VERTEX
  8
0
 10
12.012853873349158
 20
21.45868892153992
 30
0.0
  0
VERTEX
  8
0
 10
11.92330508178324
 20
21.412193228359644
 30
0.0
  0
VERTEX
  8
0
 10
11.834098347976584
 20
21.36504511697335
 30
0.0
  0
VERTEX
  8
0
 10
11.745243287258122
 20
21.317237494909218
 30
0.0
  0
VERTEX
  8
0
 10
11.656749410391042
 20
21.268763239064864
 30
0.0
  0
VERTEX
  8
0
 10
11.568626122930047
 20
21.219615194451965
 30
0.0
  0
VERTEX
  8
0
 10
11.480882724578603
 20
21.169786172940928
 30
0.0
  0
VERTEX
  8
0
 10
11.393528408546207
 20
21.119268952005537
 30
0.0
  0
VERTEX
  8
0
 10
11.306572260905645
 20
21.068056273467583
 30
0.0
  0
VERTEX
  8
0
 10
11.220023259950255
 20
21.01614084224154
 30
0.0
  0
VERTEX
  8
0
 10
11.133890275551183
 20
20.963515325079186
 30
0.0
  0
VERTEX
  8
0
 10
11.048182068514645
 20
20.910172349314273
 30
0.0
  0
VERTEX
  8
0
 10
10.962907289939183
 20
20.85610450160716
 30
0.0
  0
VERTEX
  8
0
 10
10.87807448057294
 20
20.80130432668949
 30
0.0
  0
VERTEX
  8
0
 10
10.793692070170904
 20
20.745764326108787
 30
0.0
  0
VERTEX
  8
0
 10
10.709768376852164
 20
20.689476956973152
 30
0.0
  0
VERTEX
  8
0
 10
10.626311606457193
 20
20.632434630695904
 30
0.0
  0
VERTEX
  8
0
 10
10.543329851905085
 20
20.574629711740194
 30
0.0
  0
VERTEX
  8
0
 10
10.460831092550832
 20
20.51605451636371
 30
0.0
  0
VERTEX
  8
0
 10
10.378823193542567
 20
20.45670131136326
 30
0.0
  0
VERTEX
  8
0
 10
10.297313905178841
 20
20.39656231281949
 30
0.0
  0
VERTEX
  8
0
 10
10.216310862265878
 20
20.335629684841475
 30
0.0
  0
VERTEX
  8
0
 10
10.135821583474824
 20
20.27389553831139
 30
0.0
  0
VERTEX
  8
0
 10
10.055853470699022
 20
20.21135192962918
 30
0.0
  0
VERTEX
  8
0
 10
9.976413808411264
 20
20.14799085945716
 30
0.0
  0
VERTEX
  8
0
 10
9.897509763021054
 20
20.08380427146471
 30
0.0
  0
VERTEX
  8
0
 10
9.819148382231866
 20
20.018784051072902
 30
0.0
  0
VERTEX
  8
0
 10
9.741336594398403
 20
19.952922024199147
 30
0.0
  0
VERTEX
  8
0
 10
9.664081207883866
 20
19.88620995600185
 30
0.0
  0
VERTEX
  8
0
 10
9.587388910417205
 20
19.81863954962505
 30
0.0
  0
VERTEX
  8
0
 10
9.511266268450377
 20
19.750202444943092
 30
0.0
  0
VERTEX
  8
0
 10
9.435719726515611
 20
19.68089021730524
 30
0.0
  0
VERTEX
  8
0
 10
9.360755606582675
 20
19.61069437628036
 30
0.0
  0
VERTEX
  8
0
 10
9.286380107416118
 20
19.539606364401536
 30
0.0
  0
VERTEX
  8
0
 10
9.212599303932551
 20
19.467617555910756
 30
0.0
  0
VERTEX
  8
0
 10
9.13941914655789
 20
19.394719255503524
 30
0.0
  0
VERTEX
  8
0
 10
9.066845460584625
 20
19.320902697073524
 30
0.0
  0
VERTEX
  8
0
 10
8.994883945529079
 20
19.246159042457286
 30
0.0
  0
VERTEX
  8
0
 10
8.92354017448866
 20
19.170479380178797
 30
0.0
  0
VERTEX
  8
0
 10
8.852819593499145
 20
19.093854724194195
 30
0.0
  0
VERTEX
  8
0
 10
8.782727520891909
 20
19.016276012636364
 30
0.0
  0
VERTEX
  8
0
 10
8.713269146651202
 20
18.937734106559642
 30
0.0
  0
VERTEX
  8
0
 10
8.644449531771404
 20
18.85821978868441
 30
0.0
  0
VERTEX
  8
0
 10
8.576273607614294
 20
18.777723762141786
 30
0.0
  0
VERTEX
  8
0
 10
8.508746175266301
 20
18.696236649218264
 30
0.0
  0
VERTEX
  8
0
 10
8.441871904895763
 20
18.613748990100333
 30
0.0
  0
VERTEX
  8
0
 10
8.375655335110196
 20
18.53025124161918
 30
0.0
  0
VERTEX
  8
0
 10
8.310100872313546
 20
18.44573377599528
 30
0.0
  0
VERTEX
  8
0
 10
8.245212790063453
 20
18.360186879583086
 30
0.0
  0
VERTEX
  8
0
 10
8.180995228428507
 20
18.273600751615657
 30
0.0
  0
VERTEX
  8
0
 10
8.117452193345514
 20
18.185965502949315
 30
0.0
  0
VERTEX
  8
0
 10
8.054587555976756
 20
18.0972711548083
 30
0.0
  0
VERTEX
  8
0
 10
7.992405052067241
 20
18.007507637529393
 30
0.0
  0
VERTEX
  8
0
 10
7.930908281301974
 20
17.916664789306598
 30
0.0
  0
VERTEX
  8
0
 10
7.870100706663217
 20
17.824732354935765
 30
0.0
  0
VERTEX
  8
0
 10
7.809985653787737
 20
17.731699984559253
 30
0.0
  0
VERTEX
  8
0
 10
7.750566310324082
 20
17.637557232410572
 30
0.0
  0
VERTEX
  8
0
 10
7.691845725289831
 20
17.542293555559027
 30
0.0
  0
VERTEX
  8
0
 10
7.633826808428854
 20
17.44589831265439
 30
0.0
  0
VERTEX
  8
0
 10
7.57651232956858
 20
17.34836076267151
 30
0.0
  0
VERTEX
  8
0
 10
7.5199049179772475
 20
17.249670063654996
 30
0.0
  0
VERTEX
  8
0
 10
7.464007061721173
 20
17.14981527146385
 30
0.0
  0
VERTEX
  8
0
 10
7.408821107022004
 20
17.048785338516122
 30
0.0
  0
VERTEX
  8
0
 10
7.354349257613981
 20
16.946569112533545
 30
0.0
  0
VERTEX
  8
0
 10
7.300593574101201
 20
16.843155335286205
 30
0.0
  0
VERTEX
  8
0
 10
7.247555973314875
 20
16.738532641337166
 30
0.0
  0
VERTEX
  8
0
 10
7.195238227670589
 20
16.63268955678714
 30
0.0
  0
VERTEX
  8
0
 10
7.14364196452556
 20
16.52561449801912
 30
0.0
  0
VERTEX
  8
0
 10
7.092768665535905
 20
16.417295770443044
 30
0.0
  0
VERTEX
  8
0
 10
7.04261966601389
 20
16.30772156724042
 30
0.0
  0
VERTEX
  8
0
 10
6.993196154285199
 20
16.196879968109002
 30
0.0
  0
VERTEX
  8
0
 10
6.944499171046189
 20
16.08475893800742
 30
0.0
  0
VERTEX
  8
0
 10
6.896529608721153
 20
15.971346325899834
 30
0.0
  0
VERTEX
  8
0
 10
6.84928821081958
 20
15.856629863500583
 30
0.0
  0
VERTEX
  8
0
 10
6.802775571293411
 20
15.740597164018837
 30
0.0
  0
VERTEX
  8
0
 10
6.756992133894304
 20
15.623235720903235
 30
0.0
  0
VERTEX
  8
0
 10
6.7119381915308916
 20
15.504532906586544
 30
0.0
  0
VERTEX
  8
0
 10
6.667613885626042
 20
15.384475971230309
 30
0.0
  0
VERTEX
  8
0
 10
6.6240192054741165
 20
15.263052041469482
 30
0.0
  0
VERTEX
  8
0
 10
6.581153987598238
 20
15.140248119157107
 30
0.0
  0
VERTEX
  8
0
 10
6.539017915107537
 20
15.01605108010893
 30
0.0
  0
VERTEX
  8
0
 10
6.497610517054423
 20
14.890447672848069
 30
0.0
  0
VERTEX
  8
0
 10
6.4569311677918435
 20
14.763424517349659
 30
0.0
  0
VERTEX
  8
0
 10
6.416979086330538
 20
14.634968103785504
 30
0.0
  0
VERTEX
  8
0
 10
6.377753335696302
 20
14.505064791268712
 30
0.0
  0
VERTEX
  8
0
 10
6.339252822287251
 20
14.373700806598357
 30
0.0
  0
VERTEX
  8
0
 10
6.301476295231072
 20
14.240862243004129
 30
0.0
  0
VERTEX
  8
0
 10
6.264422345742286
 20
14.106535058890966
 30
0.0
  0
VERTEX
  8
0
 10
6.228089406479521
 20
13.970705076583725
 30
0.0
  0
VERTEX
  8
0
 10
6.192475750902745
 20
13.833357981071806
 30
0.0
  0
VERTEX
  8
0
 10
6.157579492630559
 20
13.694479318753839
 30
0.0
  0
VERTEX
  8
0
 10
6.123398584797428
 20
13.554054496182275
 30
0.0
  0
VERTEX
  8
0
 10
6.089930819410961
 20
13.412068778808091
 30
0.0
  0
VERTEX
  8
0
 10
6.057173826709157
 20
13.268507289725399
 30
0.0
  0
VERTEX
  8
0
 10
6.025125074517675
 20
13.12335500841612
 30
0.0
  0
VERTEX
  8
0
 10
5.993781867607092
 20
12.976596769494623
 30
0.0
  0
VERTEX
  8
0
 10
5.96314134705016
 20
12.828217261452371
 30
0.0
  0
VERTEX
  8
0
 10
5.933200489579069
 20
12.678201025402567
 30
0.0
  0
VERTEX
  8
0
 10
5.903956106942704
 20
12.526532453824817
 30
0.0
  0
VERTEX
  8
0
 10
5.875404845263908
 20
12.373195789309761
 30
0.0
  0
VERTEX
  8
0
 10
5.847543184396741
 20
12.218175123303734
 30
0.0
  0
VERTEX
  8
0
 10
5.82036743728374
 20
12.061454394853412
 30
0.0
  0
VERTEX
  8
0
 10
5.79387374931318
 20
11.90301738935045
 30
0.0
  0
VERTEX
  8
0
 10
5.768058097676333
 20
11.742847737276154
 30
0.0
  0
VERTEX
  8
0
 10
5.742916290724727
 20
11.580928912946103
 30
0.0
  0
VERTEX
  8
0
 10
5.71844396732741
 20
11.417244233254817
 30
0.0
  0
VERTEX
  8
0
 10
5.6946365962282055
 20
11.251776856420392
 30
0.0
  0
VERTEX
  8
0
 10
5.671489475402975
 20
11.08450978072916
 30
0.0
  0
VERTEX
  8
0
 10
5.648997731416877
 20
10.91542584328033
 30
0.0
  0
VERTEX
  8
0
 10
5.627156318781632
 20
10.744507718730643
 30
0.0
  0
VERTEX
  8
0
 10
5.605960019312772
 20
10.571737918039013
 30
0.0
  0
VERTEX
  8
0
 10
5.585403441486912
 20
10.39709878721118
 30
0.0
  0
VERTEX
  8
0
 10
5.565481019799003
 20
10.220572506044356
 30
0.0
  0
VERTEX
  8
0
 10
5.546187014119592
 20
10.04214108687188
 30
0.0
  0
VERTEX
  8
0
 10
5.5275155090520895
 20
9.861786373307858
 30
0.0
  0
VERTEX
  8
0
 10
5.50946041329002
 20
9.679490038991819
 30
0.0
  0
VERTEX
  8
0
 10
5.492015458974288
 20
9.495233586333363
 30
0.0
  0
VERTEX
  8
0
 10
5.475174201050434
 20
9.308998345256793
 30
0.0
  0
VERTEX
  8
0
 10
5.458930016625901
 20
9.120765471945793
 30
0.0
  0
VERTEX
  8
0
 10
5.443276104327288
 20
8.930515947588056
 30
0.0
  0
VERTEX
  8
0
 10
5.428205483657614
 20
8.73823057711994
 30
0.0
  0
VERTEX
  8
0
 10
5.4137109943535755
 20
8.543889987971102
 30
0.0
  0
VERTEX
  8
0
 10
5.399785295742808
 20
8.347474628809177
 30
0.0
  0
VERTEX
  8
0
 10
5.386420866101146
 20
8.148964768284396
 30
0.0
  0
VERTEX
  8
0
 10
5.373610002009885
 20
7.94834049377425
 30
0.0
  0
VERTEX
  8
0
 10
5.361344817713035
 20
7.745581710128137
 30
0.0
  0
VERTEX
  8
0
 10
5.349617244474592
 20
7.54066813841201
 30
0.0
  0
VERTEX
  8
0
 10
5.338419029935784
 20
7.333579314653022
 30
0.0
  0
VERTEX
  8
0
 10
5.327741737472342
 20
7.124294588584181
 30
0.0
  0
VERTEX
  8
0
 10
5.317576745551758
 20
6.912793122388993
 30
0.0
  0
VERTEX
  8
0
 10
5.3079152470905395
 20
6.699053889446109
 30
0.0
  0
VERTEX
  8
0
 10
5.298748248811476
 20
6.4830556730739834
 30
0.0
  0
VERTEX
  8
0
 10
5.290066570600897
 20
6.264777065275514
 30
0.0
  0
VERTEX
  8
0
 10
5.281860844865929
 20
6.044196465482694
 30
0.0
  0
VERTEX
  8
0
 10
5.274121515891762
 20
5.821292079301257
 30
0.0
  0
VERTEX
  8
0
 10
5.266838839198904
 20
5.596041917255329
 30
0.0
  0
VERTEX
  8
0
 10
5.260002880900442
 20
5.368423793532079
 30
0.0
  0
VERTEX
  8
0
 10
5.253603517059305
 20
5.138415324726363
 30
0.0
  0
VERTEX
  8
0
 10
5.24763043304552
 20
4.905993928585371
 30
0.0
  0
VERTEX
  8
0
 10
5.242073122893476
 20
4.671136822753286
 30
0.0
  0
VERTEX
  8
0
 10
5.236920888659183
 20
4.433821023515911
 30
0.0
  0
VERTEX
  8
0
 10
5.232162839777528
 20
4.19402334454536
 30
0.0
  0
VERTEX
  8
0
 10
5.227787892419542
 20
3.951720395644652
 30
0.0
  0
VERTEX
  8
0
 10
5.223784768849655
 20
3.7068885814923997
 30
0.0
  0
VERTEX
  8
0
 10
5.2201419967829565
 20
3.4595041003874383
 30
0.0
  0
VERTEX
  8
0
 10
5.216847908742457
 20
3.209542942993484
 30
0.0
  0
VERTEX
  8
0
 10
5.213890641416352
 20
2.956980891083779
 30
0.0
  0
VERTEX
  8
0
 10
5.211258135015272
 20
2.70179351628574
 30
0.0
  0
VERTEX
  8
0
 10
5.20893813262955
 20
2.4439561788256055
 30
0.0
  0
VERTEX
  8
0
 10
5.206918179586483
 20
2.1834440262730883
 30
0.0
  0
VERTEX
  8
0
 10
5.205185622807587
 20
1.9202319922860203
 30
0.0
  0
VERTEX
  8
0
 10
5.203727610165858
 20
1.6542947953550031
 30
0.0
  0
VERTEX
  8
0
 10
5.202531089843034
 20
1.3856069375480555
 30
0.0
  0
VERTEX
  8
0
 10
5.201582809686856
 20
1.1141427032552635
 30
0.0
  0
VERTEX
  8
0
 10
5.2008693165683235
 20
0.8398761579334273
 30
0.0
  0
VERTEX
  8
0
 10
5.20037695573896
 20
0.5627811468507105
 30
0.0
  0
VERTEX
  8
0
 10
5.2000918701880705
 20
0.2828312938312892
 30
0.0
  0
VERTEX
  8
0
 10
5.2
 20
0.0
 30
0.0
  0
SEQEND
  0
ENDSEC
  0
EOF
