999
dxfrw 0.6.3
  0
SECTION
  2
HEADER
  9
$ACADVER
  1
AC1021
  9
$DWGCODEPAGE
  3
ANSI_1252
  9
$INSBASE
 10
0
 20
0
 30
0
  9
$EXTMIN
 10
0.381
 20
0
 30
0
  9
$EXTMAX
 10
22
 20
27.5
 30
0
  9
$LIMMIN
 10
0
 20
0
  9
$LIMMAX
 10
420
 20
297
  9
$ORTHOMODE
 70
    0
  9
$REGENMODE
 70
    1
  9
$FILLMODE
 70
    1
  9
$QTEXTMODE
 70
    0
  9
$MIRRTEXT
 70
    0
  9
$LTSCALE
 40
1
  9
$ATTMODE
 70
    0
  9
$TEXTSIZE
 40
2.5
  9
$TRACEWID
 40
15.68
  9
$TEXTSTYLE
  7
STANDARD
  9
$CLAYER
  8
0
  9
$CELTYPE
  6
BYLAYER
  9
$CECOLOR
 62
  256
  9
$CELTSCALE
 40
1
  9
$DISPSILH
 70
    0
  9
$DIMSCALE
 40
2.5
  9
$DIMASZ
 40
2.5
  9
$DIMEXO
 40
0.625
  9
$DIMDLI
 40
3.75
  9
$DIMRND
 40
0
  9
$DIMDLE
 40
0
  9
$DIMEXE
 40
1.25
  9
$DIMTP
 40
0
  9
$DIMTM
 40
0
  9
$DIMTXT
 40
2.5
  9
$DIMCEN
 40
2.5
  9
$DIMTSZ
 40
0
  9
$DIMTOL
 70
    0
  9
$DIMLIM
 70
    0
  9
$DIMTIH
 70
    0
  9
$DIMTOH
 70
    0
  9
$DIMSE1
 70
    0
  9
$DIMSE2
 70
    0
  9
$DIMTAD
 70
    1
  9
$DIMZIN
 70
    8
  9
$DIMBLK
  1

  9
$DIMASO
 70
    1
  9
$DIMSHO
 70
    1
  9
$DIMPOST
  1

  9
$DIMAPOST
  1

  9
$DIMALT
 70
    0
  9
$DIMALTD
 70
    3
  9
$DIMALTF
 40
0.03937
  9
$DIMLFAC
 40
1
  9
$DIMTOFL
 70
    1
  9
$DIMTVP
 40
0
  9
$DIMTIX
 70
    0
  9
$DIMSOXD
 70
    0
  9
$DIMSAH
 70
    0
  9
$DIMBLK1
  1

  9
$DIMBLK2
  1

  9
$DIMSTYLE
  2
Standard
  9
$DIMCLRD
 70
    0
  9
$DIMCLRE
 70
    0
  9
$DIMCLRT
 70
    0
  9
$DIMTFAC
 40
1
  9
$DIMGAP
 40
0.625
  9
$DIMJUST
 70
    0
  9
$DIMSD1
 70
    0
  9
$DIMSD2
 70
    0
  9
$DIMTOLJ
 70
    0
  9
$DIMTZIN
 70
    8
  9
$DIMALTZ
 70
    0
  9
$DIMALTTZ
 70
    0
  9
$DIMUPT
 70
    0
  9
$DIMDEC
 70
    2
  9
$DIMTDEC
 70
    2
  9
$DIMALTU
 70
    2
  9
$DIMALTTD
 70
    3
  9
$DIMTXSTY
  7
STANDARD
  9
$DIMAUNIT
 70
    0
  9
$DIMADEC
 70
    0
  9
$DIMALTRND
 40
0
  9
$DIMAZIN
 70
    0
  9
$DIMDSEP
 70
   44
  9
$DIMATFIT
 70
    3
  9
$DIMFRAC
 70
    0
  9
$DIMLDRBLK
  1
STANDARD
  9
$DIMLUNIT
 70
    2
  9
$DIMLWD
 70
   -2
  9
$DIMLWE
 70
   -2
  9
$DIMTMOVE
 70
    0
  9
$DIMFXL
 40
1
  9
$DIMFXLON
 70
    0
  9
$DIMJOGANG
 40
0.7854
  9
$DIMTFILL
 70
    0
  9
$DIMTFILLCLR
 70
    0
  9
$DIMARCSYM
 70
    0
  9
$DIMLTYPE
  6

  9
$DIMLTEX1
  6

  9
$DIMLTEX2
  6

  9
$LUNITS
 70
    2
  9
$LUPREC
 70
    4
  9
$SKETCHINC
 40
1
  9
$FILLETRAD
 40
0
  9
$AUNITS
 70
    0
  9
$AUPREC
 70
    2
  9
$MENU
  1
.
  9
$ELEVATION
 40
0
  9
$PELEVATION
 40
0
  9
$THICKNESS
 40
0
  9
$LIMCHECK
 70
    0
  9
$CHAMFERA
 40
0
  9
$CHAMFERB
 40
0
  9
$CHAMFERC
 40
0
  9
$CHAMFERD
 40
0
  9
$SKPOLY
 70
    0
  9
$USRTIMER
 70
    1
  9
$ANGBASE
 50
0
  9
$ANGDIR
 70
    0
  9
$PDMODE
 70
   34
  9
$PDSIZE
 40
0
  9
$PLINEWID
 40
0
  9
$SPLFRAME
 70
    0
  9
$SPLINETYPE
 70
    2
  9
$SPLINESEGS
 70
    8
  9
$HANDSEED
  5
20000
  9
$SURFTAB1
 70
    6
  9
$SURFTAB2
 70
    6
  9
$SURFTYPE
 70
    6
  9
$SURFU
 70
    6
  9
$SURFV
 70
    6
  9
$UCSBASE
  2

  9
$UCSNAME
  2

  9
$UCSORG
 10
0
 20
0
 30
0
  9
$UCSXDIR
 10
1
 20
0
 30
0
  9
$UCSYDIR
 10
0
 20
1
 30
0
  9
$UCSORTHOREF
  2

  9
$UCSORTHOVIEW
 70
    0
  9
$UCSORGTOP
 10
0
 20
0
 30
0
  9
$UCSORGBOTTOM
 10
0
 20
0
 30
0
  9
$UCSORGLEFT
 10
0
 20
0
 30
0
  9
$UCSORGRIGHT
 10
0
 20
0
 30
0
  9
$UCSORGFRONT
 10
0
 20
0
 30
0
  9
$UCSORGBACK
 10
0
 20
0
 30
0
  9
$PUCSBASE
  2

  9
$PUCSNAME
  2

  9
$PUCSORG
 10
0
 20
0
 30
0
  9
$PUCSXDIR
 10
1
 20
0
 30
0
  9
$PUCSYDIR
 10
0
 20
1
 30
0
  9
$PUCSORTHOREF
  2

  9
$PUCSORTHOVIEW
 70
    0
  9
$PUCSORGTOP
 10
0
 20
0
 30
0
  9
$PUCSORGBOTTOM
 10
0
 20
0
 30
0
  9
$PUCSORGLEFT
 10
0
 20
0
 30
0
  9
$PUCSORGRIGHT
 10
0
 20
0
 30
0
  9
$PUCSORGFRONT
 10
0
 20
0
 30
0
  9
$PUCSORGBACK
 10
0
 20
0
 30
0
  9
$USERI1
 70
    0
  9
$USERI2
 70
    0
  9
$USERI3
 70
    0
  9
$USERI4
 70
    0
  9
$USERI5
 70
    0
  9
$USERR1
 40
0
  9
$USERR2
 40
0
  9
$USERR3
 40
0
  9
$USERR4
 40
0
  9
$USERR5
 40
0
  9
$WORLDVIEW
 70
    1
  9
$SHADEDGE
 70
    3
  9
$SHADEDIF
 70
   70
  9
$TILEMODE
 70
    1
  9
$MAXACTVP
 70
   64
  9
$PINSBASE
 10
0
 20
0
 30
0
  9
$PLIMCHECK
 70
    0
  9
$PEXTMIN
 10
0
 20
0
 30
0
  9
$PEXTMAX
 10
0
 20
0
 30
0
  9
$SNAPSTYLE
 70
    0
  9
$PLIMMIN
 10
0
 20
0
  9
$PLIMMAX
 10
210
 20
297
  9
$UNITMODE
 70
    0
  9
$VISRETAIN
 70
    1
  9
$PLINEGEN
 70
    0
  9
$PSLTSCALE
 70
    1
  9
$TREEDEPTH
 70
 3020
  9
$CMLSTYLE
  2
Standard
  9
$CMLJUST
 70
    0
  9
$CMLSCALE
 40
20
  9
$PROXYGRAPHICS
 70
    1
  9
$MEASUREMENT
 70
    1
  9
$CELWEIGHT
370
   -1
  9
$ENDCAPS
280
    0
  9
$JOINSTYLE
280
    0
  9
$LWDISPLAY
290
    0
  9
$INSUNITS
 70
    4
  9
$HYPERLINKBASE
  1

  9
$STYLESHEET
  1

  9
$XEDIT
290
    1
  9
$CEPSNTYPE
380
    0
  9
$PSTYLEMODE
290
    1
  9
$EXTNAMES
290
    1
  9
$PSVPSCALE
 40
1
  9
$OLESTARTUP
290
    0
  9
$SORTENTS
280
  127
  9
$INDEXCTL
280
    0
  9
$HIDETEXT
280
    1
  9
$XCLIPFRAME
290
    0
  9
$HALOGAP
280
    0
  9
$OBSCOLOR
 70
  257
  9
$OBSLTYPE
280
    0
  9
$INTERSECTIONDISPLAY
280
    0
  9
$INTERSECTIONCOLOR
 70
  257
  9
$DIMASSOC
280
    1
  9
$PROJECTNAME
  1

  9
$CAMERADISPLAY
290
    0
  9
$LENSLENGTH
 40
50
  9
$CAMERAHEIGHT
 40
0
  9
$STEPSPERSEC
 40
2
  9
$STEPSIZE
 40
50
  9
$3DDWFPREC
 40
2
  9
$PSOLWIDTH
 40
5
  9
$PSOLHEIGHT
 40
80
  9
$LOFTANG1
 40
1.570796326794897
  9
$LOFTANG2
 40
1.570796326794897
  9
$LOFTMAG1
 40
0
  9
$LOFTMAG2
 40
0
  9
$LOFTPARAM
 70
    7
  9
$LOFTNORMALS
280
    1
  9
$LATITUDE
 40
1
  9
$LONGITUDE
 40
1
  9
$NORTHDIRECTION
 40
0
  9
$TIMEZONE
 70
-8000
  9
$LIGHTGLYPHDISPLAY
280
    1
  9
$TILEMODELIGHTSYNCH
280
    1
  9
$SOLIDHIST
280
    1
  9
$SHOWHIST
280
    1
  9
$DWFFRAME
280
    2
  9
$DGNFRAME
280
    0
  9
$REALWORLDSCALE
290
    1
  9
$INTERFERECOLOR
 62
    1
  9
$CSHADOW
280
    0
  9
$SHADOWPLANELOCATION
 40
0
  0
ENDSEC
  0
SECTION
  2
CLASSES
  0
ENDSEC
  0
SECTION
  2
TABLES
  0
TABLE
  2
VPORT
  5
8
330
0
100
AcDbSymbolTable
 70
    1
  0
VPORT
  5
31
330
2
100
AcDbSymbolTableRecord
100
AcDbViewportTableRecord
  2
*ACTIVE
 70
    0
 10
0
 20
0
 11
1
 21
1
 12
27.85280000000002
 22
17.66400000000001
 13
0
 23
0
 14
10
 24
10
 15
10
 25
10
 16
0
 26
0
 36
1
 17
0
 27
0
 37
0
 40
41.36960000000003
 41
2.378712871287129
 42
50
 43
0
 44
0
 50
0
 51
0
 71
    0
 72
  100
 73
    1
 74
    3
 75
    0
 76
    1
 77
    0
 78
    0
281
    0
 65
    1
110
0
120
0
130
0
111
1
121
0
131
0
112
0
122
1
132
0
 79
    0
146
0
348
10020
 60
    7
 61
    5
292
1
282
    1
141
0
142
0
 63
  250
421
3358443
  0
ENDTAB
  0
TABLE
  2
LTYPE
  5
5
330
0
100
AcDbSymbolTable
 70
    4
  0
LTYPE
  5
14
330
5
100
AcDbSymbolTableRecord
100
AcDbLinetypeTableRecord
  2
ByBlock
 70
    0
  3

 72
   65
 73
    0
 40
0
  0
LTYPE
  5
15
330
5
100
AcDbSymbolTableRecord
100
AcDbLinetypeTableRecord
  2
ByLayer
 70
    0
  3

 72
   65
 73
    0
 40
0
  0
LTYPE
  5
16
330
5
100
AcDbSymbolTableRecord
100
AcDbLinetypeTableRecord
  2
Continuous
 70
    0
  3
Solid line
 72
   65
 73
    0
 40
0
  0
LTYPE
  5
32
330
5
100
AcDbSymbolTableRecord
100
AcDbLinetypeTableRecord
  2
DOT
 70
    0
  3
Dot . . . . . . . . . . . . . . . . . . . . . .
 72
   65
 73
    2
 40
6.35
 49
0
 74
    0
 49
-6.35
 74
    0
  0
LTYPE
  5
33
330
5
100
AcDbSymbolTableRecord
100
AcDbLinetypeTableRecord
  2
DOTTINY
 70
    0
  3
Dot (.15x) .....................................
 72
   65
 73
    2
 40
0.9525
 49
0
 74
    0
 49
-0.9525
 74
    0
  0
LTYPE
  5
34
330
5
100
AcDbSymbolTableRecord
100
AcDbLinetypeTableRecord
  2
DOT2
 70
    0
  3
Dot (.5x) .....................................
 72
   65
 73
    2
 40
3.175
 49
0
 74
    0
 49
-3.175
 74
    0
  0
LTYPE
  5
35
330
5
100
AcDbSymbolTableRecord
100
AcDbLinetypeTableRecord
  2
DOTX2
 70
    0
  3
Dot (2x) .  .  .  .  .  .  .  .  .  .  .  .  .
 72
   65
 73
    2
 40
12.7
 49
0
 74
    0
 49
-12.7
 74
    0
  0
LTYPE
  5
36
330
5
100
AcDbSymbolTableRecord
100
AcDbLinetypeTableRecord
  2
DASHED
 70
    0
  3
Dashed _ _ _ _ _ _ _ _ _ _ _ _ _ _ _ _ _
 72
   65
 73
    2
 40
19.05
 49
12.7
 74
    0
 49
-6.35
 74
    0
  0
LTYPE
  5
37
330
5
100
AcDbSymbolTableRecord
100
AcDbLinetypeTableRecord
  2
DASHEDTINY
 70
    0
  3
Dashed (.15x) _ _ _ _ _ _ _ _ _ _ _ _ _ _ _ _ _
 72
   65
 73
    2
 40
2.8575
 49
1.905
 74
    0
 49
-0.9525
 74
    0
  0
LTYPE
  5
38
330
5
100
AcDbSymbolTableRecord
100
AcDbLinetypeTableRecord
  2
DASHED2
 70
    0
  3
Dashed (.5x) _ _ _ _ _ _ _ _ _ _ _ _ _ _ _ _ _
 72
   65
 73
    2
 40
9.524999999999999
 49
6.35
 74
    0
 49
-3.175
 74
    0
  0
LTYPE
  5
39
330
5
100
AcDbSymbolTableRecord
100
AcDbLinetypeTableRecord
  2
DASHEDX2
 70
    0
  3
Dashed (2x) ____  ____  ____  ____  ____  ___
 72
   65
 73
    2
 40
38.09999999999999
 49
25.4
 74
    0
 49
-12.7
 74
    0
  0
LTYPE
  5
3A
330
5
100
AcDbSymbolTableRecord
100
AcDbLinetypeTableRecord
  2
DASHDOT
 70
    0
  3
Dash dot __ . __ . __ . __ . __ . __ . __ . __
 72
   65
 73
    4
 40
25.4
 49
12.7
 74
    0
 49
-6.35
 74
    0
 49
0
 74
    0
 49
-6.35
 74
    0
  0
LTYPE
  5
3B
330
5
100
AcDbSymbolTableRecord
100
AcDbLinetypeTableRecord
  2
DASHDOTTINY
 70
    0
  3
Dash dot (.15x) _._._._._._._._._._._._._._._.
 72
   65
 73
    4
 40
3.81
 49
1.905
 74
    0
 49
-0.9525
 74
    0
 49
0
 74
    0
 49
-0.9525
 74
    0
  0
LTYPE
  5
3C
330
5
100
AcDbSymbolTableRecord
100
AcDbLinetypeTableRecord
  2
DASHDOT2
 70
    0
  3
Dash dot (.5x) _._._._._._._._._._._._._._._.
 72
   65
 73
    4
 40
12.7
 49
6.35
 74
    0
 49
-3.175
 74
    0
 49
0
 74
    0
 49
-3.175
 74
    0
  0
LTYPE
  5
3D
330
5
100
AcDbSymbolTableRecord
100
AcDbLinetypeTableRecord
  2
DASHDOTX2
 70
    0
  3
Dash dot (2x) ____  .  ____  .  ____  .  ___
 72
   65
 73
    4
 40
50.8
 49
25.4
 74
    0
 49
-12.7
 74
    0
 49
0
 74
    0
 49
-12.7
 74
    0
  0
LTYPE
  5
3E
330
5
100
AcDbSymbolTableRecord
100
AcDbLinetypeTableRecord
  2
DIVIDE
 70
    0
  3
Divide ____ . . ____ . . ____ . . ____ . . ____
 72
   65
 73
    6
 40
31.75
 49
12.7
 74
    0
 49
-6.35
 74
    0
 49
0
 74
    0
 49
-6.35
 74
    0
 49
0
 74
    0
 49
-6.35
 74
    0
  0
LTYPE
  5
3F
330
5
100
AcDbSymbolTableRecord
100
AcDbLinetypeTableRecord
  2
DIVIDETINY
 70
    0
  3
Divide (.15x) __..__..__..__..__..__..__..__.._
 72
   65
 73
    6
 40
4.7625
 49
1.905
 74
    0
 49
-0.9525
 74
    0
 49
0
 74
    0
 49
-0.9525
 74
    0
 49
0
 74
    0
 49
-0.9525
 74
    0
  0
LTYPE
  5
40
330
5
100
AcDbSymbolTableRecord
100
AcDbLinetypeTableRecord
  2
DIVIDE2
 70
    0
  3
Divide (.5x) __..__..__..__..__..__..__..__.._
 72
   65
 73
    6
 40
15.875
 49
6.35
 74
    0
 49
-3.175
 74
    0
 49
0
 74
    0
 49
-3.175
 74
    0
 49
0
 74
    0
 49
-3.175
 74
    0
  0
LTYPE
  5
41
330
5
100
AcDbSymbolTableRecord
100
AcDbLinetypeTableRecord
  2
DIVIDEX2
 70
    0
  3
Divide (2x) ________  .  .  ________  .  .  _
 72
   65
 73
    6
 40
63.5
 49
25.4
 74
    0
 49
-12.7
 74
    0
 49
0
 74
    0
 49
-12.7
 74
    0
 49
0
 74
    0
 49
-12.7
 74
    0
  0
LTYPE
  5
42
330
5
100
AcDbSymbolTableRecord
100
AcDbLinetypeTableRecord
  2
BORDER
 70
    0
  3
Border __ __ . __ __ . __ __ . __ __ . __ __ .
 72
   65
 73
    6
 40
44.45
 49
12.7
 74
    0
 49
-6.35
 74
    0
 49
12.7
 74
    0
 49
-6.35
 74
    0
 49
0
 74
    0
 49
-6.35
 74
    0
  0
LTYPE
  5
43
330
5
100
AcDbSymbolTableRecord
100
AcDbLinetypeTableRecord
  2
BORDERTINY
 70
    0
  3
Border (.15x) __.__.__.__.__.__.__.__.__.__.__.
 72
   65
 73
    6
 40
6.6675
 49
1.905
 74
    0
 49
-0.9525
 74
    0
 49
1.905
 74
    0
 49
-0.9525
 74
    0
 49
0
 74
    0
 49
-0.9525
 74
    0
  0
LTYPE
  5
44
330
5
100
AcDbSymbolTableRecord
100
AcDbLinetypeTableRecord
  2
BORDER2
 70
    0
  3
Border (.5x) __.__.__.__.__.__.__.__.__.__.__.
 72
   65
 73
    6
 40
22.225
 49
6.35
 74
    0
 49
-3.175
 74
    0
 49
6.35
 74
    0
 49
-3.175
 74
    0
 49
0
 74
    0
 49
-3.175
 74
    0
  0
LTYPE
  5
45
330
5
100
AcDbSymbolTableRecord
100
AcDbLinetypeTableRecord
  2
BORDERX2
 70
    0
  3
Border (2x) ____  ____  .  ____  ____  .  ___
 72
   65
 73
    6
 40
88.89999999999999
 49
25.4
 74
    0
 49
-12.7
 74
    0
 49
25.4
 74
    0
 49
-12.7
 74
    0
 49
0
 74
    0
 49
-12.7
 74
    0
  0
LTYPE
  5
46
330
5
100
AcDbSymbolTableRecord
100
AcDbLinetypeTableRecord
  2
CENTER
 70
    0
  3
Center ____ _ ____ _ ____ _ ____ _ ____ _ ____
 72
   65
 73
    4
 40
50.8
 49
31.75
 74
    0
 49
-6.35
 74
    0
 49
6.35
 74
    0
 49
-6.35
 74
    0
  0
LTYPE
  5
47
330
5
100
AcDbSymbolTableRecord
100
AcDbLinetypeTableRecord
  2
CENTERTINY
 70
    0
  3
Center (.15x) ___ _ ___ _ ___ _ ___ _ ___ _ ___
 72
   65
 73
    4
 40
7.62
 49
4.7625
 74
    0
 49
-0.9525
 74
    0
 49
0.9525
 74
    0
 49
-0.9525
 74
    0
  0
LTYPE
  5
48
330
5
100
AcDbSymbolTableRecord
100
AcDbLinetypeTableRecord
  2
CENTER2
 70
    0
  3
Center (.5x) ___ _ ___ _ ___ _ ___ _ ___ _ ___
 72
   65
 73
    4
 40
28.575
 49
19.05
 74
    0
 49
-3.175
 74
    0
 49
3.175
 74
    0
 49
-3.175
 74
    0
  0
LTYPE
  5
49
330
5
100
AcDbSymbolTableRecord
100
AcDbLinetypeTableRecord
  2
CENTERX2
 70
    0
  3
Center (2x) ________  __  ________  __  _____
 72
   65
 73
    4
 40
101.6
 49
63.5
 74
    0
 49
-12.7
 74
    0
 49
12.7
 74
    0
 49
-12.7
 74
    0
  0
ENDTAB
  0
TABLE
  2
LAYER
  5
2
330
0
100
AcDbSymbolTable
 70
    1
  0
LAYER
  5
10
330
2
100
AcDbSymbolTableRecord
100
AcDbLayerTableRecord
  2
0
 70
    0
 62
    7
  6
CONTINUOUS
370
    0
390
F
  0
LAYER
  5
4A
330
2
100
AcDbSymbolTableRecord
100
AcDbLayerTableRecord
  2
DIMENSIONS
 70
    0
 62
    1
  6
CONTINUOUS
370
   -3
390
F
  0
LAYER
  5
4B
330
2
100
AcDbSymbolTableRecord
100
AcDbLayerTableRecord
  2
TABLEBACKGROUND
 70
    0
 62
    1
  6
CONTINUOUS
370
   -3
390
F
  0
LAYER
  5
4C
330
2
100
AcDbSymbolTableRecord
100
AcDbLayerTableRecord
  2
TABLECONTENT
 70
    0
 62
    1
  6
CONTINUOUS
370
   -3
390
F
  0
LAYER
  5
4D
330
2
100
AcDbSymbolTableRecord
100
AcDbLayerTableRecord
  2
TABLEGRID
 70
    0
 62
    1
  6
CONTINUOUS
370
   -3
390
F
  0
LAYER
  5
4E
330
2
100
AcDbSymbolTableRecord
100
AcDbLayerTableRecord
  2
VIEWPORTS
 70
    0
 62
    7
  6
CONTINUOUS
370
   -3
390
F
  0
ENDTAB
  0
TABLE
  2
STYLE
  5
3
330
0
100
AcDbSymbolTable
 70
    3
  0
STYLE
  5
4F
330
2
100
AcDbSymbolTableRecord
100
AcDbTextStyleTableRecord
  2
Standard
 70
    0
 40
0
 41
1
 50
0
 71
    0
 42
1
  3
txt
  4

  0
ENDTAB
  0
TABLE
  2
VIEW
  5
6
330
0
100
AcDbSymbolTable
 70
    0
  0
ENDTAB
  0
TABLE
  2
UCS
  5
7
330
0
100
AcDbSymbolTable
 70
    0
  0
ENDTAB
  0
TABLE
  2
APPID
  5
9
330
0
100
AcDbSymbolTable
 70
    1
  0
APPID
  5
12
330
9
100
AcDbSymbolTableRecord
100
AcDbRegAppTableRecord
  2
ACAD
 70
    0
  0
APPID
  5
50
330
9
100
AcDbSymbolTableRecord
100
AcDbRegAppTableRecord
  2
LibreCad
 70
    0
  0
ENDTAB
  0
TABLE
  2
DIMSTYLE
  5
A
330
0
100
AcDbSymbolTable
 70
    1
100
AcDbDimStyleTable
 71
    1
  0
DIMSTYLE
105
51
330
A
100
AcDbSymbolTableRecord
100
AcDbDimStyleTableRecord
  2
Standard
 70
    0
 40
1
 41
2.5
 42
0.625
 43
0.38
 44
1.25
 45
0
 46
0
 47
0
 48
0
 49
1
140
2.5
141
0.09
142
2.5
143
25.4
144
1
145
0
146
1
147
0.625
148
0
 71
    0
 72
    0
 73
    0
 74
    1
 75
    0
 76
    0
 77
    0
 78
    1
 79
    0
170
    0
171
    2
172
    0
173
    0
174
    0
175
    0
176
    0
177
    0
178
    0
179
    0
271
    2
272
    4
273
    2
274
    2
275
    0
276
    0
277
    2
278
    0
279
    0
280
    0
281
    0
282
    0
283
    1
284
    0
285
    0
286
    0
288
    0
289
    3
340
standard
341

371
   -2
372
   -2
  0
ENDTAB
  0
TABLE
  2
BLOCK_RECORD
  5
1
330
0
100
AcDbSymbolTable
 70
    2
  0
BLOCK_RECORD
  5
1F
330
1
100
AcDbSymbolTableRecord
100
AcDbBlockTableRecord
  2
*Model_Space
 70
    0
280
    1
281
    0
  0
BLOCK_RECORD
  5
1E
330
1
100
AcDbSymbolTableRecord
100
AcDbBlockTableRecord
  2
*Paper_Space
 70
    0
280
    1
281
    0
  0
ENDTAB
  0
ENDSEC
  0
SECTION
  2
BLOCKS
  0
BLOCK
  5
20
330
1F
100
AcDbEntity
  8
0
100
AcDbBlockBegin
  2
*Model_Space
 70
    0
 10
0
 20
0
 30
0
  3
*Model_Space
  1

  0
ENDBLK
  5
21
330
1F
100
AcDbEntity
  8
0
100
AcDbBlockEnd
  0
BLOCK
  5
1C
330
1B
100
AcDbEntity
  8
0
100
AcDbBlockBegin
  2
*Paper_Space
 70
    0
 10
0
 20
0
 30
0
  3
*Paper_Space
  1

  0
ENDBLK
  5
1D
330
1F
100
AcDbEntity
  8
0
100
AcDbBlockEnd
  0
ENDSEC
  0
SECTION
  2
ENTITIES
  0
LWPOLYLINE
  5
52
100
AcDbEntity
  8
0
  6
CONTINUOUS
 62
  256
370
   -1
100
AcDbPolyline
 90
 1812
 70
    0
 43
0
 10
5.2
 20
0
 10
0.381
 20
0
 10
0.381
 20
3.164
 10
2
 20
3.164
 10
2
 20
4.1
 10
3.78
 20
4.1
 10
3.78
 20
6.477
 10
1.898
 20
6.477
 10
1.898
 20
7
 10
3.18
 20
7
 10
3.18
 20
9.6
 10
1.898
 20
9.6
 10
1.898
 20
9.6
 10
1.898126139321959
 20
9.642079264839952
 10
1.898504032371328
 20
9.684176628355878
 10
1.899132891773347
 20
9.726291794626192
 10
1.900011930153255
 20
9.768424467729306
 10
1.901140360136293
 20
9.810574351743632
 10
1.9025173943477
 20
9.85274115074758
 10
1.904142245412714
 20
9.894924568819565
 10
1.906014125956576
 20
9.937124310037996
 10
1.908132248604526
 20
9.979340078481288
 10
1.910495825981803
 20
10.02157157822785
 10
1.913104070713646
 20
10.06381851335611
 10
1.915956195425295
 20
10.10608058794445
 10
1.91905141274199
 20
10.14835750607131
 10
1.92238893528897
 20
10.19064897181509
 10
1.925967975691474
 20
10.23295468925421
 10
1.929787746574743
 20
10.27527436246707
 10
1.933847460564016
 20
10.31760769553208
 10
1.938146330284533
 20
10.35995439252767
 10
1.942683568361532
 20
10.40231415753225
 10
1.947458387420254
 20
10.44468669462421
 10
1.952470000085938
 20
10.48707170788199
 10
1.957717618983824
 20
10.52946890138399
 10
1.963200456739151
 20
10.57187797920861
 10
1.968917725977159
 20
10.61429864543429
 10
1.974868639323087
 20
10.65673060413941
 10
1.981052409402175
 20
10.69917355940241
 10
1.987468248839663
 20
10.74162721530169
 10
1.994115370260789
 20
10.78409127591566
 10
2.000992986290795
 20
10.82656544532274
 10
2.008100309554918
 20
10.86904942760134
 10
2.0154365526784
 20
10.91154292682986
 10
2.023000928286478
 20
10.95404564708673
 10
2.030792649004394
 20
10.99655729245036
 10
2.038810927457387
 20
11.03907756699915
 10
2.047054976270695
 20
11.08160617481152
 10
2.055524008069558
 20
11.12414281996588
 10
2.064217235479217
 20
11.16668720654064
 10
2.073133871124911
 20
11.20923903861423
 10
2.082273127631879
 20
11.25179802026504
 10
2.091634217625361
 20
11.29436385557149
 10
2.101216353730596
 20
11.33693624861199
 10
2.111018748572824
 20
11.37951490346496
 10
2.121040614777284
 20
11.4220995242088
 10
2.131281164969217
 20
11.46468981492194
 10
2.141739611773862
 20
11.50728547968277
 10
2.152415167816458
 20
11.54988622256972
 10
2.163307045722244
 20
11.5924917476612
 10
2.174414458116461
 20
11.63510175903562
 10
2.185736617624348
 20
11.67771596077139
 10
2.197272736871144
 20
11.72033405694692
 10
2.20902202848209
 20
11.76295575164063
 10
2.220983705082424
 20
11.80558074893092
 10
2.233156979297386
 20
11.84820875289621
 10
2.245541063752217
 20
11.89083946761492
 10
2.258135171072154
 20
11.93347259716545
 10
2.270938513882438
 20
11.97610784562621
 10
2.283950304808308
 20
12.01874491707563
 10
2.297169756475005
 20
12.06138351559211
 10
2.310596081507768
 20
12.10402334525405
 10
2.324228492531835
 20
12.14666411013989
 10
2.338066202172447
 20
12.18930551432803
 10
2.352108423054843
 20
12.23194726189687
 10
2.366354367804263
 20
12.27458905692484
 10
2.380803249045947
 20
12.31723060349034
 10
2.395454279405134
 20
12.35987160567179
 10
2.410306671507063
 20
12.4025117675476
 10
2.425359637976974
 20
12.44515079319618
 10
2.440612391440107
 20
12.48778838669594
 10
2.456064144521701
 20
12.53042425212531
 10
2.471714109846996
 20
12.57305809356267
 10
2.487561500041231
 20
12.61568961508646
 10
2.503605527729647
 20
12.65831852077508
 10
2.519845405537481
 20
12.70094451470695
 10
2.536280346089975
 20
12.74356730096048
 10
2.552909562012368
 20
12.78618658361408
 10
2.569732265929898
 20
12.82880206674615
 10
2.586747670467806
 20
12.87141345443512
 10
2.603954988251331
 20
12.91402045075939
 10
2.621353431905713
 20
12.95662275979739
 10
2.638942214056192
 20
12.99922008562752
 10
2.656720547328007
 20
13.04181213232819
 10
2.674687644346398
 20
13.08439860397781
 10
2.692842717736603
 20
13.12697920465481
 10
2.711184980123864
 20
13.16955363843758
 10
2.729713644133418
 20
13.21212160940454
 10
2.748427922390507
 20
13.25468282163412
 10
2.767327027520368
 20
13.2972369792047
 10
2.786410172148242
 20
13.33978378619472
 10
2.80567656889937
 20
13.38232294668257
 10
2.825125430398989
 20
13.42485416474668
 10
2.844755969272339
 20
13.46737714446546
 10
2.864567398144661
 20
13.50989158991731
 10
2.884558929641194
 20
13.55239720518066
 10
2.904729776387178
 20
13.59489369433391
 10
2.925079151007851
 20
13.63738076145547
 10
2.945606266128453
 20
13.67985811062376
 10
2.966310334374225
 20
13.72232544591719
 10
2.987190568370405
 20
13.76478247141417
 10
3.008246180742233
 20
13.80722889119312
 10
3.029476384114949
 20
13.84966440933244
 10
3.050880391113793
 20
13.89208872991055
 10
3.072457414364004
 20
13.93450155700586
 10
3.09420666649082
 20
13.97690259469678
 10
3.116127360119483
 20
14.01929154706173
 10
3.138218707875231
 20
14.06166811817912
 10
3.160479922383304
 20
14.10403201212735
 10
3.182910216268942
 20
14.14638293298485
 10
3.205508802157385
 20
14.18872058483002
 10
3.22827489267387
 20
14.23104467174128
 10
3.251207700443639
 20
14.27335489779703
 10
3.27430643809193
 20
14.3156509670757
 10
3.297570318243986
 20
14.35793258365569
 10
3.320998553525043
 20
14.40019945161542
 10
3.344590356560341
 20
14.4424512750333
 10
3.368344939975121
 20
14.48468775798773
 10
3.392261516394622
 20
14.52690860455714
 10
3.416339298444082
 20
14.56911351881993
 10
3.440577498748743
 20
14.61130220485452
 10
3.464975329933842
 20
14.65347436673932
 10
3.489532004624622
 20
14.69562970855274
 10
3.514246735446319
 20
14.73776793437319
 10
3.539118735024175
 20
14.77988874827909
 10
3.564147215983428
 20
14.82199185434884
 10
3.589331390949319
 20
14.86407695666087
 10
3.614670472547086
 20
14.90614375929358
 10
3.64016367340197
 20
14.94819196632539
 10
3.665810206139211
 20
14.9902212818347
 10
3.691609283384046
 20
15.03223140989993
 10
3.717560117761716
 20
15.07422205459949
 10
3.743661921897462
 20
15.1161929200118
 10
3.769913908416522
 20
15.15814371021527
 10
3.796315289944134
 20
15.2000741292883
 10
3.822865279105541
 20
15.24198388130931
 10
3.84956308852598
 20
15.28387267035672
 10
3.876407930830693
 20
15.32574020050893
 10
3.903399018644917
 20
15.36758617584436
 10
3.930535564593892
 20
15.40941030044142
 10
3.957816781302859
 20
15.45121227837852
 10
3.985241881397057
 20
15.49299181373408
 10
4.012810077501724
 20
15.5347486105865
 10
4.040520582242102
 20
15.5764823730142
 10
4.068372608243429
 20
15.61819280509559
 10
4.096365368130945
 20
15.65987961090908
 10
4.12449807452989
 20
15.70154249453309
 10
4.152769940065502
 20
15.74318116004603
 10
4.181180177363022
 20
15.78479531152631
 10
4.209727999047691
 20
15.82638465305234
 10
4.238412617744746
 20
15.86794888870254
 10
4.267233246079426
 20
15.90948772255531
 10
4.296189096676974
 20
15.95100085868907
 10
4.325279382162625
 20
15.99248800118223
 10
4.354503315161622
 20
16.03394885411321
 10
4.383860108299205
 20
16.07538312156041
 10
4.413348974200611
 20
16.11679050760225
 10
4.442969125491081
 20
16.15817071631714
 10
4.472719774795856
 20
16.1995234517835
 10
4.50260013474017
 20
16.24084841807973
 10
4.53260941794927
 20
16.28214531928424
 10
4.56274683704839
 20
16.32341385947546
 10
4.593011604662772
 20
16.36465374273179
 10
4.623402933417656
 20
16.40586467313164
 10
4.653920035938281
 20
16.44704635475343
 10
4.684562124849886
 20
16.48819849167557
 10
4.71532841277771
 20
16.52932078797647
 10
4.746218112346994
 20
16.57041294773454
 10
4.777230436182976
 20
16.61147467502819
 10
4.808364596910897
 20
16.65250567393585
 10
4.839619807155997
 20
16.69350564853591
 10
4.870995279543513
 20
16.7344743029068
 10
4.90249022669869
 20
16.77541134112692
 10
4.93410386124676
 20
16.81631646727469
 10
4.965835395812968
 20
16.85718938542852
 10
4.997684043022551
 20
16.89802979966681
 10
5.02964901550075
 20
16.93883741406799
 10
5.061729525872804
 20
16.97961193271047
 10
5.093924786763952
 20
17.02035305967265
 10
5.126234010799435
 20
17.06106049903295
 10
5.158656410604492
 20
17.10173395486979
 10
5.191191198804361
 20
17.14237313126157
 10
5.223837588024283
 20
17.18297773228671
 10
5.2565947908895
 20
17.22354746202362
 10
5.289462020025246
 20
17.26408202455071
 10
5.322438488056765
 20
17.30458112394639
 10
5.355523407609295
 20
17.34504446428908
 10
5.388715991308076
 20
17.38547174965719
 10
5.422015451778346
 20
17.42586268412912
 10
5.455421001645347
 20
17.4662169717833
 10
5.488931853534318
 20
17.50653431669814
 10
5.522547220070495
 20
17.54681442295204
 10
5.556266313879124
 20
17.58705699462342
 10
5.590088347585439
 20
17.6272617357907
 10
5.624012533814682
 20
17.66742835053228
 10
5.658038085192092
 20
17.70755654292657
 10
5.69216421434291
 20
17.74764601705199
 10
5.726390133892376
 20
17.78769647698696
 10
5.760715056465725
 20
17.82770762680988
 10
5.795138194688199
 20
17.86767917059916
 10
5.82965876118504
 20
17.90761081243322
 10
5.864275968581484
 20
17.94750225639047
 10
5.898989029502772
 20
17.98735320654933
 10
5.933797156574146
 20
18.0271633669882
 10
5.968699562420841
 20
18.06693244178549
 10
6.003695459668101
 20
18.10666013501963
 10
6.038784060941162
 20
18.14634615076901
 10
6.073964578865265
 20
18.18599019311206
 10
6.10923622606565
 20
18.22559196612718
 10
6.144598215167556
 20
18.26515117389279
 10
6.180049758796222
 20
18.3046675204873
 10
6.21559006957689
 20
18.34414070998913
 10
6.251218360134795
 20
18.38357044647667
 10
6.286933843095182
 20
18.42295643402836
 10
6.322735731083286
 20
18.4622983767226
 10
6.358623236724349
 20
18.50159597863779
 10
6.394595572643611
 20
18.54084894385237
 10
6.43065195146631
 20
18.58005697644472
 10
6.466791585817687
 20
18.61921978049328
 10
6.503013688322979
 20
18.65833706007644
 10
6.539317471607428
 20
18.69740851927263
 10
6.575702148296275
 20
18.73643386216025
 10
6.612166931014754
 20
18.77541279281772
 10
6.64871103238811
 20
18.81434501532346
 10
6.685333665041581
 20
18.85323023375586
 10
6.722034041600405
 20
18.89206815219335
 10
6.758811374689823
 20
18.93085847471433
 10
6.795664876935074
 20
18.96960090539722
 10
6.832593760961399
 20
19.00829514832043
 10
6.869597239394034
 20
19.04694090756238
 10
6.906674524858227
 20
19.08553788720148
 10
6.943824829979206
 20
19.12408579131612
 10
6.981047367382218
 20
19.16258432398474
 10
7.018341349692499
 20
19.20103318928575
 10
7.055705989535291
 20
19.23943209129754
 10
7.093140499535833
 20
19.27778073409855
 10
7.130644092319365
 20
19.31607882176717
 10
7.168215980511124
 20
19.35432605838182
 10
7.205855376736356
 20
19.39252214802092
 10
7.243561493620293
 20
19.43066679476287
 10
7.281333543788176
 20
19.4687597026861
 10
7.319170739865248
 20
19.506800575869
 10
7.357072294476747
 20
19.54478911838999
 10
7.395037420247911
 20
19.58272503432749
 10
7.433065329803982
 20
19.62060802775991
 10
7.471155235770198
 20
19.65843780276565
 10
7.509306350771801
 20
19.69621406342314
 10
7.547517887434026
 20
19.73393651381078
 10
7.585789058382114
 20
19.77160485800698
 10
7.624119076241309
 20
19.80921880009016
 10
7.662507153636844
 20
19.84677804413874
 10
7.700952503193964
 20
19.88428229423112
 10
7.739454337537905
 20
19.92173125444571
 10
7.778011869293909
 20
19.95912462886093
 10
7.816624311087215
 20
19.9964621215552
 10
7.855290875543062
 20
20.03374343660691
 10
7.89401077528669
 20
20.07096827809449
 10
7.932783222943336
 20
20.10813635009634
 10
7.971607431138244
 20
20.14524735669088
 10
8.01048261249665
 20
20.18230100195653
 10
8.049407979643796
 20
20.21929698997169
 10
8.088382745204919
 20
20.25623502481477
 10
8.127406121805262
 20
20.29311481056418
 10
8.166477322070062
 20
20.32993605129836
 10
8.205595558624559
 20
20.3666984510957
 10
8.244760044093992
 20
20.4034017140346
 10
8.2839699911036
 20
20.44004554419349
 10
8.323224612278628
 20
20.47662964565079
 10
8.362523120244308
 20
20.51315372248489
 10
8.401864727625885
 20
20.54961747877422
 10
8.441248647048592
 20
20.58602061859718
 10
8.480674091137681
 20
20.6223628460322
 10
8.520140272518379
 20
20.65864386515767
 10
8.559646403815931
 20
20.69486338005202
 10
8.599191697655574
 20
20.73102109479365
 10
8.638775366662552
 20
20.76711671346098
 10
8.678396623462103
 20
20.80314994013241
 10
8.71805468067946
 20
20.83912047888637
 10
8.757748750939871
 20
20.87502803380126
 10
8.797478046868573
 20
20.9108723089555
 10
8.837241781090805
 20
20.9466530084275
 10
8.877039166231807
 20
20.98236983629566
 10
8.916869414916819
 20
21.01802249663842
 10
8.95673173977108
 20
21.05361069353416
 10
8.996625353419827
 20
21.08913413106132
 10
9.036549468488303
 20
21.12459251329829
 10
9.076503297601748
 20
21.1599855443235
 10
9.116486053385399
 20
21.19531292821534
 10
9.156496948464497
 20
21.23057436905225
 10
9.196535195464282
 20
21.26576957091262
 10
9.23660000700999
 20
21.30089823787488
 10
9.276690595726865
 20
21.33596007401743
 10
9.316806174240147
 20
21.37095478341869
 10
9.356945955175071
 20
21.40588207015706
 10
9.397109151156879
 20
21.44074163831096
 10
9.437294974810815
 20
21.47553319195881
 10
9.477502638762111
 20
21.51025643517901
 10
9.517731355636009
 20
21.54491107204998
 10
9.557980338057751
 20
21.57949680665013
 10
9.598248798652573
 20
21.61401334305787
 10
9.63853595004572
 20
21.6484603853516
 10
9.678841004862424
 20
21.68283763760976
 10
9.719163175727932
 20
21.71714480391075
 10
9.759501675267476
 20
21.75138158833297
 10
9.799855716106304
 20
21.78554769495485
 10
9.84022451086965
 20
21.8196428278548
 10
9.880607272182752
 20
21.85366669111121
 10
9.921003212670856
 20
21.88761898880253
 10
9.961411544959198
 20
21.92149942500714
 10
10.00183148167302
 20
21.95530770380347
 10
10.04226223543755
 20
21.98904352926992
 10
10.08270301887805
 20
22.02270660548491
 10
10.12315304461973
 20
22.05629663652685
 10
10.16361152528786
 20
22.08981332647416
 10
10.20407767350766
 20
22.12325637940523
 10
10.24455070190437
 20
22.1566254993985
 10
10.28502982310324
 20
22.18992039053237
 10
10.3255142497295
 20
22.22314075688525
 10
10.3660031944084
 20
22.25628630253556
 10
10.40649586976517
 20
22.2893567315617
 10
10.44699148842505
 20
22.32235174804208
 10
10.48748926301329
 20
22.35527105605514
 10
10.52798840615511
 20
22.38811435967926
 10
10.56848813047577
 20
22.42088136299287
 10
10.6089876486005
 20
22.45357177007438
 10
10.64948617315455
 20
22.4861852850022
 10
10.68998291676314
 20
22.51872161185474
 10
10.73047709205152
 20
22.55118045471042
 10
10.77096791164492
 20
22.58356151764763
 10
10.8114545881686
 20
22.61586450474482
 10
10.85193633424779
 20
22.64808912008037
 10
10.89241236250772
 20
22.68023506773271
 10
10.93288188557364
 20
22.71230205178024
 10
10.97334411607079
 20
22.74428977630138
 10
11.01379826662441
 20
22.77619794537454
 10
11.05424354985973
 20
22.80802626307814
 10
11.094679178402
 20
22.83977443349058
 10
11.13510436487645
 20
22.87144216069027
 10
11.17551832190833
 20
22.90302914875564
 10
11.21592026212288
 20
22.93453510176509
 10
11.25630939814532
 20
22.96595972379702
 10
11.29668494260091
 20
22.99730271892987
 10
11.33704610811489
 20
23.02856379124204
 10
11.37739210731248
 20
23.05974264481194
 10
11.41772215281894
 20
23.09083898371798
 10
11.4580354572595
 20
23.12185251203858
 10
11.4983312332594
 20
23.15278293385214
 10
11.53860869344389
 20
23.18362995323708
 10
11.57886705043819
 20
23.21439327427182
 10
11.61910551686756
 20
23.24507260103476
 10
11.65932330535722
 20
23.27566763760432
 10
11.69951962853242
 20
23.3061780880589
 10
11.7396936990184
 20
23.33660365647693
 10
11.7798447294404
 20
23.36694404693681
 10
11.81997193242366
 20
23.39719896351696
 10
11.86007452059342
 20
23.42736811029578
 10
11.90015170657491
 20
23.4574511913517
 10
11.94020270299338
 20
23.48744791076312
 10
11.98022672247407
 20
23.51735797260845
 10
12.02022297764221
 20
23.54718108096611
 10
12.06019068112304
 20
23.5769169399145
 10
12.10012904554182
 20
23.60656525353205
 10
12.14003728352376
 20
23.63612572589717
 10
12.17991460769412
 20
23.66559806108826
 10
12.21976023067814
 20
23.69498196318374
 10
12.25957336510104
 20
23.72427713626201
 10
12.29935322358808
 20
23.7534832844015
 10
12.3390990187645
 20
23.78260011168062
 10
12.37880996325552
 20
23.81162732217778
 10
12.41848526968639
 20
23.84056461997138
 10
12.45812415068236
 20
23.86941170913984
 10
12.49772581886866
 20
23.89816829376159
 10
12.53728948687052
 20
23.92683407791501
 10
12.5768143673132
 20
23.95540876567853
 10
12.61629967282193
 20
23.98389206113057
 10
12.65574461602194
 20
24.01228366834953
 10
12.69514840953849
 20
24.04058329141382
 10
12.7345102659968
 20
24.06879063440186
 10
12.77382939802212
 20
24.09690540139207
 10
12.81310501823968
 20
24.12492729646284
 10
12.85233633927473
 20
24.1528560236926
 10
12.89152257375251
 20
24.18069128715975
 10
12.93066293429826
 20
24.20843279094272
 10
12.96975663353721
 20
24.2360802391199
 10
13.0088028840946
 20
24.26363333576972
 10
13.04780089859568
 20
24.29109178497059
 10
13.08674988966568
 20
24.31845529080091
 10
13.12564906992985
 20
24.34572355733911
 10
13.16449765201342
 20
24.37289628866358
 10
13.20329484854163
 20
24.39997318885275
 10
13.24203987213973
 20
24.42695396198503
 10
13.28073193543294
 20
24.45383831213883
 10
13.31937025104653
 20
24.48062594339256
 10
13.3579540316057
 20
24.50731655982462
 10
13.39648248973572
 20
24.53390986551346
 10
13.43495483806182
 20
24.56040556453745
 10
13.47337028920924
 20
24.58680336097503
 10
13.51172805580322
 20
24.6131029589046
 10
13.550027350469
 20
24.63930406240458
 10
13.58826738583181
 20
24.66540637555337
 10
13.62644737451691
 20
24.6914096024294
 10
13.66456652914952
 20
24.71731344711106
 10
13.70262406235488
 20
24.74311761367678
 10
13.74061918675825
 20
24.76882180620496
 10
13.77855111498485
 20
24.79442572877403
 10
13.81641905965993
 20
24.81992908546238
 10
13.85422223340872
 20
24.84533158034844
 10
13.89195984885647
 20
24.87063291751062
 10
13.92963111862841
 20
24.89583280102732
 10
13.96723525534978
 20
24.92093093497696
 10
14.00477147164584
 20
24.94592702343795
 10
14.0422389801418
 20
24.97082077048871
 10
14.07963699346291
 20
24.99561188020765
 10
14.11696472423442
 20
25.02030005667317
 10
14.15422138508156
 20
25.0448850039637
 10
14.19140618862957
 20
25.06936642615764
 10
14.22851834750369
 20
25.0937440273334
 10
14.26555707432916
 20
25.11801751156941
 10
14.30252158173122
 20
25.14218658294406
 10
14.33941108233511
 20
25.16625094553578
 10
14.37622478876608
 20
25.19021030342297
 10
14.41296191364934
 20
25.21406436068404
 10
14.44962166961016
 20
25.23781282139742
 10
14.48620326927377
 20
25.26145538964151
 10
14.5227059252654
 20
25.28499176949473
 10
14.55912885021031
 20
25.30842166503547
 10
14.59547125673371
 20
25.33174478034217
 10
14.63173235746087
 20
25.35496081949323
 10
14.667911365017
 20
25.37806948656706
 10
14.70400749202737
 20
25.40107048564208
 10
14.7400199511172
 20
25.4239635207967
 10
14.77594795491173
 20
25.44674829610932
 10
14.81179071603621
 20
25.46942451565837
 10
14.84754744711587
 20
25.49199188352225
 10
14.88321736077596
 20
25.51445010377937
 10
14.9187996696417
 20
25.53679888050816
 10
14.95429358633835
 20
25.55903791778702
 10
14.98969832349114
 20
25.58116691969436
 10
15.02501309372531
 20
25.60318559030859
 10
15.0602371096661
 20
25.62509363370813
 10
15.09536958393876
 20
25.6468907539714
 10
15.13040972916852
 20
25.6685766551768
 10
15.16535675798061
 20
25.69015104140274
 10
15.20020988300028
 20
25.71161361672764
 10
15.23496831685278
 20
25.73296408522991
 10
15.26963127216332
 20
25.75420215098795
 10
15.30419796155717
 20
25.77532751808019
 10
15.33866759765956
 20
25.79633989058504
 10
15.37303939309572
 20
25.81723897258091
 10
15.4073125604909
 20
25.8380244681462
 10
15.44148631247033
 20
25.85869608135934
 10
15.47555986165926
 20
25.87925351629874
 10
15.50953242068293
 20
25.8996964770428
 10
15.54340320216657
 20
25.92002466766994
 10
15.57717141873542
 20
25.94023779225857
 10
15.61083628301473
 20
25.9603355548871
 10
15.64439700762973
 20
25.98031765963396
 10
15.67785280520568
 20
26.00018381057754
 10
15.71120288836778
 20
26.01993371179626
 10
15.74444646974131
 20
26.03956706736854
 10
15.77758276195148
 20
26.05908358137278
 10
15.81061097762354
 20
26.0784829578874
 10
15.84353032938274
 20
26.0977649009908
 10
15.8763400298543
 20
26.11692911476141
 10
15.90903929166348
 20
26.13597530327764
 10
15.9416273274355
 20
26.15490317061789
 10
15.97410334979562
 20
26.17371242086057
 10
16.00646657136906
 20
26.19240275808412
 10
16.03871620478107
 20
26.21097388636692
 10
16.07085146265689
 20
26.2294255097874
 10
16.10287155762175
 20
26.24775733242397
 10
16.13477570230091
 20
26.26596905835503
 10
16.16656310931959
 20
26.28406039165901
 10
16.19823299130304
 20
26.30203103641432
 10
16.22978456087649
 20
26.31988069669936
 10
16.26121703066519
 20
26.33760907659255
 10
16.29252961329437
 20
26.3552158801723
 10
16.32372152138927
 20
26.37270081151703
 10
16.35479196757515
 20
26.39006357470514
 10
16.38574016447722
 20
26.40730387381505
 10
16.41656532472074
 20
26.42442141292517
 10
16.44726666093094
 20
26.44141589611392
 10
16.47784338573306
 20
26.45828702745969
 10
16.50829471175235
 20
26.47503451104092
 10
16.53861985161403
 20
26.491658050936
 10
16.56881801794335
 20
26.50815735122336
 10
16.59888842336556
 20
26.5245321159814
 10
16.62883028050589
 20
26.54078204928854
 10
16.65864280198958
 20
26.55690685522319
 10
16.68832520044186
 20
26.57290623786376
 10
16.71787668848799
 20
26.58877990128865
 10
16.74729647875319
 20
26.6045275495763
 10
16.77658378386271
 20
26.6201488868051
 10
16.80573781644178
 20
26.63564361705347
 10
16.83475778911566
 20
26.65101144439983
 10
16.86364291450957
 20
26.66625207292258
 10
16.89239240524876
 20
26.68136520670014
 10
16.92100547395846
 20
26.69635054981092
 10
16.94948133326392
 20
26.71120780633332
 10
16.97781919579037
 20
26.72593668034576
 10
17.00601827416306
 20
26.74053687592667
 10
17.03407778100722
 20
26.75500809715444
 10
17.0619969289481
 20
26.7693500481075
 10
17.08977493061092
 20
26.78356243286424
 10
17.11741099862094
 20
26.7976449555031
 10
17.1449043456034
 20
26.81159732010246
 10
17.17225418418352
 20
26.82541923074076
 10
17.19945972698656
 20
26.8391103914964
 10
17.22652018663775
 20
26.85267050644779
 10
17.25343477576232
 20
26.86609927967335
 10
17.28020270698553
 20
26.87939641525148
 10
17.30682319293261
 20
26.89256161726061
 10
17.3332954462288
 20
26.90559458977914
 10
17.35961867949933
 20
26.91849503688548
 10
17.38579210536945
 20
26.93126266265806
 10
17.4118149364644
 20
26.94389717117527
 10
17.43768638540942
 20
26.95639826651554
 10
17.46340566482975
 20
26.96876565275726
 10
17.48897198735062
 20
26.98099903397887
 10
17.51438456559728
 20
26.99309811425876
 10
17.53964261219496
 20
27.00506259767536
 10
17.5647453397689
 20
27.01689218830706
 10
17.58969196094436
 20
27.02858659023229
 10
17.61448168834656
 20
27.04014550752946
 10
17.63911373460074
 20
27.05156864427698
 10
17.66358731233215
 20
27.06285570455326
 10
17.68790163416602
 20
27.07400639243672
 10
17.71205591272759
 20
27.08502041200576
 10
17.7360493606421
 20
27.09589746733881
 10
17.7598811905348
 20
27.10663726251426
 10
17.78355061503091
 20
27.11723950161054
 10
17.80705684675569
 20
27.12770388870605
 10
17.83039909833437
 20
27.13803012787921
 10
17.85357658239218
 20
27.14821792320843
 10
17.87658851155438
 20
27.15826697877213
 10
17.8994340984462
 20
27.1681769986487
 10
17.92211255569287
 20
27.17794768691658
 10
17.94462309591965
 20
27.18757874765416
 10
17.96696493175176
 20
27.19706988493987
 10
17.98913727581445
 20
27.20642080285211
 10
18.01113934073295
 20
27.2156312054693
 10
18.03297033913251
 20
27.22470079686984
 10
18.05462948363837
 20
27.23362928113216
 10
18.07611598687577
 20
27.24241636233466
 10
18.09742906146994
 20
27.25106174455575
 10
18.11856792004612
 20
27.25956513187385
 10
18.13953177522956
 20
27.26792622836737
 10
18.16031983964549
 20
27.27614473811472
 10
18.18093132591915
 20
27.28422036519432
 10
18.20136544667579
 20
27.29215281368457
 10
18.22162141454065
 20
27.2999417876639
 10
18.24169844213895
 20
27.3075869912107
 10
18.26159574209594
 20
27.31508812840339
 10
18.28131252703687
 20
27.32244490332039
 10
18.30084800958696
 20
27.32965702004012
 10
18.32020140237147
 20
27.33672418264096
 10
18.33937191801563
 20
27.34364609520135
 10
18.35835876914468
 20
27.3504224617997
 10
18.37716116838385
 20
27.35705298651441
 10
18.3957783283584
 20
27.3635373734239
 10
18.41420946169355
 20
27.36987532660658
 10
18.43245378101456
 20
27.37606655014087
 10
18.45051049894664
 20
27.38211074810517
 10
18.46837882811506
 20
27.38800762457791
 10
18.48605798114504
 20
27.39375688363748
 10
18.50354717066183
 20
27.3993582293623
 10
18.52084560929066
 20
27.40481136583079
 10
18.53795250965678
 20
27.41011599712135
 10
18.55486708438542
 20
27.41527182731241
 10
18.57158854610183
 20
27.42027856048237
 10
18.58811610743124
 20
27.42513590070963
 10
18.6044489809989
 20
27.42984355207263
 10
18.62058637943004
 20
27.43440121864977
 10
18.6365275153499
 20
27.43880860451945
 10
18.65227160138372
 20
27.4430654137601
 10
18.66781785015674
 20
27.44717135045012
 10
18.68316547429421
 20
27.45112611866794
 10
18.69831368642136
 20
27.45492942249194
 10
18.71326169916343
 20
27.45858096600057
 10
18.72800872514565
 20
27.46208045327221
 10
18.74255397699328
 20
27.4654275883853
 10
18.75689666733155
 20
27.46862207541823
 10
18.77103600878569
 20
27.47166361844943
 10
18.78497121398095
 20
27.47455192155729
 10
18.79870149554257
 20
27.47728668882024
 10
18.81222606609579
 20
27.47986762431669
 10
18.82554413826584
 20
27.48229443212505
 10
18.83865492467798
 20
27.48456681632374
 10
18.85155763795742
 20
27.48668448099115
 10
18.86425149072943
 20
27.48864713020572
 10
18.87673569561922
 20
27.49045446804584
 10
18.88900946525206
 20
27.49210619858994
 10
18.90107201225316
 20
27.49360202591641
 10
18.91292254924778
 20
27.49494165410368
 10
18.92456028886116
 20
27.49612478723017
 10
18.93598444371853
 20
27.49715112937427
 10
18.94719422644513
 20
27.49802038461441
 10
18.9581888496662
 20
27.49873225702899
 10
18.96896752600698
 20
27.49928645069642
 10
18.97952946809272
 20
27.49968266969513
 10
18.98987388854864
 20
27.49992061810352
 10
19
 20
27.5
 10
19
 20
27.5
 10
19.01000833331011
 20
27.49998746753464
 10
19.01999994425879
 20
27.49994990736142
 10
19.02997483284606
 20
27.49988737531459
 10
19.03993299907191
 20
27.49979992722842
 10
19.04987444293634
 20
27.49968761893716
 10
19.05979916443934
 20
27.49955050627508
 10
19.06970716358093
 20
27.49938864507644
 10
19.07959844036109
 20
27.4992020911755
 10
19.08947299477983
 20
27.49899090040652
 10
19.09933082683716
 20
27.49875512860378
 10
19.10917193653307
 20
27.49849483160152
 10
19.11899632386755
 20
27.49821006523401
 10
19.12880398884061
 20
27.49790088533551
 10
19.13859493145225
 20
27.49756734774028
 10
19.14836915170248
 20
27.49720950828259
 10
19.15812664959127
 20
27.4968274227967
 10
19.16786742511866
 20
27.49642114711686
 10
19.17759147828462
 20
27.49599073707735
 10
19.18729880908916
 20
27.49553624851242
 10
19.19698941753228
 20
27.49505773725633
 10
19.20666330361398
 20
27.49455525914335
 10
19.21632046733426
 20
27.49402887000774
 10
19.22596090869312
 20
27.49347862568376
 10
19.23558462769056
 20
27.49290458200566
 10
19.24519162432657
 20
27.49230679480772
 10
19.25478189860117
 20
27.4916853199242
 10
19.26435545051435
 20
27.49104021318935
 10
19.2739122800661
 20
27.49037153043745
 10
19.28345238725645
 20
27.48967932750275
 10
19.29297577208536
 20
27.4889636602195
 10
19.30248243455286
 20
27.48822458442198
 10
19.31197237465894
 20
27.48746215594445
 10
19.32144559240359
 20
27.48667643062116
 10
19.33090208778682
 20
27.48586746428639
 10
19.34034186080864
 20
27.4850353127744
 10
19.34976491146903
 20
27.48418003191943
 10
19.359171239768
 20
27.48330167755575
 10
19.36856084570556
 20
27.48240030551764
 10
19.37793372928169
 20
27.48147597163934
 10
19.38728989049641
 20
27.48052873175513
 10
19.3966293293497
 20
27.47955864169926
 10
19.40595204584157
 20
27.47856575730599
 10
19.41525803997202
 20
27.47755013440959
 10
19.42454731174105
 20
27.47651182884431
 10
19.43381986114866
 20
27.47545089644443
 10
19.44307568819485
 20
27.4743673930442
 10
19.45231479287962
 20
27.47326137447789
 10
19.46153717520297
 20
27.47213289657974
 10
19.4707428351649
 20
27.47098201518405
 10
19.47993177276541
 20
27.46980878612504
 10
19.48910398800449
 20
27.468613265237
 10
19.49825948088216
 20
27.46739550835418
 10
19.50739825139841
 20
27.46615557131085
 10
19.51652029955324
 20
27.46489350994126
 10
19.52562562534664
 20
27.46360938007968
 10
19.53471422877863
 20
27.46230323756037
 10
19.54378610984919
 20
27.4609751382176
 10
19.55284126855834
 20
27.45962513788561
 10
19.56187970490606
 20
27.45825329239869
 10
19.57090141889237
 20
27.45685965759108
 10
19.57990641051725
 20
27.45544428929705
 10
19.58889467978072
 20
27.45400724335087
 10
19.59786622668276
 20
27.45254857558679
 10
19.60682105122338
 20
27.45106834183907
 10
19.61575915340258
 20
27.44956659794198
 10
19.62468053322036
 20
27.44804339972978
 10
19.63358519067672
 20
27.44649880303673
 10
19.64247312577167
 20
27.44493286369709
 10
19.65134433850519
 20
27.44334563754513
 10
19.66019882887729
 20
27.4417371804151
 10
19.66903659688797
 20
27.44010754814127
 10
19.67785764253723
 20
27.4384567965579
 10
19.68666196582507
 20
27.43678498149925
 10
19.69544956675149
 20
27.43509215879958
 10
19.70422044531649
 20
27.43337838429316
 10
19.71297460152007
 20
27.43164371381426
 10
19.72171203536222
 20
27.42988820319711
 10
19.73043274684295
 20
27.42811190827599
 10
19.73913673596227
 20
27.42631488488517
 10
19.74782400272017
 20
27.42449718885891
 10
19.75649454711665
 20
27.42265887603147
 10
19.76514836915171
 20
27.42080000223709
 10
19.77378546882534
 20
27.41892062331007
 10
19.78240584613756
 20
27.41702079508464
 10
19.79100950108835
 20
27.41510057339507
 10
19.79959643367772
 20
27.41316001407563
 10
19.80816664390568
 20
27.41119917296058
 10
19.81672013177221
 20
27.40921810588418
 10
19.82525689727732
 20
27.40721686868068
 10
19.83377694042101
 20
27.40519551718436
 10
19.84228026120328
 20
27.40315410722948
 10
19.85076685962414
 20
27.40109269465029
 10
19.85923673568356
 20
27.39901133528107
 10
19.86768988938158
 20
27.39691008495606
 10
19.87612632071817
 20
27.39478899950954
 10
19.88454602969334
 20
27.39264813477575
 10
19.89294901630709
 20
27.39048754658898
 10
19.90133528055942
 20
27.38830729078348
 10
19.90970482245033
 20
27.38610742319349
 10
19.91805764197981
 20
27.3838879996533
 10
19.92639373914789
 20
27.38164907599717
 10
19.93471311395453
 20
27.37939070805935
 10
19.94301576639976
 20
27.37711295167412
 10
19.95130169648357
 20
27.37481586267571
 10
19.95957090420595
 20
27.37249949689841
 10
19.96782338956692
 20
27.37016391017647
 10
19.97605915256647
 20
27.36780915834415
 10
19.9842781932046
 20
27.36543529723572
 10
19.9924805114813
 20
27.36304238268544
 10
20.00066610739658
 20
27.36063047052756
 10
20.00883498095044
 20
27.35819961659636
 10
20.01698713214288
 20
27.35574987672609
 10
20.02512256097391
 20
27.35328130675102
 10
20.03324126744351
 20
27.35079396250541
 10
20.04134325155169
 20
27.34828789982351
 10
20.04942851329846
 20
27.34576317453959
 10
20.0574970526838
 20
27.34321984248792
 10
20.06554886970773
 20
27.34065795950276
 10
20.07358396437022
 20
27.33807758141835
 10
20.0816023366713
 20
27.33547876406898
 10
20.08960398661096
 20
27.33286156328889
 10
20.0975889141892
 20
27.33022603491235
 10
20.10555711940602
 20
27.32757223477363
 10
20.11350860226142
 20
27.32490021870699
 10
20.1214433627554
 20
27.32221004254668
 10
20.12936140088796
 20
27.31950176212697
 10
20.13726271665909
 20
27.31677543328213
 10
20.14514731006881
 20
27.3140311118464
 10
20.15301518111711
 20
27.31126885365407
 10
20.16086632980399
 20
27.30848871453937
 10
20.16870075612944
 20
27.30569075033659
 10
20.17651846009348
 20
27.30287501687997
 10
20.18431944169609
 20
27.30004157000379
 10
20.19210370093729
 20
27.2971904655423
 10
20.19987123781706
 20
27.29432175932978
 10
20.20762205233542
 20
27.29143550720046
 10
20.21535614449235
 20
27.28853176498863
 10
20.22307351428787
 20
27.28561058852853
 10
20.23077416172196
 20
27.28267203365444
 10
20.23845808679463
 20
27.27971615620061
 10
20.24612528950589
 20
27.27674301200132
 10
20.25377576985571
 20
27.27375265689081
 10
20.26140952784412
 20
27.27074514670333
 10
20.26902656347111
 20
27.26772053727318
 10
20.27662687673669
 20
27.26467888443461
 10
20.28421046764084
 20
27.26162024402187
 10
20.29177733618357
 20
27.25854467186923
 10
20.29932748236488
 20
27.25545222381095
 10
20.30686090618477
 20
27.25234295568129
 10
20.31437760764323
 20
27.24921692331451
 10
20.32187758674028
 20
27.24607418254488
 10
20.32936084347591
 20
27.24291478920665
 10
20.33682737785011
 20
27.23973879913409
 10
20.3442771898629
 20
27.23654626816146
 10
20.35171027951427
 20
27.23333725212303
 10
20.35912664680421
 20
27.23011180685305
 10
20.36652629173274
 20
27.22686998818579
 10
20.37390921429984
 20
27.2236118519555
 10
20.38127541450553
 20
27.22033745399646
 10
20.3886248923498
 20
27.21704685014291
 10
20.39595764783264
 20
27.21374009622913
 10
20.40327368095407
 20
27.21041724808938
 10
20.41057299171407
 20
27.20707836155792
 10
20.41785558011265
 20
27.203723492469
 10
20.42512144614982
 20
27.20035269665689
 10
20.43237058982556
 20
27.19696602995585
 10
20.43960301113988
 20
27.19356354820015
 10
20.44681871009278
 20
27.19014530722405
 10
20.45401768668426
 20
27.1867113628618
 10
20.46119994091433
 20
27.18326177094768
 10
20.46836547278297
 20
27.17979658731593
 10
20.47551428229019
 20
27.17631586780083
 10
20.48264636943599
 20
27.17281966823664
 10
20.48976173422037
 20
27.1693080444576
 10
20.49686037664332
 20
27.16578105229801
 10
20.50394229670486
 20
27.1622387475921
 10
20.51100749440498
 20
27.15868118617415
 10
20.51805596974367
 20
27.1551084238784
 10
20.52508772272095
 20
27.15152051653913
 10
20.53210275333681
 20
27.14791751999061
 10
20.53910106159124
 20
27.14429949006708
 10
20.54608264748426
 20
27.14066648260282
 10
20.55304751101586
 20
27.13701855343207
 10
20.55999565218603
 20
27.13335575838913
 10
20.56692707099478
 20
27.12967815330822
 10
20.57384176744212
 20
27.12598579402361
 10
20.58073974152803
 20
27.12227873636959
 10
20.58762099325252
 20
27.11855703618039
 10
20.5944855226156
 20
27.1148207492903
 10
20.60133332961725
 20
27.11106993153356
 10
20.60816441425748
 20
27.10730463874444
 10
20.61497877653629
 20
27.10352492675719
 10
20.62177641645368
 20
27.0997308514061
 10
20.62855733400966
 20
27.0959224685254
 10
20.63532152920421
 20
27.09209983394937
 10
20.64206900203734
 20
27.08826300351227
 10
20.64879975250905
 20
27.08441203304836
 10
20.65551378061934
 20
27.08054697839189
 10
20.66221108636821
 20
27.07666789537714
 10
20.66889166975566
 20
27.07277483983837
 10
20.67555553078169
 20
27.06886786760984
 10
20.68220266944629
 20
27.0649470345258
 10
20.68883308574949
 20
27.06101239642053
 10
20.69544677969125
 20
27.05706400912828
 10
20.7020437512716
 20
27.05310192848331
 10
20.70862400049053
 20
27.04912621031988
 10
20.71518752734803
 20
27.04513691047227
 10
20.72173433184412
 20
27.04113408477472
 10
20.72826441397878
 20
27.0371177890615
 10
20.73477777375203
 20
27.03308807916688
 10
20.74127441116385
 20
27.02904501092512
 10
20.74775432621425
 20
27.02498864017047
 10
20.75421751890324
 20
27.0209190227372
 10
20.7606639892308
 20
27.01683621445957
 10
20.76709373719694
 20
27.01274027117184
 10
20.77350676280166
 20
27.00863124870828
 10
20.77990306604497
 20
27.00450920290315
 10
20.78628264692685
 20
27.0003741895907
 10
20.79264550544731
 20
26.9962262646052
 10
20.79899164160635
 20
26.99206548378091
 10
20.80532105540397
 20
26.9878919029521
 10
20.81163374684017
 20
26.98370557795303
 10
20.81792971591495
 20
26.97950656461795
 10
20.8242089626283
 20
26.97529491878113
 10
20.83047148698024
 20
26.97107069627683
 10
20.83671728897076
 20
26.96683395293932
 10
20.84294636859986
 20
26.96258474460284
 10
20.84915872586754
 20
26.95832312710168
 10
20.8553543607738
 20
26.95404915627009
 10
20.86153327331863
 20
26.94976288794233
 10
20.86769546350206
 20
26.94546437795265
 10
20.87384093132405
 20
26.94115368213533
 10
20.87996967678462
 20
26.93683085632463
 10
20.88608169988378
 20
26.93249595635481
 10
20.89217700062152
 20
26.92814903806012
 10
20.89825557899783
 20
26.92379015727484
 10
20.90431743501273
 20
26.91941936983321
 10
20.9103625686662
 20
26.91503673156952
 10
20.91639097995825
 20
26.91064229831801
 10
20.92240266888889
 20
26.90623612591294
 10
20.9283976354581
 20
26.90181827018859
 10
20.93437587966589
 20
26.89738878697922
 10
20.94033740151227
 20
26.89294773211907
 10
20.94628220099721
 20
26.88849516144242
 10
20.95221027812074
 20
26.88403113078352
 10
20.95812163288285
 20
26.87955569597666
 10
20.96401626528354
 20
26.87506891285607
 10
20.96989417532281
 20
26.87057083725602
 10
20.97575536300066
 20
26.86606152501078
 10
20.98159982831709
 20
26.86154103195461
 10
20.9874275712721
 20
26.85700941392176
 10
20.99323859186568
 20
26.8524667267465
 10
20.99903289009785
 20
26.84791302626309
 10
21.0048104659686
 20
26.84334836830581
 10
21.01057131947793
 20
26.8387728087089
 10
21.01631545062583
 20
26.83418640330662
 10
21.02204285941232
 20
26.82958920793325
 10
21.02775354583738
 20
26.82498127842304
 10
21.03344750990103
 20
26.82036267061025
 10
21.03912475160325
 20
26.81573344032915
 10
21.04478527094406
 20
26.81109364341399
 10
21.05042906792345
 20
26.80644333569905
 10
21.05605614254141
 20
26.80178257301857
 10
21.06166649479795
 20
26.79711141120683
 10
21.06726012469307
 20
26.79242990609808
 10
21.07283703222678
 20
26.78773811352659
 10
21.07839721739906
 20
26.78303608932661
 10
21.08394068020992
 20
26.77832388933241
 10
21.08946742065937
 20
26.77360156937827
 10
21.09497743874739
 20
26.76886918529842
 10
21.10047073447399
 20
26.76412679292714
 10
21.10594730783917
 20
26.75937444809868
 10
21.11140715884293
 20
26.75461220664732
 10
21.11685028748527
 20
26.7498401244073
 10
21.12227669376618
 20
26.7450582572129
 10
21.12768637768568
 20
26.74026666089837
 10
21.13307933924376
 20
26.73546539129798
 10
21.13845557844041
 20
26.73065450424598
 10
21.14381509527566
 20
26.72583405557665
 10
21.14915788974947
 20
26.72100410112424
 10
21.15448396186187
 20
26.71616469672302
 10
21.15979331161285
 20
26.71131589820724
 10
21.1650859390024
 20
26.70645776141117
 10
21.17036184403053
 20
26.70159034216906
 10
21.17562102669724
 20
26.69671369631518
 10
21.18086348700254
 20
26.6918278796838
 10
21.18608922494641
 20
26.68693294810918
 10
21.19129824052887
 20
26.68202895742557
 10
21.1964905337499
 20
26.67711596346725
 10
21.20166610460952
 20
26.67219402206846
 10
21.20682495310771
 20
26.66726318906347
 10
21.21196707924448
 20
26.66232352028655
 10
21.21709248301983
 20
26.65737507157196
 10
21.22220116443377
 20
26.65241789875396
 10
21.22729312348628
 20
26.6474520576668
 10
21.23236836017737
 20
26.64247760414476
 10
21.23742687450704
 20
26.63749459402208
 10
21.24246866647529
 20
26.63250308313304
 10
21.24749373608212
 20
26.6275031273119
 10
21.25250208332753
 20
26.62249478239292
 10
21.25749370821152
 20
26.61747810421036
 10
21.26246861073408
 20
26.61245314859848
 10
21.26742679089523
 20
26.60741997139155
 10
21.27236824869496
 20
26.60237862842382
 10
21.27729298413327
 20
26.59732917552956
 10
21.28220099721015
 20
26.59227166854303
 10
21.28709228792562
 20
26.58720616329849
 10
21.29196685627966
 20
26.58213271563021
 10
21.29682470227229
 20
26.57705138137244
 10
21.30166582590349
 20
26.57196221635945
 10
21.30649022717328
 20
26.5668652764255
 10
21.31129790608164
 20
26.56176061740485
 10
21.31608886262859
 20
26.55664829513176
 10
21.32086309681412
 20
26.55152836544049
 10
21.32562060863822
 20
26.54640088416532
 10
21.33036139810089
 20
26.54126590714048
 10
21.33508546520216
 20
26.53612349020027
 10
21.339792809942
 20
26.53097368917892
 10
21.34448343232042
 20
26.52581655991071
 10
21.34915733233742
 20
26.52065215822989
 10
21.353814509993
 20
26.51548053997073
 10
21.35845496528716
 20
26.51030176096749
 10
21.3630786982199
 20
26.50511587705443
 10
21.36768570879122
 20
26.49992294406581
 10
21.37227599700113
 20
26.4947230178359
 10
21.3768495628496
 20
26.48951615419895
 10
21.38140640633666
 20
26.48430240898923
 10
21.3859465274623
 20
26.479081838041
 10
21.39046992622652
 20
26.47385449718853
 10
21.39497660262931
 20
26.46862044226607
 10
21.39946655667069
 20
26.46337972910788
 10
21.40393978835064
 20
26.45813241354824
 10
21.40839629766918
 20
26.45287855142139
 10
21.4128360846263
 20
26.44761819856161
 10
21.41725914922199
 20
26.44235141080314
 10
21.42166549145627
 20
26.43707824398027
 10
21.42605511132912
 20
26.43179875392724
 10
21.43042800884056
 20
26.42651299647831
 10
21.43478418399057
 20
26.42122102746776
 10
21.43912363677916
 20
26.41592290272984
 10
21.44344636720633
 20
26.41061867809882
 10
21.44775237527209
 20
26.40530840940895
 10
21.45204166097642
 20
26.3999921524945
 10
21.45631422431933
 20
26.39466996318973
 10
21.46057006530082
 20
26.3893418973289
 10
21.46480918392089
 20
26.38400801074627
 10
21.46903158017954
 20
26.37866835927611
 10
21.47323725407677
 20
26.37332299875268
 10
21.47742620561259
 20
26.36797198501023
 10
21.48159843478697
 20
26.36261537388303
 10
21.48575394159994
 20
26.35725322120536
 10
21.48989272605149
 20
26.35188558281145
 10
21.49401478814162
 20
26.34651251453558
 10
21.49812012787032
 20
26.34113407221201
 10
21.50220874523761
 20
26.33575031167499
 10
21.50628064024348
 20
26.3303612887588
 10
21.51033581288792
 20
26.3249670592977
 10
21.51437426317095
 20
26.31956767912593
 10
21.51839599109256
 20
26.31416320407778
 10
21.52240099665274
 20
26.30875368998749
 10
21.5263892798515
 20
26.30333919268934
 10
21.53036084068885
 20
26.29791976801758
 10
21.53431567916477
 20
26.29249547180647
 10
21.53825379527928
 20
26.28706635989028
 10
21.54217518903236
 20
26.28163248810327
 10
21.54607986042402
 20
26.27619391227969
 10
21.54996780945427
 20
26.27075068825383
 10
21.55383903612309
 20
26.26530287185992
 10
21.55769354043049
 20
26.25985051893224
 10
21.56153132237647
 20
26.25439368530505
 10
21.56535238196103
 20
26.2489324268126
 10
21.56915671918417
 20
26.24346679928917
 10
21.57294433404589
 20
26.23799685856901
 10
21.57671522654619
 20
26.23252266048639
 10
21.58046939668507
 20
26.22704426087555
 10
21.58420684446253
 20
26.22156171557079
 10
21.58792756987857
 20
26.21607508040634
 10
21.59163157293318
 20
26.21058441121647
 10
21.59531885362638
 20
26.20508976383545
 10
21.59898941195816
 20
26.19959119409754
 10
21.60264324792852
 20
26.19408875783699
 10
21.60628036153745
 20
26.18858251088806
 10
21.60990075278497
 20
26.18307250908504
 10
21.61350442167107
 20
26.17755880826216
 10
21.61709136819574
 20
26.1720414642537
 10
21.62066159235899
 20
26.16652053289392
 10
21.62421509416083
 20
26.16099607001707
 10
21.62775187360125
 20
26.15546813145743
 10
21.63127193068024
 20
26.14993677304925
 10
21.63477526539781
 20
26.1444020506268
 10
21.63826187775396
 20
26.13886402002432
 10
21.64173176774869
 20
26.1333227370761
 10
21.64518493538201
 20
26.12777825761639
 10
21.6486213806539
 20
26.12223063747945
 10
21.65204110356437
 20
26.11667993249954
 10
21.65544410411342
 20
26.11112619851093
 10
21.65883038230105
 20
26.10556949134787
 10
21.66219993812726
 20
26.10000986684464
 10
21.66555277159205
 20
26.09444738083548
 10
21.66888888269542
 20
26.08888208915467
 10
21.67220827143737
 20
26.08331404763646
 10
21.6755109378179
 20
26.07774331211512
 10
21.67879688183701
 20
26.07216993842491
 10
21.68206610349469
 20
26.06659398240008
 10
21.68531860279096
 20
26.06101549987491
 10
21.68855437972581
 20
26.05543454668366
 10
21.69177343429924
 20
26.04985117866057
 10
21.69497576651124
 20
26.04426545163992
 10
21.69816137636183
 20
26.03867742145598
 10
21.70133026385099
 20
26.03308714394299
 10
21.70448242897874
 20
26.02749467493523
 10
21.70761787174506
 20
26.02190007026695
 10
21.71073659214996
 20
26.01630338577242
 10
21.71383859019345
 20
26.0107046772859
 10
21.71692386587551
 20
26.00510400064164
 10
21.71999241919616
 20
25.99950141167393
 10
21.72304425015538
 20
25.993896966217
 10
21.72607935875318
 20
25.98829072010513
 10
21.72909774498956
 20
25.98268272917257
 10
21.73209940886452
 20
25.9770730492536
 10
21.73508435037807
 20
25.97146173618247
 10
21.73805256953018
 20
25.96584884579344
 10
21.74100406632088
 20
25.96023443392077
 10
21.74393884075016
 20
25.95461855639874
 10
21.74685689281802
 20
25.94900126906159
 10
21.74975822252446
 20
25.94338262774359
 10
21.75264282986949
 20
25.93776268827901
 10
21.75551071485308
 20
25.9321415065021
 10
21.75836187747526
 20
25.92651913824712
 10
21.76119631773602
 20
25.92089563934834
 10
21.76401403563535
 20
25.91527106564002
 10
21.76681503117327
 20
25.90964547295643
 10
21.76959930434977
 20
25.90401891713181
 10
21.77236685516484
 20
25.89839145400044
 10
21.7751176836185
 20
25.89276313939658
 10
21.77785178971073
 20
25.88713402915448
 10
21.78056917344154
 20
25.88150417910842
 10
21.78326983481094
 20
25.87587364509265
 10
21.78595377381891
 20
25.87024248294143
 10
21.78862099046547
 20
25.86461074848904
 10
21.7912714847506
 20
25.85897849756971
 10
21.79390525667431
 20
25.85334578601773
 10
21.7965223062366
 20
25.84771266966735
 10
21.79912263343748
 20
25.84207920435284
 10
21.80170623827693
 20
25.83644544590845
 10
21.80427312075496
 20
25.83081145016844
 10
21.80682328087157
 20
25.82517727296709
 10
21.80935671862676
 20
25.81954297013864
 10
21.81187343402053
 20
25.81390859751737
 10
21.81437342705288
 20
25.80827421093753
 10
21.81685669772381
 20
25.80263986623339
 10
21.81932324603332
 20
25.79700561923921
 10
21.8217730719814
 20
25.79137152578924
 10
21.82420617556807
 20
25.78573764171777
 10
21.82662255679332
 20
25.78010402285903
 10
21.82902221565715
 20
25.7744707250473
 10
21.83140515215955
 20
25.76883780411683
 10
21.83377136630054
 20
25.7632053159019
 10
21.8361208580801
 20
25.75757331623676
 10
21.83845362749825
 20
25.75194186095567
 10
21.84076967455498
 20
25.74631100589289
 10
21.84306899925028
 20
25.74068080688269
 10
21.84535160158416
 20
25.73505131975934
 10
21.84761748155663
 20
25.72942260035707
 10
21.84986663916767
 20
25.72379470451017
 10
21.8520990744173
 20
25.7181676880529
 10
21.8543147873055
 20
25.71254160681951
 10
21.85651377783228
 20
25.70691651664427
 10
21.85869604599764
 20
25.70129247336144
 10
21.86086159180158
 20
25.69566953280528
 10
21.8630104152441
 20
25.69004775081005
 10
21.86514251632521
 20
25.68442718321002
 10
21.86725789504489
 20
25.67880788583944
 10
21.86935655140314
 20
25.67318991453259
 10
21.87143848539998
 20
25.66757332512371
 10
21.8735036970354
 20
25.66195817344708
 10
21.87555218630941
 20
25.65634451533695
 10
21.87758395322198
 20
25.65073240662758
 10
21.87959899777314
 20
25.64512190315325
 10
21.88159731996288
 20
25.6395130607482
 10
21.8835789197912
 20
25.63390593524671
 10
21.88554379725809
 20
25.62830058248303
 10
21.88749195236357
 20
25.62269705829142
 10
21.88942338510762
 20
25.61709541850615
 10
21.89133809549026
 20
25.61149571896148
 10
21.89323608351147
 20
25.60589801549168
 10
21.89511734917127
 20
25.60030236393099
 10
21.89698189246964
 20
25.59470882011368
 10
21.8988297134066
 20
25.58911743987402
 10
21.90066081198213
 20
25.58352827904628
 10
21.90247518819624
 20
25.5779413934647
 10
21.90427284204893
 20
25.57235683896355
 10
21.90605377354021
 20
25.5667746713771
 10
21.90781798267006
 20
25.5611949465396
 10
21.90956546943849
 20
25.55561772028533
 10
21.9112962338455
 20
25.55004304844852
 10
21.91301027589109
 20
25.54447098686346
 10
21.91470759557526
 20
25.5389015913644
 10
21.91638819289801
 20
25.53333491778561
 10
21.91805206785934
 20
25.52777102196134
 10
21.91969922045925
 20
25.52220995972586
 10
21.92132965069774
 20
25.51665178691344
 10
21.92294335857481
 20
25.51109655935832
 10
21.92454034409046
 20
25.50554433289478
 10
21.92612060724468
 20
25.49999516335707
 10
21.92768414803749
 20
25.49444910657946
 10
21.92923096646888
 20
25.48890621839621
 10
21.93076106253884
 20
25.48336655464158
 10
21.93227443624739
 20
25.47783017114983
 10
21.93377108759451
 20
25.47229712375523
 10
21.93525101658022
 20
25.46676746829204
 10
21.93671422320451
 20
25.46124126059451
 10
21.93816070746737
 20
25.45571855649692
 10
21.93959046936882
 20
25.45019941183351
 10
21.94100350890884
 20
25.44468388243856
 10
21.94239982608744
 20
25.43917202414633
 10
21.94377942090463
 20
25.43366389279107
 10
21.94514229336039
 20
25.42815954420706
 10
21.94648844345473
 20
25.42265903422854
 10
21.94781787118765
 20
25.41716241868979
 10
21.94913057655915
 20
25.41166975342506
 10
21.95042655956923
 20
25.40618109426862
 10
21.95170582021789
 20
25.40069649705472
 10
21.95296835850513
 20
25.39521601761765
 10
21.95421417443096
 20
25.38973971179164
 10
21.95544326799535
 20
25.38426763541096
 10
21.95665563919833
 20
25.37879984430988
 10
21.95785128803989
 20
25.37333639432266
 10
21.95903021452003
 20
25.36787734128356
 10
21.96019241863874
 20
25.36242274102684
 10
21.96133790039604
 20
25.35697264938677
 10
21.96246665979192
 20
25.3515271221976
 10
21.96357869682637
 20
25.34608621529359
 10
21.96467401149941
 20
25.34064998450901
 10
21.96575260381103
 20
25.33521848567813
 10
21.96681447376122
 20
25.3297917746352
 10
21.96785962134999
 20
25.32436990721448
 10
21.96888804657735
 20
25.31895293925025
 10
21.96989974944329
 20
25.31354092657674
 10
21.9708947299478
 20
25.30813392502824
 10
21.97187298809089
 20
25.30273199043899
 10
21.97283452387257
 20
25.29733517864328
 10
21.97377933729282
 20
25.29194354547535
 10
21.97470742835165
 20
25.28655714676946
 10
21.97561879704906
 20
25.28117603835989
 10
21.97651344338505
 20
25.27580027608088
 10
21.97739136735962
 20
25.27042991576671
 10
21.97825256897277
 20
25.26506501325164
 10
21.97909704822451
 20
25.25970562436991
 10
21.97992480511481
 20
25.25435180495581
 10
21.9807358396437
 20
25.24900361084359
 10
21.98153015181117
 20
25.24366109786751
 10
21.98230774161722
 20
25.23832432186183
 10
21.98306860906185
 20
25.23299333866082
 10
21.98381275414505
 20
25.22766820409874
 10
21.98454017686684
 20
25.22234897400984
 10
21.98525087722721
 20
25.2170357042284
 10
21.98594485522615
 20
25.21172845058867
 10
21.98662211086368
 20
25.20642726892492
 10
21.98728264413979
 20
25.2011322150714
 10
21.98792645505447
 20
25.19584334486238
 10
21.98855354360774
 20
25.19056071413212
 10
21.98916390979958
 20
25.18528437871488
 10
21.98975755363001
 20
25.18001439444493
 10
21.99033447509901
 20
25.17475081715652
 10
21.99089467420659
 20
25.16949370268392
 10
21.99143815095276
 20
25.1642431068614
 10
21.9919649053375
 20
25.1589990855232
 10
21.99247493736082
 20
25.15376169450359
 10
21.99296824702272
 20
25.14853098963684
 10
21.9934448343232
 20
25.14330702675721
 10
21.99390469926227
 20
25.13808986169895
 10
21.99434784183991
 20
25.13287955029634
 10
21.99477426205613
 20
25.12767614838363
 10
21.99518395991092
 20
25.12247971179508
 10
21.9955769354043
 20
25.11729029636496
 10
21.99595318853626
 20
25.11210795792753
 10
21.9963127193068
 20
25.10693275231704
 10
21.99665552771592
 20
25.10176473536777
 10
21.99698161376362
 20
25.09660396291397
 10
21.9972909774499
 20
25.09145049078991
 10
21.99758361877475
 20
25.08630437482984
 10
21.99785953773819
 20
25.08116567086804
 10
21.99811873434021
 20
25.07603443473875
 10
21.9983612085808
 20
25.07091072227625
 10
21.99858696045997
 20
25.06579458931478
 10
21.99879598997773
 20
25.06068609168863
 10
21.99898829713407
 20
25.05558528523205
 10
21.99916388192898
 20
25.05049222577929
 10
21.99932274436247
 20
25.04540696916463
 10
21.99946488443454
 20
25.04032957122232
 10
21.9995903021452
 20
25.03526008778663
 10
21.99969899749443
 20
25.03019857469181
 10
21.99979097048224
 20
25.02514508777213
 10
21.99986622110864
 20
25.02009968286186
 10
21.9999247493736
 20
25.01506241579524
 10
21.99996655527716
 20
25.01003334240656
 10
21.99999163881929
 20
25.00501251853005
 10
22
 20
25
 10
22
 20
25
 10
21.99977740737824
 20
24.98338879567727
 10
21.9991111180491
 20
24.96694286619725
 10
21.99800336423962
 20
24.95066027129402
 10
21.99645637739127
 20
24.93453907994508
 10
21.9944723881401
 20
24.91857737033247
 10
21.99205362629676
 20
24.90277322980391
 10
21.98920232082662
 20
24.88712475483378
 10
21.98592069982984
 20
24.87163005098433
 10
21.98221099052144
 20
24.85628723286669
 10
21.97807541921143
 20
24.84109442410209
 10
21.97351621128478
 20
24.82604975728278
 10
21.96853559118166
 20
24.81115137393328
 10
21.96313578237736
 20
24.79639742447141
 10
21.9573190073625
 20
24.78178606816937
 10
21.95108748762305
 20
24.76731547311491
 10
21.9444434436204
 20
24.75298381617232
 10
21.93738909477148
 20
24.73878928294362
 10
21.92992665942883
 20
24.72473006772963
 10
21.92205835486065
 20
24.71080437349104
 10
21.91378639723094
 20
24.69701041180954
 10
21.90511300157951
 20
24.68334640284887
 10
21.89604038180215
 20
24.66981057531599
 10
21.88657075063061
 20
24.6564011664221
 10
21.87670631961276
 20
24.64311642184379
 10
21.86644929909264
 20
24.62995459568412
 10
21.85580189819056
 20
24.61691395043373
 10
21.84476632478313
 20
24.60399275693188
 10
21.83334478548342
 20
24.59118929432762
 10
21.82153948562098
 20
24.57850185004083
 10
21.80935262922193
 20
24.56592871972339
 10
21.79678641898909
 20
24.55346820722017
 10
21.78384305628198
 20
24.54111862453022
 10
21.77052474109697
 20
24.52887829176781
 10
21.75683367204736
 20
24.51674553712357
 10
21.74277204634338
 20
24.50471869682556
 10
21.72834205977239
 20
24.49279611510036
 10
21.71354590667886
 20
24.48097614413418
 10
21.69838577994453
 20
24.46925714403396
 10
21.68286387096842
 20
24.45763748278847
 10
21.66698236964697
 20
24.44611553622937
 10
21.65074346435409
 20
24.43468968799237
 10
21.63414934192124
 20
24.42335832947826
 10
21.61720218761754
 20
24.41211985981406
 10
21.59990418512983
 20
24.40097268581409
 10
21.58225751654275
 20
24.38991522194107
 10
21.5642643623188
 20
24.3789458902672
 10
21.54592690127848
 20
24.36806312043531
 10
21.52724731058034
 20
24.35726534961987
 10
21.50822776570103
 20
24.3465510224882
 10
21.48887044041544
 20
24.33591859116145
 10
21.46917750677673
 20
24.32536651517579
 10
21.44915113509647
 20
24.31489326144343
 10
21.42879349392464
 20
24.30449730421379
 10
21.40810675002978
 20
24.29417712503455
 10
21.38709306837906
 20
24.28393121271275
 10
21.36575461211832
 20
24.2737580632759
 10
21.34409354255221
 20
24.26365617993304
 10
21.32211201912424
 20
24.25362407303593
 10
21.29981219939684
 20
24.24366026004004
 10
21.2771962390315
 20
24.23376326546571
 10
21.2542662917688
 20
24.2239316208592
 10
21.2310245094085
 20
24.21416386475385
 10
21.20747304178964
 20
24.2044585426311
 10
21.18361403677062
 20
24.19481420688167
 10
21.15944964020926
 20
24.18522941676657
 10
21.13498199594291
 20
24.17570273837829
 10
21.11021324576849
 20
24.16623274460181
 10
21.08514552942263
 20
24.15681801507575
 10
21.0597809845617
 20
24.14745713615343
 10
21.03412174674191
 20
24.13814870086402
 10
21.00816994939941
 20
24.12889130887358
 10
20.98192772383033
 20
24.11968356644618
 10
20.9553971991709
 20
24.110524086405
 10
20.92858050237752
 20
24.10141148809345
 10
20.90147975820682
 20
24.0923443973362
 10
20.87409708919578
 20
24.08332144640033
 10
20.84643461564177
 20
24.07434127395642
 10
20.81849445558269
 20
24.06540252503965
 10
20.79027872477698
 20
24.05650385101087
 10
20.76178953668374
 20
24.04764390951771
 10
20.73302900244281
 20
24.03882136445569
 10
20.70399923085486
 20
24.03003488592931
 10
20.67470232836144
 20
24.02128315021313
 10
20.6451403990251
 20
24.01256483971289
 10
20.61531554450945
 20
24.00387864292662
 10
20.58522986405924
 20
23.99522325440564
 10
20.55488545448042
 20
23.98659737471581
 10
20.52428441012031
 20
23.97799971039851
 10
20.49342882284756
 20
23.96942897393177
 10
20.46232078203233
 20
23.96088388369137
 10
20.4309623745263
 20
23.95236316391197
 10
20.3993556846428
 20
23.94386554464813
 10
20.36750279413689
 20
23.93538976173547
 10
20.33540578218539
 20
23.92693455675174
 10
20.30306672536703
 20
23.91849867697792
 10
20.27048769764248
 20
23.91008087535933
 10
20.23767077033445
 20
23.90167991046672
 10
20.2046180121078
 20
23.89329454645735
 10
20.17133148894955
 20
23.88492355303609
 10
20.13781326414906
 20
23.87656570541656
 10
20.10406539827799
 20
23.86821978428217
 10
20.07008994917051
 20
23.85988457574723
 10
20.03588897190327
 20
23.85155887131807
 10
20.00146451877558
 20
23.84324146785414
 10
19.9668186392894
 20
23.83493116752905
 10
19.93195338012948
 20
23.82662677779173
 10
19.89687078514345
 20
23.81832711132751
 10
19.86157289532181
 20
23.81003098601918
 10
19.82606174877816
 20
23.80173722490814
 10
19.79033938072915
 20
23.79344465615549
 10
19.75440782347462
 20
23.78515211300305
 10
19.71826910637769
 20
23.77685843373459
 10
19.6819252558448
 20
23.76856246163678
 10
19.64537829530582
 20
23.76026304496042
 10
19.60863024519414
 20
23.75195903688143
 10
19.57168312292675
 20
23.74364929546202
 10
19.53453894288427
 20
23.73533268361174
 10
19.4971997163911
 20
23.72700806904863
 10
19.45966745169549
 20
23.71867432426023
 10
19.42194415394956
 20
23.71033032646477
 10
19.38403182518945
 20
23.70197495757223
 10
19.34593246431538
 20
23.69360710414538
 10
19.30764806707173
 20
23.68522565736098
 10
19.26918062602713
 20
23.67682951297082
 10
19.2305321305545
 20
23.6684175712628
 10
19.1917045668112
 20
23.65998873702207
 10
19.15269991771904
 20
23.65154191949209
 10
19.11352016294443
 20
23.64307603233573
 10
19.0741672788784
 20
23.63458999359642
 10
19.03464323861673
 20
23.62608272565918
 10
18.99495001194001
 20
23.61755315521173
 10
18.9550895652937
 20
23.60900021320562
 10
18.91506386176826
 20
23.60042283481729
 10
18.87487486107919
 20
23.59181995940921
 10
18.83452451954715
 20
23.58319053049091
 10
18.79401479007798
 20
23.57453349568012
 10
18.75334762214284
 20
23.56584780666389
 10
18.71252496175829
 20
23.55713241915965
 10
18.67154875146633
 20
23.5483862928763
 10
18.6304209303145
 20
23.53960839147532
 10
18.58914343383598
 20
23.53079768253189
 10
18.54771819402965
 20
23.52195313749595
 10
18.50614713934019
 20
23.5130737316533
 10
18.46443219463812
 20
23.50415844408674
 10
18.42257528119997
 20
23.49520625763712
 10
18.38057831668824
 20
23.48621615886444
 10
18.33844321513158
 20
23.47718713800896
 10
18.29617188690482
 20
23.46811818895232
 10
18.25376623870908
 20
23.45900830917858
 10
18.21122817355183
 20
23.44985649973536
 10
18.168559590727
 20
23.44066176519492
 10
18.12576238579501
 20
23.43142311361528
 10
18.0828384505629
 20
23.42213955650128
 10
18.0397896730644
 20
23.4128101087657
 10
17.99661793754001
 20
23.40343378869036
 10
17.95332512441707
 20
23.39400961788717
 10
17.90991311028983
 20
23.38453662125933
 10
17.86638376789959
 20
23.37501382696229
 10
17.82273896611471
 20
23.36544026636498
 10
17.77898056991075
 20
23.3558149740108
 10
17.7351104403505
 20
23.34613698757878
 10
17.69113043456411
 20
23.33640534784465
 10
17.64704240572912
 20
23.32661909864196
 10
17.60284820305061
 20
23.31677728682316
 10
17.55854967174121
 20
23.30687896222065
 10
17.51414865300121
 20
23.29692317760799
 10
17.46964698399866
 20
23.2869089886609
 10
17.42504649784944
 20
23.27683545391839
 10
17.38034902359732
 20
23.26670163474385
 10
17.33555638619408
 20
23.25650659528617
 10
17.29067040647954
 20
23.24624940244078
 10
17.2456929011617
 20
23.23592912581082
 10
17.20062568279678
 20
23.22554483766818
 10
17.15547055976931
 20
23.21509561291464
 10
17.11022933627223
 20
23.20458052904291
 10
17.06490381228695
 20
23.19399866609779
 10
17.01949578356344
 20
23.18334910663723
 10
16.9740070416003
 20
23.17263093569342
 10
16.92843937362487
 20
23.16184324073391
 10
16.8827945625733
 20
23.15098511162271
 10
16.83707438707058
 20
23.14005564058136
 10
16.79128062141072
 20
23.12905392215003
 10
16.74541503553674
 20
23.11797905314866
 10
16.69947939502082
 20
23.10683013263797
 10
16.65347546104433
 20
23.09560626188068
 10
16.60740499037792
 20
23.08430654430248
 10
16.56126973536165
 20
23.0729300854532
 10
16.51507144388501
 20
23.06147599296791
 10
16.46881185936704
 20
23.04994337652798
 10
16.42249272073638
 20
23.03833134782218
 10
16.37611576241139
 20
23.02663902050782
 10
16.3296827142802
 20
23.01486551017178
 10
16.28319530168079
 20
23.0030099342917
 10
16.23665524538113
 20
22.99107141219695
 10
16.19006426155917
 20
22.97904906502985
 10
16.14342406178297
 20
22.96694201570669
 10
16.0967363529908
 20
22.95474938887886
 10
16.0500028374712
 20
22.94247031089392
 10
16.00322521284304
 20
22.93010390975674
 10
15.95640517203563
 20
22.91764931509054
 10
15.90954440326882
 20
22.90510565809805
 10
15.86264459003302
 20
22.89247207152253
 10
15.81570741106934
 20
22.87974768960896
 10
15.76873454034965
 20
22.86693164806504
 10
15.72172764705663
 20
22.85402308402237
 10
15.67468839556392
 20
22.84102113599748
 10
15.62761844541615
 20
22.82792494385297
 10
15.58051945130902
 20
22.81473364875861
 10
15.53339306306942
 20
22.80144639315239
 10
15.48624092563548
 20
22.78806232070164
 10
15.43906467903664
 20
22.7745805762642
 10
15.39186595837379
 20
22.76100030584935
 10
15.34464639379927
 20
22.74732065657909
 10
15.29740761049702
 20
22.73354077664911
 10
15.25015122866264
 20
22.71965981528994
 10
15.20287886348343
 20
22.70567692272803
 10
15.15559212511856
 20
22.69159125014688
 10
15.10829261867905
 20
22.67740194964806
 10
15.06098194420793
 20
22.66310817421239
 10
15.0136616966603
 20
22.64870907766101
 10
14.96633346588338
 20
22.63420381461645
 10
14.91899883659662
 20
22.61959154046374
 10
14.8716593883718
 20
22.60487141131155
 10
14.82431669561306
 20
22.5900425839532
 10
14.77697232753702
 20
22.57510421582783
 10
14.72962784815285
 20
22.56005546498148
 10
14.68228481624238
 20
22.54489549002817
 10
14.63494478534011
 20
22.52962345011102
 10
14.58760930371335
 20
22.51423850486329
 10
14.54027991434231
 20
22.49873981436956
 10
14.49295815490014
 20
22.48312653912678
 10
14.44564555773303
 20
22.46739784000535
 10
14.39834364984029
 20
22.45155287821029
 10
14.35105395285445
 20
22.4355908152422
 10
14.3037779830213
 20
22.41951081285853
 10
14.25651725118002
 20
22.40331203303455
 10
14.20927326274322
 20
22.38699363792446
 10
14.16204751767705
 20
22.37055478982256
 10
14.11484151048127
 20
22.35399465112427
 10
14.06765673016932
 20
22.33731238428728
 10
14.02049466024843
 20
22.32050715179258
 10
13.97335677869967
 20
22.30357811610564
 10
13.92624455795807
 20
22.28652443963743
 10
13.87915946489264
 20
22.26934528470559
 10
13.83210296078653
 20
22.25203981349546
 10
13.78507650131705
 20
22.23460718802123
 10
13.73808153653577
 20
22.21704657008699
 10
13.69111951084862
 20
22.19935712124783
 10
13.64419186299593
 20
22.18153800277101
 10
13.59730002603257
 20
22.16358837559697
 10
13.55044542730797
 20
22.14550740030044
 10
13.50362948844623
 20
22.12729423705158
 10
13.45685362532623
 20
22.10894804557707
 10
13.41011924806166
 20
22.09046798512114
 10
13.36342776098113
 20
22.07185321440677
 10
13.31678056260824
 20
22.05310289159666
 10
13.27017904564167
 20
22.03421617425447
 10
13.22362459693527
 20
22.01519221930581
 10
13.17711859747812
 20
21.99603018299936
 10
13.13066242237461
 20
21.97672922086802
 10
13.08425744082457
 20
21.95728848768992
 10
13.03790501610327
 20
21.93770713744959
 10
12.99160650554156
 20
21.91798432329901
 10
12.94536326050597
 20
21.89811919751874
 10
12.89917662637873
 20
21.87811091147899
 10
12.85304794253786
 20
21.85795861560074
 10
12.80697854233732
 20
21.83766145931681
 10
12.76096975308701
 20
21.81721859103298
 10
12.71502289603291
 20
21.79662915808909
 10
12.6691392863371
 20
21.77589230672009
 10
12.62332023305791
 20
21.7550071820172
 10
12.57756703912996
 20
21.73397292788896
 10
12.53188100134425
 20
21.71278868702237
 10
12.48626341032823
 20
21.69145360084394
 10
12.44071555052593
 20
21.66996680948081
 10
12.39523870017796
 20
21.64832745172185
 10
12.34983413130167
 20
21.62653466497874
 10
12.30450310967119
 20
21.6045875852471
 10
12.25924689479751
 20
21.58248534706754
 10
12.21406673990857
 20
21.56022708348679
 10
12.16896389192937
 20
21.53781192601879
 10
12.123939591462
 20
21.51523900460579
 10
12.07899507276574
 20
21.49250744757942
 10
12.03413156373717
 20
21.46961638162182
 10
11.9893502858902
 20
21.44656493172674
 10
11.94465245433622
 20
21.4233522211606
 10
11.9000392777641
 20
21.39997737142361
 10
11.85551195842034
 20
21.37643950221086
 10
11.81107169208912
 20
21.35273773137344
 10
11.76671966807237
 20
21.3288711748795
 10
11.7224570691699
 20
21.30483894677536
 10
11.67828507165941
 20
21.28064015914663
 10
11.63420484527664
 20
21.25627392207927
 10
11.5902175531954
 20
21.23173934362071
 10
11.5463243520077
 20
21.20703552974095
 10
11.50252639170378
 20
21.18216158429361
 10
11.45882481565223
 20
21.15711660897713
 10
11.41522076058006
 20
21.13189970329573
 10
11.37171535655276
 20
21.10650996452062
 10
11.32830972695442
 20
21.08094648765104
 10
11.28500498846779
 20
21.05520836537538
 10
11.24180225105436
 20
21.02929468803224
 10
11.19870261793445
 20
21.00320454357161
 10
11.15570718556728
 20
20.97693701751583
 10
11.11281704363105
 20
20.95049119292083
 10
11.07003327500306
 20
20.92386615033714
 10
11.02735695573973
 20
20.89706096777102
 10
10.98478915505673
 20
20.87007472064553
 10
10.94233093530903
 20
20.84290648176166
 10
10.89998335197101
 20
20.8155553212594
 10
10.85774745361653
 20
20.78802030657884
 10
10.81562428189899
 20
20.7603005024213
 10
10.77361487153144
 20
20.73239497071038
 10
10.73172025026666
 20
20.70430277055307
 10
10.68994143887722
 20
20.67602295820087
 10
10.64827945113558
 20
20.64755458701086
 10
10.60673529379416
 20
20.61889670740681
 10
10.56530996656544
 20
20.59004836684027
 10
10.52400446210202
 20
20.56100860975168
 10
10.48281976597672
 20
20.53177647753143
 10
10.44175685666263
 20
20.50235100848102
 10
10.40081670551324
 20
20.4727312377741
 10
10.36000027674247
 20
20.44291619741757
 10
10.31930852740479
 20
20.41290491621272
 10
10.27874240737531
 20
20.38269641971629
 10
10.23830285932979
 20
20.35228973020158
 10
10.1979908187248
 20
20.32168386661953
 10
10.15780721377778
 20
20.29087784455984
 10
10.1177529654471
 20
20.25987067621206
 10
10.07782898741215
 20
20.22866137032667
 10
10.03803618605345
 20
20.1972489321762
 10
9.998375460432676
 20
20.16563236351631
 10
9.958847702272797
 20
20.13381066254689
 10
9.919453795938127
 20
20.10178282387318
 10
9.880194618414414
 20
20.06954783846681
 10
9.841071039288913
 20
20.03710469362696
 10
9.802083920730487
 20
20.00445237294143
 10
9.763234117469665
 20
19.97158985624772
 10
9.724522476778734
 20
19.93851611959415
 10
9.685949838451839
 20
19.90523013520095
 10
9.64751703478502
 20
19.87173087142136
 10
9.609224890556336
 20
19.8380172927027
 10
9.571074223005933
 20
19.80408835954753
 10
9.533065841816107
 20
19.76994302847466
 10
9.495200549091424
 20
19.73558025198033
 10
9.457479139338755
 20
19.70099897849926
 10
9.4199023994474
 20
19.66619815236572
 10
9.38247110866914
 20
19.63117671377471
 10
9.345186038598335
 20
19.59593359874299
 10
9.308047953152
 20
19.56046773907019
 10
9.27105760854988
 20
19.52477806229992
 10
9.234215753294542
 20
19.48886349168086
 10
9.197523128151451
 20
19.45272294612784
 10
9.160980466129056
 20
19.41635534018298
 10
9.124588492458869
 20
19.37975958397672
 10
9.088347924575537
 20
19.342934583189
 10
9.052259472096937
 20
19.30587923901028
 10
9.016323836804256
 20
19.26859244810267
 10
8.980541712622069
 20
19.23107310256105
 10
8.944913785598413
 20
19.19332008987411
 10
8.909440733884885
 20
19.1553322928855
 10
8.874123227716707
 20
19.1171085897549
 10
8.838961929392818
 20
19.07864785391912
 10
8.803957493255956
 20
19.03994895405319
 10
8.769110565672731
 20
19.00101075403149
 10
8.734421785013714
 20
18.96183211288879
 10
8.699891781633514
 20
18.9224118847814
 10
8.665521177850863
 20
18.88274891894824
 10
8.631310587928697
 20
18.84284205967194
 10
8.597260618054234
 20
18.80269014623994
 10
8.563371866319057
 20
18.76229201290558
 10
8.529644922699198
 20
18.72164648884921
 10
8.496080369035221
 20
18.68075239813927
 10
8.462678779012295
 20
18.63960855969339
 10
8.429440718140283
 20
18.59821378723951
 10
8.396366743733818
 20
18.55656688927694
 10
8.363457404892396
 20
18.51466666903749
 10
8.33071324248044
 20
18.47251192444654
 10
8.298134789107394
 20
18.43010144808416
 10
8.265722569107805
 20
18.38743402714616
 10
8.233477098521393
 20
18.34450844340527
 10
8.20139888507315
 20
18.30132347317216
 10
8.169488428153398
 20
18.25787788725657
 10
8.137746218797899
 20
18.2141704509284
 10
8.106172739667908
 20
18.17019992387879
 10
8.074768465030282
 20
18.12596506018129
 10
8.043533860737531
 20
18.08146460825283
 10
8.012469384207932
 20
18.03669731081494
 10
7.981575484405584
 20
17.99166190485477
 10
7.950852601820505
 20
17.94635712158622
 10
7.920301168448705
 20
17.90078168641103
 10
7.889921607772273
 20
17.85493431887985
 10
7.859714334739454
 20
17.80881373265339
 10
7.829679755744738
 20
17.76241863546348
 10
7.799818268608931
 20
17.71574772907417
 10
7.770130262559242
 20
17.66879970924283
 10
7.74061611820937
 20
17.62157326568125
 10
7.711276207539573
 20
17.57406708201674
 10
7.682110893876759
 20
17.5262798357532
 10
7.653120531874563
 20
17.47821019823226
 10
7.624305467493437
 20
17.42985683459435
 10
7.595666037980712
 20
17.38121840373979
 10
7.567202571850706
 20
17.33229355828991
 10
7.538915388864782
 20
17.28308094454812
 10
7.51080480001144
 20
17.23357920246102
 10
7.482871107486407
 20
17.18378696557952
 10
7.455114604672695
 20
17.1337028610199
 10
7.427535576120708
 20
17.08332550942491
 10
7.400134297528304
 20
17.03265352492489
 10
7.372911035720889
 20
16.98168551509885
 10
7.345866048631492
 20
16.93042008093556
 10
7.318999585280851
 20
16.87885581679469
 10
7.292311885757489
 20
16.82699131036783
 10
7.265803181197799
 20
16.77482514263966
 10
7.239473693766127
 20
16.72235588784901
 10
7.213323636634849
 20
16.66958211344996
 10
7.187353213964454
 20
16.61650238007294
 10
7.161562620883629
 20
16.56311524148583
 10
7.135952043469338
 20
16.50941924455505
 10
7.1105216587269
 20
16.45541292920667
 10
7.085271634570075
 20
16.40109482838748
 10
7.060202129801148
 20
16.34646346802611
 10
7.035313294091
 20
16.29151736699413
 10
7.010605267959203
 20
16.23625503706713
 10
6.98607818275409
 20
16.18067498288582
 10
6.961732160632842
 20
16.12477570191712
 10
6.937567314541569
 20
16.0685556844153
 10
6.913583748195393
 20
16.01201341338301
 10
6.889781556058524
 20
15.95514736453242
 10
6.866160823324345
 20
15.8979560062463
 10
6.842721625895499
 20
15.84043779953916
 10
6.819464030363962
 20
15.78259119801825
 10
6.796388093991121
 20
15.72441464784477
 10
6.773493864687873
 20
15.66590658769488
 10
6.750781380994689
 20
15.60706544872083
 10
6.728250672061701
 20
15.54788965451209
 10
6.70590175762879
 20
15.48837762105636
 10
6.683734648005655
 20
15.42852775670077
 10
6.661749344051906
 20
15.36833846211291
 10
6.639945837157142
 20
15.30780813024192
 10
6.618324109221026
 20
15.24693514627963
 10
6.596884132633373
 20
15.18571788762164
 10
6.575625870254236
 20
15.12415472382841
 10
6.554549275393975
 20
15.06224401658634
 10
6.533654291793349
 20
14.99998411966891
 10
6.512940853603592
 20
14.93737337889775
 10
6.492408885366496
 20
14.87441013210373
 10
6.472058301994494
 20
14.81109270908806
 10
6.451889008750741
 20
14.74741943158342
 10
6.431900901229191
 20
14.68338861321499
 10
6.412093865334684
 20
14.61899855946162
 10
6.392467777263025
 20
14.55424756761687
 10
6.373022503481072
 20
14.48913392675015
 10
6.353757900706801
 20
14.42365591766778
 10
6.334673815889403
 20
14.3578118128741
 10
6.315770086189365
 20
14.29159987653258
 10
6.297046538958539
 20
14.22501836442691
 10
6.278502991720238
 20
14.15806552392207
 10
6.260139252149306
 20
14.09073959392548
 10
6.241955118052207
 20
14.02303880484803
 10
6.223950377347104
 20
13.95496137856523
 10
6.206124808043938
 20
13.8865055283783
 10
6.188478178224514
 20
13.81766945897525
 10
6.171010246022584
 20
13.74845136639196
 10
6.153720759603914
 20
13.67884943797332
 10
6.136609457146386
 20
13.60886185233431
 10
6.119676066820067
 20
13.53848677932108
 10
6.102920306767293
 20
13.46772237997206
 10
6.086341885082748
 20
13.39656680647905
 10
6.069940499793554
 20
13.32501820214833
 10
6.05371583883934
 20
13.25307470136176
 10
6.037667580052337
 20
13.18073442953784
 10
6.021795391137446
 20
13.10799550309285
 10
6.006098929652331
 20
13.03485602940193
 10
5.990577842987493
 20
12.96131410676015
 10
5.975231768346355
 20
12.88736782434367
 10
5.960060332725344
 20
12.81301526217077
 10
5.945063152893965
 20
12.73825449106298
 10
5.930239835374897
 20
12.66308357260618
 10
5.915589976424059
 20
12.58750055911167
 10
5.901113162010701
 20
12.51150349357732
 10
5.886808967797485
 20
12.4350904096486
 10
5.872676959120562
 20
12.35825933157972
 10
5.858716690969655
 20
12.2810082741947
 10
5.844927707968146
 20
12.20333524284851
 10
5.831309544353145
 20
12.12523823338812
 10
5.817861723955586
 20
12.04671523211362
 10
5.804583760180298
 20
11.9677642157393
 10
5.791475155986095
 20
11.88838315135477
 10
5.778535403865847
 20
11.80856999638604
 10
5.765763985826572
 20
11.72832269855664
 10
5.753160373369509
 20
11.64763919584866
 10
5.740724027470203
 20
11.56651741646391
 10
5.728454398558592
 20
11.48495527878499
 10
5.716350926499076
 20
11.40295069133639
 10
5.704413040570611
 20
11.32050155274557
 10
5.692640159446784
 20
11.23760575170408
 10
5.681031691175892
 20
11.15426116692866
 10
5.669587033161031
 20
11.0704656671223
 10
5.658305572140173
 20
10.98621711093539
 10
5.647186684166247
 20
10.90151334692674
 10
5.63622973458722
 20
10.81635221352479
 10
5.625434078026184
 20
10.73073153898859
 10
5.614799058361429
 20
10.64464914136896
 10
5.604324008706534
 20
10.55810282846959
 10
5.594008251390438
 20
10.4710903978081
 10
5.583851097937529
 20
10.38360963657717
 10
5.573851849047726
 20
10.29565832160563
 10
5.564009794576554
 20
10.20723421931953
 10
5.554324213515232
 20
10.11833508570328
 10
5.544794373970747
 20
10.0289586662607
 10
5.535419533145949
 20
9.939102695976164
 10
5.526198937319615
 20
9.848764899275661
 10
5.517131821826542
 20
9.757942989987905
 10
5.508217411037629
 20
9.666634671305433
 10
5.499454918339953
 20
9.574837635745698
 10
5.490843546116851
 20
9.482549565112171
 10
5.482382485728003
 20
9.389768130455423
 10
5.474070917489517
 20
9.296490992034245
 10
5.465908010654005
 20
9.202715799276723
 10
5.457892923390665
 20
9.108440190741339
 10
5.450024802765368
 20
9.013661794078093
 10
5.442302784720733
 20
8.91837822598956
 10
5.43472599405621
 20
8.822587092192009
 10
5.427293544408164
 20
8.726285987376498
 10
5.420004538229955
 20
8.629472495169967
 10
5.412858066772021
 20
8.532144188096337
 10
5.405853210061952
 20
8.434298627537608
 10
5.398989036884585
 20
8.33593336369495
 10
5.392264604762072
 20
8.237045935549807
 10
5.385678959933971
 20
8.137633870824985
 10
5.379231137337322
 20
8.037694685945755
 10
5.37292016058673
 20
7.937225886000956
 10
5.366745041954449
 20
7.836224964704071
 10
5.360704782350458
 20
7.734689404354345
 10
5.354798371302551
 20
7.632616675797869
 10
5.349024786936406
 20
7.530004238388674
 10
5.343382995955679
 20
7.42684953994986
 10
5.337871953622079
 20
7.32315001673464
 10
5.332490603735449
 20
7.218903093387471
 10
5.327237878613852
 20
7.114106182905146
 10
5.322112699073648
 20
7.00875668659789
 10
5.317113974409574
 20
6.902851994050448
 10
5.312240602374837
 20
6.796389483083193
 10
5.307491469161178
 20
6.689366519713214
 10
5.302865449378967
 20
6.58178045811542
 10
5.298361406037278
 20
6.473628640583631
 10
5.293978190523978
 20
6.364908397491678
 10
5.289714642585793
 20
6.255617047254496
 10
5.285569590308409
 20
6.145751896289227
 10
5.28154185009654
 20
6.035310238976306
 10
5.277630226654011
 20
5.92428935762057
 10
5.273833512963845
 20
5.812686522412347
 10
5.270150490268342
 20
5.700498991388548
 10
5.266579928049158
 20
5.587724010393791
 10
5.263120584007389
 20
5.474358813041454
 10
5.25977120404365
 20
5.360400620674803
 10
5.256530522238162
 20
5.24584664232808
 10
5.253397260830826
 20
5.1306940746876
 10
5.250370130201309
 20
5.014940102052845
 10
5.247447828849129
 20
4.898581896297565
 10
5.244629043373724
 20
4.781616616830873
 10
5.24191244845455
 20
4.66404141055834
 10
5.239296706831149
 20
4.545853411843093
 10
5.236780469283237
 20
4.427049742466913
 10
5.234362374610784
 20
4.307627511591329
 10
5.232041049614095
 20
4.187583815718711
 10
5.229815109073895
 20
4.066915738653382
 10
5.227683155731404
 20
3.945620351462695
 10
5.225643780268422
 20
3.823694712438134
 10
5.223695561287412
 20
3.701135867056439
 10
5.221837065291583
 20
3.577940847940656
 10
5.220066846664961
 20
3.454106674821263
 10
5.218383447652484
 20
3.329630354497259
 10
5.216785398340075
 20
3.204508880797267
 10
5.215271216634727
 20
3.078739234540619
 10
5.213839408244581
 20
2.952318383498465
 10
5.212488466659014
 20
2.825243282354859
 10
5.211216873128711
 20
2.697510872667863
 10
5.210023096645756
 20
2.56911808283064
 10
5.208905593923708
 20
2.440061828032553
 10
5.207862809377683
 20
2.310339010220259
 10
5.206893175104438
 20
2.179946518058808
 10
5.205995110862447
 20
2.048881226892738
 10
5.20516702405199
 20
1.917139998707171
 10
5.204407309695229
 20
1.784719682088914
 10
5.203714350416294
 20
1.65161711218754
 10
5.203086516421355
 20
1.517829110676526
 10
5.202522165478717
 20
1.383352485714295
 10
5.202019642898891
 20
1.248184031905345
 10
5.201577281514678
 20
1.112320530261339
 10
5.201193401661254
 20
0.9757587481622039
 10
5.200866311156251
 20
0.8384954393172237
 10
5.20059430527983
 20
0.7005273437261371
 10
5.200375666754776
 20
0.5618511876402351
 10
5.200208665726566
 20
0.4224636835234561
 10
5.200091559743464
 20
0.2823615300134841
 10
5.200022593736587
 20
0.1415414118828443
 10
5.2
 20
0
  0
ENDSEC
  0
SECTION
  2
OBJECTS
  0
DICTIONARY
  5
C
330
0
100
AcDbDictionary
281
    1
  3
ACAD_GROUP
350
D
  0
DICTIONARY
  5
D
330
C
100
AcDbDictionary
281
    1
  0
ENDSEC
  0
EOF
