  0
SECTION
  2
HEADER
  9
$INSBASE
 10
0.0
 20
0.0
 30
0.0
  9
$UNITMODE
 70
0
  9
$AUNITS
 70
0
  9
$EXTMIN
 10
0.0
 20
0.0
 30
0.0
  9
$ACADVER
  1
AC1009
  9
$ANGBASE
 50
0.0
  9
$EXTMAX
 10
100.0
 20
100.0
 30
0.0
  9
$ANGDIR
 70
0
  0
ENDSEC
  0
SECTION
  2
TABLES
  0
TABLE
  2
LTYPE
 70
19
  0
LTYPE
  2
DOT
 70
0
  3
Dot .  .  .  .  .  .  .  .  .  .  .  .  .  .  .  .
 72
65
 73
2
 40
0.2
 49
0.0
 49
-0.2
  0
LTYPE
  2
PHANTOMX2
 70
0
  3
Phantom (2x)____________    ____    ____    ____________
 72
65
 73
6
 40
4.25
 49
2.5
 49
-0.25
 49
0.5
 49
-0.25
 49
0.5
 49
-0.25
  0
LTYPE
  2
DIVIDE
 70
0
  3
Divide __ . . __ . . __ . . __ . . __ . . __
 72
65
 73
6
 40
1.6
 49
1.0
 49
-0.2
 49
0.0
 49
-0.2
 49
0.0
 49
-0.2
  0
LTYPE
  2
DASHDOT2
 70
0
  3
Dash dot (.5x) _ . _ . _ . _ . _ . _ . _ . _
 72
65
 73
4
 40
0.7
 49
0.5
 49
-0.1
 49
0.0
 49
-0.1
  0
LTYPE
  2
CENTER
 70
0
  3
Center ____ _ ____ _ ____ _ ____ _ ____ _ ____
 72
65
 73
4
 40
2.0
 49
1.25
 49
-0.25
 49
0.25
 49
-0.25
  0
LTYPE
  2
CENTERX2
 70
0
  3
Center (2x) ________  __  ________  __  ________
 72
65
 73
4
 40
3.5
 49
2.5
 49
-0.25
 49
0.5
 49
-0.25
  0
LTYPE
  2
DASHED2
 70
0
  3
Dashed (.5x) _ _ _ _ _ _ _ _ _ _ _ _ _ _
 72
65
 73
2
 40
0.3
 49
0.25
 49
-0.05
  0
LTYPE
  2
DASHED
 70
0
  3
Dashed __ __ __ __ __ __ __ __ __ __ __ __ __ _
 72
65
 73
2
 40
0.6
 49
0.5
 49
-0.1
  0
LTYPE
  2
DIVIDE2
 70
0
  3
Divide(.5x) _ . _ . _ . _ . _ . _ . _ . _
 72
65
 73
6
 40
0.8
 49
0.5
 49
-0.1
 49
0.0
 49
-0.1
 49
0.0
 49
-0.1
  0
LTYPE
  2
DASHDOT
 70
0
  3
Dash dot __ . __ . __ . __ . __ . __ . __ . __
 72
65
 73
4
 40
1.4
 49
1.0
 49
-0.2
 49
0.0
 49
-0.2
  0
LTYPE
  2
DASHEDX2
 70
0
  3
Dashed (2x) ____  ____  ____  ____  ____  ____
 72
65
 73
2
 40
1.2
 49
1.0
 49
-0.2
  0
LTYPE
  2
DASHDOTX2
 70
0
  3
Dash dot (2x) ____  .  ____  .  ____  .  ____
 72
65
 73
4
 40
2.4
 49
2.0
 49
-0.2
 49
0.0
 49
-0.2
  0
LTYPE
  2
PHANTOM
 70
0
  3
Phantom ______  __  __  ______  __  __  ______
 72
65
 73
6
 40
2.5
 49
1.25
 49
-0.25
 49
0.25
 49
-0.25
 49
0.25
 49
-0.25
  0
LTYPE
  2
DIVIDEX2
 70
0
  3
Divide (2x) ____  . .  ____  . .  ____  . .  ____
 72
65
 73
6
 40
2.6
 49
2.0
 49
-0.2
 49
0.0
 49
-0.2
 49
0.0
 49
-0.2
  0
LTYPE
  2
DOT2
 70
0
  3
Dot (.5) . . . . . . . . . . . . . . . . . . . 
 72
65
 73
2
 40
0.1
 49
0.0
 49
-0.1
  0
LTYPE
  2
DOTX2
 70
0
  3
Dot (2x) .    .    .    .    .    .    .    . 
 72
65
 73
2
 40
0.4
 49
0.0
 49
-0.4
  0
LTYPE
  2
PHANTOM2
 70
0
  3
Phantom (.5x) ___ _ _ ___ _ _ ___ _ _ ___ _ _ ___
 72
65
 73
6
 40
1.25
 49
0.625
 49
-0.125
 49
0.125
 49
-0.125
 49
0.125
 49
-0.125
  0
LTYPE
  2
CONTINUOUS
 70
0
  3
Solid
 72
65
 73
0
 40
0.0
  0
LTYPE
  2
CENTER2
 70
0
  3
Center (.5x) ____ _ ____ _ ____ _ ____ _ ____
 72
65
 73
4
 40
1.0
 49
0.625
 49
-0.125
 49
0.125
 49
-0.125
  0
ENDTAB
  0
TABLE
  2
LAYER
 70
5
  0
LAYER
  2
DIMENSIONS
 70
0
 62
1
  6
CONTINUOUS
  0
LAYER
  2
TABLEBACKGROUND
 70
0
 62
1
  6
CONTINUOUS
  0
LAYER
  2
TABLEGRID
 70
0
 62
1
  6
CONTINUOUS
  0
LAYER
  2
VIEWPORTS
 70
0
 62
7
  6
CONTINUOUS
  0
LAYER
  2
TABLECONTENT
 70
0
 62
1
  6
CONTINUOUS
  0
ENDTAB
  0
TABLE
  2
STYLE
 70
12
  0
STYLE
  2
ARIAL
 70
0
 40
0.0
 41
1.0
 42
1.0
 50
0.0
 71
0
  3
arial.ttf
  4

  0
STYLE
  2
ARIAL_ITALIC
 70
0
 40
0.0
 41
1.0
 42
1.0
 50
0.0
 71
0
  3
ariali.ttf
  4

  0
STYLE
  2
TIMES_BOLD_ITALIC
 70
0
 40
0.0
 41
1.0
 42
1.0
 50
0.0
 71
0
  3
timesbi.ttf
  4

  0
STYLE
  2
TIMES_ITALIC
 70
0
 40
0.0
 41
1.0
 42
1.0
 50
0.0
 71
0
  3
timesi.ttf
  4

  0
STYLE
  2
TIMES
 70
0
 40
0.0
 41
1.0
 42
1.0
 50
0.0
 71
0
  3
times.ttf
  4

  0
STYLE
  2
ISOCPEUR_ITALIC
 70
0
 40
0.0
 41
1.0
 42
1.0
 50
0.0
 71
0
  3
isocpeui.ttf
  4

  0
STYLE
  2
ISOCPEUR
 70
0
 40
0.0
 41
1.0
 42
1.0
 50
0.0
 71
0
  3
isocpeur.ttf
  4

  0
STYLE
  2
TIMES_BOLD
 70
0
 40
0.0
 41
1.0
 42
1.0
 50
0.0
 71
0
  3
timesbd.ttf
  4

  0
STYLE
  2
ARIAL_BOLD
 70
0
 40
0.0
 41
1.0
 42
1.0
 50
0.0
 71
0
  3
arialbd.ttf
  4

  0
STYLE
  2
ARIAL_BLACK
 70
0
 40
0.0
 41
1.0
 42
1.0
 50
0.0
 71
0
  3
ariblk.ttf
  4

  0
STYLE
  2
STANDARD
 70
0
 40
0.0
 41
1.0
 42
1.0
 50
0.0
 71
0
  3
arial.ttf
  4

  0
STYLE
  2
ARIAL_BOLD_ITALIC
 70
0
 40
0.0
 41
1.0
 42
1.0
 50
0.0
 71
0
  3
arialbi.ttf
  4

  0
ENDTAB
  0
TABLE
  2
VIEW
 70
0
  0
ENDTAB
  0
TABLE
  2
APPID
 70
1
  0
APPID
  2
DXFWRITE
 70
0
  0
ENDTAB
  0
TABLE
  2
VPORT
 70
0
  0
ENDTAB
  0
TABLE
  2
UCS
 70
0
  0
ENDTAB
  0
ENDSEC
  0
SECTION
  2
BLOCKS
  0
ENDSEC
  0
SECTION
  2
ENTITIES
  0
VIEWPORT
  8
VIEWPORTS
 67
1
 10
0.0
 20
0.0
 30
0.0
 40
1.0
 41
1.0
 68
1
 69
1
1001
ACAD
1000
MVIEW
1002
{
1070
16
1010
0.0
1020
0.0
1030
0.0
1010
0.0
1020
0.0
1030
0.0
1040
0.0
1040
1.0
1040
0.0
1040
0.0
1040
50.0
1040
0.0
1040
0.0
1070
0
1070
100
1070
1
1070
3
1070
0
1070
0
1070
0
1070
0
1040
0.0
1040
0.0
1040
0.0
1040
0.1
1040
0.1
1040
0.1
1040
0.1
1070
0
1002
{
1002
}
1002
}
  0
POLYLINE
  6
LINE
  8
0
 66
1
 10
0.0
 20
0.0
 30
0.0
 70
8
  0
VERTEX
  8
0
 10
5.2
 20
0.0
 30
0.0
  0
VERTEX
  8
0
 10
0.381
 20
0.0
 30
0.0
  0
VERTEX
  8
0
 10
0.381
 20
3.164
 30
0.0
  0
VERTEX
  8
0
 10
2.0
 20
3.164
 30
0.0
  0
VERTEX
  8
0
 10
2.0
 20
4.1
 30
0.0
  0
VERTEX
  8
0
 10
3.78
 20
4.1
 30
0.0
  0
VERTEX
  8
0
 10
3.78
 20
6.477
 30
0.0
  0
VERTEX
  8
0
 10
1.898
 20
6.477
 30
0.0
  0
VERTEX
  8
0
 10
1.898
 20
7.0
 30
0.0
  0
VERTEX
  8
0
 10
3.18
 20
7.0
 30
0.0
  0
VERTEX
  8
0
 10
3.18
 20
9.6
 30
0.0
  0
VERTEX
  8
0
 10
1.898
 20
9.6
 30
0.0
  0
VERTEX
  8
0
 10
1.898
 20
9.6
 30
0.0
  0
VERTEX
  8
0
 10
1.8981261393219586
 20
9.642079264839952
 30
0.0
  0
VERTEX
  8
0
 10
1.898504032371328
 20
9.684176628355878
 30
0.0
  0
VERTEX
  8
0
 10
1.8991328917733468
 20
9.726291794626192
 30
0.0
  0
VERTEX
  8
0
 10
1.9000119301532554
 20
9.768424467729306
 30
0.0
  0
VERTEX
  8
0
 10
1.901140360136293
 20
9.810574351743632
 30
0.0
  0
VERTEX
  8
0
 10
1.9025173943476996
 20
9.85274115074758
 30
0.0
  0
VERTEX
  8
0
 10
1.9041422454127144
 20
9.894924568819565
 30
0.0
  0
VERTEX
  8
0
 10
1.9060141259565764
 20
9.937124310037996
 30
0.0
  0
VERTEX
  8
0
 10
1.9081322486045258
 20
9.979340078481288
 30
0.0
  0
VERTEX
  8
0
 10
1.9104958259818026
 20
10.021571578227855
 30
0.0
  0
VERTEX
  8
0
 10
1.9131040707136455
 20
10.063818513356106
 30
0.0
  0
VERTEX
  8
0
 10
1.915956195425295
 20
10.106080587944453
 30
0.0
  0
VERTEX
  8
0
 10
1.9190514127419898
 20
10.14835750607131
 30
0.0
  0
VERTEX
  8
0
 10
1.9223889352889698
 20
10.190648971815094
 30
0.0
  0
VERTEX
  8
0
 10
1.9259679756914745
 20
10.232954689254207
 30
0.0
  0
VERTEX
  8
0
 10
1.9297877465747433
 20
10.275274362467066
 30
0.0
  0
VERTEX
  8
0
 10
1.9338474605640164
 20
10.317607695532082
 30
0.0
  0
VERTEX
  8
0
 10
1.938146330284533
 20
10.359954392527674
 30
0.0
  0
VERTEX
  8
0
 10
1.9426835683615322
 20
10.402314157532249
 30
0.0
  0
VERTEX
  8
0
 10
1.9474583874202542
 20
10.444686694624215
 30
0.0
  0
VERTEX
  8
0
 10
1.952470000085938
 20
10.487071707881992
 30
0.0
  0
VERTEX
  8
0
 10
1.957717618983824
 20
10.529468901383986
 30
0.0
  0
VERTEX
  8
0
 10
1.963200456739151
 20
10.571877979208613
 30
0.0
  0
VERTEX
  8
0
 10
1.968917725977159
 20
10.614298645434285
 30
0.0
  0
VERTEX
  8
0
 10
1.9748686393230865
 20
10.656730604139414
 30
0.0
  0
VERTEX
  8
0
 10
1.9810524094021746
 20
10.699173559402412
 30
0.0
  0
VERTEX
  8
0
 10
1.9874682488396627
 20
10.741627215301692
 30
0.0
  0
VERTEX
  8
0
 10
1.9941153702607892
 20
10.784091275915664
 30
0.0
  0
VERTEX
  8
0
 10
2.000992986290795
 20
10.826565445322743
 30
0.0
  0
VERTEX
  8
0
 10
2.0081003095549184
 20
10.869049427601338
 30
0.0
  0
VERTEX
  8
0
 10
2.0154365526783997
 20
10.911542926829862
 30
0.0
  0
VERTEX
  8
0
 10
2.0230009282864785
 20
10.954045647086733
 30
0.0
  0
VERTEX
  8
0
 10
2.030792649004394
 20
10.996557292450357
 30
0.0
  0
VERTEX
  8
0
 10
2.0388109274573867
 20
11.039077566999147
 30
0.0
  0
VERTEX
  8
0
 10
2.047054976270695
 20
11.081606174811519
 30
0.0
  0
VERTEX
  8
0
 10
2.055524008069558
 20
11.12414281996588
 30
0.0
  0
VERTEX
  8
0
 10
2.064217235479217
 20
11.166687206540644
 30
0.0
  0
VERTEX
  8
0
 10
2.0731338711249108
 20
11.209239038614227
 30
0.0
  0
VERTEX
  8
0
 10
2.082273127631879
 20
11.251798020265037
 30
0.0
  0
VERTEX
  8
0
 10
2.091634217625361
 20
11.294363855571486
 30
0.0
  0
VERTEX
  8
0
 10
2.101216353730596
 20
11.336936248611991
 30
0.0
  0
VERTEX
  8
0
 10
2.111018748572824
 20
11.379514903464958
 30
0.0
  0
VERTEX
  8
0
 10
2.1210406147772844
 20
11.422099524208804
 30
0.0
  0
VERTEX
  8
0
 10
2.1312811649692174
 20
11.464689814921938
 30
0.0
  0
VERTEX
  8
0
 10
2.1417396117738616
 20
11.507285479682775
 30
0.0
  0
VERTEX
  8
0
 10
2.152415167816458
 20
11.549886222569723
 30
0.0
  0
VERTEX
  8
0
 10
2.1633070457222443
 20
11.592491747661205
 30
0.0
  0
VERTEX
  8
0
 10
2.1744144581164613
 20
11.63510175903562
 30
0.0
  0
VERTEX
  8
0
 10
2.185736617624348
 20
11.677715960771387
 30
0.0
  0
VERTEX
  8
0
 10
2.1972727368711444
 20
11.720334056946918
 30
0.0
  0
VERTEX
  8
0
 10
2.2090220284820896
 20
11.762955751640625
 30
0.0
  0
VERTEX
  8
0
 10
2.220983705082424
 20
11.805580748930918
 30
0.0
  0
VERTEX
  8
0
 10
2.2331569792973864
 20
11.84820875289621
 30
0.0
  0
VERTEX
  8
0
 10
2.2455410637522166
 20
11.890839467614919
 30
0.0
  0
VERTEX
  8
0
 10
2.258135171072154
 20
11.933472597165446
 30
0.0
  0
VERTEX
  8
0
 10
2.270938513882438
 20
11.976107845626213
 30
0.0
  0
VERTEX
  8
0
 10
2.2839503048083083
 20
12.01874491707563
 30
0.0
  0
VERTEX
  8
0
 10
2.2971697564750047
 20
12.061383515592105
 30
0.0
  0
VERTEX
  8
0
 10
2.3105960815077675
 20
12.104023345254054
 30
0.0
  0
VERTEX
  8
0
 10
2.3242284925318346
 20
12.146664110139891
 30
0.0
  0
VERTEX
  8
0
 10
2.3380662021724468
 20
12.189305514328026
 30
0.0
  0
VERTEX
  8
0
 10
2.352108423054843
 20
12.23194726189687
 30
0.0
  0
VERTEX
  8
0
 10
2.3663543678042633
 20
12.274589056924839
 30
0.0
  0
VERTEX
  8
0
 10
2.380803249045947
 20
12.31723060349034
 30
0.0
  0
VERTEX
  8
0
 10
2.3954542794051337
 20
12.35987160567179
 30
0.0
  0
VERTEX
  8
0
 10
2.410306671507063
 20
12.4025117675476
 30
0.0
  0
VERTEX
  8
0
 10
2.4253596379769737
 20
12.44515079319618
 30
0.0
  0
VERTEX
  8
0
 10
2.4406123914401068
 20
12.487788386695945
 30
0.0
  0
VERTEX
  8
0
 10
2.456064144521701
 20
12.530424252125306
 30
0.0
  0
VERTEX
  8
0
 10
2.471714109846996
 20
12.573058093562674
 30
0.0
  0
VERTEX
  8
0
 10
2.4875615000412314
 20
12.615689615086463
 30
0.0
  0
VERTEX
  8
0
 10
2.5036055277296465
 20
12.658318520775085
 30
0.0
  0
VERTEX
  8
0
 10
2.519845405537481
 20
12.700944514706952
 30
0.0
  0
VERTEX
  8
0
 10
2.5362803460899754
 20
12.743567300960477
 30
0.0
  0
VERTEX
  8
0
 10
2.552909562012368
 20
12.786186583614075
 30
0.0
  0
VERTEX
  8
0
 10
2.5697322659298982
 20
12.828802066746151
 30
0.0
  0
VERTEX
  8
0
 10
2.5867476704678056
 20
12.871413454435116
 30
0.0
  0
VERTEX
  8
0
 10
2.603954988251331
 20
12.914020450759393
 30
0.0
  0
VERTEX
  8
0
 10
2.6213534319057135
 20
12.956622759797389
 30
0.0
  0
VERTEX
  8
0
 10
2.638942214056192
 20
12.999220085627515
 30
0.0
  0
VERTEX
  8
0
 10
2.6567205473280073
 20
13.041812132328188
 30
0.0
  0
VERTEX
  8
0
 10
2.6746876443463976
 20
13.084398603977812
 30
0.0
  0
VERTEX
  8
0
 10
2.692842717736603
 20
13.126979204654805
 30
0.0
  0
VERTEX
  8
0
 10
2.7111849801238637
 20
13.169553638437577
 30
0.0
  0
VERTEX
  8
0
 10
2.729713644133418
 20
13.212121609404544
 30
0.0
  0
VERTEX
  8
0
 10
2.7484279223905066
 20
13.254682821634116
 30
0.0
  0
VERTEX
  8
0
 10
2.767327027520368
 20
13.297236979204701
 30
0.0
  0
VERTEX
  8
0
 10
2.7864101721482424
 20
13.339783786194719
 30
0.0
  0
VERTEX
  8
0
 10
2.80567656889937
 20
13.382322946682573
 30
0.0
  0
VERTEX
  8
0
 10
2.825125430398989
 20
13.424854164746682
 30
0.0
  0
VERTEX
  8
0
 10
2.8447559692723394
 20
13.46737714446546
 30
0.0
  0
VERTEX
  8
0
 10
2.8645673981446613
 20
13.509891589917313
 30
0.0
  0
VERTEX
  8
0
 10
2.884558929641194
 20
13.552397205180661
 30
0.0
  0
VERTEX
  8
0
 10
2.9047297763871778
 20
13.594893694333908
 30
0.0
  0
VERTEX
  8
0
 10
2.925079151007851
 20
13.637380761455473
 30
0.0
  0
VERTEX
  8
0
 10
2.945606266128453
 20
13.67985811062376
 30
0.0
  0
VERTEX
  8
0
 10
2.966310334374225
 20
13.722325445917189
 30
0.0
  0
VERTEX
  8
0
 10
2.9871905683704054
 20
13.76478247141417
 30
0.0
  0
VERTEX
  8
0
 10
3.0082461807422334
 20
13.807228891193116
 30
0.0
  0
VERTEX
  8
0
 10
3.0294763841149495
 20
13.849664409332439
 30
0.0
  0
VERTEX
  8
0
 10
3.0508803911137927
 20
13.892088729910547
 30
0.0
  0
VERTEX
  8
0
 10
3.0724574143640035
 20
13.93450155700586
 30
0.0
  0
VERTEX
  8
0
 10
3.0942066664908197
 20
13.976902594696782
 30
0.0
  0
VERTEX
  8
0
 10
3.1161273601194828
 20
14.01929154706173
 30
0.0
  0
VERTEX
  8
0
 10
3.1382187078752306
 20
14.061668118179117
 30
0.0
  0
VERTEX
  8
0
 10
3.160479922383304
 20
14.104032012127353
 30
0.0
  0
VERTEX
  8
0
 10
3.1829102162689424
 20
14.146382932984851
 30
0.0
  0
VERTEX
  8
0
 10
3.2055088021573845
 20
14.188720584830024
 30
0.0
  0
VERTEX
  8
0
 10
3.2282748926738702
 20
14.23104467174128
 30
0.0
  0
VERTEX
  8
0
 10
3.2512077004436386
 20
14.273354897797033
 30
0.0
  0
VERTEX
  8
0
 10
3.2743064380919304
 20
14.315650967075701
 30
0.0
  0
VERTEX
  8
0
 10
3.297570318243986
 20
14.357932583655694
 30
0.0
  0
VERTEX
  8
0
 10
3.320998553525043
 20
14.400199451615423
 30
0.0
  0
VERTEX
  8
0
 10
3.3445903565603414
 20
14.4424512750333
 30
0.0
  0
VERTEX
  8
0
 10
3.368344939975121
 20
14.484687757987732
 30
0.0
  0
VERTEX
  8
0
 10
3.3922615163946217
 20
14.52690860455714
 30
0.0
  0
VERTEX
  8
0
 10
3.4163392984440817
 20
14.56911351881993
 30
0.0
  0
VERTEX
  8
0
 10
3.440577498748743
 20
14.611302204854523
 30
0.0
  0
VERTEX
  8
0
 10
3.4649753299338424
 20
14.65347436673932
 30
0.0
  0
VERTEX
  8
0
 10
3.4895320046246217
 20
14.695629708552739
 30
0.0
  0
VERTEX
  8
0
 10
3.5142467354463194
 20
14.73776793437319
 30
0.0
  0
VERTEX
  8
0
 10
3.5391187350241746
 20
14.779888748279088
 30
0.0
  0
VERTEX
  8
0
 10
3.564147215983428
 20
14.821991854348843
 30
0.0
  0
VERTEX
  8
0
 10
3.5893313909493187
 20
14.864076956660869
 30
0.0
  0
VERTEX
  8
0
 10
3.6146704725470857
 20
14.906143759293581
 30
0.0
  0
VERTEX
  8
0
 10
3.6401636734019704
 20
14.948191966325387
 30
0.0
  0
VERTEX
  8
0
 10
3.665810206139211
 20
14.9902212818347
 30
0.0
  0
VERTEX
  8
0
 10
3.6916092833840457
 20
15.032231409899932
 30
0.0
  0
VERTEX
  8
0
 10
3.717560117761716
 20
15.074222054599494
 30
0.0
  0
VERTEX
  8
0
 10
3.743661921897462
 20
15.116192920011802
 30
0.0
  0
VERTEX
  8
0
 10
3.769913908416522
 20
15.158143710215269
 30
0.0
  0
VERTEX
  8
0
 10
3.796315289944134
 20
15.2000741292883
 30
0.0
  0
VERTEX
  8
0
 10
3.822865279105541
 20
15.241983881309313
 30
0.0
  0
VERTEX
  8
0
 10
3.84956308852598
 20
15.283872670356718
 30
0.0
  0
VERTEX
  8
0
 10
3.876407930830693
 20
15.325740200508934
 30
0.0
  0
VERTEX
  8
0
 10
3.903399018644917
 20
15.36758617584436
 30
0.0
  0
VERTEX
  8
0
 10
3.9305355645938924
 20
15.40941030044142
 30
0.0
  0
VERTEX
  8
0
 10
3.957816781302859
 20
15.451212278378522
 30
0.0
  0
VERTEX
  8
0
 10
3.985241881397057
 20
15.492991813734076
 30
0.0
  0
VERTEX
  8
0
 10
4.012810077501724
 20
15.5347486105865
 30
0.0
  0
VERTEX
  8
0
 10
4.040520582242102
 20
15.576482373014196
 30
0.0
  0
VERTEX
  8
0
 10
4.068372608243429
 20
15.618192805095587
 30
0.0
  0
VERTEX
  8
0
 10
4.096365368130945
 20
15.65987961090908
 30
0.0
  0
VERTEX
  8
0
 10
4.12449807452989
 20
15.70154249453309
 30
0.0
  0
VERTEX
  8
0
 10
4.152769940065502
 20
15.743181160046026
 30
0.0
  0
VERTEX
  8
0
 10
4.181180177363022
 20
15.784795311526308
 30
0.0
  0
VERTEX
  8
0
 10
4.209727999047691
 20
15.82638465305234
 30
0.0
  0
VERTEX
  8
0
 10
4.238412617744746
 20
15.86794888870254
 30
0.0
  0
VERTEX
  8
0
 10
4.267233246079426
 20
15.90948772255531
 30
0.0
  0
VERTEX
  8
0
 10
4.296189096676974
 20
15.951000858689072
 30
0.0
  0
VERTEX
  8
0
 10
4.325279382162625
 20
15.992488001182235
 30
0.0
  0
VERTEX
  8
0
 10
4.354503315161622
 20
16.033948854113213
 30
0.0
  0
VERTEX
  8
0
 10
4.3838601082992055
 20
16.07538312156041
 30
0.0
  0
VERTEX
  8
0
 10
4.413348974200611
 20
16.11679050760225
 30
0.0
  0
VERTEX
  8
0
 10
4.442969125491081
 20
16.158170716317144
 30
0.0
  0
VERTEX
  8
0
 10
4.472719774795856
 20
16.199523451783502
 30
0.0
  0
VERTEX
  8
0
 10
4.50260013474017
 20
16.24084841807973
 30
0.0
  0
VERTEX
  8
0
 10
4.53260941794927
 20
16.282145319284243
 30
0.0
  0
VERTEX
  8
0
 10
4.56274683704839
 20
16.323413859475462
 30
0.0
  0
VERTEX
  8
0
 10
4.593011604662772
 20
16.36465374273179
 30
0.0
  0
VERTEX
  8
0
 10
4.623402933417656
 20
16.405864673131642
 30
0.0
  0
VERTEX
  8
0
 10
4.653920035938281
 20
16.447046354753432
 30
0.0
  0
VERTEX
  8
0
 10
4.684562124849886
 20
16.48819849167557
 30
0.0
  0
VERTEX
  8
0
 10
4.71532841277771
 20
16.529320787976467
 30
0.0
  0
VERTEX
  8
0
 10
4.746218112346994
 20
16.57041294773454
 30
0.0
  0
VERTEX
  8
0
 10
4.777230436182976
 20
16.61147467502819
 30
0.0
  0
VERTEX
  8
0
 10
4.808364596910897
 20
16.652505673935845
 30
0.0
  0
VERTEX
  8
0
 10
4.839619807155997
 20
16.69350564853591
 30
0.0
  0
VERTEX
  8
0
 10
4.870995279543513
 20
16.734474302906797
 30
0.0
  0
VERTEX
  8
0
 10
4.90249022669869
 20
16.775411341126922
 30
0.0
  0
VERTEX
  8
0
 10
4.93410386124676
 20
16.81631646727469
 30
0.0
  0
VERTEX
  8
0
 10
4.965835395812968
 20
16.857189385428516
 30
0.0
  0
VERTEX
  8
0
 10
4.997684043022551
 20
16.898029799666812
 30
0.0
  0
VERTEX
  8
0
 10
5.02964901550075
 20
16.93883741406799
 30
0.0
  0
VERTEX
  8
0
 10
5.061729525872804
 20
16.979611932710466
 30
0.0
  0
VERTEX
  8
0
 10
5.093924786763952
 20
17.02035305967265
 30
0.0
  0
VERTEX
  8
0
 10
5.126234010799435
 20
17.061060499032955
 30
0.0
  0
VERTEX
  8
0
 10
5.158656410604492
 20
17.10173395486979
 30
0.0
  0
VERTEX
  8
0
 10
5.191191198804361
 20
17.14237313126157
 30
0.0
  0
VERTEX
  8
0
 10
5.223837588024283
 20
17.18297773228671
 30
0.0
  0
VERTEX
  8
0
 10
5.2565947908895
 20
17.223547462023618
 30
0.0
  0
VERTEX
  8
0
 10
5.289462020025246
 20
17.264082024550707
 30
0.0
  0
VERTEX
  8
0
 10
5.322438488056765
 20
17.304581123946388
 30
0.0
  0
VERTEX
  8
0
 10
5.3555234076092955
 20
17.345044464289078
 30
0.0
  0
VERTEX
  8
0
 10
5.388715991308076
 20
17.385471749657185
 30
0.0
  0
VERTEX
  8
0
 10
5.422015451778346
 20
17.425862684129118
 30
0.0
  0
VERTEX
  8
0
 10
5.455421001645347
 20
17.466216971783304
 30
0.0
  0
VERTEX
  8
0
 10
5.488931853534318
 20
17.506534316698136
 30
0.0
  0
VERTEX
  8
0
 10
5.5225472200704955
 20
17.54681442295204
 30
0.0
  0
VERTEX
  8
0
 10
5.5562663138791235
 20
17.587056994623424
 30
0.0
  0
VERTEX
  8
0
 10
5.590088347585439
 20
17.627261735790697
 30
0.0
  0
VERTEX
  8
0
 10
5.624012533814682
 20
17.667428350532276
 30
0.0
  0
VERTEX
  8
0
 10
5.658038085192092
 20
17.70755654292657
 30
0.0
  0
VERTEX
  8
0
 10
5.69216421434291
 20
17.74764601705199
 30
0.0
  0
VERTEX
  8
0
 10
5.726390133892376
 20
17.787696476986962
 30
0.0
  0
VERTEX
  8
0
 10
5.760715056465725
 20
17.82770762680988
 30
0.0
  0
VERTEX
  8
0
 10
5.7951381946881995
 20
17.867679170599164
 30
0.0
  0
VERTEX
  8
0
 10
5.82965876118504
 20
17.907610812433223
 30
0.0
  0
VERTEX
  8
0
 10
5.864275968581484
 20
17.94750225639047
 30
0.0
  0
VERTEX
  8
0
 10
5.898989029502772
 20
17.987353206549326
 30
0.0
  0
VERTEX
  8
0
 10
5.933797156574146
 20
18.027163366988198
 30
0.0
  0
VERTEX
  8
0
 10
5.9686995624208405
 20
18.066932441785486
 30
0.0
  0
VERTEX
  8
0
 10
6.003695459668101
 20
18.106660135019627
 30
0.0
  0
VERTEX
  8
0
 10
6.038784060941162
 20
18.14634615076901
 30
0.0
  0
VERTEX
  8
0
 10
6.073964578865265
 20
18.185990193112058
 30
0.0
  0
VERTEX
  8
0
 10
6.10923622606565
 20
18.22559196612718
 30
0.0
  0
VERTEX
  8
0
 10
6.144598215167556
 20
18.265151173892793
 30
0.0
  0
VERTEX
  8
0
 10
6.180049758796222
 20
18.304667520487303
 30
0.0
  0
VERTEX
  8
0
 10
6.21559006957689
 20
18.344140709989126
 30
0.0
  0
VERTEX
  8
0
 10
6.2512183601347955
 20
18.383570446476675
 30
0.0
  0
VERTEX
  8
0
 10
6.2869338430951816
 20
18.422956434028364
 30
0.0
  0
VERTEX
  8
0
 10
6.322735731083286
 20
18.4622983767226
 30
0.0
  0
VERTEX
  8
0
 10
6.358623236724349
 20
18.501595978637795
 30
0.0
  0
VERTEX
  8
0
 10
6.3945955726436114
 20
18.540848943852367
 30
0.0
  0
VERTEX
  8
0
 10
6.43065195146631
 20
18.580056976444723
 30
0.0
  0
VERTEX
  8
0
 10
6.4667915858176865
 20
18.619219780493278
 30
0.0
  0
VERTEX
  8
0
 10
6.503013688322979
 20
18.658337060076445
 30
0.0
  0
VERTEX
  8
0
 10
6.539317471607428
 20
18.697408519272635
 30
0.0
  0
VERTEX
  8
0
 10
6.5757021482962745
 20
18.736433862160254
 30
0.0
  0
VERTEX
  8
0
 10
6.612166931014754
 20
18.775412792817722
 30
0.0
  0
VERTEX
  8
0
 10
6.6487110323881105
 20
18.814345015323457
 30
0.0
  0
VERTEX
  8
0
 10
6.685333665041581
 20
18.85323023375586
 30
0.0
  0
VERTEX
  8
0
 10
6.722034041600405
 20
18.892068152193346
 30
0.0
  0
VERTEX
  8
0
 10
6.758811374689823
 20
18.930858474714327
 30
0.0
  0
VERTEX
  8
0
 10
6.795664876935074
 20
18.96960090539722
 30
0.0
  0
VERTEX
  8
0
 10
6.832593760961399
 20
19.008295148320432
 30
0.0
  0
VERTEX
  8
0
 10
6.869597239394034
 20
19.046940907562377
 30
0.0
  0
VERTEX
  8
0
 10
6.906674524858227
 20
19.085537887201475
 30
0.0
  0
VERTEX
  8
0
 10
6.9438248299792065
 20
19.124085791316123
 30
0.0
  0
VERTEX
  8
0
 10
6.981047367382218
 20
19.162584323984742
 30
0.0
  0
VERTEX
  8
0
 10
7.018341349692499
 20
19.201033189285745
 30
0.0
  0
VERTEX
  8
0
 10
7.055705989535291
 20
19.23943209129754
 30
0.0
  0
VERTEX
  8
0
 10
7.093140499535833
 20
19.27778073409855
 30
0.0
  0
VERTEX
  8
0
 10
7.130644092319365
 20
19.316078821767167
 30
0.0
  0
VERTEX
  8
0
 10
7.168215980511124
 20
19.35432605838182
 30
0.0
  0
VERTEX
  8
0
 10
7.205855376736356
 20
19.392522148020923
 30
0.0
  0
VERTEX
  8
0
 10
7.243561493620293
 20
19.43066679476287
 30
0.0
  0
VERTEX
  8
0
 10
7.281333543788176
 20
19.468759702686096
 30
0.0
  0
VERTEX
  8
0
 10
7.319170739865248
 20
19.506800575868997
 30
0.0
  0
VERTEX
  8
0
 10
7.357072294476747
 20
19.54478911838999
 30
0.0
  0
VERTEX
  8
0
 10
7.3950374202479106
 20
19.58272503432749
 30
0.0
  0
VERTEX
  8
0
 10
7.433065329803982
 20
19.620608027759907
 30
0.0
  0
VERTEX
  8
0
 10
7.471155235770198
 20
19.65843780276565
 30
0.0
  0
VERTEX
  8
0
 10
7.5093063507718005
 20
19.696214063423138
 30
0.0
  0
VERTEX
  8
0
 10
7.547517887434026
 20
19.733936513810775
 30
0.0
  0
VERTEX
  8
0
 10
7.585789058382114
 20
19.77160485800698
 30
0.0
  0
VERTEX
  8
0
 10
7.624119076241309
 20
19.809218800090164
 30
0.0
  0
VERTEX
  8
0
 10
7.662507153636844
 20
19.846778044138745
 30
0.0
  0
VERTEX
  8
0
 10
7.700952503193964
 20
19.88428229423112
 30
0.0
  0
VERTEX
  8
0
 10
7.7394543375379055
 20
19.921731254445714
 30
0.0
  0
VERTEX
  8
0
 10
7.778011869293909
 20
19.959124628860934
 30
0.0
  0
VERTEX
  8
0
 10
7.816624311087215
 20
19.996462121555197
 30
0.0
  0
VERTEX
  8
0
 10
7.855290875543062
 20
20.03374343660691
 30
0.0
  0
VERTEX
  8
0
 10
7.89401077528669
 20
20.070968278094487
 30
0.0
  0
VERTEX
  8
0
 10
7.932783222943336
 20
20.10813635009634
 30
0.0
  0
VERTEX
  8
0
 10
7.971607431138244
 20
20.14524735669088
 30
0.0
  0
VERTEX
  8
0
 10
8.01048261249665
 20
20.182301001956528
 30
0.0
  0
VERTEX
  8
0
 10
8.049407979643796
 20
20.219296989971685
 30
0.0
  0
VERTEX
  8
0
 10
8.08838274520492
 20
20.256235024814767
 30
0.0
  0
VERTEX
  8
0
 10
8.127406121805262
 20
20.293114810564184
 30
0.0
  0
VERTEX
  8
0
 10
8.166477322070062
 20
20.329936051298365
 30
0.0
  0
VERTEX
  8
0
 10
8.205595558624559
 20
20.366698451095697
 30
0.0
  0
VERTEX
  8
0
 10
8.244760044093992
 20
20.4034017140346
 30
0.0
  0
VERTEX
  8
0
 10
8.2839699911036
 20
20.44004554419349
 30
0.0
  0
VERTEX
  8
0
 10
8.323224612278628
 20
20.47662964565079
 30
0.0
  0
VERTEX
  8
0
 10
8.362523120244308
 20
20.513153722484894
 30
0.0
  0
VERTEX
  8
0
 10
8.401864727625885
 20
20.54961747877422
 30
0.0
  0
VERTEX
  8
0
 10
8.441248647048592
 20
20.586020618597182
 30
0.0
  0
VERTEX
  8
0
 10
8.480674091137681
 20
20.622362846032203
 30
0.0
  0
VERTEX
  8
0
 10
8.520140272518379
 20
20.658643865157675
 30
0.0
  0
VERTEX
  8
0
 10
8.55964640381593
 20
20.694863380052016
 30
0.0
  0
VERTEX
  8
0
 10
8.599191697655574
 20
20.731021094793647
 30
0.0
  0
VERTEX
  8
0
 10
8.638775366662552
 20
20.76711671346098
 30
0.0
  0
VERTEX
  8
0
 10
8.678396623462103
 20
20.803149940132414
 30
0.0
  0
VERTEX
  8
0
 10
8.71805468067946
 20
20.83912047888637
 30
0.0
  0
VERTEX
  8
0
 10
8.757748750939871
 20
20.875028033801264
 30
0.0
  0
VERTEX
  8
0
 10
8.797478046868573
 20
20.910872308955504
 30
0.0
  0
VERTEX
  8
0
 10
8.837241781090805
 20
20.946653008427496
 30
0.0
  0
VERTEX
  8
0
 10
8.877039166231807
 20
20.982369836295664
 30
0.0
  0
VERTEX
  8
0
 10
8.91686941491682
 20
21.01802249663842
 30
0.0
  0
VERTEX
  8
0
 10
8.95673173977108
 20
21.053610693534164
 30
0.0
  0
VERTEX
  8
0
 10
8.996625353419827
 20
21.089134131061318
 30
0.0
  0
VERTEX
  8
0
 10
9.036549468488303
 20
21.12459251329829
 30
0.0
  0
VERTEX
  8
0
 10
9.076503297601748
 20
21.159985544323497
 30
0.0
  0
VERTEX
  8
0
 10
9.1164860533854
 20
21.195312928215344
 30
0.0
  0
VERTEX
  8
0
 10
9.156496948464497
 20
21.230574369052253
 30
0.0
  0
VERTEX
  8
0
 10
9.196535195464282
 20
21.265769570912624
 30
0.0
  0
VERTEX
  8
0
 10
9.23660000700999
 20
21.300898237874883
 30
0.0
  0
VERTEX
  8
0
 10
9.276690595726865
 20
21.335960074017432
 30
0.0
  0
VERTEX
  8
0
 10
9.316806174240147
 20
21.37095478341869
 30
0.0
  0
VERTEX
  8
0
 10
9.356945955175071
 20
21.40588207015706
 30
0.0
  0
VERTEX
  8
0
 10
9.39710915115688
 20
21.44074163831096
 30
0.0
  0
VERTEX
  8
0
 10
9.437294974810815
 20
21.47553319195881
 30
0.0
  0
VERTEX
  8
0
 10
9.477502638762111
 20
21.51025643517901
 30
0.0
  0
VERTEX
  8
0
 10
9.517731355636009
 20
21.544911072049977
 30
0.0
  0
VERTEX
  8
0
 10
9.557980338057751
 20
21.579496806650127
 30
0.0
  0
VERTEX
  8
0
 10
9.598248798652573
 20
21.614013343057866
 30
0.0
  0
VERTEX
  8
0
 10
9.63853595004572
 20
21.6484603853516
 30
0.0
  0
VERTEX
  8
0
 10
9.678841004862424
 20
21.68283763760976
 30
0.0
  0
VERTEX
  8
0
 10
9.719163175727932
 20
21.71714480391075
 30
0.0
  0
VERTEX
  8
0
 10
9.759501675267476
 20
21.751381588332972
 30
0.0
  0
VERTEX
  8
0
 10
9.799855716106304
 20
21.78554769495485
 30
0.0
  0
VERTEX
  8
0
 10
9.84022451086965
 20
21.8196428278548
 30
0.0
  0
VERTEX
  8
0
 10
9.880607272182752
 20
21.853666691111215
 30
0.0
  0
VERTEX
  8
0
 10
9.921003212670856
 20
21.887618988802526
 30
0.0
  0
VERTEX
  8
0
 10
9.961411544959198
 20
21.92149942500714
 30
0.0
  0
VERTEX
  8
0
 10
10.001831481673015
 20
21.955307703803467
 30
0.0
  0
VERTEX
  8
0
 10
10.042262235437553
 20
21.98904352926992
 30
0.0
  0
VERTEX
  8
0
 10
10.082703018878046
 20
22.02270660548491
 30
0.0
  0
VERTEX
  8
0
 10
10.123153044619734
 20
22.056296636526852
 30
0.0
  0
VERTEX
  8
0
 10
10.163611525287855
 20
22.089813326474157
 30
0.0
  0
VERTEX
  8
0
 10
10.204077673507657
 20
22.123256379405234
 30
0.0
  0
VERTEX
  8
0
 10
10.244550701904371
 20
22.1566254993985
 30
0.0
  0
VERTEX
  8
0
 10
10.28502982310324
 20
22.18992039053237
 30
0.0
  0
VERTEX
  8
0
 10
10.325514249729503
 20
22.223140756885254
 30
0.0
  0
VERTEX
  8
0
 10
10.3660031944084
 20
22.256286302535557
 30
0.0
  0
VERTEX
  8
0
 10
10.40649586976517
 20
22.2893567315617
 30
0.0
  0
VERTEX
  8
0
 10
10.446991488425052
 20
22.32235174804208
 30
0.0
  0
VERTEX
  8
0
 10
10.487489263013288
 20
22.355271056055138
 30
0.0
  0
VERTEX
  8
0
 10
10.527988406155114
 20
22.38811435967926
 30
0.0
  0
VERTEX
  8
0
 10
10.568488130475775
 20
22.42088136299287
 30
0.0
  0
VERTEX
  8
0
 10
10.608987648600502
 20
22.45357177007438
 30
0.0
  0
VERTEX
  8
0
 10
10.649486173154546
 20
22.4861852850022
 30
0.0
  0
VERTEX
  8
0
 10
10.689982916763135
 20
22.51872161185474
 30
0.0
  0
VERTEX
  8
0
 10
10.730477092051515
 20
22.551180454710416
 30
0.0
  0
VERTEX
  8
0
 10
10.770967911644924
 20
22.58356151764763
 30
0.0
  0
VERTEX
  8
0
 10
10.811454588168601
 20
22.615864504744817
 30
0.0
  0
VERTEX
  8
0
 10
10.851936334247789
 20
22.64808912008037
 30
0.0
  0
VERTEX
  8
0
 10
10.892412362507724
 20
22.680235067732706
 30
0.0
  0
VERTEX
  8
0
 10
10.932881885573645
 20
22.712302051780238
 30
0.0
  0
VERTEX
  8
0
 10
10.973344116070795
 20
22.74428977630138
 30
0.0
  0
VERTEX
  8
0
 10
11.013798266624413
 20
22.77619794537454
 30
0.0
  0
VERTEX
  8
0
 10
11.054243549859734
 20
22.808026263078137
 30
0.0
  0
VERTEX
  8
0
 10
11.094679178402
 20
22.839774433490575
 30
0.0
  0
VERTEX
  8
0
 10
11.135104364876454
 20
22.871442160690272
 30
0.0
  0
VERTEX
  8
0
 10
11.175518321908331
 20
22.903029148755635
 30
0.0
  0
VERTEX
  8
0
 10
11.215920262122875
 20
22.934535101765086
 30
0.0
  0
VERTEX
  8
0
 10
11.256309398145323
 20
22.965959723797024
 30
0.0
  0
VERTEX
  8
0
 10
11.296684942600914
 20
22.997302718929873
 30
0.0
  0
VERTEX
  8
0
 10
11.337046108114887
 20
23.028563791242043
 30
0.0
  0
VERTEX
  8
0
 10
11.377392107312485
 20
23.05974264481194
 30
0.0
  0
VERTEX
  8
0
 10
11.417722152818943
 20
23.09083898371798
 30
0.0
  0
VERTEX
  8
0
 10
11.458035457259504
 20
23.12185251203858
 30
0.0
  0
VERTEX
  8
0
 10
11.498331233259405
 20
23.152782933852137
 30
0.0
  0
VERTEX
  8
0
 10
11.538608693443889
 20
23.183629953237084
 30
0.0
  0
VERTEX
  8
0
 10
11.578867050438193
 20
23.214393274271824
 30
0.0
  0
VERTEX
  8
0
 10
11.619105516867556
 20
23.24507260103476
 30
0.0
  0
VERTEX
  8
0
 10
11.65932330535722
 20
23.275667637604318
 30
0.0
  0
VERTEX
  8
0
 10
11.699519628532423
 20
23.306178088058903
 30
0.0
  0
VERTEX
  8
0
 10
11.739693699018405
 20
23.33660365647693
 30
0.0
  0
VERTEX
  8
0
 10
11.779844729440404
 20
23.36694404693681
 30
0.0
  0
VERTEX
  8
0
 10
11.819971932423663
 20
23.39719896351696
 30
0.0
  0
VERTEX
  8
0
 10
11.860074520593418
 20
23.42736811029578
 30
0.0
  0
VERTEX
  8
0
 10
11.90015170657491
 20
23.457451191351698
 30
0.0
  0
VERTEX
  8
0
 10
11.94020270299338
 20
23.487447910763116
 30
0.0
  0
VERTEX
  8
0
 10
11.980226722474068
 20
23.51735797260845
 30
0.0
  0
VERTEX
  8
0
 10
12.02022297764221
 20
23.54718108096611
 30
0.0
  0
VERTEX
  8
0
 10
12.060190681123045
 20
23.576916939914504
 30
0.0
  0
VERTEX
  8
0
 10
12.100129045541818
 20
23.606565253532054
 30
0.0
  0
VERTEX
  8
0
 10
12.140037283523762
 20
23.63612572589717
 30
0.0
  0
VERTEX
  8
0
 10
12.179914607694123
 20
23.665598061088257
 30
0.0
  0
VERTEX
  8
0
 10
12.219760230678137
 20
23.694981963183736
 30
0.0
  0
VERTEX
  8
0
 10
12.259573365101044
 20
23.72427713626201
 30
0.0
  0
VERTEX
  8
0
 10
12.299353223588083
 20
23.753483284401504
 30
0.0
  0
VERTEX
  8
0
 10
12.339099018764497
 20
23.78260011168062
 30
0.0
  0
VERTEX
  8
0
 10
12.378809963255518
 20
23.811627322177777
 30
0.0
  0
VERTEX
  8
0
 10
12.418485269686395
 20
23.840564619971378
 30
0.0
  0
VERTEX
  8
0
 10
12.458124150682362
 20
23.869411709139843
 30
0.0
  0
VERTEX
  8
0
 10
12.497725818868659
 20
23.898168293761586
 30
0.0
  0
VERTEX
  8
0
 10
12.537289486870524
 20
23.92683407791501
 30
0.0
  0
VERTEX
  8
0
 10
12.5768143673132
 20
23.955408765678534
 30
0.0
  0
VERTEX
  8
0
 10
12.61629967282193
 20
23.983892061130568
 30
0.0
  0
VERTEX
  8
0
 10
12.655744616021945
 20
24.012283668349532
 30
0.0
  0
VERTEX
  8
0
 10
12.695148409538486
 20
24.040583291413824
 30
0.0
  0
VERTEX
  8
0
 10
12.734510265996796
 20
24.068790634401864
 30
0.0
  0
VERTEX
  8
0
 10
12.773829398022116
 20
24.096905401392068
 30
0.0
  0
VERTEX
  8
0
 10
12.813105018239682
 20
24.12492729646284
 30
0.0
  0
VERTEX
  8
0
 10
12.852336339274732
 20
24.152856023692596
 30
0.0
  0
VERTEX
  8
0
 10
12.891522573752512
 20
24.180691287159753
 30
0.0
  0
VERTEX
  8
0
 10
12.930662934298258
 20
24.20843279094272
 30
0.0
  0
VERTEX
  8
0
 10
12.969756633537205
 20
24.236080239119904
 30
0.0
  0
VERTEX
  8
0
 10
13.0088028840946
 20
24.263633335769722
 30
0.0
  0
VERTEX
  8
0
 10
13.047800898595678
 20
24.29109178497059
 30
0.0
  0
VERTEX
  8
0
 10
13.086749889665683
 20
24.318455290800905
 30
0.0
  0
VERTEX
  8
0
 10
13.12564906992985
 20
24.345723557339106
 30
0.0
  0
VERTEX
  8
0
 10
13.164497652013416
 20
24.37289628866358
 30
0.0
  0
VERTEX
  8
0
 10
13.203294848541631
 20
24.399973188852748
 30
0.0
  0
VERTEX
  8
0
 10
13.242039872139726
 20
24.426953961985028
 30
0.0
  0
VERTEX
  8
0
 10
13.280731935432945
 20
24.453838312138828
 30
0.0
  0
VERTEX
  8
0
 10
13.319370251046525
 20
24.480625943392557
 30
0.0
  0
VERTEX
  8
0
 10
13.3579540316057
 20
24.507316559824623
 30
0.0
  0
VERTEX
  8
0
 10
13.396482489735721
 20
24.533909865513458
 30
0.0
  0
VERTEX
  8
0
 10
13.43495483806182
 20
24.560405564537454
 30
0.0
  0
VERTEX
  8
0
 10
13.47337028920924
 20
24.586803360975033
 30
0.0
  0
VERTEX
  8
0
 10
13.511728055803218
 20
24.6131029589046
 30
0.0
  0
VERTEX
  8
0
 10
13.550027350468996
 20
24.639304062404577
 30
0.0
  0
VERTEX
  8
0
 10
13.58826738583181
 20
24.665406375553367
 30
0.0
  0
VERTEX
  8
0
 10
13.626447374516907
 20
24.691409602429395
 30
0.0
  0
VERTEX
  8
0
 10
13.664566529149516
 20
24.71731344711106
 30
0.0
  0
VERTEX
  8
0
 10
13.702624062354884
 20
24.743117613676777
 30
0.0
  0
VERTEX
  8
0
 10
13.740619186758249
 20
24.76882180620496
 30
0.0
  0
VERTEX
  8
0
 10
13.77855111498485
 20
24.79442572877403
 30
0.0
  0
VERTEX
  8
0
 10
13.816419059659927
 20
24.819929085462384
 30
0.0
  0
VERTEX
  8
0
 10
13.85422223340872
 20
24.84533158034844
 30
0.0
  0
VERTEX
  8
0
 10
13.89195984885647
 20
24.87063291751062
 30
0.0
  0
VERTEX
  8
0
 10
13.92963111862841
 20
24.89583280102732
 30
0.0
  0
VERTEX
  8
0
 10
13.967235255349784
 20
24.92093093497696
 30
0.0
  0
VERTEX
  8
0
 10
14.004771471645835
 20
24.945927023437953
 30
0.0
  0
VERTEX
  8
0
 10
14.042238980141796
 20
24.970820770488714
 30
0.0
  0
VERTEX
  8
0
 10
14.079636993462913
 20
24.995611880207647
 30
0.0
  0
VERTEX
  8
0
 10
14.116964724234418
 20
25.02030005667317
 30
0.0
  0
VERTEX
  8
0
 10
14.15422138508156
 20
25.0448850039637
 30
0.0
  0
VERTEX
  8
0
 10
14.191406188629568
 20
25.069366426157636
 30
0.0
  0
VERTEX
  8
0
 10
14.228518347503691
 20
25.093744027333404
 30
0.0
  0
VERTEX
  8
0
 10
14.26555707432916
 20
25.118017511569406
 30
0.0
  0
VERTEX
  8
0
 10
14.302521581731224
 20
25.14218658294406
 30
0.0
  0
VERTEX
  8
0
 10
14.339411082335115
 20
25.166250945535776
 30
0.0
  0
VERTEX
  8
0
 10
14.376224788766077
 20
25.190210303422965
 30
0.0
  0
VERTEX
  8
0
 10
14.412961913649344
 20
25.21406436068404
 30
0.0
  0
VERTEX
  8
0
 10
14.449621669610162
 20
25.23781282139742
 30
0.0
  0
VERTEX
  8
0
 10
14.486203269273767
 20
25.26145538964151
 30
0.0
  0
VERTEX
  8
0
 10
14.522705925265404
 20
25.284991769494727
 30
0.0
  0
VERTEX
  8
0
 10
14.559128850210305
 20
25.308421665035475
 30
0.0
  0
VERTEX
  8
0
 10
14.59547125673371
 20
25.331744780342174
 30
0.0
  0
VERTEX
  8
0
 10
14.631732357460866
 20
25.354960819493233
 30
0.0
  0
VERTEX
  8
0
 10
14.667911365017003
 20
25.378069486567064
 30
0.0
  0
VERTEX
  8
0
 10
14.704007492027369
 20
25.401070485642084
 30
0.0
  0
VERTEX
  8
0
 10
14.7400199511172
 20
25.423963520796697
 30
0.0
  0
VERTEX
  8
0
 10
14.775947954911729
 20
25.44674829610932
 30
0.0
  0
VERTEX
  8
0
 10
14.811790716036207
 20
25.469424515658368
 30
0.0
  0
VERTEX
  8
0
 10
14.847547447115868
 20
25.491991883522246
 30
0.0
  0
VERTEX
  8
0
 10
14.883217360775955
 20
25.514450103779375
 30
0.0
  0
VERTEX
  8
0
 10
14.9187996696417
 20
25.53679888050816
 30
0.0
  0
VERTEX
  8
0
 10
14.95429358633835
 20
25.559037917787016
 30
0.0
  0
VERTEX
  8
0
 10
14.98969832349114
 20
25.58116691969436
 30
0.0
  0
VERTEX
  8
0
 10
15.025013093725313
 20
25.60318559030859
 30
0.0
  0
VERTEX
  8
0
 10
15.060237109666105
 20
25.625093633708133
 30
0.0
  0
VERTEX
  8
0
 10
15.095369583938762
 20
25.6468907539714
 30
0.0
  0
VERTEX
  8
0
 10
15.130409729168516
 20
25.668576655176796
 30
0.0
  0
VERTEX
  8
0
 10
15.16535675798061
 20
25.690151041402736
 30
0.0
  0
VERTEX
  8
0
 10
15.200209883000284
 20
25.71161361672764
 30
0.0
  0
VERTEX
  8
0
 10
15.234968316852775
 20
25.732964085229906
 30
0.0
  0
VERTEX
  8
0
 10
15.269631272163323
 20
25.75420215098795
 30
0.0
  0
VERTEX
  8
0
 10
15.30419796155717
 20
25.775327518080193
 30
0.0
  0
VERTEX
  8
0
 10
15.338667597659557
 20
25.79633989058504
 30
0.0
  0
VERTEX
  8
0
 10
15.37303939309572
 20
25.817238972580906
 30
0.0
  0
VERTEX
  8
0
 10
15.407312560490897
 20
25.8380244681462
 30
0.0
  0
VERTEX
  8
0
 10
15.441486312470333
 20
25.85869608135934
 30
0.0
  0
VERTEX
  8
0
 10
15.475559861659264
 20
25.879253516298736
 30
0.0
  0
VERTEX
  8
0
 10
15.50953242068293
 20
25.899696477042795
 30
0.0
  0
VERTEX
  8
0
 10
15.54340320216657
 20
25.920024667669935
 30
0.0
  0
VERTEX
  8
0
 10
15.577171418735425
 20
25.94023779225857
 30
0.0
  0
VERTEX
  8
0
 10
15.610836283014734
 20
25.960335554887102
 30
0.0
  0
VERTEX
  8
0
 10
15.644397007629735
 20
25.980317659633958
 30
0.0
  0
VERTEX
  8
0
 10
15.677852805205676
 20
26.00018381057754
 30
0.0
  0
VERTEX
  8
0
 10
15.711202888367783
 20
26.019933711796263
 30
0.0
  0
VERTEX
  8
0
 10
15.744446469741305
 20
26.039567067368537
 30
0.0
  0
VERTEX
  8
0
 10
15.777582761951477
 20
26.05908358137278
 30
0.0
  0
VERTEX
  8
0
 10
15.81061097762354
 20
26.078482957887395
 30
0.0
  0
VERTEX
  8
0
 10
15.843530329382736
 20
26.0977649009908
 30
0.0
  0
VERTEX
  8
0
 10
15.876340029854301
 20
26.11692911476141
 30
0.0
  0
VERTEX
  8
0
 10
15.909039291663477
 20
26.13597530327764
 30
0.0
  0
VERTEX
  8
0
 10
15.941627327435501
 20
26.154903170617885
 30
0.0
  0
VERTEX
  8
0
 10
15.974103349795616
 20
26.173712420860575
 30
0.0
  0
VERTEX
  8
0
 10
16.00646657136906
 20
26.192402758084118
 30
0.0
  0
VERTEX
  8
0
 10
16.03871620478107
 20
26.210973886366922
 30
0.0
  0
VERTEX
  8
0
 10
16.07085146265689
 20
26.229425509787397
 30
0.0
  0
VERTEX
  8
0
 10
16.102871557621754
 20
26.247757332423966
 30
0.0
  0
VERTEX
  8
0
 10
16.13477570230091
 20
26.265969058355033
 30
0.0
  0
VERTEX
  8
0
 10
16.16656310931959
 20
26.28406039165901
 30
0.0
  0
VERTEX
  8
0
 10
16.19823299130304
 20
26.30203103641432
 30
0.0
  0
VERTEX
  8
0
 10
16.22978456087649
 20
26.319880696699364
 30
0.0
  0
VERTEX
  8
0
 10
16.261217030665186
 20
26.33760907659255
 30
0.0
  0
VERTEX
  8
0
 10
16.29252961329437
 20
26.355215880172302
 30
0.0
  0
VERTEX
  8
0
 10
16.323721521389274
 20
26.372700811517028
 30
0.0
  0
VERTEX
  8
0
 10
16.354791967575146
 20
26.39006357470514
 30
0.0
  0
VERTEX
  8
0
 10
16.38574016447722
 20
26.407303873815053
 30
0.0
  0
VERTEX
  8
0
 10
16.416565324720736
 20
26.42442141292517
 30
0.0
  0
VERTEX
  8
0
 10
16.447266660930936
 20
26.441415896113917
 30
0.0
  0
VERTEX
  8
0
 10
16.47784338573306
 20
26.458287027459694
 30
0.0
  0
VERTEX
  8
0
 10
16.508294711752345
 20
26.475034511040924
 30
0.0
  0
VERTEX
  8
0
 10
16.53861985161403
 20
26.491658050936003
 30
0.0
  0
VERTEX
  8
0
 10
16.568818017943354
 20
26.50815735122336
 30
0.0
  0
VERTEX
  8
0
 10
16.598888423365562
 20
26.524532115981405
 30
0.0
  0
VERTEX
  8
0
 10
16.628830280505888
 20
26.540782049288545
 30
0.0
  0
VERTEX
  8
0
 10
16.658642801989576
 20
26.55690685522319
 30
0.0
  0
VERTEX
  8
0
 10
16.688325200441856
 20
26.572906237863755
 30
0.0
  0
VERTEX
  8
0
 10
16.717876688487987
 20
26.588779901288653
 30
0.0
  0
VERTEX
  8
0
 10
16.747296478753185
 20
26.6045275495763
 30
0.0
  0
VERTEX
  8
0
 10
16.77658378386271
 20
26.620148886805104
 30
0.0
  0
VERTEX
  8
0
 10
16.805737816441784
 20
26.635643617053475
 30
0.0
  0
VERTEX
  8
0
 10
16.83475778911566
 20
26.651011444399828
 30
0.0
  0
VERTEX
  8
0
 10
16.86364291450957
 20
26.666252072922582
 30
0.0
  0
VERTEX
  8
0
 10
16.892392405248756
 20
26.681365206700136
 30
0.0
  0
VERTEX
  8
0
 10
16.921005473958463
 20
26.696350549810916
 30
0.0
  0
VERTEX
  8
0
 10
16.94948133326392
 20
26.711207806333316
 30
0.0
  0
VERTEX
  8
0
 10
16.97781919579037
 20
26.725936680345765
 30
0.0
  0
VERTEX
  8
0
 10
17.00601827416306
 20
26.740536875926672
 30
0.0
  0
VERTEX
  8
0
 10
17.03407778100722
 20
26.755008097154445
 30
0.0
  0
VERTEX
  8
0
 10
17.061996928948098
 20
26.769350048107498
 30
0.0
  0
VERTEX
  8
0
 10
17.089774930610922
 20
26.783562432864244
 30
0.0
  0
VERTEX
  8
0
 10
17.117410998620944
 20
26.797644955503095
 30
0.0
  0
VERTEX
  8
0
 10
17.144904345603397
 20
26.811597320102464
 30
0.0
  0
VERTEX
  8
0
 10
17.172254184183522
 20
26.825419230740756
 30
0.0
  0
VERTEX
  8
0
 10
17.19945972698656
 20
26.839110391496398
 30
0.0
  0
VERTEX
  8
0
 10
17.22652018663775
 20
26.85267050644779
 30
0.0
  0
VERTEX
  8
0
 10
17.253434775762322
 20
26.86609927967335
 30
0.0
  0
VERTEX
  8
0
 10
17.28020270698553
 20
26.879396415251485
 30
0.0
  0
VERTEX
  8
0
 10
17.306823192932608
 20
26.89256161726061
 30
0.0
  0
VERTEX
  8
0
 10
17.333295446228796
 20
26.90559458977914
 30
0.0
  0
VERTEX
  8
0
 10
17.359618679499327
 20
26.918495036885485
 30
0.0
  0
VERTEX
  8
0
 10
17.385792105369454
 20
26.93126266265806
 30
0.0
  0
VERTEX
  8
0
 10
17.411814936464403
 20
26.943897171175273
 30
0.0
  0
VERTEX
  8
0
 10
17.43768638540942
 20
26.956398266515535
 30
0.0
  0
VERTEX
  8
0
 10
17.463405664829747
 20
26.968765652757263
 30
0.0
  0
VERTEX
  8
0
 10
17.488971987350617
 20
26.98099903397887
 30
0.0
  0
VERTEX
  8
0
 10
17.51438456559728
 20
26.99309811425876
 30
0.0
  0
VERTEX
  8
0
 10
17.53964261219496
 20
27.005062597675355
 30
0.0
  0
VERTEX
  8
0
 10
17.564745339768905
 20
27.01689218830706
 30
0.0
  0
VERTEX
  8
0
 10
17.589691960944364
 20
27.028586590232294
 30
0.0
  0
VERTEX
  8
0
 10
17.614481688346558
 20
27.040145507529463
 30
0.0
  0
VERTEX
  8
0
 10
17.639113734600745
 20
27.051568644276983
 30
0.0
  0
VERTEX
  8
0
 10
17.663587312332147
 20
27.062855704553265
 30
0.0
  0
VERTEX
  8
0
 10
17.687901634166018
 20
27.074006392436722
 30
0.0
  0
VERTEX
  8
0
 10
17.71205591272759
 20
27.085020412005765
 30
0.0
  0
VERTEX
  8
0
 10
17.736049360642102
 20
27.09589746733881
 30
0.0
  0
VERTEX
  8
0
 10
17.759881190534795
 20
27.10663726251426
 30
0.0
  0
VERTEX
  8
0
 10
17.78355061503091
 20
27.117239501610538
 30
0.0
  0
VERTEX
  8
0
 10
17.80705684675569
 20
27.127703888706048
 30
0.0
  0
VERTEX
  8
0
 10
17.830399098334368
 20
27.13803012787921
 30
0.0
  0
VERTEX
  8
0
 10
17.853576582392183
 20
27.14821792320843
 30
0.0
  0
VERTEX
  8
0
 10
17.87658851155438
 20
27.158266978772126
 30
0.0
  0
VERTEX
  8
0
 10
17.899434098446196
 20
27.168176998648704
 30
0.0
  0
VERTEX
  8
0
 10
17.922112555692873
 20
27.177947686916582
 30
0.0
  0
VERTEX
  8
0
 10
17.944623095919646
 20
27.187578747654165
 30
0.0
  0
VERTEX
  8
0
 10
17.966964931751757
 20
27.19706988493987
 30
0.0
  0
VERTEX
  8
0
 10
17.989137275814446
 20
27.20642080285211
 30
0.0
  0
VERTEX
  8
0
 10
18.011139340732953
 20
27.2156312054693
 30
0.0
  0
VERTEX
  8
0
 10
18.032970339132515
 20
27.22470079686984
 30
0.0
  0
VERTEX
  8
0
 10
18.054629483638372
 20
27.233629281132156
 30
0.0
  0
VERTEX
  8
0
 10
18.076115986875767
 20
27.242416362334655
 30
0.0
  0
VERTEX
  8
0
 10
18.09742906146994
 20
27.25106174455575
 30
0.0
  0
VERTEX
  8
0
 10
18.118567920046118
 20
27.25956513187385
 30
0.0
  0
VERTEX
  8
0
 10
18.139531775229557
 20
27.26792622836737
 30
0.0
  0
VERTEX
  8
0
 10
18.16031983964549
 20
27.276144738114724
 30
0.0
  0
VERTEX
  8
0
 10
18.180931325919154
 20
27.284220365194315
 30
0.0
  0
VERTEX
  8
0
 10
18.201365446675794
 20
27.292152813684574
 30
0.0
  0
VERTEX
  8
0
 10
18.221621414540646
 20
27.299941787663897
 30
0.0
  0
VERTEX
  8
0
 10
18.24169844213895
 20
27.307586991210698
 30
0.0
  0
VERTEX
  8
0
 10
18.261595742095942
 20
27.315088128403392
 30
0.0
  0
VERTEX
  8
0
 10
18.281312527036867
 20
27.32244490332039
 30
0.0
  0
VERTEX
  8
0
 10
18.300848009586964
 20
27.329657020040116
 30
0.0
  0
VERTEX
  8
0
 10
18.320201402371474
 20
27.33672418264096
 30
0.0
  0
VERTEX
  8
0
 10
18.339371918015633
 20
27.343646095201354
 30
0.0
  0
VERTEX
  8
0
 10
18.35835876914468
 20
27.350422461799695
 30
0.0
  0
VERTEX
  8
0
 10
18.377161168383854
 20
27.357052986514407
 30
0.0
  0
VERTEX
  8
0
 10
18.3957783283584
 20
27.363537373423902
 30
0.0
  0
VERTEX
  8
0
 10
18.414209461693552
 20
27.369875326606582
 30
0.0
  0
VERTEX
  8
0
 10
18.432453781014555
 20
27.376066550140873
 30
0.0
  0
VERTEX
  8
0
 10
18.45051049894664
 20
27.382110748105173
 30
0.0
  0
VERTEX
  8
0
 10
18.468378828115057
 20
27.38800762457791
 30
0.0
  0
VERTEX
  8
0
 10
18.486057981145038
 20
27.393756883637476
 30
0.0
  0
VERTEX
  8
0
 10
18.50354717066183
 20
27.3993582293623
 30
0.0
  0
VERTEX
  8
0
 10
18.52084560929066
 20
27.40481136583079
 30
0.0
  0
VERTEX
  8
0
 10
18.53795250965678
 20
27.410115997121352
 30
0.0
  0
VERTEX
  8
0
 10
18.554867084385425
 20
27.415271827312406
 30
0.0
  0
VERTEX
  8
0
 10
18.571588546101832
 20
27.420278560482366
 30
0.0
  0
VERTEX
  8
0
 10
18.588116107431244
 20
27.425135900709634
 30
0.0
  0
VERTEX
  8
0
 10
18.6044489809989
 20
27.429843552072633
 30
0.0
  0
VERTEX
  8
0
 10
18.620586379430037
 20
27.434401218649768
 30
0.0
  0
VERTEX
  8
0
 10
18.636527515349897
 20
27.43880860451945
 30
0.0
  0
VERTEX
  8
0
 10
18.65227160138372
 20
27.4430654137601
 30
0.0
  0
VERTEX
  8
0
 10
18.667817850156744
 20
27.447171350450123
 30
0.0
  0
VERTEX
  8
0
 10
18.683165474294213
 20
27.451126118667936
 30
0.0
  0
VERTEX
  8
0
 10
18.698313686421358
 20
27.454929422491944
 30
0.0
  0
VERTEX
  8
0
 10
18.713261699163425
 20
27.458580966000568
 30
0.0
  0
VERTEX
  8
0
 10
18.728008725145653
 20
27.462080453272215
 30
0.0
  0
VERTEX
  8
0
 10
18.74255397699328
 20
27.4654275883853
 30
0.0
  0
VERTEX
  8
0
 10
18.756896667331546
 20
27.46862207541823
 30
0.0
  0
VERTEX
  8
0
 10
18.77103600878569
 20
27.471663618449426
 30
0.0
  0
VERTEX
  8
0
 10
18.78497121398095
 20
27.474551921557293
 30
0.0
  0
VERTEX
  8
0
 10
18.798701495542574
 20
27.477286688820243
 30
0.0
  0
VERTEX
  8
0
 10
18.81222606609579
 20
27.479867624316693
 30
0.0
  0
VERTEX
  8
0
 10
18.825544138265844
 20
27.48229443212505
 30
0.0
  0
VERTEX
  8
0
 10
18.838654924677975
 20
27.48456681632374
 30
0.0
  0
VERTEX
  8
0
 10
18.851557637957423
 20
27.48668448099115
 30
0.0
  0
VERTEX
  8
0
 10
18.864251490729426
 20
27.488647130205717
 30
0.0
  0
VERTEX
  8
0
 10
18.876735695619224
 20
27.490454468045844
 30
0.0
  0
VERTEX
  8
0
 10
18.889009465252055
 20
27.492106198589937
 30
0.0
  0
VERTEX
  8
0
 10
18.901072012253163
 20
27.493602025916413
 30
0.0
  0
VERTEX
  8
0
 10
18.91292254924778
 20
27.494941654103684
 30
0.0
  0
VERTEX
  8
0
 10
18.92456028886116
 20
27.49612478723017
 30
0.0
  0
VERTEX
  8
0
 10
18.935984443718528
 20
27.497151129374274
 30
0.0
  0
VERTEX
  8
0
 10
18.947194226445127
 20
27.498020384614406
 30
0.0
  0
VERTEX
  8
0
 10
18.9581888496662
 20
27.498732257028987
 30
0.0
  0
VERTEX
  8
0
 10
18.96896752600698
 20
27.49928645069642
 30
0.0
  0
VERTEX
  8
0
 10
18.979529468092718
 20
27.49968266969513
 30
0.0
  0
VERTEX
  8
0
 10
18.989873888548644
 20
27.499920618103516
 30
0.0
  0
VERTEX
  8
0
 10
19.0
 20
27.5
 30
0.0
  0
VERTEX
  8
0
 10
19.0
 20
27.5
 30
0.0
  0
VERTEX
  8
0
 10
19.010008333310108
 20
27.499987467534645
 30
0.0
  0
VERTEX
  8
0
 10
19.019999944258792
 20
27.499949907361422
 30
0.0
  0
VERTEX
  8
0
 10
19.02997483284606
 20
27.49988737531459
 30
0.0
  0
VERTEX
  8
0
 10
19.03993299907191
 20
27.499799927228416
 30
0.0
  0
VERTEX
  8
0
 10
19.049874442936336
 20
27.49968761893716
 30
0.0
  0
VERTEX
  8
0
 10
19.059799164439344
 20
27.49955050627508
 30
0.0
  0
VERTEX
  8
0
 10
19.069707163580933
 20
27.499388645076444
 30
0.0
  0
VERTEX
  8
0
 10
19.079598440361092
 20
27.499202091175498
 30
0.0
  0
VERTEX
  8
0
 10
19.089472994779833
 20
27.49899090040652
 30
0.0
  0
VERTEX
  8
0
 10
19.099330826837157
 20
27.498755128603776
 30
0.0
  0
VERTEX
  8
0
 10
19.109171936533066
 20
27.498494831601516
 30
0.0
  0
VERTEX
  8
0
 10
19.118996323867545
 20
27.498210065234005
 30
0.0
  0
VERTEX
  8
0
 10
19.128803988840613
 20
27.497900885335508
 30
0.0
  0
VERTEX
  8
0
 10
19.13859493145225
 20
27.497567347740283
 30
0.0
  0
VERTEX
  8
0
 10
19.148369151702475
 20
27.49720950828259
 30
0.0
  0
VERTEX
  8
0
 10
19.158126649591274
 20
27.4968274227967
 30
0.0
  0
VERTEX
  8
0
 10
19.167867425118658
 20
27.496421147116862
 30
0.0
  0
VERTEX
  8
0
 10
19.17759147828462
 20
27.49599073707735
 30
0.0
  0
VERTEX
  8
0
 10
19.187298809089164
 20
27.495536248512423
 30
0.0
  0
VERTEX
  8
0
 10
19.196989417532283
 20
27.49505773725633
 30
0.0
  0
VERTEX
  8
0
 10
19.206663303613983
 20
27.49455525914335
 30
0.0
  0
VERTEX
  8
0
 10
19.216320467334263
 20
27.494028870007735
 30
0.0
  0
VERTEX
  8
0
 10
19.22596090869312
 20
27.493478625683757
 30
0.0
  0
VERTEX
  8
0
 10
19.235584627690564
 20
27.492904582005664
 30
0.0
  0
VERTEX
  8
0
 10
19.245191624326573
 20
27.49230679480772
 30
0.0
  0
VERTEX
  8
0
 10
19.25478189860117
 20
27.4916853199242
 30
0.0
  0
VERTEX
  8
0
 10
19.26435545051435
 20
27.491040213189354
 30
0.0
  0
VERTEX
  8
0
 10
19.273912280066103
 20
27.490371530437447
 30
0.0
  0
VERTEX
  8
0
 10
19.283452387256446
 20
27.489679327502746
 30
0.0
  0
VERTEX
  8
0
 10
19.292975772085363
 20
27.488963660219504
 30
0.0
  0
VERTEX
  8
0
 10
19.302482434552857
 20
27.48822458442198
 30
0.0
  0
VERTEX
  8
0
 10
19.311972374658936
 20
27.48746215594445
 30
0.0
  0
VERTEX
  8
0
 10
19.321445592403588
 20
27.486676430621163
 30
0.0
  0
VERTEX
  8
0
 10
19.33090208778682
 20
27.485867464286393
 30
0.0
  0
VERTEX
  8
0
 10
19.34034186080864
 20
27.485035312774396
 30
0.0
  0
VERTEX
  8
0
 10
19.349764911469034
 20
27.484180031919426
 30
0.0
  0
VERTEX
  8
0
 10
19.359171239768003
 20
27.48330167755575
 30
0.0
  0
VERTEX
  8
0
 10
19.36856084570556
 20
27.48240030551764
 30
0.0
  0
VERTEX
  8
0
 10
19.37793372928169
 20
27.48147597163934
 30
0.0
  0
VERTEX
  8
0
 10
19.387289890496408
 20
27.48052873175513
 30
0.0
  0
VERTEX
  8
0
 10
19.3966293293497
 20
27.479558641699256
 30
0.0
  0
VERTEX
  8
0
 10
19.40595204584157
 20
27.47856575730599
 30
0.0
  0
VERTEX
  8
0
 10
19.41525803997202
 20
27.477550134409586
 30
0.0
  0
VERTEX
  8
0
 10
19.424547311741048
 20
27.47651182884431
 30
0.0
  0
VERTEX
  8
0
 10
19.43381986114866
 20
27.475450896444432
 30
0.0
  0
VERTEX
  8
0
 10
19.443075688194845
 20
27.4743673930442
 30
0.0
  0
VERTEX
  8
0
 10
19.452314792879616
 20
27.473261374477886
 30
0.0
  0
VERTEX
  8
0
 10
19.461537175202967
 20
27.472132896579744
 30
0.0
  0
VERTEX
  8
0
 10
19.470742835164895
 20
27.470982015184045
 30
0.0
  0
VERTEX
  8
0
 10
19.479931772765408
 20
27.469808786125043
 30
0.0
  0
VERTEX
  8
0
 10
19.489103988004494
 20
27.468613265237003
 30
0.0
  0
VERTEX
  8
0
 10
19.49825948088216
 20
27.46739550835418
 30
0.0
  0
VERTEX
  8
0
 10
19.507398251398406
 20
27.46615557131085
 30
0.0
  0
VERTEX
  8
0
 10
19.516520299553235
 20
27.464893509941263
 30
0.0
  0
VERTEX
  8
0
 10
19.525625625346642
 20
27.463609380079685
 30
0.0
  0
VERTEX
  8
0
 10
19.53471422877863
 20
27.462303237560374
 30
0.0
  0
VERTEX
  8
0
 10
19.543786109849187
 20
27.4609751382176
 30
0.0
  0
VERTEX
  8
0
 10
19.552841268558335
 20
27.459625137885613
 30
0.0
  0
VERTEX
  8
0
 10
19.56187970490606
 20
27.458253292398688
 30
0.0
  0
VERTEX
  8
0
 10
19.570901418892365
 20
27.456859657591078
 30
0.0
  0
VERTEX
  8
0
 10
19.579906410517246
 20
27.455444289297052
 30
0.0
  0
VERTEX
  8
0
 10
19.588894679780715
 20
27.454007243350866
 30
0.0
  0
VERTEX
  8
0
 10
19.597866226682758
 20
27.452548575586786
 30
0.0
  0
VERTEX
  8
0
 10
19.60682105122338
 20
27.45106834183907
 30
0.0
  0
VERTEX
  8
0
 10
19.615759153402582
 20
27.449566597941978
 30
0.0
  0
VERTEX
  8
0
 10
19.624680533220364
 20
27.44804339972978
 30
0.0
  0
VERTEX
  8
0
 10
19.633585190676722
 20
27.446498803036725
 30
0.0
  0
VERTEX
  8
0
 10
19.64247312577167
 20
27.44493286369709
 30
0.0
  0
VERTEX
  8
0
 10
19.651344338505194
 20
27.44334563754513
 30
0.0
  0
VERTEX
  8
0
 10
19.660198828877288
 20
27.4417371804151
 30
0.0
  0
VERTEX
  8
0
 10
19.66903659688797
 20
27.44010754814127
 30
0.0
  0
VERTEX
  8
0
 10
19.67785764253723
 20
27.438456796557897
 30
0.0
  0
VERTEX
  8
0
 10
19.68666196582507
 20
27.436784981499255
 30
0.0
  0
VERTEX
  8
0
 10
19.695449566751492
 20
27.435092158799584
 30
0.0
  0
VERTEX
  8
0
 10
19.704220445316487
 20
27.433378384293164
 30
0.0
  0
VERTEX
  8
0
 10
19.712974601520067
 20
27.431643713814257
 30
0.0
  0
VERTEX
  8
0
 10
19.721712035362216
 20
27.429888203197105
 30
0.0
  0
VERTEX
  8
0
 10
19.730432746842954
 20
27.428111908275994
 30
0.0
  0
VERTEX
  8
0
 10
19.739136735962273
 20
27.426314884885173
 30
0.0
  0
VERTEX
  8
0
 10
19.74782400272017
 20
27.424497188858908
 30
0.0
  0
VERTEX
  8
0
 10
19.756494547116645
 20
27.422658876031466
 30
0.0
  0
VERTEX
  8
0
 10
19.765148369151706
 20
27.420800002237094
 30
0.0
  0
VERTEX
  8
0
 10
19.773785468825338
 20
27.41892062331007
 30
0.0
  0
VERTEX
  8
0
 10
19.782405846137557
 20
27.417020795084635
 30
0.0
  0
VERTEX
  8
0
 10
19.791009501088347
 20
27.415100573395073
 30
0.0
  0
VERTEX
  8
0
 10
19.799596433677724
 20
27.413160014075633
 30
0.0
  0
VERTEX
  8
0
 10
19.808166643905675
 20
27.411199172960583
 30
0.0
  0
VERTEX
  8
0
 10
19.816720131772207
 20
27.409218105884182
 30
0.0
  0
VERTEX
  8
0
 10
19.825256897277317
 20
27.40721686868068
 30
0.0
  0
VERTEX
  8
0
 10
19.83377694042101
 20
27.405195517184364
 30
0.0
  0
VERTEX
  8
0
 10
19.84228026120328
 20
27.40315410722948
 30
0.0
  0
VERTEX
  8
0
 10
19.850766859624137
 20
27.401092694650295
 30
0.0
  0
VERTEX
  8
0
 10
19.859236735683563
 20
27.399011335281067
 30
0.0
  0
VERTEX
  8
0
 10
19.867689889381577
 20
27.39691008495606
 30
0.0
  0
VERTEX
  8
0
 10
19.87612632071817
 20
27.394788999509537
 30
0.0
  0
VERTEX
  8
0
 10
19.884546029693336
 20
27.39264813477575
 30
0.0
  0
VERTEX
  8
0
 10
19.89294901630709
 20
27.39048754658898
 30
0.0
  0
VERTEX
  8
0
 10
19.90133528055942
 20
27.388307290783477
 30
0.0
  0
VERTEX
  8
0
 10
19.90970482245033
 20
27.386107423193494
 30
0.0
  0
VERTEX
  8
0
 10
19.918057641979814
 20
27.383887999653304
 30
0.0
  0
VERTEX
  8
0
 10
19.926393739147887
 20
27.381649075997174
 30
0.0
  0
VERTEX
  8
0
 10
19.93471311395453
 20
27.379390708059354
 30
0.0
  0
VERTEX
  8
0
 10
19.94301576639976
 20
27.377112951674118
 30
0.0
  0
VERTEX
  8
0
 10
19.951301696483572
 20
27.37481586267571
 30
0.0
  0
VERTEX
  8
0
 10
19.959570904205954
 20
27.372499496898406
 30
0.0
  0
VERTEX
  8
0
 10
19.967823389566924
 20
27.37016391017647
 30
0.0
  0
VERTEX
  8
0
 10
19.97605915256647
 20
27.36780915834415
 30
0.0
  0
VERTEX
  8
0
 10
19.984278193204595
 20
27.365435297235724
 30
0.0
  0
VERTEX
  8
0
 10
19.9924805114813
 20
27.363042382685435
 30
0.0
  0
VERTEX
  8
0
 10
20.00066610739658
 20
27.36063047052756
 30
0.0
  0
VERTEX
  8
0
 10
20.00883498095044
 20
27.35819961659636
 30
0.0
  0
VERTEX
  8
0
 10
20.016987132142884
 20
27.35574987672609
 30
0.0
  0
VERTEX
  8
0
 10
20.02512256097391
 20
27.353281306751022
 30
0.0
  0
VERTEX
  8
0
 10
20.033241267443515
 20
27.350793962505406
 30
0.0
  0
VERTEX
  8
0
 10
20.041343251551694
 20
27.34828789982351
 30
0.0
  0
VERTEX
  8
0
 10
20.04942851329846
 20
27.34576317453959
 30
0.0
  0
VERTEX
  8
0
 10
20.057497052683797
 20
27.34321984248792
 30
0.0
  0
VERTEX
  8
0
 10
20.06554886970773
 20
27.340657959502757
 30
0.0
  0
VERTEX
  8
0
 10
20.07358396437022
 20
27.338077581418347
 30
0.0
  0
VERTEX
  8
0
 10
20.081602336671303
 20
27.335478764068977
 30
0.0
  0
VERTEX
  8
0
 10
20.089603986610964
 20
27.33286156328889
 30
0.0
  0
VERTEX
  8
0
 10
20.0975889141892
 20
27.330226034912354
 30
0.0
  0
VERTEX
  8
0
 10
20.10555711940602
 20
27.327572234773626
 30
0.0
  0
VERTEX
  8
0
 10
20.113508602261415
 20
27.324900218706986
 30
0.0
  0
VERTEX
  8
0
 10
20.121443362755397
 20
27.32221004254668
 30
0.0
  0
VERTEX
  8
0
 10
20.129361400887955
 20
27.319501762126972
 30
0.0
  0
VERTEX
  8
0
 10
20.13726271665909
 20
27.31677543328213
 30
0.0
  0
VERTEX
  8
0
 10
20.14514731006881
 20
27.314031111846404
 30
0.0
  0
VERTEX
  8
0
 10
20.15301518111711
 20
27.311268853654067
 30
0.0
  0
VERTEX
  8
0
 10
20.160866329803987
 20
27.308488714539372
 30
0.0
  0
VERTEX
  8
0
 10
20.16870075612944
 20
27.305690750336588
 30
0.0
  0
VERTEX
  8
0
 10
20.176518460093476
 20
27.302875016879973
 30
0.0
  0
VERTEX
  8
0
 10
20.184319441696093
 20
27.300041570003792
 30
0.0
  0
VERTEX
  8
0
 10
20.192103700937288
 20
27.297190465542304
 30
0.0
  0
VERTEX
  8
0
 10
20.199871237817064
 20
27.294321759329776
 30
0.0
  0
VERTEX
  8
0
 10
20.207622052335417
 20
27.29143550720046
 30
0.0
  0
VERTEX
  8
0
 10
20.215356144492354
 20
27.288531764988626
 30
0.0
  0
VERTEX
  8
0
 10
20.223073514287865
 20
27.28561058852853
 30
0.0
  0
VERTEX
  8
0
 10
20.230774161721964
 20
27.28267203365444
 30
0.0
  0
VERTEX
  8
0
 10
20.238458086794633
 20
27.279716156200614
 30
0.0
  0
VERTEX
  8
0
 10
20.246125289505887
 20
27.276743012001315
 30
0.0
  0
VERTEX
  8
0
 10
20.253775769855714
 20
27.273752656890807
 30
0.0
  0
VERTEX
  8
0
 10
20.261409527844123
 20
27.270745146703334
 30
0.0
  0
VERTEX
  8
0
 10
20.269026563471108
 20
27.267720537273185
 30
0.0
  0
VERTEX
  8
0
 10
20.276626876736685
 20
27.26467888443461
 30
0.0
  0
VERTEX
  8
0
 10
20.284210467640836
 20
27.261620244021866
 30
0.0
  0
VERTEX
  8
0
 10
20.291777336183568
 20
27.258544671869235
 30
0.0
  0
VERTEX
  8
0
 10
20.299327482364877
 20
27.255452223810952
 30
0.0
  0
VERTEX
  8
0
 10
20.306860906184767
 20
27.252342955681293
 30
0.0
  0
VERTEX
  8
0
 10
20.314377607643234
 20
27.249216923314513
 30
0.0
  0
VERTEX
  8
0
 10
20.32187758674028
 20
27.24607418254488
 30
0.0
  0
VERTEX
  8
0
 10
20.32936084347591
 20
27.24291478920665
 30
0.0
  0
VERTEX
  8
0
 10
20.336827377850113
 20
27.239738799134095
 30
0.0
  0
VERTEX
  8
0
 10
20.344277189862904
 20
27.23654626816146
 30
0.0
  0
VERTEX
  8
0
 10
20.35171027951427
 20
27.233337252123032
 30
0.0
  0
VERTEX
  8
0
 10
20.359126646804214
 20
27.230111806853053
 30
0.0
  0
VERTEX
  8
0
 10
20.36652629173274
 20
27.226869988185786
 30
0.0
  0
VERTEX
  8
0
 10
20.373909214299843
 20
27.223611851955503
 30
0.0
  0
VERTEX
  8
0
 10
20.38127541450553
 20
27.220337453996464
 30
0.0
  0
VERTEX
  8
0
 10
20.388624892349796
 20
27.217046850142914
 30
0.0
  0
VERTEX
  8
0
 10
20.39595764783264
 20
27.213740096229134
 30
0.0
  0
VERTEX
  8
0
 10
20.403273680954065
 20
27.210417248089378
 30
0.0
  0
VERTEX
  8
0
 10
20.410572991714066
 20
27.207078361557915
 30
0.0
  0
VERTEX
  8
0
 10
20.41785558011265
 20
27.203723492469
 30
0.0
  0
VERTEX
  8
0
 10
20.425121446149817
 20
27.200352696656893
 30
0.0
  0
VERTEX
  8
0
 10
20.432370589825556
 20
27.19696602995585
 30
0.0
  0
VERTEX
  8
0
 10
20.43960301113988
 20
27.193563548200153
 30
0.0
  0
VERTEX
  8
0
 10
20.44681871009278
 20
27.190145307224046
 30
0.0
  0
VERTEX
  8
0
 10
20.45401768668426
 20
27.1867113628618
 30
0.0
  0
VERTEX
  8
0
 10
20.461199940914327
 20
27.18326177094768
 30
0.0
  0
VERTEX
  8
0
 10
20.468365472782967
 20
27.179796587315934
 30
0.0
  0
VERTEX
  8
0
 10
20.475514282290188
 20
27.176315867800835
 30
0.0
  0
VERTEX
  8
0
 10
20.482646369435987
 20
27.172819668236638
 30
0.0
  0
VERTEX
  8
0
 10
20.489761734220366
 20
27.169308044457605
 30
0.0
  0
VERTEX
  8
0
 10
20.496860376643323
 20
27.165781052298012
 30
0.0
  0
VERTEX
  8
0
 10
20.503942296704864
 20
27.1622387475921
 30
0.0
  0
VERTEX
  8
0
 10
20.51100749440498
 20
27.158681186174146
 30
0.0
  0
VERTEX
  8
0
 10
20.518055969743674
 20
27.1551084238784
 30
0.0
  0
VERTEX
  8
0
 10
20.52508772272095
 20
27.151520516539133
 30
0.0
  0
VERTEX
  8
0
 10
20.532102753336808
 20
27.147917519990607
 30
0.0
  0
VERTEX
  8
0
 10
20.539101061591243
 20
27.144299490067077
 30
0.0
  0
VERTEX
  8
0
 10
20.54608264748426
 20
27.140666482602818
 30
0.0
  0
VERTEX
  8
0
 10
20.55304751101586
 20
27.137018553432075
 30
0.0
  0
VERTEX
  8
0
 10
20.559995652186032
 20
27.133355758389126
 30
0.0
  0
VERTEX
  8
0
 10
20.566927070994783
 20
27.12967815330822
 30
0.0
  0
VERTEX
  8
0
 10
20.573841767442115
 20
27.125985794023613
 30
0.0
  0
VERTEX
  8
0
 10
20.58073974152803
 20
27.12227873636959
 30
0.0
  0
VERTEX
  8
0
 10
20.587620993252525
 20
27.118557036180395
 30
0.0
  0
VERTEX
  8
0
 10
20.594485522615596
 20
27.114820749290296
 30
0.0
  0
VERTEX
  8
0
 10
20.60133332961725
 20
27.111069931533557
 30
0.0
  0
VERTEX
  8
0
 10
20.60816441425748
 20
27.107304638744438
 30
0.0
  0
VERTEX
  8
0
 10
20.614978776536294
 20
27.103524926757192
 30
0.0
  0
VERTEX
  8
0
 10
20.62177641645368
 20
27.099730851406097
 30
0.0
  0
VERTEX
  8
0
 10
20.628557334009656
 20
27.095922468525398
 30
0.0
  0
VERTEX
  8
0
 10
20.635321529204212
 20
27.09209983394937
 30
0.0
  0
VERTEX
  8
0
 10
20.642069002037342
 20
27.08826300351227
 30
0.0
  0
VERTEX
  8
0
 10
20.648799752509053
 20
27.084412033048356
 30
0.0
  0
VERTEX
  8
0
 10
20.65551378061934
 20
27.080546978391894
 30
0.0
  0
VERTEX
  8
0
 10
20.66221108636821
 20
27.076667895377142
 30
0.0
  0
VERTEX
  8
0
 10
20.66889166975566
 20
27.072774839838374
 30
0.0
  0
VERTEX
  8
0
 10
20.675555530781686
 20
27.06886786760984
 30
0.0
  0
VERTEX
  8
0
 10
20.68220266944629
 20
27.0649470345258
 30
0.0
  0
VERTEX
  8
0
 10
20.688833085749486
 20
27.061012396420526
 30
0.0
  0
VERTEX
  8
0
 10
20.695446779691252
 20
27.057064009128275
 30
0.0
  0
VERTEX
  8
0
 10
20.7020437512716
 20
27.053101928483308
 30
0.0
  0
VERTEX
  8
0
 10
20.708624000490527
 20
27.049126210319884
 30
0.0
  0
VERTEX
  8
0
 10
20.71518752734803
 20
27.045136910472266
 30
0.0
  0
VERTEX
  8
0
 10
20.721734331844118
 20
27.04113408477472
 30
0.0
  0
VERTEX
  8
0
 10
20.728264413978785
 20
27.037117789061504
 30
0.0
  0
VERTEX
  8
0
 10
20.73477777375203
 20
27.03308807916688
 30
0.0
  0
VERTEX
  8
0
 10
20.74127441116385
 20
27.029045010925117
 30
0.0
  0
VERTEX
  8
0
 10
20.747754326214253
 20
27.024988640170466
 30
0.0
  0
VERTEX
  8
0
 10
20.754217518903236
 20
27.020919022737196
 30
0.0
  0
VERTEX
  8
0
 10
20.760663989230803
 20
27.01683621445957
 30
0.0
  0
VERTEX
  8
0
 10
20.767093737196944
 20
27.01274027117184
 30
0.0
  0
VERTEX
  8
0
 10
20.773506762801663
 20
27.00863124870828
 30
0.0
  0
VERTEX
  8
0
 10
20.779903066044966
 20
27.004509202903147
 30
0.0
  0
VERTEX
  8
0
 10
20.78628264692685
 20
27.000374189590698
 30
0.0
  0
VERTEX
  8
0
 10
20.792645505447307
 20
26.9962262646052
 30
0.0
  0
VERTEX
  8
0
 10
20.79899164160635
 20
26.992065483780912
 30
0.0
  0
VERTEX
  8
0
 10
20.80532105540397
 20
26.9878919029521
 30
0.0
  0
VERTEX
  8
0
 10
20.811633746840165
 20
26.983705577953028
 30
0.0
  0
VERTEX
  8
0
 10
20.817929715914946
 20
26.979506564617946
 30
0.0
  0
VERTEX
  8
0
 10
20.824208962628305
 20
26.975294918781128
 30
0.0
  0
VERTEX
  8
0
 10
20.830471486980244
 20
26.971070696276833
 30
0.0
  0
VERTEX
  8
0
 10
20.836717288970764
 20
26.966833952939318
 30
0.0
  0
VERTEX
  8
0
 10
20.84294636859986
 20
26.962584744602843
 30
0.0
  0
VERTEX
  8
0
 10
20.84915872586754
 20
26.958323127101682
 30
0.0
  0
VERTEX
  8
0
 10
20.8553543607738
 20
26.954049156270088
 30
0.0
  0
VERTEX
  8
0
 10
20.861533273318635
 20
26.949762887942327
 30
0.0
  0
VERTEX
  8
0
 10
20.867695463502056
 20
26.945464377952653
 30
0.0
  0
VERTEX
  8
0
 10
20.873840931324047
 20
26.941153682135333
 30
0.0
  0
VERTEX
  8
0
 10
20.879969676784622
 20
26.936830856324633
 30
0.0
  0
VERTEX
  8
0
 10
20.88608169988378
 20
26.932495956354806
 30
0.0
  0
VERTEX
  8
0
 10
20.892177000621516
 20
26.928149038060116
 30
0.0
  0
VERTEX
  8
0
 10
20.898255578997833
 20
26.923790157274837
 30
0.0
  0
VERTEX
  8
0
 10
20.904317435012725
 20
26.919419369833214
 30
0.0
  0
VERTEX
  8
0
 10
20.9103625686662
 20
26.91503673156952
 30
0.0
  0
VERTEX
  8
0
 10
20.91639097995825
 20
26.910642298318006
 30
0.0
  0
VERTEX
  8
0
 10
20.922402668888886
 20
26.906236125912944
 30
0.0
  0
VERTEX
  8
0
 10
20.928397635458097
 20
26.901818270188592
 30
0.0
  0
VERTEX
  8
0
 10
20.934375879665893
 20
26.897388786979217
 30
0.0
  0
VERTEX
  8
0
 10
20.940337401512267
 20
26.892947732119072
 30
0.0
  0
VERTEX
  8
0
 10
20.94628220099721
 20
26.888495161442417
 30
0.0
  0
VERTEX
  8
0
 10
20.952210278120738
 20
26.884031130783523
 30
0.0
  0
VERTEX
  8
0
 10
20.95812163288285
 20
26.879555695976656
 30
0.0
  0
VERTEX
  8
0
 10
20.96401626528354
 20
26.875068912856065
 30
0.0
  0
VERTEX
  8
0
 10
20.969894175322807
 20
26.870570837256018
 30
0.0
  0
VERTEX
  8
0
 10
20.97575536300066
 20
26.866061525010778
 30
0.0
  0
VERTEX
  8
0
 10
20.98159982831709
 20
26.861541031954605
 30
0.0
  0
VERTEX
  8
0
 10
20.9874275712721
 20
26.85700941392176
 30
0.0
  0
VERTEX
  8
0
 10
20.993238591865683
 20
26.8524667267465
 30
0.0
  0
VERTEX
  8
0
 10
20.99903289009785
 20
26.847913026263093
 30
0.0
  0
VERTEX
  8
0
 10
21.004810465968596
 20
26.84334836830581
 30
0.0
  0
VERTEX
  8
0
 10
21.010571319477926
 20
26.838772808708896
 30
0.0
  0
VERTEX
  8
0
 10
21.016315450625832
 20
26.834186403306624
 30
0.0
  0
VERTEX
  8
0
 10
21.022042859412316
 20
26.82958920793325
 30
0.0
  0
VERTEX
  8
0
 10
21.02775354583738
 20
26.82498127842304
 30
0.0
  0
VERTEX
  8
0
 10
21.033447509901027
 20
26.82036267061025
 30
0.0
  0
VERTEX
  8
0
 10
21.03912475160325
 20
26.815733440329147
 30
0.0
  0
VERTEX
  8
0
 10
21.04478527094406
 20
26.811093643413994
 30
0.0
  0
VERTEX
  8
0
 10
21.050429067923446
 20
26.806443335699047
 30
0.0
  0
VERTEX
  8
0
 10
21.056056142541408
 20
26.80178257301857
 30
0.0
  0
VERTEX
  8
0
 10
21.06166649479795
 20
26.797111411206828
 30
0.0
  0
VERTEX
  8
0
 10
21.067260124693075
 20
26.792429906098075
 30
0.0
  0
VERTEX
  8
0
 10
21.07283703222678
 20
26.787738113526586
 30
0.0
  0
VERTEX
  8
0
 10
21.078397217399058
 20
26.78303608932661
 30
0.0
  0
VERTEX
  8
0
 10
21.083940680209924
 20
26.778323889332412
 30
0.0
  0
VERTEX
  8
0
 10
21.089467420659368
 20
26.77360156937827
 30
0.0
  0
VERTEX
  8
0
 10
21.094977438747385
 20
26.76886918529842
 30
0.0
  0
VERTEX
  8
0
 10
21.100470734473987
 20
26.764126792927136
 30
0.0
  0
VERTEX
  8
0
 10
21.105947307839166
 20
26.759374448098683
 30
0.0
  0
VERTEX
  8
0
 10
21.11140715884293
 20
26.75461220664732
 30
0.0
  0
VERTEX
  8
0
 10
21.11685028748527
 20
26.749840124407303
 30
0.0
  0
VERTEX
  8
0
 10
21.12227669376618
 20
26.745058257212897
 30
0.0
  0
VERTEX
  8
0
 10
21.127686377685684
 20
26.74026666089837
 30
0.0
  0
VERTEX
  8
0
 10
21.13307933924376
 20
26.73546539129798
 30
0.0
  0
VERTEX
  8
0
 10
21.138455578440414
 20
26.730654504245983
 30
0.0
  0
VERTEX
  8
0
 10
21.143815095275656
 20
26.72583405557665
 30
0.0
  0
VERTEX
  8
0
 10
21.149157889749475
 20
26.721004101124244
 30
0.0
  0
VERTEX
  8
0
 10
21.154483961861867
 20
26.716164696723016
 30
0.0
  0
VERTEX
  8
0
 10
21.159793311612848
 20
26.71131589820724
 30
0.0
  0
VERTEX
  8
0
 10
21.165085939002402
 20
26.706457761411166
 30
0.0
  0
VERTEX
  8
0
 10
21.170361844030534
 20
26.701590342169062
 30
0.0
  0
VERTEX
  8
0
 10
21.175621026697243
 20
26.696713696315182
 30
0.0
  0
VERTEX
  8
0
 10
21.18086348700254
 20
26.691827879683803
 30
0.0
  0
VERTEX
  8
0
 10
21.186089224946414
 20
26.68693294810918
 30
0.0
  0
VERTEX
  8
0
 10
21.191298240528866
 20
26.682028957425572
 30
0.0
  0
VERTEX
  8
0
 10
21.196490533749902
 20
26.677115963467248
 30
0.0
  0
VERTEX
  8
0
 10
21.201666104609515
 20
26.67219402206846
 30
0.0
  0
VERTEX
  8
0
 10
21.206824953107706
 20
26.667263189063473
 30
0.0
  0
VERTEX
  8
0
 10
21.211967079244477
 20
26.662323520286552
 30
0.0
  0
VERTEX
  8
0
 10
21.217092483019833
 20
26.657375071571956
 30
0.0
  0
VERTEX
  8
0
 10
21.222201164433766
 20
26.652417898753956
 30
0.0
  0
VERTEX
  8
0
 10
21.227293123486277
 20
26.647452057666797
 30
0.0
  0
VERTEX
  8
0
 10
21.23236836017737
 20
26.642477604144755
 30
0.0
  0
VERTEX
  8
0
 10
21.23742687450704
 20
26.637494594022076
 30
0.0
  0
VERTEX
  8
0
 10
21.24246866647529
 20
26.63250308313304
 30
0.0
  0
VERTEX
  8
0
 10
21.247493736082117
 20
26.627503127311904
 30
0.0
  0
VERTEX
  8
0
 10
21.252502083327528
 20
26.622494782392923
 30
0.0
  0
VERTEX
  8
0
 10
21.257493708211516
 20
26.61747810421036
 30
0.0
  0
VERTEX
  8
0
 10
21.262468610734082
 20
26.612453148598483
 30
0.0
  0
VERTEX
  8
0
 10
21.267426790895232
 20
26.607419971391554
 30
0.0
  0
VERTEX
  8
0
 10
21.272368248694956
 20
26.602378628423818
 30
0.0
  0
VERTEX
  8
0
 10
21.27729298413327
 20
26.597329175529563
 30
0.0
  0
VERTEX
  8
0
 10
21.282200997210154
 20
26.59227166854303
 30
0.0
  0
VERTEX
  8
0
 10
21.287092287925617
 20
26.58720616329849
 30
0.0
  0
VERTEX
  8
0
 10
21.291966856279664
 20
26.582132715630213
 30
0.0
  0
VERTEX
  8
0
 10
21.29682470227229
 20
26.577051381372442
 30
0.0
  0
VERTEX
  8
0
 10
21.301665825903495
 20
26.57196221635945
 30
0.0
  0
VERTEX
  8
0
 10
21.306490227173278
 20
26.566865276425496
 30
0.0
  0
VERTEX
  8
0
 10
21.311297906081645
 20
26.561760617404847
 30
0.0
  0
VERTEX
  8
0
 10
21.316088862628586
 20
26.556648295131758
 30
0.0
  0
VERTEX
  8
0
 10
21.320863096814115
 20
26.55152836544049
 30
0.0
  0
VERTEX
  8
0
 10
21.325620608638218
 20
26.546400884165315
 30
0.0
  0
VERTEX
  8
0
 10
21.330361398100894
 20
26.541265907140485
 30
0.0
  0
VERTEX
  8
0
 10
21.335085465202162
 20
26.536123490200268
 30
0.0
  0
VERTEX
  8
0
 10
21.339792809941997
 20
26.530973689178918
 30
0.0
  0
VERTEX
  8
0
 10
21.344483432320423
 20
26.525816559910705
 30
0.0
  0
VERTEX
  8
0
 10
21.34915733233742
 20
26.520652158229886
 30
0.0
  0
VERTEX
  8
0
 10
21.353814509993004
 20
26.515480539970728
 30
0.0
  0
VERTEX
  8
0
 10
21.358454965287162
 20
26.510301760967486
 30
0.0
  0
VERTEX
  8
0
 10
21.3630786982199
 20
26.50511587705443
 30
0.0
  0
VERTEX
  8
0
 10
21.36768570879122
 20
26.49992294406581
 30
0.0
  0
VERTEX
  8
0
 10
21.372275997001125
 20
26.4947230178359
 30
0.0
  0
VERTEX
  8
0
 10
21.3768495628496
 20
26.48951615419895
 30
0.0
  0
VERTEX
  8
0
 10
21.38140640633666
 20
26.484302408989233
 30
0.0
  0
VERTEX
  8
0
 10
21.3859465274623
 20
26.479081838041004
 30
0.0
  0
VERTEX
  8
0
 10
21.390469926226515
 20
26.473854497188533
 30
0.0
  0
VERTEX
  8
0
 10
21.394976602629313
 20
26.468620442266072
 30
0.0
  0
VERTEX
  8
0
 10
21.39946655667069
 20
26.463379729107885
 30
0.0
  0
VERTEX
  8
0
 10
21.403939788350645
 20
26.458132413548242
 30
0.0
  0
VERTEX
  8
0
 10
21.40839629766918
 20
26.452878551421392
 30
0.0
  0
VERTEX
  8
0
 10
21.412836084626296
 20
26.447618198561607
 30
0.0
  0
VERTEX
  8
0
 10
21.41725914922199
 20
26.442351410803145
 30
0.0
  0
VERTEX
  8
0
 10
21.421665491456267
 20
26.437078243980267
 30
0.0
  0
VERTEX
  8
0
 10
21.426055111329124
 20
26.431798753927236
 30
0.0
  0
VERTEX
  8
0
 10
21.430428008840558
 20
26.426512996478312
 30
0.0
  0
VERTEX
  8
0
 10
21.43478418399057
 20
26.42122102746776
 30
0.0
  0
VERTEX
  8
0
 10
21.43912363677916
 20
26.41592290272984
 30
0.0
  0
VERTEX
  8
0
 10
21.443446367206334
 20
26.41061867809882
 30
0.0
  0
VERTEX
  8
0
 10
21.44775237527209
 20
26.40530840940895
 30
0.0
  0
VERTEX
  8
0
 10
21.45204166097642
 20
26.399992152494498
 30
0.0
  0
VERTEX
  8
0
 10
21.45631422431933
 20
26.394669963189727
 30
0.0
  0
VERTEX
  8
0
 10
21.46057006530082
 20
26.389341897328897
 30
0.0
  0
VERTEX
  8
0
 10
21.46480918392089
 20
26.38400801074627
 30
0.0
  0
VERTEX
  8
0
 10
21.469031580179543
 20
26.37866835927611
 30
0.0
  0
VERTEX
  8
0
 10
21.47323725407677
 20
26.373322998752677
 30
0.0
  0
VERTEX
  8
0
 10
21.477426205612588
 20
26.367971985010232
 30
0.0
  0
VERTEX
  8
0
 10
21.48159843478697
 20
26.362615373883035
 30
0.0
  0
VERTEX
  8
0
 10
21.48575394159994
 20
26.357253221205358
 30
0.0
  0
VERTEX
  8
0
 10
21.48989272605149
 20
26.351885582811448
 30
0.0
  0
VERTEX
  8
0
 10
21.494014788141616
 20
26.34651251453558
 30
0.0
  0
VERTEX
  8
0
 10
21.498120127870322
 20
26.341134072212007
 30
0.0
  0
VERTEX
  8
0
 10
21.502208745237613
 20
26.335750311674992
 30
0.0
  0
VERTEX
  8
0
 10
21.506280640243478
 20
26.3303612887588
 30
0.0
  0
VERTEX
  8
0
 10
21.510335812887924
 20
26.3249670592977
 30
0.0
  0
VERTEX
  8
0
 10
21.51437426317095
 20
26.31956767912593
 30
0.0
  0
VERTEX
  8
0
 10
21.518395991092557
 20
26.314163204077776
 30
0.0
  0
VERTEX
  8
0
 10
21.522400996652742
 20
26.30875368998749
 30
0.0
  0
VERTEX
  8
0
 10
21.526389279851504
 20
26.303339192689336
 30
0.0
  0
VERTEX
  8
0
 10
21.53036084068885
 20
26.29791976801758
 30
0.0
  0
VERTEX
  8
0
 10
21.534315679164774
 20
26.29249547180647
 30
0.0
  0
VERTEX
  8
0
 10
21.538253795279278
 20
26.28706635989028
 30
0.0
  0
VERTEX
  8
0
 10
21.542175189032363
 20
26.281632488103266
 30
0.0
  0
VERTEX
  8
0
 10
21.546079860424022
 20
26.276193912279695
 30
0.0
  0
VERTEX
  8
0
 10
21.549967809454266
 20
26.270750688253827
 30
0.0
  0
VERTEX
  8
0
 10
21.553839036123087
 20
26.26530287185992
 30
0.0
  0
VERTEX
  8
0
 10
21.557693540430492
 20
26.25985051893224
 30
0.0
  0
VERTEX
  8
0
 10
21.56153132237647
 20
26.254393685305047
 30
0.0
  0
VERTEX
  8
0
 10
21.56535238196103
 20
26.2489324268126
 30
0.0
  0
VERTEX
  8
0
 10
21.56915671918417
 20
26.243466799289166
 30
0.0
  0
VERTEX
  8
0
 10
21.572944334045893
 20
26.237996858569012
 30
0.0
  0
VERTEX
  8
0
 10
21.57671522654619
 20
26.232522660486385
 30
0.0
  0
VERTEX
  8
0
 10
21.58046939668507
 20
26.22704426087555
 30
0.0
  0
VERTEX
  8
0
 10
21.58420684446253
 20
26.221561715570786
 30
0.0
  0
VERTEX
  8
0
 10
21.587927569878566
 20
26.21607508040634
 30
0.0
  0
VERTEX
  8
0
 10
21.591631572933185
 20
26.21058441121647
 30
0.0
  0
VERTEX
  8
0
 10
21.59531885362638
 20
26.205089763835446
 30
0.0
  0
VERTEX
  8
0
 10
21.59898941195816
 20
26.199591194097536
 30
0.0
  0
VERTEX
  8
0
 10
21.602643247928516
 20
26.194088757836987
 30
0.0
  0
VERTEX
  8
0
 10
21.606280361537454
 20
26.188582510888065
 30
0.0
  0
VERTEX
  8
0
 10
21.60990075278497
 20
26.183072509085036
 30
0.0
  0
VERTEX
  8
0
 10
21.613504421671067
 20
26.177558808262162
 30
0.0
  0
VERTEX
  8
0
 10
21.61709136819574
 20
26.172041464253702
 30
0.0
  0
VERTEX
  8
0
 10
21.620661592358992
 20
26.16652053289392
 30
0.0
  0
VERTEX
  8
0
 10
21.624215094160828
 20
26.160996070017074
 30
0.0
  0
VERTEX
  8
0
 10
21.627751873601248
 20
26.155468131457432
 30
0.0
  0
VERTEX
  8
0
 10
21.63127193068024
 20
26.149936773049248
 30
0.0
  0
VERTEX
  8
0
 10
21.63477526539781
 20
26.1444020506268
 30
0.0
  0
VERTEX
  8
0
 10
21.638261877753962
 20
26.13886402002432
 30
0.0
  0
VERTEX
  8
0
 10
21.641731767748695
 20
26.1333227370761
 30
0.0
  0
VERTEX
  8
0
 10
21.64518493538201
 20
26.12777825761639
 30
0.0
  0
VERTEX
  8
0
 10
21.6486213806539
 20
26.12223063747945
 30
0.0
  0
VERTEX
  8
0
 10
21.652041103564372
 20
26.116679932499537
 30
0.0
  0
VERTEX
  8
0
 10
21.65544410411342
 20
26.111126198510927
 30
0.0
  0
VERTEX
  8
0
 10
21.65883038230105
 20
26.10556949134787
 30
0.0
  0
VERTEX
  8
0
 10
21.662199938127262
 20
26.10000986684464
 30
0.0
  0
VERTEX
  8
0
 10
21.665552771592054
 20
26.094447380835483
 30
0.0
  0
VERTEX
  8
0
 10
21.66888888269542
 20
26.08888208915467
 30
0.0
  0
VERTEX
  8
0
 10
21.67220827143737
 20
26.08331404763646
 30
0.0
  0
VERTEX
  8
0
 10
21.6755109378179
 20
26.077743312115118
 30
0.0
  0
VERTEX
  8
0
 10
21.678796881837005
 20
26.072169938424906
 30
0.0
  0
VERTEX
  8
0
 10
21.68206610349469
 20
26.06659398240008
 30
0.0
  0
VERTEX
  8
0
 10
21.685318602790964
 20
26.061015499874912
 30
0.0
  0
VERTEX
  8
0
 10
21.688554379725808
 20
26.055434546683657
 30
0.0
  0
VERTEX
  8
0
 10
21.691773434299236
 20
26.049851178660568
 30
0.0
  0
VERTEX
  8
0
 10
21.69497576651124
 20
26.044265451639923
 30
0.0
  0
VERTEX
  8
0
 10
21.69816137636183
 20
26.03867742145598
 30
0.0
  0
VERTEX
  8
0
 10
21.701330263850995
 20
26.033087143942993
 30
0.0
  0
VERTEX
  8
0
 10
21.704482428978736
 20
26.027494674935227
 30
0.0
  0
VERTEX
  8
0
 10
21.70761787174506
 20
26.021900070266952
 30
0.0
  0
VERTEX
  8
0
 10
21.710736592149964
 20
26.016303385772417
 30
0.0
  0
VERTEX
  8
0
 10
21.71383859019345
 20
26.0107046772859
 30
0.0
  0
VERTEX
  8
0
 10
21.716923865875515
 20
26.005104000641644
 30
0.0
  0
VERTEX
  8
0
 10
21.71999241919616
 20
25.999501411673926
 30
0.0
  0
VERTEX
  8
0
 10
21.723044250155375
 20
25.993896966217
 30
0.0
  0
VERTEX
  8
0
 10
21.726079358753182
 20
25.98829072010513
 30
0.0
  0
VERTEX
  8
0
 10
21.72909774498956
 20
25.982682729172573
 30
0.0
  0
VERTEX
  8
0
 10
21.73209940886452
 20
25.9770730492536
 30
0.0
  0
VERTEX
  8
0
 10
21.735084350378067
 20
25.97146173618247
 30
0.0
  0
VERTEX
  8
0
 10
21.738052569530183
 20
25.96584884579344
 30
0.0
  0
VERTEX
  8
0
 10
21.741004066320883
 20
25.960234433920775
 30
0.0
  0
VERTEX
  8
0
 10
21.743938840750165
 20
25.954618556398735
 30
0.0
  0
VERTEX
  8
0
 10
21.746856892818023
 20
25.94900126906159
 30
0.0
  0
VERTEX
  8
0
 10
21.749758222524463
 20
25.94338262774359
 30
0.0
  0
VERTEX
  8
0
 10
21.752642829869487
 20
25.937762688279008
 30
0.0
  0
VERTEX
  8
0
 10
21.75551071485308
 20
25.932141506502095
 30
0.0
  0
VERTEX
  8
0
 10
21.758361877475256
 20
25.926519138247116
 30
0.0
  0
VERTEX
  8
0
 10
21.761196317736015
 20
25.920895639348338
 30
0.0
  0
VERTEX
  8
0
 10
21.76401403563535
 20
25.915271065640017
 30
0.0
  0
VERTEX
  8
0
 10
21.76681503117327
 20
25.909645472956427
 30
0.0
  0
VERTEX
  8
0
 10
21.769599304349768
 20
25.904018917131808
 30
0.0
  0
VERTEX
  8
0
 10
21.77236685516484
 20
25.89839145400044
 30
0.0
  0
VERTEX
  8
0
 10
21.775117683618497
 20
25.89276313939658
 30
0.0
  0
VERTEX
  8
0
 10
21.77785178971073
 20
25.88713402915448
 30
0.0
  0
VERTEX
  8
0
 10
21.780569173441542
 20
25.88150417910842
 30
0.0
  0
VERTEX
  8
0
 10
21.78326983481094
 20
25.87587364509265
 30
0.0
  0
VERTEX
  8
0
 10
21.78595377381891
 20
25.870242482941432
 30
0.0
  0
VERTEX
  8
0
 10
21.788620990465468
 20
25.864610748489035
 30
0.0
  0
VERTEX
  8
0
 10
21.791271484750602
 20
25.858978497569712
 30
0.0
  0
VERTEX
  8
0
 10
21.793905256674314
 20
25.853345786017734
 30
0.0
  0
VERTEX
  8
0
 10
21.796522306236604
 20
25.847712669667352
 30
0.0
  0
VERTEX
  8
0
 10
21.799122633437477
 20
25.842079204352835
 30
0.0
  0
VERTEX
  8
0
 10
21.801706238276928
 20
25.836445445908446
 30
0.0
  0
VERTEX
  8
0
 10
21.804273120754956
 20
25.83081145016844
 30
0.0
  0
VERTEX
  8
0
 10
21.80682328087157
 20
25.825177272967085
 30
0.0
  0
VERTEX
  8
0
 10
21.80935671862676
 20
25.81954297013864
 30
0.0
  0
VERTEX
  8
0
 10
21.81187343402053
 20
25.81390859751737
 30
0.0
  0
VERTEX
  8
0
 10
21.814373427052878
 20
25.808274210937533
 30
0.0
  0
VERTEX
  8
0
 10
21.81685669772381
 20
25.802639866233392
 30
0.0
  0
VERTEX
  8
0
 10
21.819323246033317
 20
25.797005619239208
 30
0.0
  0
VERTEX
  8
0
 10
21.821773071981404
 20
25.791371525789245
 30
0.0
  0
VERTEX
  8
0
 10
21.824206175568072
 20
25.785737641717766
 30
0.0
  0
VERTEX
  8
0
 10
21.82662255679332
 20
25.78010402285903
 30
0.0
  0
VERTEX
  8
0
 10
21.829022215657147
 20
25.774470725047298
 30
0.0
  0
VERTEX
  8
0
 10
21.831405152159554
 20
25.768837804116835
 30
0.0
  0
VERTEX
  8
0
 10
21.833771366300542
 20
25.7632053159019
 30
0.0
  0
VERTEX
  8
0
 10
21.836120858080104
 20
25.75757331623676
 30
0.0
  0
VERTEX
  8
0
 10
21.838453627498254
 20
25.751941860955668
 30
0.0
  0
VERTEX
  8
0
 10
21.840769674554977
 20
25.746311005892892
 30
0.0
  0
VERTEX
  8
0
 10
21.84306899925028
 20
25.740680806882693
 30
0.0
  0
VERTEX
  8
0
 10
21.845351601584163
 20
25.735051319759336
 30
0.0
  0
VERTEX
  8
0
 10
21.84761748155663
 20
25.729422600357072
 30
0.0
  0
VERTEX
  8
0
 10
21.849866639167672
 20
25.723794704510173
 30
0.0
  0
VERTEX
  8
0
 10
21.852099074417296
 20
25.7181676880529
 30
0.0
  0
VERTEX
  8
0
 10
21.854314787305498
 20
25.71254160681951
 30
0.0
  0
VERTEX
  8
0
 10
21.856513777832284
 20
25.70691651664427
 30
0.0
  0
VERTEX
  8
0
 10
21.858696045997643
 20
25.70129247336144
 30
0.0
  0
VERTEX
  8
0
 10
21.860861591801584
 20
25.695669532805276
 30
0.0
  0
VERTEX
  8
0
 10
21.863010415244105
 20
25.690047750810052
 30
0.0
  0
VERTEX
  8
0
 10
21.865142516325207
 20
25.68442718321002
 30
0.0
  0
VERTEX
  8
0
 10
21.867257895044887
 20
25.678807885839444
 30
0.0
  0
VERTEX
  8
0
 10
21.869356551403143
 20
25.673189914532585
 30
0.0
  0
VERTEX
  8
0
 10
21.871438485399985
 20
25.667573325123712
 30
0.0
  0
VERTEX
  8
0
 10
21.873503697035403
 20
25.661958173447076
 30
0.0
  0
VERTEX
  8
0
 10
21.875552186309406
 20
25.656344515336947
 30
0.0
  0
VERTEX
  8
0
 10
21.87758395322198
 20
25.650732406627583
 30
0.0
  0
VERTEX
  8
0
 10
21.87959899777314
 20
25.645121903153246
 30
0.0
  0
VERTEX
  8
0
 10
21.881597319962875
 20
25.6395130607482
 30
0.0
  0
VERTEX
  8
0
 10
21.883578919791198
 20
25.63390593524671
 30
0.0
  0
VERTEX
  8
0
 10
21.885543797258087
 20
25.62830058248303
 30
0.0
  0
VERTEX
  8
0
 10
21.88749195236357
 20
25.622697058291422
 30
0.0
  0
VERTEX
  8
0
 10
21.889423385107623
 20
25.617095418506153
 30
0.0
  0
VERTEX
  8
0
 10
21.891338095490262
 20
25.611495718961482
 30
0.0
  0
VERTEX
  8
0
 10
21.893236083511475
 20
25.605898015491675
 30
0.0
  0
VERTEX
  8
0
 10
21.895117349171265
 20
25.600302363930986
 30
0.0
  0
VERTEX
  8
0
 10
21.89698189246964
 20
25.59470882011368
 30
0.0
  0
VERTEX
  8
0
 10
21.898829713406595
 20
25.589117439874023
 30
0.0
  0
VERTEX
  8
0
 10
21.900660811982128
 20
25.583528279046277
 30
0.0
  0
VERTEX
  8
0
 10
21.90247518819624
 20
25.577941393464698
 30
0.0
  0
VERTEX
  8
0
 10
21.904272842048933
 20
25.57235683896355
 30
0.0
  0
VERTEX
  8
0
 10
21.906053773540208
 20
25.566774671377097
 30
0.0
  0
VERTEX
  8
0
 10
21.90781798267006
 20
25.5611949465396
 30
0.0
  0
VERTEX
  8
0
 10
21.909565469438494
 20
25.555617720285326
 30
0.0
  0
VERTEX
  8
0
 10
21.9112962338455
 20
25.55004304844852
 30
0.0
  0
VERTEX
  8
0
 10
21.91301027589109
 20
25.54447098686346
 30
0.0
  0
VERTEX
  8
0
 10
21.914707595575262
 20
25.5389015913644
 30
0.0
  0
VERTEX
  8
0
 10
21.91638819289801
 20
25.53333491778561
 30
0.0
  0
VERTEX
  8
0
 10
21.918052067859342
 20
25.527771021961343
 30
0.0
  0
VERTEX
  8
0
 10
21.91969922045925
 20
25.522209959725863
 30
0.0
  0
VERTEX
  8
0
 10
21.921329650697743
 20
25.516651786913435
 30
0.0
  0
VERTEX
  8
0
 10
21.92294335857481
 20
25.511096559358318
 30
0.0
  0
VERTEX
  8
0
 10
21.92454034409046
 20
25.505544332894775
 30
0.0
  0
VERTEX
  8
0
 10
21.926120607244684
 20
25.499995163357067
 30
0.0
  0
VERTEX
  8
0
 10
21.927684148037493
 20
25.49444910657946
 30
0.0
  0
VERTEX
  8
0
 10
21.92923096646888
 20
25.48890621839621
 30
0.0
  0
VERTEX
  8
0
 10
21.930761062538842
 20
25.48336655464158
 30
0.0
  0
VERTEX
  8
0
 10
21.93227443624739
 20
25.47783017114983
 30
0.0
  0
VERTEX
  8
0
 10
21.933771087594515
 20
25.472297123755233
 30
0.0
  0
VERTEX
  8
0
 10
21.93525101658022
 20
25.466767468292037
 30
0.0
  0
VERTEX
  8
0
 10
21.936714223204508
 20
25.461241260594512
 30
0.0
  0
VERTEX
  8
0
 10
21.93816070746737
 20
25.45571855649692
 30
0.0
  0
VERTEX
  8
0
 10
21.939590469368817
 20
25.45019941183351
 30
0.0
  0
VERTEX
  8
0
 10
21.941003508908835
 20
25.44468388243856
 30
0.0
  0
VERTEX
  8
0
 10
21.942399826087442
 20
25.43917202414633
 30
0.0
  0
VERTEX
  8
0
 10
21.943779420904626
 20
25.433663892791074
 30
0.0
  0
VERTEX
  8
0
 10
21.945142293360387
 20
25.428159544207055
 30
0.0
  0
VERTEX
  8
0
 10
21.946488443454726
 20
25.422659034228538
 30
0.0
  0
VERTEX
  8
0
 10
21.947817871187652
 20
25.417162418689788
 30
0.0
  0
VERTEX
  8
0
 10
21.94913057655915
 20
25.411669753425056
 30
0.0
  0
VERTEX
  8
0
 10
21.95042655956923
 20
25.406181094268618
 30
0.0
  0
VERTEX
  8
0
 10
21.951705820217892
 20
25.400696497054724
 30
0.0
  0
VERTEX
  8
0
 10
21.95296835850513
 20
25.39521601761765
 30
0.0
  0
VERTEX
  8
0
 10
21.954214174430955
 20
25.389739711791638
 30
0.0
  0
VERTEX
  8
0
 10
21.95544326799535
 20
25.38426763541096
 30
0.0
  0
VERTEX
  8
0
 10
21.956655639198328
 20
25.37879984430988
 30
0.0
  0
VERTEX
  8
0
 10
21.957851288039887
 20
25.373336394322664
 30
0.0
  0
VERTEX
  8
0
 10
21.959030214520027
 20
25.36787734128356
 30
0.0
  0
VERTEX
  8
0
 10
21.960192418638744
 20
25.36242274102684
 30
0.0
  0
VERTEX
  8
0
 10
21.96133790039604
 20
25.356972649386766
 30
0.0
  0
VERTEX
  8
0
 10
21.962466659791918
 20
25.351527122197595
 30
0.0
  0
VERTEX
  8
0
 10
21.963578696826374
 20
25.34608621529359
 30
0.0
  0
VERTEX
  8
0
 10
21.96467401149941
 20
25.340649984509014
 30
0.0
  0
VERTEX
  8
0
 10
21.965752603811026
 20
25.335218485678134
 30
0.0
  0
VERTEX
  8
0
 10
21.96681447376122
 20
25.329791774635204
 30
0.0
  0
VERTEX
  8
0
 10
21.967859621349994
 20
25.324369907214482
 30
0.0
  0
VERTEX
  8
0
 10
21.96888804657735
 20
25.318952939250245
 30
0.0
  0
VERTEX
  8
0
 10
21.969899749443286
 20
25.313540926576735
 30
0.0
  0
VERTEX
  8
0
 10
21.970894729947798
 20
25.308133925028237
 30
0.0
  0
VERTEX
  8
0
 10
21.97187298809089
 20
25.302731990438993
 30
0.0
  0
VERTEX
  8
0
 10
21.972834523872567
 20
25.29733517864328
 30
0.0
  0
VERTEX
  8
0
 10
21.973779337292818
 20
25.29194354547535
 30
0.0
  0
VERTEX
  8
0
 10
21.974707428351646
 20
25.286557146769464
 30
0.0
  0
VERTEX
  8
0
 10
21.975618797049062
 20
25.281176038359888
 30
0.0
  0
VERTEX
  8
0
 10
21.97651344338505
 20
25.275800276080883
 30
0.0
  0
VERTEX
  8
0
 10
21.977391367359623
 20
25.270429915766712
 30
0.0
  0
VERTEX
  8
0
 10
21.978252568972774
 20
25.265065013251636
 30
0.0
  0
VERTEX
  8
0
 10
21.979097048224506
 20
25.259705624369914
 30
0.0
  0
VERTEX
  8
0
 10
21.979924805114813
 20
25.25435180495581
 30
0.0
  0
VERTEX
  8
0
 10
21.980735839643703
 20
25.249003610843587
 30
0.0
  0
VERTEX
  8
0
 10
21.98153015181117
 20
25.243661097867513
 30
0.0
  0
VERTEX
  8
0
 10
21.98230774161722
 20
25.238324321861832
 30
0.0
  0
VERTEX
  8
0
 10
21.98306860906185
 20
25.232993338660823
 30
0.0
  0
VERTEX
  8
0
 10
21.983812754145053
 20
25.227668204098737
 30
0.0
  0
VERTEX
  8
0
 10
21.984540176866844
 20
25.222348974009844
 30
0.0
  0
VERTEX
  8
0
 10
21.98525087722721
 20
25.2170357042284
 30
0.0
  0
VERTEX
  8
0
 10
21.985944855226155
 20
25.211728450588673
 30
0.0
  0
VERTEX
  8
0
 10
21.98662211086368
 20
25.20642726892492
 30
0.0
  0
VERTEX
  8
0
 10
21.987282644139786
 20
25.2011322150714
 30
0.0
  0
VERTEX
  8
0
 10
21.987926455054474
 20
25.19584334486238
 30
0.0
  0
VERTEX
  8
0
 10
21.988553543607736
 20
25.19056071413212
 30
0.0
  0
VERTEX
  8
0
 10
21.989163909799583
 20
25.185284378714883
 30
0.0
  0
VERTEX
  8
0
 10
21.98975755363001
 20
25.18001439444493
 30
0.0
  0
VERTEX
  8
0
 10
21.990334475099008
 20
25.17475081715652
 30
0.0
  0
VERTEX
  8
0
 10
21.990894674206594
 20
25.169493702683923
 30
0.0
  0
VERTEX
  8
0
 10
21.991438150952757
 20
25.164243106861395
 30
0.0
  0
VERTEX
  8
0
 10
21.9919649053375
 20
25.158999085523195
 30
0.0
  0
VERTEX
  8
0
 10
21.99247493736082
 20
25.153761694503594
 30
0.0
  0
VERTEX
  8
0
 10
21.992968247022723
 20
25.14853098963684
 30
0.0
  0
VERTEX
  8
0
 10
21.993444834323203
 20
25.143307026757206
 30
0.0
  0
VERTEX
  8
0
 10
21.993904699262266
 20
25.13808986169895
 30
0.0
  0
VERTEX
  8
0
 10
21.994347841839907
 20
25.132879550296337
 30
0.0
  0
VERTEX
  8
0
 10
21.994774262056126
 20
25.127676148383628
 30
0.0
  0
VERTEX
  8
0
 10
21.995183959910925
 20
25.12247971179508
 30
0.0
  0
VERTEX
  8
0
 10
21.995576935404305
 20
25.117290296364956
 30
0.0
  0
VERTEX
  8
0
 10
21.995953188536262
 20
25.112107957927527
 30
0.0
  0
VERTEX
  8
0
 10
21.996312719306804
 20
25.106932752317043
 30
0.0
  0
VERTEX
  8
0
 10
21.99665552771592
 20
25.10176473536777
 30
0.0
  0
VERTEX
  8
0
 10
21.99698161376362
 20
25.09660396291397
 30
0.0
  0
VERTEX
  8
0
 10
21.997290977449897
 20
25.09145049078991
 30
0.0
  0
VERTEX
  8
0
 10
21.99758361877475
 20
25.08630437482984
 30
0.0
  0
VERTEX
  8
0
 10
21.99785953773819
 20
25.081165670868035
 30
0.0
  0
VERTEX
  8
0
 10
21.998118734340206
 20
25.076034434738748
 30
0.0
  0
VERTEX
  8
0
 10
21.998361208580803
 20
25.070910722276246
 30
0.0
  0
VERTEX
  8
0
 10
21.998586960459974
 20
25.065794589314784
 30
0.0
  0
VERTEX
  8
0
 10
21.99879598997773
 20
25.06068609168863
 30
0.0
  0
VERTEX
  8
0
 10
21.998988297134066
 20
25.05558528523205
 30
0.0
  0
VERTEX
  8
0
 10
21.99916388192898
 20
25.050492225779294
 30
0.0
  0
VERTEX
  8
0
 10
21.999322744362473
 20
25.04540696916463
 30
0.0
  0
VERTEX
  8
0
 10
21.999464884434545
 20
25.04032957122232
 30
0.0
  0
VERTEX
  8
0
 10
21.9995903021452
 20
25.03526008778663
 30
0.0
  0
VERTEX
  8
0
 10
21.999698997494434
 20
25.03019857469181
 30
0.0
  0
VERTEX
  8
0
 10
21.999790970482245
 20
25.025145087772135
 30
0.0
  0
VERTEX
  8
0
 10
21.99986622110864
 20
25.020099682861858
 30
0.0
  0
VERTEX
  8
0
 10
21.999924749373605
 20
25.015062415795242
 30
0.0
  0
VERTEX
  8
0
 10
21.999966555277158
 20
25.010033342406558
 30
0.0
  0
VERTEX
  8
0
 10
21.99999163881929
 20
25.00501251853005
 30
0.0
  0
VERTEX
  8
0
 10
22.0
 20
25.0
 30
0.0
  0
VERTEX
  8
0
 10
22.0
 20
25.0
 30
0.0
  0
VERTEX
  8
0
 10
21.999777407378236
 20
24.983388795677275
 30
0.0
  0
VERTEX
  8
0
 10
21.999111118049097
 20
24.966942866197254
 30
0.0
  0
VERTEX
  8
0
 10
21.998003364239615
 20
24.950660271294016
 30
0.0
  0
VERTEX
  8
0
 10
21.99645637739127
 20
24.934539079945075
 30
0.0
  0
VERTEX
  8
0
 10
21.994472388140096
 20
24.918577370332475
 30
0.0
  0
VERTEX
  8
0
 10
21.99205362629676
 20
24.90277322980391
 30
0.0
  0
VERTEX
  8
0
 10
21.989202320826625
 20
24.887124754833785
 30
0.0
  0
VERTEX
  8
0
 10
21.985920699829844
 20
24.871630050984326
 30
0.0
  0
VERTEX
  8
0
 10
21.982210990521445
 20
24.856287232866695
 30
0.0
  0
VERTEX
  8
0
 10
21.978075419211425
 20
24.841094424102085
 30
0.0
  0
VERTEX
  8
0
 10
21.97351621128478
 20
24.826049757282778
 30
0.0
  0
VERTEX
  8
0
 10
21.968535591181656
 20
24.811151373933285
 30
0.0
  0
VERTEX
  8
0
 10
21.963135782377357
 20
24.79639742447141
 30
0.0
  0
VERTEX
  8
0
 10
21.957319007362504
 20
24.781786068169374
 30
0.0
  0
VERTEX
  8
0
 10
21.951087487623045
 20
24.76731547311491
 30
0.0
  0
VERTEX
  8
0
 10
21.944443443620397
 20
24.752983816172318
 30
0.0
  0
VERTEX
  8
0
 10
21.93738909477148
 20
24.73878928294362
 30
0.0
  0
VERTEX
  8
0
 10
21.929926659428826
 20
24.72473006772963
 30
0.0
  0
VERTEX
  8
0
 10
21.92205835486065
 20
24.710804373491044
 30
0.0
  0
VERTEX
  8
0
 10
21.913786397230936
 20
24.69701041180954
 30
0.0
  0
VERTEX
  8
0
 10
21.905113001579508
 20
24.683346402848866
 30
0.0
  0
VERTEX
  8
0
 10
21.89604038180215
 20
24.669810575315985
 30
0.0
  0
VERTEX
  8
0
 10
21.886570750630607
 20
24.656401166422096
 30
0.0
  0
VERTEX
  8
0
 10
21.87670631961276
 20
24.643116421843793
 30
0.0
  0
VERTEX
  8
0
 10
21.866449299092636
 20
24.629954595684122
 30
0.0
  0
VERTEX
  8
0
 10
21.855801898190556
 20
24.616913950433727
 30
0.0
  0
VERTEX
  8
0
 10
21.84476632478313
 20
24.603992756931884
 30
0.0
  0
VERTEX
  8
0
 10
21.833344785483423
 20
24.59118929432762
 30
0.0
  0
VERTEX
  8
0
 10
21.82153948562098
 20
24.578501850040833
 30
0.0
  0
VERTEX
  8
0
 10
21.809352629221934
 20
24.56592871972339
 30
0.0
  0
VERTEX
  8
0
 10
21.79678641898909
 20
24.553468207220174
 30
0.0
  0
VERTEX
  8
0
 10
21.78384305628198
 20
24.541118624530217
 30
0.0
  0
VERTEX
  8
0
 10
21.770524741096974
 20
24.528878291767814
 30
0.0
  0
VERTEX
  8
0
 10
21.756833672047357
 20
24.516745537123573
 30
0.0
  0
VERTEX
  8
0
 10
21.74277204634338
 20
24.504718696825563
 30
0.0
  0
VERTEX
  8
0
 10
21.72834205977239
 20
24.492796115100358
 30
0.0
  0
VERTEX
  8
0
 10
21.71354590667886
 20
24.48097614413418
 30
0.0
  0
VERTEX
  8
0
 10
21.698385779944527
 20
24.46925714403396
 30
0.0
  0
VERTEX
  8
0
 10
21.68286387096842
 20
24.457637482788467
 30
0.0
  0
VERTEX
  8
0
 10
21.666982369646973
 20
24.44611553622937
 30
0.0
  0
VERTEX
  8
0
 10
21.65074346435409
 20
24.43468968799237
 30
0.0
  0
VERTEX
  8
0
 10
21.63414934192124
 20
24.423358329478262
 30
0.0
  0
VERTEX
  8
0
 10
21.617202187617544
 20
24.412119859814062
 30
0.0
  0
VERTEX
  8
0
 10
21.599904185129827
 20
24.40097268581409
 30
0.0
  0
VERTEX
  8
0
 10
21.582257516542747
 20
24.389915221941074
 30
0.0
  0
VERTEX
  8
0
 10
21.564264362318795
 20
24.3789458902672
 30
0.0
  0
VERTEX
  8
0
 10
21.545926901278477
 20
24.368063120435306
 30
0.0
  0
VERTEX
  8
0
 10
21.527247310580336
 20
24.35726534961987
 30
0.0
  0
VERTEX
  8
0
 10
21.50822776570103
 20
24.346551022488196
 30
0.0
  0
VERTEX
  8
0
 10
21.48887044041544
 20
24.33591859116145
 30
0.0
  0
VERTEX
  8
0
 10
21.469177506776735
 20
24.325366515175787
 30
0.0
  0
VERTEX
  8
0
 10
21.449151135096468
 20
24.31489326144343
 30
0.0
  0
VERTEX
  8
0
 10
21.428793493924637
 20
24.304497304213793
 30
0.0
  0
VERTEX
  8
0
 10
21.408106750029777
 20
24.29417712503455
 30
0.0
  0
VERTEX
  8
0
 10
21.387093068379055
 20
24.28393121271275
 30
0.0
  0
VERTEX
  8
0
 10
21.365754612118323
 20
24.273758063275896
 30
0.0
  0
VERTEX
  8
0
 10
21.344093542552212
 20
24.263656179933037
 30
0.0
  0
VERTEX
  8
0
 10
21.322112019124237
 20
24.253624073035933
 30
0.0
  0
VERTEX
  8
0
 10
21.299812199396843
 20
24.243660260040045
 30
0.0
  0
VERTEX
  8
0
 10
21.277196239031504
 20
24.233763265465708
 30
0.0
  0
VERTEX
  8
0
 10
21.2542662917688
 20
24.2239316208592
 30
0.0
  0
VERTEX
  8
0
 10
21.2310245094085
 20
24.214163864753846
 30
0.0
  0
VERTEX
  8
0
 10
21.207473041789637
 20
24.204458542631098
 30
0.0
  0
VERTEX
  8
0
 10
21.183614036770624
 20
24.194814206881667
 30
0.0
  0
VERTEX
  8
0
 10
21.15944964020926
 20
24.18522941676657
 30
0.0
  0
VERTEX
  8
0
 10
21.13498199594291
 20
24.175702738378295
 30
0.0
  0
VERTEX
  8
0
 10
21.11021324576849
 20
24.166232744601814
 30
0.0
  0
VERTEX
  8
0
 10
21.08514552942263
 20
24.15681801507575
 30
0.0
  0
VERTEX
  8
0
 10
21.059780984561698
 20
24.147457136153434
 30
0.0
  0
VERTEX
  8
0
 10
21.03412174674191
 20
24.138148700864022
 30
0.0
  0
VERTEX
  8
0
 10
21.008169949399406
 20
24.128891308873577
 30
0.0
  0
VERTEX
  8
0
 10
20.981927723830328
 20
24.11968356644618
 30
0.0
  0
VERTEX
  8
0
 10
20.955397199170896
 20
24.110524086405004
 30
0.0
  0
VERTEX
  8
0
 10
20.928580502377518
 20
24.10141148809345
 30
0.0
  0
VERTEX
  8
0
 10
20.90147975820682
 20
24.092344397336202
 30
0.0
  0
VERTEX
  8
0
 10
20.874097089195782
 20
24.083321446400333
 30
0.0
  0
VERTEX
  8
0
 10
20.846434615641773
 20
24.07434127395642
 30
0.0
  0
VERTEX
  8
0
 10
20.81849445558269
 20
24.065402525039648
 30
0.0
  0
VERTEX
  8
0
 10
20.790278724776982
 20
24.05650385101087
 30
0.0
  0
VERTEX
  8
0
 10
20.761789536683736
 20
24.04764390951771
 30
0.0
  0
VERTEX
  8
0
 10
20.73302900244281
 20
24.03882136445569
 30
0.0
  0
VERTEX
  8
0
 10
20.70399923085486
 20
24.030034885929307
 30
0.0
  0
VERTEX
  8
0
 10
20.67470232836144
 20
24.021283150213133
 30
0.0
  0
VERTEX
  8
0
 10
20.645140399025102
 20
24.012564839712894
 30
0.0
  0
VERTEX
  8
0
 10
20.61531554450945
 20
24.00387864292662
 30
0.0
  0
VERTEX
  8
0
 10
20.585229864059237
 20
23.99522325440564
 30
0.0
  0
VERTEX
  8
0
 10
20.554885454480424
 20
23.98659737471581
 30
0.0
  0
VERTEX
  8
0
 10
20.524284410120313
 20
23.977999710398507
 30
0.0
  0
VERTEX
  8
0
 10
20.493428822847562
 20
23.969428973931766
 30
0.0
  0
VERTEX
  8
0
 10
20.462320782032325
 20
23.96088388369137
 30
0.0
  0
VERTEX
  8
0
 10
20.4309623745263
 20
23.952363163911972
 30
0.0
  0
VERTEX
  8
0
 10
20.399355684642803
 20
23.943865544648133
 30
0.0
  0
VERTEX
  8
0
 10
20.367502794136893
 20
23.93538976173547
 30
0.0
  0
VERTEX
  8
0
 10
20.335405782185394
 20
23.926934556751736
 30
0.0
  0
VERTEX
  8
0
 10
20.303066725367028
 20
23.918498676977915
 30
0.0
  0
VERTEX
  8
0
 10
20.270487697642476
 20
23.910080875359334
 30
0.0
  0
VERTEX
  8
0
 10
20.237670770334454
 20
23.901679910466722
 30
0.0
  0
VERTEX
  8
0
 10
20.2046180121078
 20
23.893294546457348
 30
0.0
  0
VERTEX
  8
0
 10
20.17133148894955
 20
23.884923553036092
 30
0.0
  0
VERTEX
  8
0
 10
20.137813264149056
 20
23.87656570541656
 30
0.0
  0
VERTEX
  8
0
 10
20.104065398277985
 20
23.868219784282168
 30
0.0
  0
VERTEX
  8
0
 10
20.07008994917051
 20
23.859884575747227
 30
0.0
  0
VERTEX
  8
0
 10
20.03588897190327
 20
23.851558871318073
 30
0.0
  0
VERTEX
  8
0
 10
20.001464518775585
 20
23.84324146785414
 30
0.0
  0
VERTEX
  8
0
 10
19.966818639289396
 20
23.834931167529046
 30
0.0
  0
VERTEX
  8
0
 10
19.93195338012948
 20
23.826626777791727
 30
0.0
  0
VERTEX
  8
0
 10
19.896870785143445
 20
23.81832711132751
 30
0.0
  0
VERTEX
  8
0
 10
19.861572895321814
 20
23.810030986019182
 30
0.0
  0
VERTEX
  8
0
 10
19.82606174877816
 20
23.801737224908145
 30
0.0
  0
VERTEX
  8
0
 10
19.790339380729147
 20
23.793444656155486
 30
0.0
  0
VERTEX
  8
0
 10
19.754407823474622
 20
23.78515211300305
 30
0.0
  0
VERTEX
  8
0
 10
19.718269106377686
 20
23.77685843373459
 30
0.0
  0
VERTEX
  8
0
 10
19.681925255844796
 20
23.76856246163678
 30
0.0
  0
VERTEX
  8
0
 10
19.645378295305818
 20
23.76026304496042
 30
0.0
  0
VERTEX
  8
0
 10
19.608630245194142
 20
23.751959036881434
 30
0.0
  0
VERTEX
  8
0
 10
19.57168312292675
 20
23.74364929546202
 30
0.0
  0
VERTEX
  8
0
 10
19.53453894288427
 20
23.735332683611745
 30
0.0
  0
VERTEX
  8
0
 10
19.497199716391105
 20
23.727008069048626
 30
0.0
  0
VERTEX
  8
0
 10
19.45966745169549
 20
23.718674324260235
 30
0.0
  0
VERTEX
  8
0
 10
19.421944153949557
 20
23.710330326464774
 30
0.0
  0
VERTEX
  8
0
 10
19.384031825189446
 20
23.70197495757223
 30
0.0
  0
VERTEX
  8
0
 10
19.345932464315382
 20
23.693607104145375
 30
0.0
  0
VERTEX
  8
0
 10
19.30764806707173
 20
23.685225657360977
 30
0.0
  0
VERTEX
  8
0
 10
19.269180626027133
 20
23.67682951297082
 30
0.0
  0
VERTEX
  8
0
 10
19.230532130554504
 20
23.668417571262804
 30
0.0
  0
VERTEX
  8
0
 10
19.1917045668112
 20
23.659988737022072
 30
0.0
  0
VERTEX
  8
0
 10
19.152699917719037
 20
23.651541919492086
 30
0.0
  0
VERTEX
  8
0
 10
19.11352016294443
 20
23.643076032335735
 30
0.0
  0
VERTEX
  8
0
 10
19.074167278878402
 20
23.63458999359642
 30
0.0
  0
VERTEX
  8
0
 10
19.034643238616727
 20
23.626082725659177
 30
0.0
  0
VERTEX
  8
0
 10
18.99495001194001
 20
23.617553155211734
 30
0.0
  0
VERTEX
  8
0
 10
18.955089565293697
 20
23.609000213205622
 30
0.0
  0
VERTEX
  8
0
 10
18.915063861768257
 20
23.600422834817294
 30
0.0
  0
VERTEX
  8
0
 10
18.874874861079192
 20
23.591819959409207
 30
0.0
  0
VERTEX
  8
0
 10
18.83452451954715
 20
23.583190530490906
 30
0.0
  0
VERTEX
  8
0
 10
18.794014790077977
 20
23.574533495680118
 30
0.0
  0
VERTEX
  8
0
 10
18.753347622142844
 20
23.565847806663893
 30
0.0
  0
VERTEX
  8
0
 10
18.712524961758294
 20
23.557132419159647
 30
0.0
  0
VERTEX
  8
0
 10
18.67154875146633
 20
23.548386292876298
 30
0.0
  0
VERTEX
  8
0
 10
18.6304209303145
 20
23.53960839147532
 30
0.0
  0
VERTEX
  8
0
 10
18.58914343383598
 20
23.53079768253189
 30
0.0
  0
VERTEX
  8
0
 10
18.547718194029652
 20
23.52195313749595
 30
0.0
  0
VERTEX
  8
0
 10
18.506147139340186
 20
23.513073731653297
 30
0.0
  0
VERTEX
  8
0
 10
18.464432194638125
 20
23.50415844408674
 30
0.0
  0
VERTEX
  8
0
 10
18.42257528119997
 20
23.49520625763712
 30
0.0
  0
VERTEX
  8
0
 10
18.380578316688243
 20
23.486216158864437
 30
0.0
  0
VERTEX
  8
0
 10
18.338443215131576
 20
23.477187138008965
 30
0.0
  0
VERTEX
  8
0
 10
18.296171886904816
 20
23.468118188952324
 30
0.0
  0
VERTEX
  8
0
 10
18.25376623870908
 20
23.45900830917858
 30
0.0
  0
VERTEX
  8
0
 10
18.211228173551834
 20
23.449856499735358
 30
0.0
  0
VERTEX
  8
0
 10
18.168559590726996
 20
23.440661765194925
 30
0.0
  0
VERTEX
  8
0
 10
18.125762385795007
 20
23.431423113615285
 30
0.0
  0
VERTEX
  8
0
 10
18.082838450562896
 20
23.422139556501282
 30
0.0
  0
VERTEX
  8
0
 10
18.0397896730644
 20
23.412810108765704
 30
0.0
  0
VERTEX
  8
0
 10
17.99661793754001
 20
23.403433788690357
 30
0.0
  0
VERTEX
  8
0
 10
17.953325124417066
 20
23.394009617887175
 30
0.0
  0
VERTEX
  8
0
 10
17.90991311028983
 20
23.384536621259326
 30
0.0
  0
VERTEX
  8
0
 10
17.86638376789959
 20
23.37501382696229
 30
0.0
  0
VERTEX
  8
0
 10
17.82273896611471
 20
23.365440266364978
 30
0.0
  0
VERTEX
  8
0
 10
17.778980569910747
 20
23.355814974010798
 30
0.0
  0
VERTEX
  8
0
 10
17.7351104403505
 20
23.34613698757878
 30
0.0
  0
VERTEX
  8
0
 10
17.69113043456411
 20
23.336405347844654
 30
0.0
  0
VERTEX
  8
0
 10
17.647042405729124
 20
23.326619098641963
 30
0.0
  0
VERTEX
  8
0
 10
17.602848203050613
 20
23.316777286823157
 30
0.0
  0
VERTEX
  8
0
 10
17.558549671741208
 20
23.306878962220647
 30
0.0
  0
VERTEX
  8
0
 10
17.514148653001207
 20
23.296923177607987
 30
0.0
  0
VERTEX
  8
0
 10
17.46964698399866
 20
23.286908988660905
 30
0.0
  0
VERTEX
  8
0
 10
17.425046497849436
 20
23.27683545391839
 30
0.0
  0
VERTEX
  8
0
 10
17.38034902359732
 20
23.266701634743853
 30
0.0
  0
VERTEX
  8
0
 10
17.335556386194078
 20
23.25650659528617
 30
0.0
  0
VERTEX
  8
0
 10
17.29067040647954
 20
23.24624940244078
 30
0.0
  0
VERTEX
  8
0
 10
17.245692901161696
 20
23.235929125810824
 30
0.0
  0
VERTEX
  8
0
 10
17.200625682796776
 20
23.225544837668185
 30
0.0
  0
VERTEX
  8
0
 10
17.155470559769306
 20
23.21509561291464
 30
0.0
  0
VERTEX
  8
0
 10
17.11022933627223
 20
23.20458052904291
 30
0.0
  0
VERTEX
  8
0
 10
17.06490381228695
 20
23.193998666097794
 30
0.0
  0
VERTEX
  8
0
 10
17.019495783563436
 20
23.18334910663723
 30
0.0
  0
VERTEX
  8
0
 10
16.9740070416003
 20
23.172630935693416
 30
0.0
  0
VERTEX
  8
0
 10
16.92843937362487
 20
23.161843240733912
 30
0.0
  0
VERTEX
  8
0
 10
16.882794562573295
 20
23.150985111622713
 30
0.0
  0
VERTEX
  8
0
 10
16.83707438707058
 20
23.140055640581355
 30
0.0
  0
VERTEX
  8
0
 10
16.79128062141072
 20
23.12905392215003
 30
0.0
  0
VERTEX
  8
0
 10
16.745415035536745
 20
23.117979053148655
 30
0.0
  0
VERTEX
  8
0
 10
16.699479395020823
 20
23.106830132637974
 30
0.0
  0
VERTEX
  8
0
 10
16.653475461044327
 20
23.095606261880683
 30
0.0
  0
VERTEX
  8
0
 10
16.60740499037792
 20
23.08430654430248
 30
0.0
  0
VERTEX
  8
0
 10
16.56126973536165
 20
23.0729300854532
 30
0.0
  0
VERTEX
  8
0
 10
16.51507144388501
 20
23.061475992967914
 30
0.0
  0
VERTEX
  8
0
 10
16.468811859367037
 20
23.04994337652798
 30
0.0
  0
VERTEX
  8
0
 10
16.422492720736376
 20
23.03833134782218
 30
0.0
  0
VERTEX
  8
0
 10
16.376115762411388
 20
23.02663902050782
 30
0.0
  0
VERTEX
  8
0
 10
16.329682714280196
 20
23.014865510171784
 30
0.0
  0
VERTEX
  8
0
 10
16.28319530168079
 20
23.003009934291697
 30
0.0
  0
VERTEX
  8
0
 10
16.23665524538113
 20
22.99107141219695
 30
0.0
  0
VERTEX
  8
0
 10
16.190064261559165
 20
22.97904906502985
 30
0.0
  0
VERTEX
  8
0
 10
16.14342406178297
 20
22.966942015706692
 30
0.0
  0
VERTEX
  8
0
 10
16.096736352990803
 20
22.954749388878863
 30
0.0
  0
VERTEX
  8
0
 10
16.050002837471197
 20
22.94247031089392
 30
0.0
  0
VERTEX
  8
0
 10
16.003225212843038
 20
22.93010390975674
 30
0.0
  0
VERTEX
  8
0
 10
15.956405172035632
 20
22.91764931509054
 30
0.0
  0
VERTEX
  8
0
 10
15.909544403268823
 20
22.905105658098048
 30
0.0
  0
VERTEX
  8
0
 10
15.862644590033023
 20
22.89247207152253
 30
0.0
  0
VERTEX
  8
0
 10
15.815707411069344
 20
22.87974768960896
 30
0.0
  0
VERTEX
  8
0
 10
15.768734540349646
 20
22.866931648065044
 30
0.0
  0
VERTEX
  8
0
 10
15.72172764705663
 20
22.854023084022366
 30
0.0
  0
VERTEX
  8
0
 10
15.67468839556392
 20
22.84102113599748
 30
0.0
  0
VERTEX
  8
0
 10
15.627618445416147
 20
22.827924943852974
 30
0.0
  0
VERTEX
  8
0
 10
15.58051945130902
 20
22.81473364875861
 30
0.0
  0
VERTEX
  8
0
 10
15.533393063069422
 20
22.801446393152386
 30
0.0
  0
VERTEX
  8
0
 10
15.486240925635478
 20
22.788062320701645
 30
0.0
  0
VERTEX
  8
0
 10
15.439064679036642
 20
22.774580576264196
 30
0.0
  0
VERTEX
  8
0
 10
15.391865958373787
 20
22.76100030584935
 30
0.0
  0
VERTEX
  8
0
 10
15.344646393799268
 20
22.747320656579088
 30
0.0
  0
VERTEX
  8
0
 10
15.297407610497023
 20
22.73354077664911
 30
0.0
  0
VERTEX
  8
0
 10
15.250151228662636
 20
22.719659815289937
 30
0.0
  0
VERTEX
  8
0
 10
15.202878863483434
 20
22.705676922728035
 30
0.0
  0
VERTEX
  8
0
 10
15.155592125118558
 20
22.691591250146878
 30
0.0
  0
VERTEX
  8
0
 10
15.108292618679048
 20
22.677401949648058
 30
0.0
  0
VERTEX
  8
0
 10
15.060981944207931
 20
22.66310817421239
 30
0.0
  0
VERTEX
  8
0
 10
15.013661696660298
 20
22.64870907766101
 30
0.0
  0
VERTEX
  8
0
 10
14.966333465883377
 20
22.634203814616452
 30
0.0
  0
VERTEX
  8
0
 10
14.91899883659662
 20
22.619591540463745
 30
0.0
  0
VERTEX
  8
0
 10
14.871659388371798
 20
22.604871411311546
 30
0.0
  0
VERTEX
  8
0
 10
14.824316695613057
 20
22.5900425839532
 30
0.0
  0
VERTEX
  8
0
 10
14.776972327537017
 20
22.57510421582783
 30
0.0
  0
VERTEX
  8
0
 10
14.729627848152854
 20
22.560055464981485
 30
0.0
  0
VERTEX
  8
0
 10
14.682284816242378
 20
22.544895490028175
 30
0.0
  0
VERTEX
  8
0
 10
14.634944785340107
 20
22.529623450111018
 30
0.0
  0
VERTEX
  8
0
 10
14.58760930371335
 20
22.514238504863286
 30
0.0
  0
VERTEX
  8
0
 10
14.540279914342312
 20
22.498739814369557
 30
0.0
  0
VERTEX
  8
0
 10
14.492958154900139
 20
22.48312653912678
 30
0.0
  0
VERTEX
  8
0
 10
14.44564555773303
 20
22.467397840005354
 30
0.0
  0
VERTEX
  8
0
 10
14.39834364984029
 20
22.451552878210286
 30
0.0
  0
VERTEX
  8
0
 10
14.351053952854446
 20
22.4355908152422
 30
0.0
  0
VERTEX
  8
0
 10
14.303777983021298
 20
22.419510812858533
 30
0.0
  0
VERTEX
  8
0
 10
14.25651725118002
 20
22.403312033034545
 30
0.0
  0
VERTEX
  8
0
 10
14.209273262743222
 20
22.386993637924462
 30
0.0
  0
VERTEX
  8
0
 10
14.162047517677053
 20
22.370554789822563
 30
0.0
  0
VERTEX
  8
0
 10
14.114841510481266
 20
22.353994651124275
 30
0.0
  0
VERTEX
  8
0
 10
14.06765673016932
 20
22.33731238428728
 30
0.0
  0
VERTEX
  8
0
 10
14.020494660248428
 20
22.32050715179258
 30
0.0
  0
VERTEX
  8
0
 10
13.97335677869967
 20
22.303578116105637
 30
0.0
  0
VERTEX
  8
0
 10
13.926244557958066
 20
22.286524439637432
 30
0.0
  0
VERTEX
  8
0
 10
13.879159464892641
 20
22.269345284705594
 30
0.0
  0
VERTEX
  8
0
 10
13.832102960786528
 20
22.252039813495465
 30
0.0
  0
VERTEX
  8
0
 10
13.78507650131705
 20
22.234607188021233
 30
0.0
  0
VERTEX
  8
0
 10
13.738081536535772
 20
22.217046570086985
 30
0.0
  0
VERTEX
  8
0
 10
13.691119510848619
 20
22.199357121247832
 30
0.0
  0
VERTEX
  8
0
 10
13.644191862995934
 20
22.181538002771013
 30
0.0
  0
VERTEX
  8
0
 10
13.597300026032569
 20
22.163588375596966
 30
0.0
  0
VERTEX
  8
0
 10
13.55044542730797
 20
22.145507400300442
 30
0.0
  0
VERTEX
  8
0
 10
13.50362948844623
 20
22.127294237051583
 30
0.0
  0
VERTEX
  8
0
 10
13.45685362532623
 20
22.108948045577073
 30
0.0
  0
VERTEX
  8
0
 10
13.410119248061662
 20
22.090467985121144
 30
0.0
  0
VERTEX
  8
0
 10
13.36342776098113
 20
22.071853214406765
 30
0.0
  0
VERTEX
  8
0
 10
13.316780562608239
 20
22.05310289159666
 30
0.0
  0
VERTEX
  8
0
 10
13.270179045641674
 20
22.03421617425447
 30
0.0
  0
VERTEX
  8
0
 10
13.223624596935274
 20
22.015192219305806
 30
0.0
  0
VERTEX
  8
0
 10
13.177118597478117
 20
21.996030182999363
 30
0.0
  0
VERTEX
  8
0
 10
13.130662422374614
 20
21.97672922086802
 30
0.0
  0
VERTEX
  8
0
 10
13.084257440824569
 20
21.957288487689922
 30
0.0
  0
VERTEX
  8
0
 10
13.037905016103267
 20
21.93770713744959
 30
0.0
  0
VERTEX
  8
0
 10
12.991606505541563
 20
21.917984323299006
 30
0.0
  0
VERTEX
  8
0
 10
12.945363260505975
 20
21.89811919751874
 30
0.0
  0
VERTEX
  8
0
 10
12.899176626378726
 20
21.878110911478995
 30
0.0
  0
VERTEX
  8
0
 10
12.85304794253786
 20
21.85795861560074
 30
0.0
  0
VERTEX
  8
0
 10
12.806978542337323
 20
21.837661459316813
 30
0.0
  0
VERTEX
  8
0
 10
12.760969753087014
 20
21.817218591032983
 30
0.0
  0
VERTEX
  8
0
 10
12.71502289603291
 20
21.796629158089086
 30
0.0
  0
VERTEX
  8
0
 10
12.669139286337101
 20
21.775892306720092
 30
0.0
  0
VERTEX
  8
0
 10
12.62332023305791
 20
21.755007182017195
 30
0.0
  0
VERTEX
  8
0
 10
12.57756703912996
 20
21.733972927888964
 30
0.0
  0
VERTEX
  8
0
 10
12.531881001344246
 20
21.712788687022375
 30
0.0
  0
VERTEX
  8
0
 10
12.486263410328235
 20
21.691453600843943
 30
0.0
  0
VERTEX
  8
0
 10
12.440715550525928
 20
21.66996680948081
 30
0.0
  0
VERTEX
  8
0
 10
12.395238700177964
 20
21.648327451721855
 30
0.0
  0
VERTEX
  8
0
 10
12.34983413130167
 20
21.626534664978738
 30
0.0
  0
VERTEX
  8
0
 10
12.304503109671186
 20
21.604587585247096
 30
0.0
  0
VERTEX
  8
0
 10
12.25924689479751
 20
21.582485347067536
 30
0.0
  0
VERTEX
  8
0
 10
12.214066739908573
 20
21.560227083486787
 30
0.0
  0
VERTEX
  8
0
 10
12.168963891929375
 20
21.53781192601879
 30
0.0
  0
VERTEX
  8
0
 10
12.123939591462
 20
21.515239004605785
 30
0.0
  0
VERTEX
  8
0
 10
12.078995072765741
 20
21.49250744757942
 30
0.0
  0
VERTEX
  8
0
 10
12.034131563737168
 20
21.469616381621822
 30
0.0
  0
VERTEX
  8
0
 10
11.989350285890197
 20
21.44656493172674
 30
0.0
  0
VERTEX
  8
0
 10
11.944652454336216
 20
21.4233522211606
 30
0.0
  0
VERTEX
  8
0
 10
11.900039277764101
 20
21.39997737142361
 30
0.0
  0
VERTEX
  8
0
 10
11.855511958420342
 20
21.37643950221086
 30
0.0
  0
VERTEX
  8
0
 10
11.81107169208912
 20
21.352737731373438
 30
0.0
  0
VERTEX
  8
0
 10
11.766719668072374
 20
21.328871174879495
 30
0.0
  0
VERTEX
  8
0
 10
11.722457069169899
 20
21.30483894677536
 30
0.0
  0
VERTEX
  8
0
 10
11.678285071659408
 20
21.28064015914663
 30
0.0
  0
VERTEX
  8
0
 10
11.634204845276637
 20
21.256273922079266
 30
0.0
  0
VERTEX
  8
0
 10
11.590217553195403
 20
21.231739343620713
 30
0.0
  0
VERTEX
  8
0
 10
11.546324352007701
 20
21.207035529740946
 30
0.0
  0
VERTEX
  8
0
 10
11.50252639170378
 20
21.182161584293613
 30
0.0
  0
VERTEX
  8
0
 10
11.45882481565223
 20
21.157116608977127
 30
0.0
  0
VERTEX
  8
0
 10
11.415220760580056
 20
21.131899703295726
 30
0.0
  0
VERTEX
  8
0
 10
11.371715356552757
 20
21.10650996452062
 30
0.0
  0
VERTEX
  8
0
 10
11.32830972695442
 20
21.080946487651044
 30
0.0
  0
VERTEX
  8
0
 10
11.28500498846779
 20
21.055208365375382
 30
0.0
  0
VERTEX
  8
0
 10
11.241802251054365
 20
21.029294688032245
 30
0.0
  0
VERTEX
  8
0
 10
11.198702617934453
 20
21.003204543571606
 30
0.0
  0
VERTEX
  8
0
 10
11.155707185567277
 20
20.97693701751583
 30
0.0
  0
VERTEX
  8
0
 10
11.112817043631054
 20
20.950491192920833
 30
0.0
  0
VERTEX
  8
0
 10
11.07003327500306
 20
20.92386615033714
 30
0.0
  0
VERTEX
  8
0
 10
11.027356955739728
 20
20.89706096777102
 30
0.0
  0
VERTEX
  8
0
 10
10.984789155056726
 20
20.870074720645526
 30
0.0
  0
VERTEX
  8
0
 10
10.942330935309029
 20
20.842906481761656
 30
0.0
  0
VERTEX
  8
0
 10
10.899983351971013
 20
20.815555321259396
 30
0.0
  0
VERTEX
  8
0
 10
10.857747453616529
 20
20.788020306578844
 30
0.0
  0
VERTEX
  8
0
 10
10.81562428189899
 20
20.760300502421302
 30
0.0
  0
VERTEX
  8
0
 10
10.773614871531441
 20
20.732394970710377
 30
0.0
  0
VERTEX
  8
0
 10
10.731720250266662
 20
20.70430277055307
 30
0.0
  0
VERTEX
  8
0
 10
10.689941438877218
 20
20.676022958200875
 30
0.0
  0
VERTEX
  8
0
 10
10.648279451135576
 20
20.647554587010863
 30
0.0
  0
VERTEX
  8
0
 10
10.606735293794163
 20
20.61889670740681
 30
0.0
  0
VERTEX
  8
0
 10
10.565309966565442
 20
20.590048366840275
 30
0.0
  0
VERTEX
  8
0
 10
10.524004462102024
 20
20.56100860975168
 30
0.0
  0
VERTEX
  8
0
 10
10.48281976597672
 20
20.531776477531434
 30
0.0
  0
VERTEX
  8
0
 10
10.44175685666263
 20
20.50235100848102
 30
0.0
  0
VERTEX
  8
0
 10
10.400816705513238
 20
20.4727312377741
 30
0.0
  0
VERTEX
  8
0
 10
10.360000276742467
 20
20.442916197417567
 30
0.0
  0
VERTEX
  8
0
 10
10.319308527404795
 20
20.412904916212725
 30
0.0
  0
VERTEX
  8
0
 10
10.278742407375306
 20
20.382696419716293
 30
0.0
  0
VERTEX
  8
0
 10
10.238302859329789
 20
20.35228973020158
 30
0.0
  0
VERTEX
  8
0
 10
10.197990818724803
 20
20.321683866619534
 30
0.0
  0
VERTEX
  8
0
 10
10.157807213777785
 20
20.290877844559844
 30
0.0
  0
VERTEX
  8
0
 10
10.1177529654471
 20
20.259870676212064
 30
0.0
  0
VERTEX
  8
0
 10
10.077828987412154
 20
20.22866137032667
 30
0.0
  0
VERTEX
  8
0
 10
10.038036186053448
 20
20.1972489321762
 30
0.0
  0
VERTEX
  8
0
 10
9.998375460432676
 20
20.16563236351631
 30
0.0
  0
VERTEX
  8
0
 10
9.958847702272797
 20
20.133810662546892
 30
0.0
  0
VERTEX
  8
0
 10
9.919453795938127
 20
20.101782823873176
 30
0.0
  0
VERTEX
  8
0
 10
9.880194618414414
 20
20.06954783846681
 30
0.0
  0
VERTEX
  8
0
 10
9.841071039288913
 20
20.03710469362696
 30
0.0
  0
VERTEX
  8
0
 10
9.802083920730487
 20
20.004452372941433
 30
0.0
  0
VERTEX
  8
0
 10
9.763234117469665
 20
19.971589856247718
 30
0.0
  0
VERTEX
  8
0
 10
9.724522476778734
 20
19.938516119594148
 30
0.0
  0
VERTEX
  8
0
 10
9.685949838451839
 20
19.905230135200952
 30
0.0
  0
VERTEX
  8
0
 10
9.64751703478502
 20
19.871730871421356
 30
0.0
  0
VERTEX
  8
0
 10
9.609224890556336
 20
19.838017292702702
 30
0.0
  0
VERTEX
  8
0
 10
9.571074223005933
 20
19.804088359547528
 30
0.0
  0
VERTEX
  8
0
 10
9.533065841816107
 20
19.769943028474664
 30
0.0
  0
VERTEX
  8
0
 10
9.495200549091424
 20
19.735580251980334
 30
0.0
  0
VERTEX
  8
0
 10
9.457479139338755
 20
19.700998978499257
 30
0.0
  0
VERTEX
  8
0
 10
9.4199023994474
 20
19.666198152365716
 30
0.0
  0
VERTEX
  8
0
 10
9.38247110866914
 20
19.631176713774714
 30
0.0
  0
VERTEX
  8
0
 10
9.345186038598335
 20
19.59593359874299
 30
0.0
  0
VERTEX
  8
0
 10
9.308047953152
 20
19.56046773907019
 30
0.0
  0
VERTEX
  8
0
 10
9.27105760854988
 20
19.524778062299923
 30
0.0
  0
VERTEX
  8
0
 10
9.234215753294542
 20
19.488863491680863
 30
0.0
  0
VERTEX
  8
0
 10
9.19752312815145
 20
19.452722946127842
 30
0.0
  0
VERTEX
  8
0
 10
9.160980466129056
 20
19.416355340182978
 30
0.0
  0
VERTEX
  8
0
 10
9.12458849245887
 20
19.379759583976725
 30
0.0
  0
VERTEX
  8
0
 10
9.088347924575537
 20
19.342934583189002
 30
0.0
  0
VERTEX
  8
0
 10
9.052259472096937
 20
19.30587923901028
 30
0.0
  0
VERTEX
  8
0
 10
9.016323836804256
 20
19.268592448102673
 30
0.0
  0
VERTEX
  8
0
 10
8.980541712622069
 20
19.231073102561048
 30
0.0
  0
VERTEX
  8
0
 10
8.944913785598413
 20
19.19332008987411
 30
0.0
  0
VERTEX
  8
0
 10
8.909440733884885
 20
19.1553322928855
 30
0.0
  0
VERTEX
  8
0
 10
8.874123227716707
 20
19.1171085897549
 30
0.0
  0
VERTEX
  8
0
 10
8.838961929392818
 20
19.078647853919115
 30
0.0
  0
VERTEX
  8
0
 10
8.803957493255956
 20
19.03994895405319
 30
0.0
  0
VERTEX
  8
0
 10
8.769110565672731
 20
19.001010754031487
 30
0.0
  0
VERTEX
  8
0
 10
8.734421785013714
 20
18.96183211288879
 30
0.0
  0
VERTEX
  8
0
 10
8.699891781633514
 20
18.9224118847814
 30
0.0
  0
VERTEX
  8
0
 10
8.665521177850863
 20
18.88274891894824
 30
0.0
  0
VERTEX
  8
0
 10
8.631310587928697
 20
18.84284205967194
 30
0.0
  0
VERTEX
  8
0
 10
8.597260618054234
 20
18.802690146239943
 30
0.0
  0
VERTEX
  8
0
 10
8.563371866319057
 20
18.762292012905583
 30
0.0
  0
VERTEX
  8
0
 10
8.529644922699198
 20
18.721646488849206
 30
0.0
  0
VERTEX
  8
0
 10
8.496080369035221
 20
18.680752398139266
 30
0.0
  0
VERTEX
  8
0
 10
8.462678779012295
 20
18.639608559693393
 30
0.0
  0
VERTEX
  8
0
 10
8.429440718140283
 20
18.59821378723951
 30
0.0
  0
VERTEX
  8
0
 10
8.396366743733818
 20
18.556566889276944
 30
0.0
  0
VERTEX
  8
0
 10
8.363457404892396
 20
18.514666669037492
 30
0.0
  0
VERTEX
  8
0
 10
8.33071324248044
 20
18.472511924446543
 30
0.0
  0
VERTEX
  8
0
 10
8.298134789107394
 20
18.43010144808416
 30
0.0
  0
VERTEX
  8
0
 10
8.265722569107805
 20
18.387434027146163
 30
0.0
  0
VERTEX
  8
0
 10
8.233477098521393
 20
18.34450844340527
 30
0.0
  0
VERTEX
  8
0
 10
8.20139888507315
 20
18.30132347317216
 30
0.0
  0
VERTEX
  8
0
 10
8.169488428153398
 20
18.25787788725657
 30
0.0
  0
VERTEX
  8
0
 10
8.137746218797899
 20
18.214170450928396
 30
0.0
  0
VERTEX
  8
0
 10
8.106172739667908
 20
18.170199923878794
 30
0.0
  0
VERTEX
  8
0
 10
8.074768465030282
 20
18.125965060181287
 30
0.0
  0
VERTEX
  8
0
 10
8.043533860737531
 20
18.08146460825283
 30
0.0
  0
VERTEX
  8
0
 10
8.012469384207932
 20
18.036697310814944
 30
0.0
  0
VERTEX
  8
0
 10
7.9815754844055835
 20
17.991661904854773
 30
0.0
  0
VERTEX
  8
0
 10
7.950852601820505
 20
17.94635712158622
 30
0.0
  0
VERTEX
  8
0
 10
7.920301168448705
 20
17.900781686411026
 30
0.0
  0
VERTEX
  8
0
 10
7.889921607772273
 20
17.85493431887985
 30
0.0
  0
VERTEX
  8
0
 10
7.859714334739454
 20
17.80881373265339
 30
0.0
  0
VERTEX
  8
0
 10
7.829679755744738
 20
17.76241863546348
 30
0.0
  0
VERTEX
  8
0
 10
7.799818268608931
 20
17.71574772907417
 30
0.0
  0
VERTEX
  8
0
 10
7.770130262559242
 20
17.66879970924283
 30
0.0
  0
VERTEX
  8
0
 10
7.74061611820937
 20
17.62157326568125
 30
0.0
  0
VERTEX
  8
0
 10
7.711276207539573
 20
17.57406708201674
 30
0.0
  0
VERTEX
  8
0
 10
7.682110893876759
 20
17.5262798357532
 30
0.0
  0
VERTEX
  8
0
 10
7.653120531874563
 20
17.47821019823226
 30
0.0
  0
VERTEX
  8
0
 10
7.6243054674934365
 20
17.429856834594354
 30
0.0
  0
VERTEX
  8
0
 10
7.595666037980712
 20
17.381218403739794
 30
0.0
  0
VERTEX
  8
0
 10
7.567202571850706
 20
17.33229355828991
 30
0.0
  0
VERTEX
  8
0
 10
7.5389153888647815
 20
17.283080944548118
 30
0.0
  0
VERTEX
  8
0
 10
7.5108048000114405
 20
17.23357920246102
 30
0.0
  0
VERTEX
  8
0
 10
7.482871107486407
 20
17.18378696557952
 30
0.0
  0
VERTEX
  8
0
 10
7.455114604672695
 20
17.1337028610199
 30
0.0
  0
VERTEX
  8
0
 10
7.427535576120708
 20
17.08332550942491
 30
0.0
  0
VERTEX
  8
0
 10
7.400134297528304
 20
17.032653524924886
 30
0.0
  0
VERTEX
  8
0
 10
7.372911035720889
 20
16.981685515098846
 30
0.0
  0
VERTEX
  8
0
 10
7.345866048631492
 20
16.930420080935562
 30
0.0
  0
VERTEX
  8
0
 10
7.318999585280851
 20
16.878855816794687
 30
0.0
  0
VERTEX
  8
0
 10
7.292311885757489
 20
16.82699131036783
 30
0.0
  0
VERTEX
  8
0
 10
7.265803181197799
 20
16.774825142639664
 30
0.0
  0
VERTEX
  8
0
 10
7.239473693766127
 20
16.722355887849012
 30
0.0
  0
VERTEX
  8
0
 10
7.213323636634849
 20
16.669582113449962
 30
0.0
  0
VERTEX
  8
0
 10
7.187353213964454
 20
16.616502380072944
 30
0.0
  0
VERTEX
  8
0
 10
7.161562620883629
 20
16.563115241485832
 30
0.0
  0
VERTEX
  8
0
 10
7.135952043469338
 20
16.509419244555055
 30
0.0
  0
VERTEX
  8
0
 10
7.1105216587269
 20
16.45541292920667
 30
0.0
  0
VERTEX
  8
0
 10
7.085271634570075
 20
16.40109482838748
 30
0.0
  0
VERTEX
  8
0
 10
7.060202129801148
 20
16.34646346802611
 30
0.0
  0
VERTEX
  8
0
 10
7.035313294091
 20
16.29151736699413
 30
0.0
  0
VERTEX
  8
0
 10
7.010605267959203
 20
16.236255037067128
 30
0.0
  0
VERTEX
  8
0
 10
6.98607818275409
 20
16.180674982885815
 30
0.0
  0
VERTEX
  8
0
 10
6.961732160632842
 20
16.124775701917123
 30
0.0
  0
VERTEX
  8
0
 10
6.937567314541569
 20
16.068555684415298
 30
0.0
  0
VERTEX
  8
0
 10
6.913583748195393
 20
16.012013413383006
 30
0.0
  0
VERTEX
  8
0
 10
6.889781556058524
 20
15.955147364532415
 30
0.0
  0
VERTEX
  8
0
 10
6.866160823324345
 20
15.897956006246304
 30
0.0
  0
VERTEX
  8
0
 10
6.842721625895499
 20
15.840437799539156
 30
0.0
  0
VERTEX
  8
0
 10
6.819464030363962
 20
15.782591198018254
 30
0.0
  0
VERTEX
  8
0
 10
6.796388093991121
 20
15.72441464784477
 30
0.0
  0
VERTEX
  8
0
 10
6.773493864687873
 20
15.665906587694877
 30
0.0
  0
VERTEX
  8
0
 10
6.750781380994689
 20
15.607065448720832
 30
0.0
  0
VERTEX
  8
0
 10
6.7282506720617015
 20
15.547889654512085
 30
0.0
  0
VERTEX
  8
0
 10
6.70590175762879
 20
15.488377621056364
 30
0.0
  0
VERTEX
  8
0
 10
6.683734648005655
 20
15.428527756700774
 30
0.0
  0
VERTEX
  8
0
 10
6.661749344051906
 20
15.368338462112906
 30
0.0
  0
VERTEX
  8
0
 10
6.639945837157142
 20
15.307808130241916
 30
0.0
  0
VERTEX
  8
0
 10
6.618324109221026
 20
15.24693514627963
 30
0.0
  0
VERTEX
  8
0
 10
6.596884132633373
 20
15.185717887621642
 30
0.0
  0
VERTEX
  8
0
 10
6.575625870254236
 20
15.124154723828408
 30
0.0
  0
VERTEX
  8
0
 10
6.554549275393975
 20
15.062244016586341
 30
0.0
  0
VERTEX
  8
0
 10
6.533654291793349
 20
14.999984119668913
 30
0.0
  0
VERTEX
  8
0
 10
6.512940853603592
 20
14.937373378897751
 30
0.0
  0
VERTEX
  8
0
 10
6.492408885366496
 20
14.874410132103728
 30
0.0
  0
VERTEX
  8
0
 10
6.472058301994494
 20
14.811092709088063
 30
0.0
  0
VERTEX
  8
0
 10
6.451889008750741
 20
14.747419431583415
 30
0.0
  0
VERTEX
  8
0
 10
6.431900901229191
 20
14.683388613214985
 30
0.0
  0
VERTEX
  8
0
 10
6.412093865334684
 20
14.618998559461616
 30
0.0
  0
VERTEX
  8
0
 10
6.392467777263025
 20
14.55424756761687
 30
0.0
  0
VERTEX
  8
0
 10
6.373022503481072
 20
14.489133926750151
 30
0.0
  0
VERTEX
  8
0
 10
6.353757900706801
 20
14.42365591766778
 30
0.0
  0
VERTEX
  8
0
 10
6.334673815889403
 20
14.357811812874097
 30
0.0
  0
VERTEX
  8
0
 10
6.315770086189365
 20
14.291599876532583
 30
0.0
  0
VERTEX
  8
0
 10
6.297046538958539
 20
14.225018364426909
 30
0.0
  0
VERTEX
  8
0
 10
6.278502991720238
 20
14.158065523922073
 30
0.0
  0
VERTEX
  8
0
 10
6.260139252149306
 20
14.090739593925477
 30
0.0
  0
VERTEX
  8
0
 10
6.241955118052207
 20
14.023038804848028
 30
0.0
  0
VERTEX
  8
0
 10
6.223950377347104
 20
13.954961378565233
 30
0.0
  0
VERTEX
  8
0
 10
6.206124808043938
 20
13.886505528378304
 30
0.0
  0
VERTEX
  8
0
 10
6.188478178224514
 20
13.81766945897525
 30
0.0
  0
VERTEX
  8
0
 10
6.1710102460225835
 20
13.748451366391961
 30
0.0
  0
VERTEX
  8
0
 10
6.153720759603914
 20
13.678849437973323
 30
0.0
  0
VERTEX
  8
0
 10
6.136609457146386
 20
13.608861852334314
 30
0.0
  0
VERTEX
  8
0
 10
6.119676066820067
 20
13.538486779321081
 30
0.0
  0
VERTEX
  8
0
 10
6.102920306767293
 20
13.467722379972056
 30
0.0
  0
VERTEX
  8
0
 10
6.086341885082748
 20
13.396566806479047
 30
0.0
  0
VERTEX
  8
0
 10
6.069940499793554
 20
13.325018202148332
 30
0.0
  0
VERTEX
  8
0
 10
6.05371583883934
 20
13.253074701361758
 30
0.0
  0
VERTEX
  8
0
 10
6.037667580052337
 20
13.18073442953784
 30
0.0
  0
VERTEX
  8
0
 10
6.021795391137446
 20
13.107995503092852
 30
0.0
  0
VERTEX
  8
0
 10
6.006098929652331
 20
13.03485602940193
 30
0.0
  0
VERTEX
  8
0
 10
5.990577842987493
 20
12.961314106760154
 30
0.0
  0
VERTEX
  8
0
 10
5.975231768346355
 20
12.88736782434367
 30
0.0
  0
VERTEX
  8
0
 10
5.960060332725344
 20
12.813015262170769
 30
0.0
  0
VERTEX
  8
0
 10
5.945063152893965
 20
12.738254491062978
 30
0.0
  0
VERTEX
  8
0
 10
5.930239835374897
 20
12.663083572606176
 30
0.0
  0
VERTEX
  8
0
 10
5.915589976424059
 20
12.587500559111673
 30
0.0
  0
VERTEX
  8
0
 10
5.901113162010701
 20
12.511503493577322
 30
0.0
  0
VERTEX
  8
0
 10
5.886808967797485
 20
12.435090409648598
 30
0.0
  0
VERTEX
  8
0
 10
5.872676959120562
 20
12.358259331579717
 30
0.0
  0
VERTEX
  8
0
 10
5.858716690969655
 20
12.2810082741947
 30
0.0
  0
VERTEX
  8
0
 10
5.844927707968146
 20
12.203335242848514
 30
0.0
  0
VERTEX
  8
0
 10
5.831309544353145
 20
12.125238233388124
 30
0.0
  0
VERTEX
  8
0
 10
5.817861723955586
 20
12.04671523211362
 30
0.0
  0
VERTEX
  8
0
 10
5.804583760180298
 20
11.967764215739297
 30
0.0
  0
VERTEX
  8
0
 10
5.791475155986095
 20
11.88838315135477
 30
0.0
  0
VERTEX
  8
0
 10
5.778535403865847
 20
11.808569996386044
 30
0.0
  0
VERTEX
  8
0
 10
5.765763985826572
 20
11.728322698556637
 30
0.0
  0
VERTEX
  8
0
 10
5.753160373369509
 20
11.647639195848658
 30
0.0
  0
VERTEX
  8
0
 10
5.740724027470203
 20
11.56651741646391
 30
0.0
  0
VERTEX
  8
0
 10
5.728454398558592
 20
11.484955278784994
 30
0.0
  0
VERTEX
  8
0
 10
5.716350926499076
 20
11.40295069133639
 30
0.0
  0
VERTEX
  8
0
 10
5.704413040570611
 20
11.32050155274557
 30
0.0
  0
VERTEX
  8
0
 10
5.692640159446784
 20
11.237605751704084
 30
0.0
  0
VERTEX
  8
0
 10
5.681031691175892
 20
11.154261166928663
 30
0.0
  0
VERTEX
  8
0
 10
5.669587033161031
 20
11.070465667122305
 30
0.0
  0
VERTEX
  8
0
 10
5.658305572140173
 20
10.986217110935385
 30
0.0
  0
VERTEX
  8
0
 10
5.647186684166247
 20
10.901513346926745
 30
0.0
  0
VERTEX
  8
0
 10
5.63622973458722
 20
10.81635221352479
 30
0.0
  0
VERTEX
  8
0
 10
5.625434078026184
 20
10.730731538988588
 30
0.0
  0
VERTEX
  8
0
 10
5.614799058361429
 20
10.644649141368957
 30
0.0
  0
VERTEX
  8
0
 10
5.604324008706534
 20
10.558102828469586
 30
0.0
  0
VERTEX
  8
0
 10
5.594008251390438
 20
10.4710903978081
 30
0.0
  0
VERTEX
  8
0
 10
5.583851097937529
 20
10.383609636577171
 30
0.0
  0
VERTEX
  8
0
 10
5.573851849047726
 20
10.295658321605629
 30
0.0
  0
VERTEX
  8
0
 10
5.564009794576554
 20
10.207234219319531
 30
0.0
  0
VERTEX
  8
0
 10
5.554324213515232
 20
10.11833508570328
 30
0.0
  0
VERTEX
  8
0
 10
5.544794373970747
 20
10.0289586662607
 30
0.0
  0
VERTEX
  8
0
 10
5.535419533145949
 20
9.939102695976164
 30
0.0
  0
VERTEX
  8
0
 10
5.526198937319615
 20
9.848764899275661
 30
0.0
  0
VERTEX
  8
0
 10
5.517131821826542
 20
9.757942989987905
 30
0.0
  0
VERTEX
  8
0
 10
5.508217411037629
 20
9.666634671305433
 30
0.0
  0
VERTEX
  8
0
 10
5.499454918339953
 20
9.574837635745698
 30
0.0
  0
VERTEX
  8
0
 10
5.490843546116851
 20
9.482549565112171
 30
0.0
  0
VERTEX
  8
0
 10
5.482382485728003
 20
9.389768130455423
 30
0.0
  0
VERTEX
  8
0
 10
5.474070917489517
 20
9.296490992034245
 30
0.0
  0
VERTEX
  8
0
 10
5.465908010654005
 20
9.202715799276723
 30
0.0
  0
VERTEX
  8
0
 10
5.457892923390665
 20
9.108440190741339
 30
0.0
  0
VERTEX
  8
0
 10
5.450024802765368
 20
9.013661794078093
 30
0.0
  0
VERTEX
  8
0
 10
5.442302784720733
 20
8.91837822598956
 30
0.0
  0
VERTEX
  8
0
 10
5.43472599405621
 20
8.822587092192009
 30
0.0
  0
VERTEX
  8
0
 10
5.4272935444081645
 20
8.726285987376498
 30
0.0
  0
VERTEX
  8
0
 10
5.420004538229955
 20
8.629472495169967
 30
0.0
  0
VERTEX
  8
0
 10
5.412858066772021
 20
8.532144188096337
 30
0.0
  0
VERTEX
  8
0
 10
5.405853210061952
 20
8.434298627537608
 30
0.0
  0
VERTEX
  8
0
 10
5.3989890368845845
 20
8.33593336369495
 30
0.0
  0
VERTEX
  8
0
 10
5.392264604762072
 20
8.237045935549807
 30
0.0
  0
VERTEX
  8
0
 10
5.385678959933971
 20
8.137633870824985
 30
0.0
  0
VERTEX
  8
0
 10
5.379231137337322
 20
8.037694685945755
 30
0.0
  0
VERTEX
  8
0
 10
5.37292016058673
 20
7.937225886000956
 30
0.0
  0
VERTEX
  8
0
 10
5.366745041954449
 20
7.836224964704071
 30
0.0
  0
VERTEX
  8
0
 10
5.360704782350458
 20
7.734689404354345
 30
0.0
  0
VERTEX
  8
0
 10
5.354798371302551
 20
7.632616675797869
 30
0.0
  0
VERTEX
  8
0
 10
5.349024786936406
 20
7.530004238388674
 30
0.0
  0
VERTEX
  8
0
 10
5.343382995955679
 20
7.42684953994986
 30
0.0
  0
VERTEX
  8
0
 10
5.337871953622079
 20
7.3231500167346395
 30
0.0
  0
VERTEX
  8
0
 10
5.332490603735449
 20
7.218903093387471
 30
0.0
  0
VERTEX
  8
0
 10
5.327237878613852
 20
7.114106182905146
 30
0.0
  0
VERTEX
  8
0
 10
5.322112699073648
 20
7.00875668659789
 30
0.0
  0
VERTEX
  8
0
 10
5.317113974409574
 20
6.902851994050448
 30
0.0
  0
VERTEX
  8
0
 10
5.312240602374837
 20
6.796389483083193
 30
0.0
  0
VERTEX
  8
0
 10
5.307491469161178
 20
6.689366519713214
 30
0.0
  0
VERTEX
  8
0
 10
5.302865449378967
 20
6.5817804581154205
 30
0.0
  0
VERTEX
  8
0
 10
5.298361406037278
 20
6.473628640583631
 30
0.0
  0
VERTEX
  8
0
 10
5.293978190523978
 20
6.3649083974916785
 30
0.0
  0
VERTEX
  8
0
 10
5.289714642585793
 20
6.255617047254496
 30
0.0
  0
VERTEX
  8
0
 10
5.285569590308409
 20
6.145751896289227
 30
0.0
  0
VERTEX
  8
0
 10
5.28154185009654
 20
6.035310238976306
 30
0.0
  0
VERTEX
  8
0
 10
5.277630226654011
 20
5.9242893576205695
 30
0.0
  0
VERTEX
  8
0
 10
5.273833512963845
 20
5.812686522412347
 30
0.0
  0
VERTEX
  8
0
 10
5.2701504902683425
 20
5.700498991388548
 30
0.0
  0
VERTEX
  8
0
 10
5.266579928049158
 20
5.587724010393791
 30
0.0
  0
VERTEX
  8
0
 10
5.263120584007389
 20
5.474358813041454
 30
0.0
  0
VERTEX
  8
0
 10
5.25977120404365
 20
5.360400620674803
 30
0.0
  0
VERTEX
  8
0
 10
5.256530522238162
 20
5.24584664232808
 30
0.0
  0
VERTEX
  8
0
 10
5.253397260830826
 20
5.1306940746876
 30
0.0
  0
VERTEX
  8
0
 10
5.2503701302013095
 20
5.014940102052845
 30
0.0
  0
VERTEX
  8
0
 10
5.247447828849129
 20
4.898581896297565
 30
0.0
  0
VERTEX
  8
0
 10
5.244629043373724
 20
4.781616616830873
 30
0.0
  0
VERTEX
  8
0
 10
5.24191244845455
 20
4.66404141055834
 30
0.0
  0
VERTEX
  8
0
 10
5.239296706831149
 20
4.545853411843093
 30
0.0
  0
VERTEX
  8
0
 10
5.236780469283237
 20
4.427049742466913
 30
0.0
  0
VERTEX
  8
0
 10
5.234362374610784
 20
4.3076275115913285
 30
0.0
  0
VERTEX
  8
0
 10
5.232041049614095
 20
4.187583815718711
 30
0.0
  0
VERTEX
  8
0
 10
5.229815109073895
 20
4.066915738653382
 30
0.0
  0
VERTEX
  8
0
 10
5.227683155731404
 20
3.945620351462695
 30
0.0
  0
VERTEX
  8
0
 10
5.225643780268422
 20
3.823694712438134
 30
0.0
  0
VERTEX
  8
0
 10
5.223695561287412
 20
3.7011358670564394
 30
0.0
  0
VERTEX
  8
0
 10
5.221837065291583
 20
3.5779408479406563
 30
0.0
  0
VERTEX
  8
0
 10
5.220066846664961
 20
3.4541066748212628
 30
0.0
  0
VERTEX
  8
0
 10
5.218383447652484
 20
3.329630354497259
 30
0.0
  0
VERTEX
  8
0
 10
5.216785398340075
 20
3.2045088807972673
 30
0.0
  0
VERTEX
  8
0
 10
5.215271216634727
 20
3.0787392345406195
 30
0.0
  0
VERTEX
  8
0
 10
5.213839408244581
 20
2.952318383498465
 30
0.0
  0
VERTEX
  8
0
 10
5.212488466659014
 20
2.8252432823548586
 30
0.0
  0
VERTEX
  8
0
 10
5.211216873128711
 20
2.6975108726678627
 30
0.0
  0
VERTEX
  8
0
 10
5.210023096645756
 20
2.5691180828306397
 30
0.0
  0
VERTEX
  8
0
 10
5.208905593923708
 20
2.4400618280325532
 30
0.0
  0
VERTEX
  8
0
 10
5.207862809377683
 20
2.3103390102202592
 30
0.0
  0
VERTEX
  8
0
 10
5.206893175104438
 20
2.179946518058808
 30
0.0
  0
VERTEX
  8
0
 10
5.205995110862447
 20
2.0488812268927377
 30
0.0
  0
VERTEX
  8
0
 10
5.20516702405199
 20
1.9171399987071713
 30
0.0
  0
VERTEX
  8
0
 10
5.204407309695229
 20
1.7847196820889135
 30
0.0
  0
VERTEX
  8
0
 10
5.203714350416294
 20
1.65161711218754
 30
0.0
  0
VERTEX
  8
0
 10
5.203086516421355
 20
1.5178291106765265
 30
0.0
  0
VERTEX
  8
0
 10
5.202522165478717
 20
1.383352485714295
 30
0.0
  0
VERTEX
  8
0
 10
5.2020196428988905
 20
1.2481840319053445
 30
0.0
  0
VERTEX
  8
0
 10
5.201577281514678
 20
1.1123205302613388
 30
0.0
  0
VERTEX
  8
0
 10
5.201193401661254
 20
0.9757587481622039
 30
0.0
  0
VERTEX
  8
0
 10
5.2008663111562505
 20
0.8384954393172237
 30
0.0
  0
VERTEX
  8
0
 10
5.2005943052798305
 20
0.7005273437261371
 30
0.0
  0
VERTEX
  8
0
 10
5.200375666754776
 20
0.5618511876402351
 30
0.0
  0
VERTEX
  8
0
 10
5.200208665726566
 20
0.42246368352345615
 30
0.0
  0
VERTEX
  8
0
 10
5.200091559743464
 20
0.28236153001348413
 30
0.0
  0
VERTEX
  8
0
 10
5.200022593736587
 20
0.1415414118828443
 30
0.0
  0
VERTEX
  8
0
 10
5.2
 20
0.0
 30
0.0
  0
SEQEND
  0
ENDSEC
  0
EOF
