  0
SECTION
  2
HEADER
  9
$ACADVER
  1
AC1009
  9
$EXTMIN
 10
0.0
 20
0.0
 30
0.0
  9
$ANGBASE
 50
0.0
  9
$EXTMAX
 10
100.0
 20
100.0
 30
0.0
  9
$AUNITS
 70
0
  9
$UNITMODE
 70
0
  9
$INSBASE
 10
0.0
 20
0.0
 30
0.0
  9
$ANGDIR
 70
0
  0
ENDSEC
  0
SECTION
  2
TABLES
  0
TABLE
  2
LTYPE
 70
19
  0
LTYPE
  2
DASHED2
 70
0
  3
Dashed (.5x) _ _ _ _ _ _ _ _ _ _ _ _ _ _
 72
65
 73
2
 40
0.3
 49
0.25
 49
-0.05
  0
LTYPE
  2
DOTX2
 70
0
  3
Dot (2x) .    .    .    .    .    .    .    . 
 72
65
 73
2
 40
0.4
 49
0.0
 49
-0.4
  0
LTYPE
  2
DIVIDE2
 70
0
  3
Divide(.5x) _ . _ . _ . _ . _ . _ . _ . _
 72
65
 73
6
 40
0.8
 49
0.5
 49
-0.1
 49
0.0
 49
-0.1
 49
0.0
 49
-0.1
  0
LTYPE
  2
PHANTOM2
 70
0
  3
Phantom (.5x) ___ _ _ ___ _ _ ___ _ _ ___ _ _ ___
 72
65
 73
6
 40
1.25
 49
0.625
 49
-0.125
 49
0.125
 49
-0.125
 49
0.125
 49
-0.125
  0
LTYPE
  2
CONTINUOUS
 70
0
  3
Solid
 72
65
 73
0
 40
0.0
  0
LTYPE
  2
DASHED
 70
0
  3
Dashed __ __ __ __ __ __ __ __ __ __ __ __ __ _
 72
65
 73
2
 40
0.6
 49
0.5
 49
-0.1
  0
LTYPE
  2
CENTER2
 70
0
  3
Center (.5x) ____ _ ____ _ ____ _ ____ _ ____
 72
65
 73
4
 40
1.0
 49
0.625
 49
-0.125
 49
0.125
 49
-0.125
  0
LTYPE
  2
DASHDOT
 70
0
  3
Dash dot __ . __ . __ . __ . __ . __ . __ . __
 72
65
 73
4
 40
1.4
 49
1.0
 49
-0.2
 49
0.0
 49
-0.2
  0
LTYPE
  2
DIVIDEX2
 70
0
  3
Divide (2x) ____  . .  ____  . .  ____  . .  ____
 72
65
 73
6
 40
2.6
 49
2.0
 49
-0.2
 49
0.0
 49
-0.2
 49
0.0
 49
-0.2
  0
LTYPE
  2
DASHEDX2
 70
0
  3
Dashed (2x) ____  ____  ____  ____  ____  ____
 72
65
 73
2
 40
1.2
 49
1.0
 49
-0.2
  0
LTYPE
  2
CENTER
 70
0
  3
Center ____ _ ____ _ ____ _ ____ _ ____ _ ____
 72
65
 73
4
 40
2.0
 49
1.25
 49
-0.25
 49
0.25
 49
-0.25
  0
LTYPE
  2
DIVIDE
 70
0
  3
Divide __ . . __ . . __ . . __ . . __ . . __
 72
65
 73
6
 40
1.6
 49
1.0
 49
-0.2
 49
0.0
 49
-0.2
 49
0.0
 49
-0.2
  0
LTYPE
  2
DASHDOTX2
 70
0
  3
Dash dot (2x) ____  .  ____  .  ____  .  ____
 72
65
 73
4
 40
2.4
 49
2.0
 49
-0.2
 49
0.0
 49
-0.2
  0
LTYPE
  2
DOT2
 70
0
  3
Dot (.5) . . . . . . . . . . . . . . . . . . . 
 72
65
 73
2
 40
0.1
 49
0.0
 49
-0.1
  0
LTYPE
  2
PHANTOM
 70
0
  3
Phantom ______  __  __  ______  __  __  ______
 72
65
 73
6
 40
2.5
 49
1.25
 49
-0.25
 49
0.25
 49
-0.25
 49
0.25
 49
-0.25
  0
LTYPE
  2
DOT
 70
0
  3
Dot .  .  .  .  .  .  .  .  .  .  .  .  .  .  .  .
 72
65
 73
2
 40
0.2
 49
0.0
 49
-0.2
  0
LTYPE
  2
CENTERX2
 70
0
  3
Center (2x) ________  __  ________  __  ________
 72
65
 73
4
 40
3.5
 49
2.5
 49
-0.25
 49
0.5
 49
-0.25
  0
LTYPE
  2
PHANTOMX2
 70
0
  3
Phantom (2x)____________    ____    ____    ____________
 72
65
 73
6
 40
4.25
 49
2.5
 49
-0.25
 49
0.5
 49
-0.25
 49
0.5
 49
-0.25
  0
LTYPE
  2
DASHDOT2
 70
0
  3
Dash dot (.5x) _ . _ . _ . _ . _ . _ . _ . _
 72
65
 73
4
 40
0.7
 49
0.5
 49
-0.1
 49
0.0
 49
-0.1
  0
ENDTAB
  0
TABLE
  2
LAYER
 70
5
  0
LAYER
  2
TABLEGRID
 70
0
 62
1
  6
CONTINUOUS
  0
LAYER
  2
TABLEBACKGROUND
 70
0
 62
1
  6
CONTINUOUS
  0
LAYER
  2
TABLECONTENT
 70
0
 62
1
  6
CONTINUOUS
  0
LAYER
  2
VIEWPORTS
 70
0
 62
7
  6
CONTINUOUS
  0
LAYER
  2
DIMENSIONS
 70
0
 62
1
  6
CONTINUOUS
  0
ENDTAB
  0
TABLE
  2
STYLE
 70
12
  0
STYLE
  2
ARIAL_ITALIC
 70
0
 40
0.0
 41
1.0
 42
1.0
 50
0.0
 71
0
  3
ariali.ttf
  4

  0
STYLE
  2
ARIAL_BOLD
 70
0
 40
0.0
 41
1.0
 42
1.0
 50
0.0
 71
0
  3
arialbd.ttf
  4

  0
STYLE
  2
TIMES_BOLD_ITALIC
 70
0
 40
0.0
 41
1.0
 42
1.0
 50
0.0
 71
0
  3
timesbi.ttf
  4

  0
STYLE
  2
ISOCPEUR_ITALIC
 70
0
 40
0.0
 41
1.0
 42
1.0
 50
0.0
 71
0
  3
isocpeui.ttf
  4

  0
STYLE
  2
TIMES_ITALIC
 70
0
 40
0.0
 41
1.0
 42
1.0
 50
0.0
 71
0
  3
timesi.ttf
  4

  0
STYLE
  2
ARIAL
 70
0
 40
0.0
 41
1.0
 42
1.0
 50
0.0
 71
0
  3
arial.ttf
  4

  0
STYLE
  2
ARIAL_BLACK
 70
0
 40
0.0
 41
1.0
 42
1.0
 50
0.0
 71
0
  3
ariblk.ttf
  4

  0
STYLE
  2
TIMES_BOLD
 70
0
 40
0.0
 41
1.0
 42
1.0
 50
0.0
 71
0
  3
timesbd.ttf
  4

  0
STYLE
  2
STANDARD
 70
0
 40
0.0
 41
1.0
 42
1.0
 50
0.0
 71
0
  3
arial.ttf
  4

  0
STYLE
  2
ISOCPEUR
 70
0
 40
0.0
 41
1.0
 42
1.0
 50
0.0
 71
0
  3
isocpeur.ttf
  4

  0
STYLE
  2
ARIAL_BOLD_ITALIC
 70
0
 40
0.0
 41
1.0
 42
1.0
 50
0.0
 71
0
  3
arialbi.ttf
  4

  0
STYLE
  2
TIMES
 70
0
 40
0.0
 41
1.0
 42
1.0
 50
0.0
 71
0
  3
times.ttf
  4

  0
ENDTAB
  0
TABLE
  2
VIEW
 70
0
  0
ENDTAB
  0
TABLE
  2
APPID
 70
1
  0
APPID
  2
DXFWRITE
 70
0
  0
ENDTAB
  0
TABLE
  2
VPORT
 70
0
  0
ENDTAB
  0
TABLE
  2
UCS
 70
0
  0
ENDTAB
  0
ENDSEC
  0
SECTION
  2
BLOCKS
  0
ENDSEC
  0
SECTION
  2
ENTITIES
  0
VIEWPORT
  8
VIEWPORTS
 67
1
 10
0.0
 20
0.0
 30
0.0
 40
1.0
 41
1.0
 68
1
 69
1
1001
ACAD
1000
MVIEW
1002
{
1070
16
1010
0.0
1020
0.0
1030
0.0
1010
0.0
1020
0.0
1030
0.0
1040
0.0
1040
1.0
1040
0.0
1040
0.0
1040
50.0
1040
0.0
1040
0.0
1070
0
1070
100
1070
1
1070
3
1070
0
1070
0
1070
0
1070
0
1040
0.0
1040
0.0
1040
0.0
1040
0.1
1040
0.1
1040
0.1
1040
0.1
1070
0
1002
{
1002
}
1002
}
  0
POLYLINE
  6
LINE
  8
0
 66
1
 10
0.0
 20
0.0
 30
0.0
 70
8
  0
VERTEX
  8
0
 10
5.2
 20
0.0
 30
0.0
  0
VERTEX
  8
0
 10
0.381
 20
0.0
 30
0.0
  0
VERTEX
  8
0
 10
0.381
 20
3.164
 30
0.0
  0
VERTEX
  8
0
 10
2.0
 20
3.164
 30
0.0
  0
VERTEX
  8
0
 10
2.0
 20
4.1
 30
0.0
  0
VERTEX
  8
0
 10
3.78
 20
4.1
 30
0.0
  0
VERTEX
  8
0
 10
3.78
 20
6.477
 30
0.0
  0
VERTEX
  8
0
 10
1.898
 20
6.477
 30
0.0
  0
VERTEX
  8
0
 10
1.898
 20
7.0
 30
0.0
  0
VERTEX
  8
0
 10
3.18
 20
7.0
 30
0.0
  0
VERTEX
  8
0
 10
3.18
 20
9.6
 30
0.0
  0
VERTEX
  8
0
 10
1.898
 20
9.6
 30
0.0
  0
VERTEX
  8
0
 10
1.898
 20
9.6
 30
0.0
  0
VERTEX
  8
0
 10
1.8982251012601796
 20
9.644966565106326
 30
0.0
  0
VERTEX
  8
0
 10
1.8988975880690484
 20
9.689716553499867
 30
0.0
  0
VERTEX
  8
0
 10
1.9000132539907502
 20
9.734250786025703
 30
0.0
  0
VERTEX
  8
0
 10
1.9015679178913631
 20
9.778570090955881
 30
0.0
  0
VERTEX
  8
0
 10
1.9035574238635722
 20
9.822675303927786
 30
0.0
  0
VERTEX
  8
0
 10
1.9059776411513367
 20
9.866567267882518
 30
0.0
  0
VERTEX
  8
0
 10
1.9088244640745637
 20
9.910246833003272
 30
0.0
  0
VERTEX
  8
0
 10
1.9120938119537774
 20
9.95371485665372
 30
0.0
  0
VERTEX
  8
0
 10
1.9157816290347893
 20
9.996972203316373
 30
0.0
  0
VERTEX
  8
0
 10
1.9198838844133725
 20
10.040019744530982
 30
0.0
  0
VERTEX
  8
0
 10
1.924396571959926
 20
10.082858358832889
 30
0.0
  0
VERTEX
  8
0
 10
1.9293157102441505
 20
10.125488931691415
 30
0.0
  0
VERTEX
  8
0
 10
1.9346373424597167
 20
10.167912355448248
 30
0.0
  0
VERTEX
  8
0
 10
1.940357536348937
 20
10.210129529255797
 30
0.0
  0
VERTEX
  8
0
 10
1.9464723841274345
 20
10.252141359015587
 30
0.0
  0
VERTEX
  8
0
 10
1.9529780024088168
 20
10.293948757316642
 30
0.0
  0
VERTEX
  8
0
 10
1.9598705321293426
 20
10.335552643373836
 30
0.0
  0
VERTEX
  8
0
 10
1.9671461384725963
 20
10.37695394296629
 30
0.0
  0
VERTEX
  8
0
 10
1.9748010107941554
 20
10.418153588375747
 30
0.0
  0
VERTEX
  8
0
 10
1.9828313625462628
 20
10.459152518324942
 30
0.0
  0
VERTEX
  8
0
 10
1.9912334312024973
 20
10.49995167791599
 30
0.0
  0
VERTEX
  8
0
 10
2.0000034781824443
 20
10.54055201856875
 30
0.0
  0
VERTEX
  8
0
 10
2.009137788776365
 20
10.58095449795921
 30
0.0
  0
VERTEX
  8
0
 10
2.0186326720698706
 20
10.621160079957864
 30
0.0
  0
VERTEX
  8
0
 10
2.028484460868587
 20
10.661169734568084
 30
0.0
  0
VERTEX
  8
0
 10
2.038689511622833
 20
10.700984437864516
 30
0.0
  0
VERTEX
  8
0
 10
2.049244204352285
 20
10.74060517193142
 30
0.0
  0
VERTEX
  8
0
 10
2.0601449425706497
 20
10.780032924801084
 30
0.0
  0
VERTEX
  8
0
 10
2.071388153210334
 20
10.819268690392173
 30
0.0
  0
VERTEX
  8
0
 10
2.082970286547118
 20
10.85831346844814
 30
0.0
  0
VERTEX
  8
0
 10
2.0948878161248214
 20
10.897168264475555
 30
0.0
  0
VERTEX
  8
0
 10
2.107137238679979
 20
10.935834089682533
 30
0.0
  0
VERTEX
  8
0
 10
2.119715074066509
 20
10.974311960917074
 30
0.0
  0
VERTEX
  8
0
 10
2.1326178651803813
 20
11.012602900605462
 30
0.0
  0
VERTEX
  8
0
 10
2.145842177884293
 20
11.050707936690621
 30
0.0
  0
VERTEX
  8
0
 10
2.159384600932335
 20
11.088628102570516
 30
0.0
  0
VERTEX
  8
0
 10
2.173241745894665
 20
11.126364437036516
 30
0.0
  0
VERTEX
  8
0
 10
2.1874102470821777
 20
11.16391798421177
 30
0.0
  0
VERTEX
  8
0
 10
2.2018867614711732
 20
11.201289793489591
 30
0.0
  0
VERTEX
  8
0
 10
2.216667968628032
 20
11.23848091947183
 30
0.0
  0
VERTEX
  8
0
 10
2.23175057063388
 20
11.27549242190725
 30
0.0
  0
VERTEX
  8
0
 10
2.2471312920092665
 20
11.312325365629906
 30
0.0
  0
VERTEX
  8
0
 10
2.262806879638825
 20
11.348980820497523
 30
0.0
  0
VERTEX
  8
0
 10
2.278774102695956
 20
11.385459861329881
 30
0.0
  0
VERTEX
  8
0
 10
2.295029752567488
 20
11.421763567847174
 30
0.0
  0
VERTEX
  8
0
 10
2.3115706427783476
 20
11.457893024608389
 30
0.0
  0
VERTEX
  8
0
 10
2.32839360891624
 20
11.49384932094971
 30
0.0
  0
VERTEX
  8
0
 10
2.345495508556309
 20
11.529633550922854
 30
0.0
  0
VERTEX
  8
0
 10
2.362873221185815
 20
11.565246813233482
 30
0.0
  0
VERTEX
  8
0
 10
2.3805236481288
 20
11.600690211179565
 30
0.0
  0
VERTEX
  8
0
 10
2.3984437124707645
 20
11.635964852589753
 30
0.0
  0
VERTEX
  8
0
 10
2.416630358983331
 20
11.671071849761761
 30
0.0
  0
VERTEX
  8
0
 10
2.4350805540489193
 20
11.706012319400743
 30
0.0
  0
VERTEX
  8
0
 10
2.453791285585416
 20
11.740787382557679
 30
0.0
  0
VERTEX
  8
0
 10
2.4727595629708476
 20
11.77539816456773
 30
0.0
  0
VERTEX
  8
0
 10
2.491982416968045
 20
11.809845794988627
 30
0.0
  0
VERTEX
  8
0
 10
2.5114568996493194
 20
11.844131407539058
 30
0.0
  0
VERTEX
  8
0
 10
2.531180084321133
 20
11.878256140037038
 30
0.0
  0
VERTEX
  8
0
 10
2.551149065448767
 20
11.91222113433828
 30
0.0
  0
VERTEX
  8
0
 10
2.5713609585809922
 20
11.946027536274569
 30
0.0
  0
VERTEX
  8
0
 10
2.5918129002747414
 20
11.979676495592168
 30
0.0
  0
VERTEX
  8
0
 10
2.6125020480197807
 20
12.013169165890137
 30
0.0
  0
VERTEX
  8
0
 10
2.6334255801633755
 20
12.04650670455878
 30
0.0
  0
VERTEX
  8
0
 10
2.6545806958349694
 20
12.07969027271798
 30
0.0
  0
VERTEX
  8
0
 10
2.6759646148708454
 20
12.112721035155573
 30
0.0
  0
VERTEX
  8
0
 10
2.697574577738803
 20
12.14560016026575
 30
0.0
  0
VERTEX
  8
0
 10
2.719407845462827
 20
12.178328819987415
 30
0.0
  0
VERTEX
  8
0
 10
2.741461699547759
 20
12.210908189742565
 30
0.0
  0
VERTEX
  8
0
 10
2.763733441903964
 20
12.24333944837468
 30
0.0
  0
VERTEX
  8
0
 10
2.7862203947720063
 20
12.27562377808708
 30
0.0
  0
VERTEX
  8
0
 10
2.808919900647318
 20
12.307762364381313
 30
0.0
  0
VERTEX
  8
0
 10
2.83182932220487
 20
12.339756395995542
 30
0.0
  0
VERTEX
  8
0
 10
2.85494604222384
 20
12.371607064842891
 30
0.0
  0
VERTEX
  8
0
 10
2.8782674635122882
 20
12.403315565949868
 30
0.0
  0
VERTEX
  8
0
 10
2.901791008831822
 20
12.434883097394694
 30
0.0
  0
VERTEX
  8
0
 10
2.925514120822273
 20
12.466310860245713
 30
0.0
  0
VERTEX
  8
0
 10
2.949434261926362
 20
12.497600058499755
 30
0.0
  0
VERTEX
  8
0
 10
2.973548914314374
 20
12.528751899020525
 30
0.0
  0
VERTEX
  8
0
 10
2.9978555798088253
 20
12.55976759147696
 30
0.0
  0
VERTEX
  8
0
 10
3.0223517798091355
 20
12.590648348281624
 30
0.0
  0
VERTEX
  8
0
 10
3.047035055216301
 20
12.621395384529082
 30
0.0
  0
VERTEX
  8
0
 10
3.071902966357559
 20
12.652009917934263
 30
0.0
  0
VERTEX
  8
0
 10
3.096953092911065
 20
12.682493168770854
 30
0.0
  0
VERTEX
  8
0
 10
3.1221830338305603
 20
12.712846359809678
 30
0.0
  0
VERTEX
  8
0
 10
3.1475904072700427
 20
12.743070716257053
 30
0.0
  0
VERTEX
  8
0
 10
3.173172850508436
 20
12.77316746569319
 30
0.0
  0
VERTEX
  8
0
 10
3.1989280198742636
 20
12.803137838010548
 30
0.0
  0
VERTEX
  8
0
 10
3.224853590670317
 20
12.832983065352234
 30
0.0
  0
VERTEX
  8
0
 10
3.2509472570983267
 20
12.862704382050365
 30
0.0
  0
VERTEX
  8
0
 10
3.2772067321836342
 20
12.892303024564452
 30
0.0
  0
VERTEX
  8
0
 10
3.3036297476998615
 20
12.921780231419776
 30
0.0
  0
VERTEX
  8
0
 10
3.3302140540935796
 20
12.951137243145752
 30
0.0
  0
VERTEX
  8
0
 10
3.3569574204089854
 20
12.980375302214338
 30
0.0
  0
VERTEX
  8
0
 10
3.3838576342125624
 20
13.009495652978375
 30
0.0
  0
VERTEX
  8
0
 10
3.4109125015177626
 20
13.03849954160998
 30
0.0
  0
VERTEX
  8
0
 10
3.4381198467096694
 20
13.067388216038935
 30
0.0
  0
VERTEX
  8
0
 10
3.4654775124696715
 20
13.096162925891052
 30
0.0
  0
VERTEX
  8
0
 10
3.492983359700132
 20
13.124824922426543
 30
0.0
  0
VERTEX
  8
0
 10
3.52063526744906
 20
13.153375458478406
 30
0.0
  0
VERTEX
  8
0
 10
3.548431132834779
 20
13.181815788390809
 30
0.0
  0
VERTEX
  8
0
 10
3.576368870970604
 20
13.210147167957453
 30
0.0
  0
VERTEX
  8
0
 10
3.604446414889504
 20
13.238370854359959
 30
0.0
  0
VERTEX
  8
0
 10
3.6326617154687755
 20
13.266488106106236
 30
0.0
  0
VERTEX
  8
0
 10
3.6610127413547175
 20
13.29450018296887
 30
0.0
  0
VERTEX
  8
0
 10
3.6894974788872954
 20
13.322408345923488
 30
0.0
  0
VERTEX
  8
0
 10
3.718113932024816
 20
13.350213857087148
 30
0.0
  0
VERTEX
  8
0
 10
3.7468601222685987
 20
13.377917979656711
 30
0.0
  0
VERTEX
  8
0
 10
3.7757340885876403
 20
13.405521977847206
 30
0.0
  0
VERTEX
  8
0
 10
3.8047338873432923
 20
13.433027116830225
 30
0.0
  0
VERTEX
  8
0
 10
3.8338575922139295
 20
13.460434662672293
 30
0.0
  0
VERTEX
  8
0
 10
3.8631032941196177
 20
13.48774588227325
 30
0.0
  0
VERTEX
  8
0
 10
3.8924691011467902
 20
13.514962043304616
 30
0.0
  0
VERTEX
  8
0
 10
3.9219531384729116
 20
13.542084414147974
 30
0.0
  0
VERTEX
  8
0
 10
3.9515535482911543
 20
13.569114263833352
 30
0.0
  0
VERTEX
  8
0
 10
3.9812684897350636
 20
13.596052861977599
 30
0.0
  0
VERTEX
  8
0
 10
4.011096138803236
 20
13.622901478722753
 30
0.0
  0
VERTEX
  8
0
 10
4.041034688283978
 20
13.649661384674426
 30
0.0
  0
VERTEX
  8
0
 10
4.071082347679993
 20
13.676333850840185
 30
0.0
  0
VERTEX
  8
0
 10
4.101237343133035
 20
13.702920148567916
 30
0.0
  0
VERTEX
  8
0
 10
4.131497917348595
 20
13.729421549484211
 30
0.0
  0
VERTEX
  8
0
 10
4.161862329520553
 20
13.755839325432753
 30
0.0
  0
VERTEX
  8
0
 10
4.1923288552558695
 20
13.782174748412656
 30
0.0
  0
VERTEX
  8
0
 10
4.222895786499243
 20
13.808429090516904
 30
0.0
  0
VERTEX
  8
0
 10
4.253561431457782
 20
13.83460362387067
 30
0.0
  0
VERTEX
  8
0
 10
4.284324114525678
 20
13.860699620569724
 30
0.0
  0
VERTEX
  8
0
 10
4.315182176208875
 20
13.886718352618798
 30
0.0
  0
VERTEX
  8
0
 10
4.346133973049743
 20
13.912661091869968
 30
0.0
  0
VERTEX
  8
0
 10
4.377177877551746
 20
13.93852910996103
 30
0.0
  0
VERTEX
  8
0
 10
4.408312278104107
 20
13.964323678253885
 30
0.0
  0
VERTEX
  8
0
 10
4.439535578906494
 20
13.990046067772894
 30
0.0
  0
VERTEX
  8
0
 10
4.470846199893675
 20
14.01569754914329
 30
0.0
  0
VERTEX
  8
0
 10
4.502242576660193
 20
14.041279392529509
 30
0.0
  0
VERTEX
  8
0
 10
4.533723160385047
 20
14.066792867573609
 30
0.0
  0
VERTEX
  8
0
 10
4.565286417756344
 20
14.092239243333633
 30
0.0
  0
VERTEX
  8
0
 10
4.596930830895989
 20
14.117619788221976
 30
0.0
  0
VERTEX
  8
0
 10
4.6286548972843375
 20
14.142935769943769
 30
0.0
  0
VERTEX
  8
0
 10
4.660457129684883
 20
14.168188455435265
 30
0.0
  0
VERTEX
  8
0
 10
4.692336056068914
 20
14.193379110802203
 30
0.0
  0
VERTEX
  8
0
 10
4.724290219540194
 20
14.218509001258184
 30
0.0
  0
VERTEX
  8
0
 10
4.756318178259628
 20
14.243579391063067
 30
0.0
  0
VERTEX
  8
0
 10
4.788418505369929
 20
14.268591543461325
 30
0.0
  0
VERTEX
  8
0
 10
4.820589788920298
 20
14.293546720620434
 30
0.0
  0
VERTEX
  8
0
 10
4.85283063179109
 20
14.31844618356923
 30
0.0
  0
VERTEX
  8
0
 10
4.885139651618483
 20
14.343291192136343
 30
0.0
  0
VERTEX
  8
0
 10
4.91751548071915
 20
14.36808300488849
 30
0.0
  0
VERTEX
  8
0
 10
4.949956766014929
 20
14.392822879068914
 30
0.0
  0
VERTEX
  8
0
 10
4.982462168957499
 20
14.417512070535746
 30
0.0
  0
VERTEX
  8
0
 10
5.01503036545304
 20
14.442151833700379
 30
0.0
  0
VERTEX
  8
0
 10
5.047660045786912
 20
14.466743421465823
 30
0.0
  0
VERTEX
  8
0
 10
5.080349914548324
 20
14.491288085165136
 30
0.0
  0
VERTEX
  8
0
 10
5.113098690555006
 20
14.515787074499755
 30
0.0
  0
VERTEX
  8
0
 10
5.145905106777873
 20
14.540241637477877
 30
0.0
  0
VERTEX
  8
0
 10
5.1787679102657025
 20
14.564653020352853
 30
0.0
  0
VERTEX
  8
0
 10
5.211685862069805
 20
14.589022467561573
 30
0.0
  0
VERTEX
  8
0
 10
5.2446577371686915
 20
14.613351221662816
 30
0.0
  0
VERTEX
  8
0
 10
5.2776823243927415
 20
14.637640523275625
 30
0.0
  0
VERTEX
  8
0
 10
5.310758426348882
 20
14.661891611017719
 30
0.0
  0
VERTEX
  8
0
 10
5.343884859345252
 20
14.686105721443848
 30
0.0
  0
VERTEX
  8
0
 10
5.377060453315873
 20
14.710284088984162
 30
0.0
  0
VERTEX
  8
0
 10
5.410284051745323
 20
14.734427945882599
 30
0.0
  0
VERTEX
  8
0
 10
5.4435545115934065
 20
14.758538522135272
 30
0.0
  0
VERTEX
  8
0
 10
5.476870703219824
 20
14.782617045428822
 30
0.0
  0
VERTEX
  8
0
 10
5.510231510308836
 20
14.80666474107881
 30
0.0
  0
VERTEX
  8
0
 10
5.54363582979395
 20
14.8306828319681
 30
0.0
  0
VERTEX
  8
0
 10
5.577082571782574
 20
14.854672538485213
 30
0.0
  0
VERTEX
  8
0
 10
5.610570659480701
 20
14.87863507846274
 30
0.0
  0
VERTEX
  8
0
 10
5.644099029117569
 20
14.902571667115676
 30
0.0
  0
VERTEX
  8
0
 10
5.677666629870336
 20
14.926483516979834
 30
0.0
  0
VERTEX
  8
0
 10
5.711272423788751
 20
14.95037183785021
 30
0.0
  0
VERTEX
  8
0
 10
5.74491538571983
 20
14.974237836719343
 30
0.0
  0
VERTEX
  8
0
 10
5.778594503232506
 20
14.998082717715713
 30
0.0
  0
VERTEX
  8
0
 10
5.8123087765423325
 20
15.02190768204211
 30
0.0
  0
VERTEX
  8
0
 10
5.84605721843612
 20
15.04571392791402
 30
0.0
  0
VERTEX
  8
0
 10
5.879838854196636
 20
15.069502650497997
 30
0.0
  0
VERTEX
  8
0
 10
5.913652721527254
 20
15.093275041850012
 30
0.0
  0
VERTEX
  8
0
 10
5.947497870476639
 20
15.117032290853889
 30
0.0
  0
VERTEX
  8
0
 10
5.981373363363401
 20
15.140775583159627
 30
0.0
  0
VERTEX
  8
0
 10
6.015278274700788
 20
15.164506101121807
 30
0.0
  0
VERTEX
  8
0
 10
6.0492116911213385
 20
15.188225023737964
 30
0.0
  0
VERTEX
  8
0
 10
6.083172711301561
 20
15.211933526586952
 30
0.0
  0
VERTEX
  8
0
 10
6.117160445886602
 20
15.23563278176734
 30
0.0
  0
VERTEX
  8
0
 10
6.151174017414913
 20
15.25932395783577
 30
0.0
  0
VERTEX
  8
0
 10
6.185212560242933
 20
15.283008219745351
 30
0.0
  0
VERTEX
  8
0
 10
6.219275220469742
 20
15.306686728784019
 30
0.0
  0
VERTEX
  8
0
 10
6.253361155861746
 20
15.330360642512938
 30
0.0
  0
VERTEX
  8
0
 10
6.287469535777343
 20
15.354031114704846
 30
0.0
  0
VERTEX
  8
0
 10
6.321599541091593
 20
15.377699295282465
 30
0.0
  0
VERTEX
  8
0
 10
6.355750364120883
 20
15.401366330256849
 30
0.0
  0
VERTEX
  8
0
 10
6.389921208547611
 20
15.425033361665777
 30
0.0
  0
VERTEX
  8
0
 10
6.424111289344845
 20
15.448701527512132
 30
0.0
  0
VERTEX
  8
0
 10
6.458319832700999
 20
15.472371961702267
 30
0.0
  0
VERTEX
  8
0
 10
6.4925460759444995
 20
15.496045793984386
 30
0.0
  0
VERTEX
  8
0
 10
6.526789267468464
 20
15.519724149886935
 30
0.0
  0
VERTEX
  8
0
 10
6.561048666655362
 20
15.543408150656953
 30
0.0
  0
VERTEX
  8
0
 10
6.595323543801693
 20
15.567098913198473
 30
0.0
  0
VERTEX
  8
0
 10
6.62961318004265
 20
15.590797550010882
 30
0.0
  0
VERTEX
  8
0
 10
6.663916867276799
 20
15.61450516912731
 30
0.0
  0
VERTEX
  8
0
 10
6.698233908090744
 20
15.638222874053
 30
0.0
  0
VERTEX
  8
0
 10
6.732563615683801
 20
15.66195176370369
 30
0.0
  0
VERTEX
  8
0
 10
6.766905313792658
 20
15.685692932343988
 30
0.0
  0
VERTEX
  8
0
 10
6.801258336616066
 20
15.709447469525749
 30
0.0
  0
VERTEX
  8
0
 10
6.835622028739487
 20
15.733216460026439
 30
0.0
  0
VERTEX
  8
0
 10
6.869995745059784
 20
15.757000983787552
 30
0.0
  0
VERTEX
  8
0
 10
6.904378850709876
 20
15.780802115852929
 30
0.0
  0
VERTEX
  8
0
 10
6.938770720983418
 20
15.804620926307186
 30
0.0
  0
VERTEX
  8
0
 10
6.973170741259471
 20
15.828458480214064
 30
0.0
  0
VERTEX
  8
0
 10
7.00757830692717
 20
15.852315837554816
 30
0.0
  0
VERTEX
  8
0
 10
7.0419928233103946
 20
15.876194053166577
 30
0.0
  0
VERTEX
  8
0
 10
7.076413705592439
 20
15.900094176680748
 30
0.0
  0
VERTEX
  8
0
 10
7.110840378740689
 20
15.92401725246137
 30
0.0
  0
VERTEX
  8
0
 10
7.145272277431285
 20
15.947964319543505
 30
0.0
  0
VERTEX
  8
0
 10
7.179708845973794
 20
15.971936411571605
 30
0.0
  0
VERTEX
  8
0
 10
7.214149538235884
 20
15.995934556737888
 30
0.0
  0
VERTEX
  8
0
 10
7.248593817567992
 20
16.019959777720736
 30
0.0
  0
VERTEX
  8
0
 10
7.283041156727995
 20
16.044013091623043
 30
0.0
  0
VERTEX
  8
0
 10
7.317491037805879
 20
16.06809550991061
 30
0.0
  0
VERTEX
  8
0
 10
7.3519429521484145
 20
16.09220803835052
 30
0.0
  0
VERTEX
  8
0
 10
7.386396400283819
 20
16.116351676949506
 30
0.0
  0
VERTEX
  8
0
 10
7.420850891846439
 20
16.140527419892347
 30
0.0
  0
VERTEX
  8
0
 10
7.455305945501408
 20
16.164736255480218
 30
0.0
  0
VERTEX
  8
0
 10
7.48976108886933
 20
16.188979166069103
 30
0.0
  0
VERTEX
  8
0
 10
7.524215858450936
 20
16.213257128008124
 30
0.0
  0
VERTEX
  8
0
 10
7.558669799551766
 20
16.237571111577967
 30
0.0
  0
VERTEX
  8
0
 10
7.5931224662068395
 20
16.26192208092923
 30
0.0
  0
VERTEX
  8
0
 10
7.627573421105313
 20
16.286310994020806
 30
0.0
  0
VERTEX
  8
0
 10
7.662022235515168
 20
16.310738802558262
 30
0.0
  0
VERTEX
  8
0
 10
7.696468489207872
 20
16.335206451932216
 30
0.0
  0
VERTEX
  8
0
 10
7.730911770383051
 20
16.359714881156723
 30
0.0
  0
VERTEX
  8
0
 10
7.765351675593156
 20
16.384265022807615
 30
0.0
  0
VERTEX
  8
0
 10
7.799787809668143
 20
16.408857802960934
 30
0.0
  0
VERTEX
  8
0
 10
7.834219785640133
 20
16.43349414113128
 30
0.0
  0
VERTEX
  8
0
 10
7.868647224668095
 20
16.458174950210168
 30
0.0
  0
VERTEX
  8
0
 10
7.9030697559625
 20
16.482901136404443
 30
0.0
  0
VERTEX
  8
0
 10
7.93748701671001
 20
16.50767359917463
 30
0.0
  0
VERTEX
  8
0
 10
7.971898651998138
 20
16.532493231173333
 30
0.0
  0
VERTEX
  8
0
 10
8.00630431473992
 20
16.557360918183598
 30
0.0
  0
VERTEX
  8
0
 10
8.040703665598576
 20
16.582277539057277
 30
0.0
  0
VERTEX
  8
0
 10
8.075096372912206
 20
16.607243965653428
 30
0.0
  0
VERTEX
  8
0
 10
8.109482112618439
 20
16.6322610627767
 30
0.0
  0
VERTEX
  8
0
 10
8.143860568179111
 20
16.657329688115677
 30
0.0
  0
VERTEX
  8
0
 10
8.17823143050493
 20
16.68245069218127
 30
0.0
  0
VERTEX
  8
0
 10
8.212594397880158
 20
16.70762491824512
 30
0.0
  0
VERTEX
  8
0
 10
8.246949175887272
 20
16.732853202277923
 30
0.0
  0
VERTEX
  8
0
 10
8.281295477331634
 20
16.75813637288785
 30
0.0
  0
VERTEX
  8
0
 10
8.315633022166171
 20
16.783475251258913
 30
0.0
  0
VERTEX
  8
0
 10
8.349961537416041
 20
16.80887065108934
 30
0.0
  0
VERTEX
  8
0
 10
8.384280757103294
 20
16.834323378529934
 30
0.0
  0
VERTEX
  8
0
 10
8.41859042217156
 20
16.859834232122484
 30
0.0
  0
VERTEX
  8
0
 10
8.452890280410701
 20
16.88540400273812
 30
0.0
  0
VERTEX
  8
0
 10
8.487180086381507
 20
16.911033473515694
 30
0.0
  0
VERTEX
  8
0
 10
8.521459601340334
 20
16.936723419800156
 30
0.0
  0
VERTEX
  8
0
 10
8.555728593163803
 20
16.96247460908094
 30
0.0
  0
VERTEX
  8
0
 10
8.589986836273454
 20
16.988287800930333
 30
0.0
  0
VERTEX
  8
0
 10
8.624234111560423
 20
17.014163746941854
 30
0.0
  0
VERTEX
  8
0
 10
8.658470206310115
 20
17.040103190668624
 30
0.0
  0
VERTEX
  8
0
 10
8.692694914126866
 20
17.06610686756175
 30
0.0
  0
VERTEX
  8
0
 10
8.726908034858623
 20
17.09217550490872
 30
0.0
  0
VERTEX
  8
0
 10
8.761109374521606
 20
17.118309821771735
 30
0.0
  0
VERTEX
  8
0
 10
8.795298745224992
 20
17.144510528926123
 30
0.0
  0
VERTEX
  8
0
 10
8.829475965095565
 20
17.170778328798715
 30
0.0
  0
VERTEX
  8
0
 10
8.86364085820241
 20
17.197113915406213
 30
0.0
  0
VERTEX
  8
0
 10
8.897793254481561
 20
17.223517974293554
 30
0.0
  0
VERTEX
  8
0
 10
8.931932989660691
 20
17.249991182472293
 30
0.0
  0
VERTEX
  8
0
 10
8.966059905183773
 20
17.27653420835902
 30
0.0
  0
VERTEX
  8
0
 10
9.000173848135747
 20
17.30314771171368
 30
0.0
  0
VERTEX
  8
0
 10
9.034274671167204
 20
17.329832343577976
 30
0.0
  0
VERTEX
  8
0
 10
9.06836223241904
 20
17.356588746213752
 30
0.0
  0
VERTEX
  8
0
 10
9.102436395447139
 20
17.383417553041358
 30
0.0
  0
VERTEX
  8
0
 10
9.136497029147048
 20
17.41031938857804
 30
0.0
  0
VERTEX
  8
0
 10
9.17054400767862
 20
17.437294868376288
 30
0.0
  0
VERTEX
  8
0
 10
9.204577210390717
 20
17.464344598962246
 30
0.0
  0
VERTEX
  8
0
 10
9.238596521745864
 20
17.49146917777409
 30
0.0
  0
VERTEX
  8
0
 10
9.272601831244929
 20
17.518669193100376
 30
0.0
  0
VERTEX
  8
0
 10
9.306593033351778
 20
17.545945224018425
 30
0.0
  0
VERTEX
  8
0
 10
9.340570027417963
 20
17.573297840332735
 30
0.0
  0
VERTEX
  8
0
 10
9.374532717607382
 20
17.600727602513313
 30
0.0
  0
VERTEX
  8
0
 10
9.408481012820953
 20
17.62823506163406
 30
0.0
  0
VERTEX
  8
0
 10
9.442414826621286
 20
17.65582075931119
 30
0.0
  0
VERTEX
  8
0
 10
9.476334077157349
 20
17.683485227641548
 30
0.0
  0
VERTEX
  8
0
 10
9.510238687089144
 20
17.71122898914102
 30
0.0
  0
VERTEX
  8
0
 10
9.544128583512373
 20
17.73905255668291
 30
0.0
  0
VERTEX
  8
0
 10
9.578003697883117
 20
17.766956433436313
 30
0.0
  0
VERTEX
  8
0
 10
9.61186396594249
 20
17.794941112804487
 30
0.0
  0
VERTEX
  8
0
 10
9.64570932764133
 20
17.823007078363226
 30
0.0
  0
VERTEX
  8
0
 10
9.679539727064851
 20
17.851154803799254
 30
0.0
  0
VERTEX
  8
0
 10
9.713355112357336
 20
17.879384752848598
 30
0.0
  0
VERTEX
  8
0
 10
9.747155435646782
 20
17.907697379234957
 30
0.0
  0
VERTEX
  8
0
 10
9.780940652969583
 20
17.93609312660806
 30
0.0
  0
VERTEX
  8
0
 10
9.814710724195209
 20
17.964572428482104
 30
0.0
  0
VERTEX
  8
0
 10
9.848465612950859
 20
17.99313570817405
 30
0.0
  0
VERTEX
  8
0
 10
9.882205286546148
 20
18.021783378742086
 30
0.0
  0
VERTEX
  8
0
 10
9.915929715897763
 20
18.050515842923925
 30
0.0
  0
VERTEX
  8
0
 10
9.949638875454148
 20
18.079333493075236
 30
0.0
  0
VERTEX
  8
0
 10
9.983332743120169
 20
18.108236711107995
 30
0.0
  0
VERTEX
  8
0
 10
10.017011300181771
 20
18.137225868428867
 30
0.0
  0
VERTEX
  8
0
 10
10.05067453123067
 20
18.16630132587759
 30
0.0
  0
VERTEX
  8
0
 10
10.084322424089013
 20
18.19546343366536
 30
0.0
  0
VERTEX
  8
0
 10
10.117954969734054
 20
18.224712531313173
 30
0.0
  0
VERTEX
  8
0
 10
10.151572162222816
 20
18.25404894759023
 30
0.0
  0
VERTEX
  8
0
 10
10.185173998616767
 20
18.283473000452332
 30
0.0
  0
VERTEX
  8
0
 10
10.21876047890649
 20
18.3129849969802
 30
0.0
  0
VERTEX
  8
0
 10
10.252331605936357
 20
18.34258523331791
 30
0.0
  0
VERTEX
  8
0
 10
10.285887385329191
 20
18.372273994611238
 30
0.0
  0
VERTEX
  8
0
 10
10.319427825410948
 20
18.40205155494604
 30
0.0
  0
VERTEX
  8
0
 10
10.352952937135377
 20
18.431918177286647
 30
0.0
  0
VERTEX
  8
0
 10
10.386462734008697
 20
18.461874113414222
 30
0.0
  0
VERTEX
  8
0
 10
10.419957232014267
 20
18.491919603865142
 30
0.0
  0
VERTEX
  8
0
 10
10.453436449537252
 20
18.522054877869376
 30
0.0
  0
VERTEX
  8
0
 10
10.486900407289301
 20
18.552280153288876
 30
0.0
  0
VERTEX
  8
0
 10
10.52034912823321
 20
18.582595636555926
 30
0.0
  0
VERTEX
  8
0
 10
10.553782637507608
 20
18.613001522611548
 30
0.0
  0
VERTEX
  8
0
 10
10.587200962351597
 20
18.643497994843855
 30
0.0
  0
VERTEX
  8
0
 10
10.620604132029456
 20
18.674085225026445
 30
0.0
  0
VERTEX
  8
0
 10
10.653992177755296
 20
18.704763373256775
 30
0.0
  0
VERTEX
  8
0
 10
10.687365132617725
 20
18.735532587894525
 30
0.0
  0
VERTEX
  8
0
 10
10.720723031504532
 20
18.76639300549999
 30
0.0
  0
VERTEX
  8
0
 10
10.75406591102735
 20
18.79734475077246
 30
0.0
  0
VERTEX
  8
0
 10
10.787393809446327
 20
18.82838793648857
 30
0.0
  0
VERTEX
  8
0
 10
10.8207067665948
 20
18.859522663440725
 30
0.0
  0
VERTEX
  8
0
 10
10.854004823803958
 20
18.89074902037542
 30
0.0
  0
VERTEX
  8
0
 10
10.887288023827525
 20
18.92206708393166
 30
0.0
  0
VERTEX
  8
0
 10
10.920556410766418
 20
18.95347691857932
 30
0.0
  0
VERTEX
  8
0
 10
10.953810029993427
 20
18.984978576557523
 30
0.0
  0
VERTEX
  8
0
 10
10.987048928077876
 20
19.016572097813018
 30
0.0
  0
VERTEX
  8
0
 10
11.020273152710304
 20
19.048257509938566
 30
0.0
  0
VERTEX
  8
0
 10
11.053482752627138
 20
19.0800348281113
 30
0.0
  0
VERTEX
  8
0
 10
11.08667777753534
 20
19.11190405503111
 30
0.0
  0
VERTEX
  8
0
 10
11.119858278037107
 20
19.143865180859027
 30
0.0
  0
VERTEX
  8
0
 10
11.153024305554526
 20
19.17591818315559
 30
0.0
  0
VERTEX
  8
0
 10
11.18617591225425
 20
19.20806302681923
 30
0.0
  0
VERTEX
  8
0
 10
11.219313150972159
 20
19.240299664024644
 30
0.0
  0
VERTEX
  8
0
 10
11.252436075138043
 20
19.272628034161166
 30
0.0
  0
VERTEX
  8
0
 10
11.285544738700274
 20
19.30504806377116
 30
0.0
  0
VERTEX
  8
0
 10
11.318639196050457
 20
19.337559666488378
 30
0.0
  0
VERTEX
  8
0
 10
11.351719501948121
 20
19.37016274297636
 30
0.0
  0
VERTEX
  8
0
 10
11.384785711445383
 20
19.402857180866775
 30
0.0
  0
VERTEX
  8
0
 10
11.417837879811621
 20
19.435642854697846
 30
0.0
  0
VERTEX
  8
0
 10
11.45087606245813
 20
19.468519625852686
 30
0.0
  0
VERTEX
  8
0
 10
11.48390031486282
 20
19.501487342497693
 30
0.0
  0
VERTEX
  8
0
 10
11.516910692494863
 20
19.534545839520934
 30
0.0
  0
VERTEX
  8
0
 10
11.549907250739363
 20
19.567694938470492
 30
0.0
  0
VERTEX
  8
0
 10
11.582890044822053
 20
19.60093444749289
 30
0.0
  0
VERTEX
  8
0
 10
11.615859129733936
 20
19.63426416127142
 30
0.0
  0
VERTEX
  8
0
 10
11.648814560155975
 20
19.66768386096456
 30
0.0
  0
VERTEX
  8
0
 10
11.681756390383748
 20
19.701193314144316
 30
0.0
  0
VERTEX
  8
0
 10
11.714684674252135
 20
19.73479227473463
 30
0.0
  0
VERTEX
  8
0
 10
11.747599465059974
 20
19.768480482949744
 30
0.0
  0
VERTEX
  8
0
 10
11.780500815494744
 20
19.802257665232563
 30
0.0
  0
VERTEX
  8
0
 10
11.813388777557224
 20
19.836123534193057
 30
0.0
  0
VERTEX
  8
0
 10
11.846263402486176
 20
19.870077788546617
 30
0.0
  0
VERTEX
  8
0
 10
11.879124740683004
 20
19.904120113052457
 30
0.0
  0
VERTEX
  8
0
 10
11.911972841636432
 20
19.938250178451963
 30
0.0
  0
VERTEX
  8
0
 10
11.944807753847169
 20
19.972467641407082
 30
0.0
  0
VERTEX
  8
0
 10
11.977629524752588
 20
20.006772144438703
 30
0.0
  0
VERTEX
  8
0
 10
12.010438200651391
 20
20.04116331586504
 30
0.0
  0
VERTEX
  8
0
 10
12.043233826628281
 20
20.075640769739994
 30
0.0
  0
VERTEX
  8
0
 10
12.076016446478622
 20
20.11020410579152
 30
0.0
  0
VERTEX
  8
0
 10
12.108786102633132
 20
20.14485290936004
 30
0.0
  0
VERTEX
  8
0
 10
12.14154283608254
 20
20.1795867513368
 30
0.0
  0
VERTEX
  8
0
 10
12.174286686302251
 20
20.21440518810224
 30
0.0
  0
VERTEX
  8
0
 10
12.207017691177025
 20
20.249307761464376
 30
0.0
  0
VERTEX
  8
0
 10
12.239735886925654
 20
20.284293998597185
 30
0.0
  0
VERTEX
  8
0
 10
12.272441308025616
 20
20.319363411978976
 30
0.0
  0
VERTEX
  8
0
 10
12.30513398713776
 20
20.35451549933077
 30
0.0
  0
VERTEX
  8
0
 10
12.337813955030962
 20
20.389749743554667
 30
0.0
  0
VERTEX
  8
0
 10
12.37048124050682
 20
20.42506561267223
 30
0.0
  0
VERTEX
  8
0
 10
12.403135870324299
 20
20.460462559762874
 30
0.0
  0
VERTEX
  8
0
 10
12.435777869124408
 20
20.495940022902232
 30
0.0
  0
VERTEX
  8
0
 10
12.468407259354887
 20
20.531497425100515
 30
0.0
  0
VERTEX
  8
0
 10
12.501024061194858
 20
20.567134174240927
 30
0.0
  0
VERTEX
  8
0
 10
12.533628292479502
 20
20.602849663018
 30
0.0
  0
VERTEX
  8
0
 10
12.566219968624736
 20
20.63864326887601
 30
0.0
  0
VERTEX
  8
0
 10
12.598799102551869
 20
20.674514353947327
 30
0.0
  0
VERTEX
  8
0
 10
12.631365704612293
 20
20.71046226499081
 30
0.0
  0
VERTEX
  8
0
 10
12.663919782512128
 20
20.746486333330154
 30
0.0
  0
VERTEX
  8
0
 10
12.696461341236926
 20
20.78258587479232
 30
0.0
  0
VERTEX
  8
0
 10
12.72899038297631
 20
20.818760189645857
 30
0.0
  0
VERTEX
  8
0
 10
12.76150690704866
 20
20.85500856253931
 30
0.0
  0
VERTEX
  8
0
 10
12.794010909825785
 20
20.89133026243959
 30
0.0
  0
VERTEX
  8
0
 10
12.826502384657577
 20
20.92772454257035
 30
0.0
  0
VERTEX
  8
0
 10
12.858981321796714
 20
20.964190640350356
 30
0.0
  0
VERTEX
  8
0
 10
12.891447708323291
 20
21.000727777331896
 30
0.0
  0
VERTEX
  8
0
 10
12.923901528069528
 20
21.037335159139097
 30
0.0
  0
VERTEX
  8
0
 10
12.956342761544411
 20
21.07401197540636
 30
0.0
  0
VERTEX
  8
0
 10
12.988771385858382
 20
21.11075739971671
 30
0.0
  0
VERTEX
  8
0
 10
13.021187374647997
 20
21.147570589540177
 30
0.0
  0
VERTEX
  8
0
 10
13.053590698000608
 20
21.184450686172163
 30
0.0
  0
VERTEX
  8
0
 10
13.085981322379022
 20
21.22139681467184
 30
0.0
  0
VERTEX
  8
0
 10
13.118359210546187
 20
21.258408083800536
 30
0.0
  0
VERTEX
  8
0
 10
13.150724321489838
 20
21.29548358596004
 30
0.0
  0
VERTEX
  8
0
 10
13.183076610347193
 20
21.33262239713108
 30
0.0
  0
VERTEX
  8
0
 10
13.215416028329615
 20
21.36982357681163
 30
0.0
  0
VERTEX
  8
0
 10
13.247742522647277
 20
21.407086167955306
 30
0.0
  0
VERTEX
  8
0
 10
13.280056036433836
 20
21.444409196909767
 30
0.0
  0
VERTEX
  8
0
 10
13.312356508671106
 20
21.48179167335505
 30
0.0
  0
VERTEX
  8
0
 10
13.344643874113727
 20
21.519232590241973
 30
0.0
  0
VERTEX
  8
0
 10
13.376918063213836
 20
21.55673092373051
 30
0.0
  0
VERTEX
  8
0
 10
13.409179002045736
 20
21.594285633128163
 30
0.0
  0
VERTEX
  8
0
 10
13.441426612230567
 20
21.631895660828345
 30
0.0
  0
VERTEX
  8
0
 10
13.473660810860983
 20
21.66955993224875
 30
0.0
  0
VERTEX
  8
0
 10
13.505881510425809
 20
21.707277355769726
 30
0.0
  0
VERTEX
  8
0
 10
13.538088618734722
 20
21.745046822672677
 30
0.0
  0
VERTEX
  8
0
 10
13.57028203884293
 20
21.782867207078404
 30
0.0
  0
VERTEX
  8
0
 10
13.602461668975813
 20
21.820737365885517
 30
0.0
  0
VERTEX
  8
0
 10
13.634627402453631
 20
21.858656138708778
 30
0.0
  0
VERTEX
  8
0
 10
13.666779127616167
 20
21.896622347817512
 30
0.0
  0
VERTEX
  8
0
 10
13.698916727747404
 20
21.93463479807396
 30
0.0
  0
VERTEX
  8
0
 10
13.73104008100021
 20
21.97269227687167
 30
0.0
  0
VERTEX
  8
0
 10
13.763149060320984
 20
22.010793554073842
 30
0.0
  0
VERTEX
  8
0
 10
13.79524353337435
 20
22.048937381951774
 30
0.0
  0
VERTEX
  8
0
 10
13.827323362467814
 20
22.087122495123165
 30
0.0
  0
VERTEX
  8
0
 10
13.859388404476435
 20
22.125347610490536
 30
0.0
  0
VERTEX
  8
0
 10
13.891438510767506
 20
22.163611427179582
 30
0.0
  0
VERTEX
  8
0
 10
13.923473527125212
 20
22.201912626477572
 30
0.0
  0
VERTEX
  8
0
 10
13.955493293675307
 20
22.240249871771717
 30
0.0
  0
VERTEX
  8
0
 10
13.987497644809785
 20
22.278621808487543
 30
0.0
  0
VERTEX
  8
0
 10
14.01948640911155
 20
22.317027064027258
 30
0.0
  0
VERTEX
  8
0
 10
14.051459409279085
 20
22.355464247708163
 30
0.0
  0
VERTEX
  8
0
 10
14.083416462051122
 20
22.39393195070099
 30
0.0
  0
VERTEX
  8
0
 10
14.115357378131312
 20
22.432428745968302
 30
0.0
  0
VERTEX
  8
0
 10
14.147281962112912
 20
22.47095318820287
 30
0.0
  0
VERTEX
  8
0
 10
14.179190012403426
 20
22.50950381376605
 30
0.0
  0
VERTEX
  8
0
 10
14.211081321149294
 20
22.548079140626122
 30
0.0
  0
VERTEX
  8
0
 10
14.242955674160564
 20
22.586677668296744
 30
0.0
  0
VERTEX
  8
0
 10
14.274812850835561
 20
22.625297877775267
 30
0.0
  0
VERTEX
  8
0
 10
14.306652624085547
 20
22.66393823148111
 30
0.0
  0
VERTEX
  8
0
 10
14.338474760259407
 20
22.702597173194192
 30
0.0
  0
VERTEX
  8
0
 10
14.37027901906831
 20
22.741273127993246
 30
0.0
  0
VERTEX
  8
0
 10
14.402065153510376
 20
22.779964502194247
 30
0.0
  0
VERTEX
  8
0
 10
14.433832909795365
 20
22.81866968328875
 30
0.0
  0
VERTEX
  8
0
 10
14.46558202726933
 20
22.85738703988229
 30
0.0
  0
VERTEX
  8
0
 10
14.497312238339289
 20
22.89611492163275
 30
0.0
  0
VERTEX
  8
0
 10
14.5290232683979
 20
22.934851659188745
 30
0.0
  0
VERTEX
  8
0
 10
14.560714835748136
 20
22.97359556412799
 30
0.0
  0
VERTEX
  8
0
 10
14.592386651527951
 20
23.01234492889569
 30
0.0
  0
VERTEX
  8
0
 10
14.624038419634946
 20
23.051098026742885
 30
0.0
  0
VERTEX
  8
0
 10
14.655669836651048
 20
23.08985311166489
 30
0.0
  0
VERTEX
  8
0
 10
14.68728059176718
 20
23.128608418339606
 30
0.0
  0
VERTEX
  8
0
 10
14.718870366707911
 20
23.16736216206592
 30
0.0
  0
VERTEX
  8
0
 10
14.750438835656167
 20
23.206112538702108
 30
0.0
  0
VERTEX
  8
0
 10
14.781985665177869
 20
23.24485772460417
 30
0.0
  0
VERTEX
  8
0
 10
14.81351051414661
 20
23.283595876564238
 30
0.0
  0
VERTEX
  8
0
 10
14.845013033668334
 20
23.322325131748944
 30
0.0
  0
VERTEX
  8
0
 10
14.876492867006004
 20
23.361043607637782
 30
0.0
  0
VERTEX
  8
0
 10
14.907949649504255
 20
23.399749401961515
 30
0.0
  0
VERTEX
  8
0
 10
14.939383008514103
 20
23.438440592640532
 30
0.0
  0
VERTEX
  8
0
 10
14.97079256331758
 20
23.477115237723222
 30
0.0
  0
VERTEX
  8
0
 10
15.002177925052415
 20
23.515771375324363
 30
0.0
  0
VERTEX
  8
0
 10
15.033538696636711
 20
23.55440702356348
 30
0.0
  0
VERTEX
  8
0
 10
15.06487447269361
 20
23.593020180503267
 30
0.0
  0
VERTEX
  8
0
 10
15.096184839475967
 20
23.6316088240879
 30
0.0
  0
VERTEX
  8
0
 10
15.127469374791017
 20
23.67017091208146
 30
0.0
  0
VERTEX
  8
0
 10
15.158727647925055
 20
23.70870438200631
 30
0.0
  0
VERTEX
  8
0
 10
15.189959219568081
 20
23.747207151081437
 30
0.0
  0
VERTEX
  8
0
 10
15.221163641738512
 20
23.785677116160862
 30
0.0
  0
VERTEX
  8
0
 10
15.252340457707808
 20
23.82411215367201
 30
0.0
  0
VERTEX
  8
0
 10
15.28348920192518
 20
23.86251011955408
 30
0.0
  0
VERTEX
  8
0
 10
15.314609399942235
 20
23.90086884919642
 30
0.0
  0
VERTEX
  8
0
 10
15.345700568337662
 20
23.93918615737692
 30
0.0
  0
VERTEX
  8
0
 10
15.376762214641893
 20
23.97745983820037
 30
0.0
  0
VERTEX
  8
0
 10
15.40779383726178
 20
24.01568766503685
 30
0.0
  0
VERTEX
  8
0
 10
15.438794925405261
 20
24.05386739046009
 30
0.0
  0
VERTEX
  8
0
 10
15.469764959006037
 20
24.09199674618589
 30
0.0
  0
VERTEX
  8
0
 10
15.500703408648237
 20
24.130073443010446
 30
0.0
  0
VERTEX
  8
0
 10
15.531609735491081
 20
24.168095170748735
 30
0.0
  0
VERTEX
  8
0
 10
15.562483391193581
 20
24.206059598172935
 30
0.0
  0
VERTEX
  8
0
 10
15.593323817839167
 20
24.243964372950753
 30
0.0
  0
VERTEX
  8
0
 10
15.624130447860395
 20
24.281807121583817
 30
0.0
  0
VERTEX
  8
0
 10
15.654902703963598
 20
24.31958544934608
 30
0.0
  0
VERTEX
  8
0
 10
15.68563999905357
 20
24.357296940222156
 30
0.0
  0
VERTEX
  8
0
 10
15.71634173615822
 20
24.394939156845723
 30
0.0
  0
VERTEX
  8
0
 10
15.747007308353256
 20
24.43250964043788
 30
0.0
  0
VERTEX
  8
0
 10
15.777636098686845
 20
24.47000591074555
 30
0.0
  0
VERTEX
  8
0
 10
15.8082274801043
 20
24.507425465979843
 30
0.0
  0
VERTEX
  8
0
 10
15.838780815372736
 20
24.544765782754425
 30
0.0
  0
VERTEX
  8
0
 10
15.869295457005748
 20
24.58202431602392
 30
0.0
  0
VERTEX
  8
0
 10
15.899770747188075
 20
24.619198499022247
 30
0.0
  0
VERTEX
  8
0
 10
15.930206017700272
 20
24.656285743201046
 30
0.0
  0
VERTEX
  8
0
 10
15.960600589843388
 20
24.69328343816801
 30
0.0
  0
VERTEX
  8
0
 10
15.990953774363629
 20
24.730188951625287
 30
0.0
  0
VERTEX
  8
0
 10
16.02126487137704
 20
24.76699962930787
 30
0.0
  0
VERTEX
  8
0
 10
16.05153317029415
 20
24.80371279492193
 30
0.0
  0
VERTEX
  8
0
 10
16.081757949744677
 20
24.840325750083238
 30
0.0
  0
VERTEX
  8
0
 10
16.111938477502164
 20
24.876835774255508
 30
0.0
  0
VERTEX
  8
0
 10
16.142074010408695
 20
24.913240124688805
 30
0.0
  0
VERTEX
  8
0
 10
16.172163794299504
 20
24.949536036357898
 30
0.0
  0
VERTEX
  8
0
 10
16.2022070639277
 20
24.98572072190065
 30
0.0
  0
VERTEX
  8
0
 10
16.232203042888912
 20
25.021791371556382
 30
0.0
  0
VERTEX
  8
0
 10
16.262150943545965
 20
25.057745153104268
 30
0.0
  0
VERTEX
  8
0
 10
16.29204996695354
 20
25.093579211801696
 30
0.0
  0
VERTEX
  8
0
 10
16.32189930278288
 20
25.129290670322664
 30
0.0
  0
VERTEX
  8
0
 10
16.35169812924641
 20
25.164876628696128
 30
0.0
  0
VERTEX
  8
0
 10
16.381445613022443
 20
25.200334164244406
 30
0.0
  0
VERTEX
  8
0
 10
16.41114090917985
 20
25.235660331521544
 30
0.0
  0
VERTEX
  8
0
 10
16.440783161102694
 20
25.2708521622517
 30
0.0
  0
VERTEX
  8
0
 10
16.47037150041496
 20
25.3059066652675
 30
0.0
  0
VERTEX
  8
0
 10
16.499905046905177
 20
25.340820826448446
 30
0.0
  0
VERTEX
  8
0
 10
16.529382908451105
 20
25.375591608659263
 30
0.0
  0
VERTEX
  8
0
 10
16.55880418094441
 20
25.410215951688315
 30
0.0
  0
VERTEX
  8
0
 10
16.588167948215332
 20
25.444690772185922
 30
0.0
  0
VERTEX
  8
0
 10
16.61747328195735
 20
25.4790129636028
 30
0.0
  0
VERTEX
  8
0
 10
16.646719241651855
 20
25.513179396128404
 30
0.0
  0
VERTEX
  8
0
 10
16.675904874492833
 20
25.547186916629308
 30
0.0
  0
VERTEX
  8
0
 10
16.705029215311516
 20
25.581032348587588
 30
0.0
  0
VERTEX
  8
0
 10
16.73409128650106
 20
25.614712492039196
 30
0.0
  0
VERTEX
  8
0
 10
16.763090097941223
 20
25.648224123512346
 30
0.0
  0
VERTEX
  8
0
 10
16.79202464692303
 20
25.681563995965863
 30
0.0
  0
VERTEX
  8
0
 10
16.820893918073445
 20
25.71472883872761
 30
0.0
  0
VERTEX
  8
0
 10
16.849696883280032
 20
25.747715357432803
 30
0.0
  0
VERTEX
  8
0
 10
16.87843250161564
 20
25.78052023396245
 30
0.0
  0
VERTEX
  8
0
 10
16.907099719263073
 20
25.81314012638167
 30
0.0
  0
VERTEX
  8
0
 10
16.935697469439738
 20
25.845571668878122
 30
0.0
  0
VERTEX
  8
0
 10
16.96422467232236
 20
25.877811471700348
 30
0.0
  0
VERTEX
  8
0
 10
16.9926802349716
 20
25.909856121096155
 30
0.0
  0
VERTEX
  8
0
 10
17.02106305125676
 20
25.941702179251017
 30
0.0
  0
VERTEX
  8
0
 10
17.049372001780455
 20
25.973346184226415
 30
0.0
  0
VERTEX
  8
0
 10
17.077605953803257
 20
26.004784649898234
 30
0.0
  0
VERTEX
  8
0
 10
17.105763761168383
 20
26.036014065895138
 30
0.0
  0
VERTEX
  8
0
 10
17.13384426422639
 20
26.06703089753696
 30
0.0
  0
VERTEX
  8
0
 10
17.161846289759783
 20
26.09783158577305
 30
0.0
  0
VERTEX
  8
0
 10
17.189768650907755
 20
26.12841254712068
 30
0.0
  0
VERTEX
  8
0
 10
17.217610147090806
 20
26.15877017360339
 30
0.0
  0
VERTEX
  8
0
 10
17.24536956393544
 20
26.188900832689413
 30
0.0
  0
VERTEX
  8
0
 10
17.27304567319883
 20
26.21880086723
 30
0.0
  0
VERTEX
  8
0
 10
17.30063723269349
 20
26.24846659539783
 30
0.0
  0
VERTEX
  8
0
 10
17.32814298621193
 20
26.277894310625378
 30
0.0
  0
VERTEX
  8
0
 10
17.35556166345136
 20
26.307080281543286
 30
0.0
  0
VERTEX
  8
0
 10
17.382891979938318
 20
26.336020751918745
 30
0.0
  0
VERTEX
  8
0
 10
17.41013263695339
 20
26.364711940593892
 30
0.0
  0
VERTEX
  8
0
 10
17.43728232145583
 20
26.39315004142414
 30
0.0
  0
VERTEX
  8
0
 10
17.46433970600826
 20
26.421331223216594
 30
0.0
  0
VERTEX
  8
0
 10
17.491303448701345
 20
26.449251629668428
 30
0.0
  0
VERTEX
  8
0
 10
17.51817219307845
 20
26.476907379305235
 30
0.0
  0
VERTEX
  8
0
 10
17.5449445680603
 20
26.504294565419425
 30
0.0
  0
VERTEX
  8
0
 10
17.571619187869686
 20
26.5314092560086
 30
0.0
  0
VERTEX
  8
0
 10
17.598194651956106
 20
26.558247493713935
 30
0.0
  0
VERTEX
  8
0
 10
17.624669544920437
 20
26.584805295758535
 30
0.0
  0
VERTEX
  8
0
 10
17.651042436439624
 20
26.611078653885826
 30
0.0
  0
VERTEX
  8
0
 10
17.677311881191336
 20
26.637063534297944
 30
0.0
  0
VERTEX
  8
0
 10
17.703476418778635
 20
26.662755877594076
 30
0.0
  0
VERTEX
  8
0
 10
17.729534573654654
 20
26.68815159870889
 30
0.0
  0
VERTEX
  8
0
 10
17.75548485504728
 20
26.713246586850868
 30
0.0
  0
VERTEX
  8
0
 10
17.78132575688378
 20
26.7380367054407
 30
0.0
  0
VERTEX
  8
0
 10
17.80705575771554
 20
26.76251779204965
 30
0.0
  0
VERTEX
  8
0
 10
17.83267332064266
 20
26.78668565833795
 30
0.0
  0
VERTEX
  8
0
 10
17.85817689323868
 20
26.81053608999317
 30
0.0
  0
VERTEX
  8
0
 10
17.883564907475243
 20
26.834064846668596
 30
0.0
  0
VERTEX
  8
0
 10
17.908835779646736
 20
26.857267661921604
 30
0.0
  0
VERTEX
  8
0
 10
17.933987910294988
 20
26.88014024315202
 30
0.0
  0
VERTEX
  8
0
 10
17.95901968413394
 20
26.902678271540545
 30
0.0
  0
VERTEX
  8
0
 10
17.98392946997429
 20
26.92487740198709
 30
0.0
  0
VERTEX
  8
0
 10
18.008715620648196
 20
26.946733263049147
 30
0.0
  0
VERTEX
  8
0
 10
18.03337647293393
 20
26.96824145688021
 30
0.0
  0
VERTEX
  8
0
 10
18.057910347480558
 20
26.98939755916812
 30
0.0
  0
VERTEX
  8
0
 10
18.082315548732588
 20
27.010197119073446
 30
0.0
  0
VERTEX
  8
0
 10
18.106590364854664
 20
27.030635659167864
 30
0.0
  0
VERTEX
  8
0
 10
18.130733067656234
 20
27.05070867537254
 30
0.0
  0
VERTEX
  8
0
 10
18.154741912516208
 20
27.070411636896484
 30
0.0
  0
VERTEX
  8
0
 10
18.17861513830765
 20
27.089739986174973
 30
0.0
  0
VERTEX
  8
0
 10
18.202350967322406
 20
27.10868913880787
 30
0.0
  0
VERTEX
  8
0
 10
18.22594760519584
 20
27.12725448349806
 30
0.0
  0
VERTEX
  8
0
 10
18.24940324083144
 20
27.14543138198978
 30
0.0
  0
VERTEX
  8
0
 10
18.272716046325538
 20
27.163215169007017
 30
0.0
  0
VERTEX
  8
0
 10
18.295884176891942
 20
27.180601152191887
 30
0.0
  0
VERTEX
  8
0
 10
18.318905770786635
 20
27.197584612043002
 30
0.0
  0
VERTEX
  8
0
 10
18.341778949232427
 20
27.214160801853854
 30
0.0
  0
VERTEX
  8
0
 10
18.364501816343644
 20
27.23032494765119
 30
0.0
  0
VERTEX
  8
0
 10
18.38707245905078
 20
27.2460722481334
 30
0.0
  0
VERTEX
  8
0
 10
18.409488947025178
 20
27.261397874608864
 30
0.0
  0
VERTEX
  8
0
 10
18.4317493326037
 20
27.276296970934368
 30
0.0
  0
VERTEX
  8
0
 10
18.453851650713393
 20
27.290764653453436
 30
0.0
  0
VERTEX
  8
0
 10
18.475793918796164
 20
27.304796010934773
 30
0.0
  0
VERTEX
  8
0
 10
18.497574136733448
 20
27.318386104510562
 30
0.0
  0
VERTEX
  8
0
 10
18.519190286770883
 20
27.331529967614905
 30
0.0
  0
VERTEX
  8
0
 10
18.54064033344298
 20
27.34422260592217
 30
0.0
  0
VERTEX
  8
0
 10
18.56192222349778
 20
27.356458997285362
 30
0.0
  0
VERTEX
  8
0
 10
18.583033885821553
 20
27.36823409167454
 30
0.0
  0
VERTEX
  8
0
 10
18.603973231363433
 20
27.379542811115137
 30
0.0
  0
VERTEX
  8
0
 10
18.624738153060125
 20
27.390380049626387
 30
0.0
  0
VERTEX
  8
0
 10
18.64532652576054
 20
27.400740673159664
 30
0.0
  0
VERTEX
  8
0
 10
18.665736206150495
 20
27.410619519536894
 30
0.0
  0
VERTEX
  8
0
 10
18.685965032677373
 20
27.4200113983889
 30
0.0
  0
VERTEX
  8
0
 10
18.70601082547479
 20
27.428911091093813
 30
0.0
  0
VERTEX
  8
0
 10
18.725871386287263
 20
27.4373133507154
 30
0.0
  0
VERTEX
  8
0
 10
18.745544498394896
 20
27.445212901941503
 30
0.0
  0
VERTEX
  8
0
 10
18.76502792653803
 20
27.452604441022356
 30
0.0
  0
VERTEX
  8
0
 10
18.784319416841935
 20
27.459482635709012
 30
0.0
  0
VERTEX
  8
0
 10
18.80341669674146
 20
27.465842125191678
 30
0.0
  0
VERTEX
  8
0
 10
18.822317474905724
 20
27.471677520038135
 30
0.0
  0
VERTEX
  8
0
 10
18.841019441162764
 20
27.476983402132074
 30
0.0
  0
VERTEX
  8
0
 10
18.85952026642423
 20
27.481754324611497
 30
0.0
  0
VERTEX
  8
0
 10
18.877817602610037
 20
27.485984811807093
 30
0.0
  0
VERTEX
  8
0
 10
18.895909082573038
 20
27.489669359180603
 30
0.0
  0
VERTEX
  8
0
 10
18.91379232002371
 20
27.4928024332632
 30
0.0
  0
VERTEX
  8
0
 10
18.931464909454807
 20
27.495378471593888
 30
0.0
  0
VERTEX
  8
0
 10
18.948924426066036
 20
27.497391882657855
 30
0.0
  0
VERTEX
  8
0
 10
18.966168425688732
 20
27.498837045824843
 30
0.0
  0
VERTEX
  8
0
 10
18.983194444710524
 20
27.49970831128755
 30
0.0
  0
VERTEX
  8
0
 10
19.0
 20
27.5
 30
0.0
  0
VERTEX
  8
0
 10
19.0
 20
27.5
 30
0.0
  0
VERTEX
  8
0
 10
19.010008333310108
 20
27.499993032349412
 30
0.0
  0
VERTEX
  8
0
 10
19.019999944258796
 20
27.499972129397634
 30
0.0
  0
VERTEX
  8
0
 10
19.02997483284606
 20
27.499937291144676
 30
0.0
  0
VERTEX
  8
0
 10
19.039932999071908
 20
27.499888517590527
 30
0.0
  0
VERTEX
  8
0
 10
19.049874442936336
 20
27.499825808735206
 30
0.0
  0
VERTEX
  8
0
 10
19.059799164439344
 20
27.499749164578695
 30
0.0
  0
VERTEX
  8
0
 10
19.06970716358093
 20
27.499658585121004
 30
0.0
  0
VERTEX
  8
0
 10
19.079598440361092
 20
27.499554070362127
 30
0.0
  0
VERTEX
  8
0
 10
19.089472994779833
 20
27.499435620302062
 30
0.0
  0
VERTEX
  8
0
 10
19.099330826837157
 20
27.499303234940815
 30
0.0
  0
VERTEX
  8
0
 10
19.109171936533063
 20
27.49915691427838
 30
0.0
  0
VERTEX
  8
0
 10
19.11899632386755
 20
27.498996658314777
 30
0.0
  0
VERTEX
  8
0
 10
19.12880398884061
 20
27.49882246704998
 30
0.0
  0
VERTEX
  8
0
 10
19.138594931452253
 20
27.498634340484
 30
0.0
  0
VERTEX
  8
0
 10
19.148369151702475
 20
27.498432278616836
 30
0.0
  0
VERTEX
  8
0
 10
19.158126649591278
 20
27.49821628144849
 30
0.0
  0
VERTEX
  8
0
 10
19.167867425118658
 20
27.497986348978962
 30
0.0
  0
VERTEX
  8
0
 10
19.177591478284622
 20
27.49774248120825
 30
0.0
  0
VERTEX
  8
0
 10
19.187298809089164
 20
27.497484678136352
 30
0.0
  0
VERTEX
  8
0
 10
19.196989417532283
 20
27.497212939763273
 30
0.0
  0
VERTEX
  8
0
 10
19.206663303613983
 20
27.496927266089003
 30
0.0
  0
VERTEX
  8
0
 10
19.216320467334263
 20
27.496627657113557
 30
0.0
  0
VERTEX
  8
0
 10
19.22596090869312
 20
27.496314112836924
 30
0.0
  0
VERTEX
  8
0
 10
19.235584627690564
 20
27.495986633259108
 30
0.0
  0
VERTEX
  8
0
 10
19.245191624326576
 20
27.495645218380105
 30
0.0
  0
VERTEX
  8
0
 10
19.254781898601173
 20
27.49528986819992
 30
0.0
  0
VERTEX
  8
0
 10
19.26435545051435
 20
27.49492058271855
 30
0.0
  0
VERTEX
  8
0
 10
19.273912280066106
 20
27.494537361936004
 30
0.0
  0
VERTEX
  8
0
 10
19.283452387256446
 20
27.49414020585227
 30
0.0
  0
VERTEX
  8
0
 10
19.292975772085363
 20
27.493729114467353
 30
0.0
  0
VERTEX
  8
0
 10
19.302482434552854
 20
27.493304087781247
 30
0.0
  0
VERTEX
  8
0
 10
19.311972374658936
 20
27.492865125793962
 30
0.0
  0
VERTEX
  8
0
 10
19.321445592403588
 20
27.492412228505497
 30
0.0
  0
VERTEX
  8
0
 10
19.33090208778682
 20
27.491945395915838
 30
0.0
  0
VERTEX
  8
0
 10
19.34034186080864
 20
27.491464628025007
 30
0.0
  0
VERTEX
  8
0
 10
19.349764911469034
 20
27.490969924832985
 30
0.0
  0
VERTEX
  8
0
 10
19.359171239768006
 20
27.490461286339787
 30
0.0
  0
VERTEX
  8
0
 10
19.368560845705556
 20
27.489938712545396
 30
0.0
  0
VERTEX
  8
0
 10
19.377933729281697
 20
27.489402203449828
 30
0.0
  0
VERTEX
  8
0
 10
19.387289890496405
 20
27.488851759053066
 30
0.0
  0
VERTEX
  8
0
 10
19.3966293293497
 20
27.488287379355135
 30
0.0
  0
VERTEX
  8
0
 10
19.40595204584157
 20
27.48770906435601
 30
0.0
  0
VERTEX
  8
0
 10
19.415258039972016
 20
27.487116814055703
 30
0.0
  0
VERTEX
  8
0
 10
19.424547311741048
 20
27.48651062845421
 30
0.0
  0
VERTEX
  8
0
 10
19.433819861148656
 20
27.485890507551535
 30
0.0
  0
VERTEX
  8
0
 10
19.44307568819485
 20
27.485256451347684
 30
0.0
  0
VERTEX
  8
0
 10
19.452314792879616
 20
27.48460845984264
 30
0.0
  0
VERTEX
  8
0
 10
19.46153717520297
 20
27.483946533036416
 30
0.0
  0
VERTEX
  8
0
 10
19.4707428351649
 20
27.48327067092901
 30
0.0
  0
VERTEX
  8
0
 10
19.479931772765404
 20
27.482580873520416
 30
0.0
  0
VERTEX
  8
0
 10
19.489103988004494
 20
27.481877140810646
 30
0.0
  0
VERTEX
  8
0
 10
19.49825948088216
 20
27.48115947279969
 30
0.0
  0
VERTEX
  8
0
 10
19.50739825139841
 20
27.480427869487546
 30
0.0
  0
VERTEX
  8
0
 10
19.516520299553235
 20
27.479682330874216
 30
0.0
  0
VERTEX
  8
0
 10
19.525625625346645
 20
27.47892285695971
 30
0.0
  0
VERTEX
  8
0
 10
19.53471422877863
 20
27.478149447744016
 30
0.0
  0
VERTEX
  8
0
 10
19.543786109849194
 20
27.477362103227136
 30
0.0
  0
VERTEX
  8
0
 10
19.552841268558335
 20
27.476560823409073
 30
0.0
  0
VERTEX
  8
0
 10
19.56187970490606
 20
27.47574560828983
 30
0.0
  0
VERTEX
  8
0
 10
19.570901418892365
 20
27.4749164578694
 30
0.0
  0
VERTEX
  8
0
 10
19.57990641051725
 20
27.47407337214779
 30
0.0
  0
VERTEX
  8
0
 10
19.58889467978071
 20
27.473216351124996
 30
0.0
  0
VERTEX
  8
0
 10
19.597866226682754
 20
27.472345394801014
 30
0.0
  0
VERTEX
  8
0
 10
19.606821051223378
 20
27.47146050317585
 30
0.0
  0
VERTEX
  8
0
 10
19.615759153402582
 20
27.47056167624951
 30
0.0
  0
VERTEX
  8
0
 10
19.624680533220364
 20
27.469648914021974
 30
0.0
  0
VERTEX
  8
0
 10
19.63358519067673
 20
27.468722216493266
 30
0.0
  0
VERTEX
  8
0
 10
19.64247312577167
 20
27.46778158366337
 30
0.0
  0
VERTEX
  8
0
 10
19.651344338505186
 20
27.46682701553229
 30
0.0
  0
VERTEX
  8
0
 10
19.660198828877288
 20
27.465858512100024
 30
0.0
  0
VERTEX
  8
0
 10
19.66903659688797
 20
27.464876073366575
 30
0.0
  0
VERTEX
  8
0
 10
19.67785764253723
 20
27.463879699331944
 30
0.0
  0
VERTEX
  8
0
 10
19.686661965825067
 20
27.46286938999613
 30
0.0
  0
VERTEX
  8
0
 10
19.69544956675149
 20
27.461845145359128
 30
0.0
  0
VERTEX
  8
0
 10
19.704220445316487
 20
27.46080696542095
 30
0.0
  0
VERTEX
  8
0
 10
19.712974601520067
 20
27.459754850181582
 30
0.0
  0
VERTEX
  8
0
 10
19.72171203536222
 20
27.458688799641028
 30
0.0
  0
VERTEX
  8
0
 10
19.730432746842954
 20
27.45760881379929
 30
0.0
  0
VERTEX
  8
0
 10
19.739136735962276
 20
27.456514892656372
 30
0.0
  0
VERTEX
  8
0
 10
19.74782400272017
 20
27.45540703621227
 30
0.0
  0
VERTEX
  8
0
 10
19.75649454711665
 20
27.45428524446699
 30
0.0
  0
VERTEX
  8
0
 10
19.765148369151703
 20
27.453149517420517
 30
0.0
  0
VERTEX
  8
0
 10
19.773785468825338
 20
27.451999855072867
 30
0.0
  0
VERTEX
  8
0
 10
19.78240584613755
 20
27.450836257424033
 30
0.0
  0
VERTEX
  8
0
 10
19.79100950108835
 20
27.449658724474013
 30
0.0
  0
VERTEX
  8
0
 10
19.79959643367772
 20
27.44846725622281
 30
0.0
  0
VERTEX
  8
0
 10
19.808166643905672
 20
27.447261852670422
 30
0.0
  0
VERTEX
  8
0
 10
19.81672013177221
 20
27.446042513816852
 30
0.0
  0
VERTEX
  8
0
 10
19.825256897277317
 20
27.444809239662092
 30
0.0
  0
VERTEX
  8
0
 10
19.83377694042101
 20
27.443562030206152
 30
0.0
  0
VERTEX
  8
0
 10
19.842280261203285
 20
27.442300885449033
 30
0.0
  0
VERTEX
  8
0
 10
19.850766859624134
 20
27.441025805390726
 30
0.0
  0
VERTEX
  8
0
 10
19.859236735683567
 20
27.439736790031244
 30
0.0
  0
VERTEX
  8
0
 10
19.867689889381577
 20
27.438433839370568
 30
0.0
  0
VERTEX
  8
0
 10
19.876126320718168
 20
27.43711695340871
 30
0.0
  0
VERTEX
  8
0
 10
19.88454602969334
 20
27.435786132145672
 30
0.0
  0
VERTEX
  8
0
 10
19.89294901630709
 20
27.43444137558145
 30
0.0
  0
VERTEX
  8
0
 10
19.90133528055942
 20
27.433082683716044
 30
0.0
  0
VERTEX
  8
0
 10
19.90970482245033
 20
27.431710056549452
 30
0.0
  0
VERTEX
  8
0
 10
19.918057641979814
 20
27.43032349408168
 30
0.0
  0
VERTEX
  8
0
 10
19.926393739147887
 20
27.428922996312718
 30
0.0
  0
VERTEX
  8
0
 10
19.934713113954533
 20
27.42750856324258
 30
0.0
  0
VERTEX
  8
0
 10
19.94301576639976
 20
27.42608019487125
 30
0.0
  0
VERTEX
  8
0
 10
19.951301696483565
 20
27.424637891198742
 30
0.0
  0
VERTEX
  8
0
 10
19.959570904205954
 20
27.423181652225047
 30
0.0
  0
VERTEX
  8
0
 10
19.96782338956692
 20
27.421711477950176
 30
0.0
  0
VERTEX
  8
0
 10
19.976059152566467
 20
27.420227368374114
 30
0.0
  0
VERTEX
  8
0
 10
19.984278193204595
 20
27.418729323496873
 30
0.0
  0
VERTEX
  8
0
 10
19.992480511481293
 20
27.41721734331844
 30
0.0
  0
VERTEX
  8
0
 10
20.00066610739658
 20
27.41569142783883
 30
0.0
  0
VERTEX
  8
0
 10
20.008834980950443
 20
27.414151577058036
 30
0.0
  0
VERTEX
  8
0
 10
20.016987132142887
 20
27.412597790976054
 30
0.0
  0
VERTEX
  8
0
 10
20.025122560973912
 20
27.41103006959289
 30
0.0
  0
VERTEX
  8
0
 10
20.033241267443515
 20
27.40944841290855
 30
0.0
  0
VERTEX
  8
0
 10
20.041343251551698
 20
27.40785282092302
 30
0.0
  0
VERTEX
  8
0
 10
20.049428513298455
 20
27.406243293636308
 30
0.0
  0
VERTEX
  8
0
 10
20.057497052683797
 20
27.40461983104841
 30
0.0
  0
VERTEX
  8
0
 10
20.065548869707726
 20
27.402982433159334
 30
0.0
  0
VERTEX
  8
0
 10
20.073583964370222
 20
27.401331099969067
 30
0.0
  0
VERTEX
  8
0
 10
20.081602336671303
 20
27.39966583147762
 30
0.0
  0
VERTEX
  8
0
 10
20.089603986610964
 20
27.397986627684986
 30
0.0
  0
VERTEX
  8
0
 10
20.0975889141892
 20
27.396293488591166
 30
0.0
  0
VERTEX
  8
0
 10
20.10555711940602
 20
27.394586414196166
 30
0.0
  0
VERTEX
  8
0
 10
20.11350860226142
 20
27.392865404499986
 30
0.0
  0
VERTEX
  8
0
 10
20.1214433627554
 20
27.39113045950262
 30
0.0
  0
VERTEX
  8
0
 10
20.129361400887955
 20
27.389381579204073
 30
0.0
  0
VERTEX
  8
0
 10
20.137262716659095
 20
27.387618763604337
 30
0.0
  0
VERTEX
  8
0
 10
20.14514731006881
 20
27.38584201270342
 30
0.0
  0
VERTEX
  8
0
 10
20.15301518111711
 20
27.384051326501318
 30
0.0
  0
VERTEX
  8
0
 10
20.160866329803984
 20
27.382246704998035
 30
0.0
  0
VERTEX
  8
0
 10
20.168700756129443
 20
27.380428148193566
 30
0.0
  0
VERTEX
  8
0
 10
20.17651846009348
 20
27.378595656087917
 30
0.0
  0
VERTEX
  8
0
 10
20.184319441696093
 20
27.37674922868108
 30
0.0
  0
VERTEX
  8
0
 10
20.192103700937288
 20
27.374888865973062
 30
0.0
  0
VERTEX
  8
0
 10
20.199871237817067
 20
27.373014567963864
 30
0.0
  0
VERTEX
  8
0
 10
20.207622052335417
 20
27.371126334653475
 30
0.0
  0
VERTEX
  8
0
 10
20.215356144492354
 20
27.369224166041903
 30
0.0
  0
VERTEX
  8
0
 10
20.22307351428787
 20
27.367308062129148
 30
0.0
  0
VERTEX
  8
0
 10
20.23077416172196
 20
27.365378022915213
 30
0.0
  0
VERTEX
  8
0
 10
20.23845808679463
 20
27.36343404840009
 30
0.0
  0
VERTEX
  8
0
 10
20.246125289505887
 20
27.36147613858379
 30
0.0
  0
VERTEX
  8
0
 10
20.253775769855714
 20
27.3595042934663
 30
0.0
  0
VERTEX
  8
0
 10
20.261409527844123
 20
27.35751851304762
 30
0.0
  0
VERTEX
  8
0
 10
20.26902656347111
 20
27.355518797327765
 30
0.0
  0
VERTEX
  8
0
 10
20.276626876736685
 20
27.353505146306723
 30
0.0
  0
VERTEX
  8
0
 10
20.284210467640836
 20
27.351477559984502
 30
0.0
  0
VERTEX
  8
0
 10
20.291777336183564
 20
27.349436038361095
 30
0.0
  0
VERTEX
  8
0
 10
20.299327482364877
 20
27.34738058143651
 30
0.0
  0
VERTEX
  8
0
 10
20.306860906184767
 20
27.345311189210733
 30
0.0
  0
VERTEX
  8
0
 10
20.314377607643237
 20
27.343227861683776
 30
0.0
  0
VERTEX
  8
0
 10
20.321877586740285
 20
27.34113059885563
 30
0.0
  0
VERTEX
  8
0
 10
20.329360843475907
 20
27.339019400726304
 30
0.0
  0
VERTEX
  8
0
 10
20.336827377850113
 20
27.336894267295797
 30
0.0
  0
VERTEX
  8
0
 10
20.344277189862904
 20
27.334755198564103
 30
0.0
  0
VERTEX
  8
0
 10
20.35171027951427
 20
27.33260219453123
 30
0.0
  0
VERTEX
  8
0
 10
20.359126646804217
 20
27.330435255197166
 30
0.0
  0
VERTEX
  8
0
 10
20.36652629173274
 20
27.328254380561923
 30
0.0
  0
VERTEX
  8
0
 10
20.373909214299843
 20
27.326059570625493
 30
0.0
  0
VERTEX
  8
0
 10
20.38127541450553
 20
27.323850825387886
 30
0.0
  0
VERTEX
  8
0
 10
20.388624892349796
 20
27.32162814484909
 30
0.0
  0
VERTEX
  8
0
 10
20.395957647832642
 20
27.319391529009113
 30
0.0
  0
VERTEX
  8
0
 10
20.403273680954065
 20
27.317140977867954
 30
0.0
  0
VERTEX
  8
0
 10
20.41057299171407
 20
27.314876491425608
 30
0.0
  0
VERTEX
  8
0
 10
20.417855580112654
 20
27.312598069682082
 30
0.0
  0
VERTEX
  8
0
 10
20.425121446149817
 20
27.310305712637366
 30
0.0
  0
VERTEX
  8
0
 10
20.432370589825556
 20
27.30799942029147
 30
0.0
  0
VERTEX
  8
0
 10
20.43960301113988
 20
27.30567919264439
 30
0.0
  0
VERTEX
  8
0
 10
20.446818710092785
 20
27.303345029696125
 30
0.0
  0
VERTEX
  8
0
 10
20.45401768668426
 20
27.30099693144668
 30
0.0
  0
VERTEX
  8
0
 10
20.461199940914327
 20
27.29863489789605
 30
0.0
  0
VERTEX
  8
0
 10
20.468365472782967
 20
27.29625892904424
 30
0.0
  0
VERTEX
  8
0
 10
20.475514282290188
 20
27.293869024891237
 30
0.0
  0
VERTEX
  8
0
 10
20.482646369435983
 20
27.29146518543706
 30
0.0
  0
VERTEX
  8
0
 10
20.489761734220366
 20
27.289047410681686
 30
0.0
  0
VERTEX
  8
0
 10
20.49686037664332
 20
27.286615700625138
 30
0.0
  0
VERTEX
  8
0
 10
20.503942296704864
 20
27.284170055267406
 30
0.0
  0
VERTEX
  8
0
 10
20.51100749440498
 20
27.28171047460849
 30
0.0
  0
VERTEX
  8
0
 10
20.518055969743674
 20
27.27923695864839
 30
0.0
  0
VERTEX
  8
0
 10
20.52508772272095
 20
27.276749507387102
 30
0.0
  0
VERTEX
  8
0
 10
20.532102753336808
 20
27.274248120824637
 30
0.0
  0
VERTEX
  8
0
 10
20.539101061591243
 20
27.271732798960986
 30
0.0
  0
VERTEX
  8
0
 10
20.546082647484262
 20
27.26920354179615
 30
0.0
  0
VERTEX
  8
0
 10
20.553047511015855
 20
27.26666034933013
 30
0.0
  0
VERTEX
  8
0
 10
20.559995652186032
 20
27.26410322156293
 30
0.0
  0
VERTEX
  8
0
 10
20.566927070994787
 20
27.261532158494543
 30
0.0
  0
VERTEX
  8
0
 10
20.57384176744212
 20
27.25894716012497
 30
0.0
  0
VERTEX
  8
0
 10
20.58073974152803
 20
27.25634822645421
 30
0.0
  0
VERTEX
  8
0
 10
20.587620993252525
 20
27.253735357482277
 30
0.0
  0
VERTEX
  8
0
 10
20.594485522615596
 20
27.251108553209157
 30
0.0
  0
VERTEX
  8
0
 10
20.601333329617255
 20
27.248467813634857
 30
0.0
  0
VERTEX
  8
0
 10
20.60816441425748
 20
27.245813138759363
 30
0.0
  0
VERTEX
  8
0
 10
20.614978776536294
 20
27.243144528582693
 30
0.0
  0
VERTEX
  8
0
 10
20.621776416453688
 20
27.240461983104844
 30
0.0
  0
VERTEX
  8
0
 10
20.628557334009656
 20
27.237765502325797
 30
0.0
  0
VERTEX
  8
0
 10
20.63532152920421
 20
27.23505508624558
 30
0.0
  0
VERTEX
  8
0
 10
20.642069002037342
 20
27.23233073486417
 30
0.0
  0
VERTEX
  8
0
 10
20.64879975250905
 20
27.229592448181585
 30
0.0
  0
VERTEX
  8
0
 10
20.655513780619337
 20
27.226840226197808
 30
0.0
  0
VERTEX
  8
0
 10
20.66221108636821
 20
27.22407406891285
 30
0.0
  0
VERTEX
  8
0
 10
20.668891669755656
 20
27.22129397632671
 30
0.0
  0
VERTEX
  8
0
 10
20.675555530781686
 20
27.218499948439387
 30
0.0
  0
VERTEX
  8
0
 10
20.682202669446294
 20
27.215691985250878
 30
0.0
  0
VERTEX
  8
0
 10
20.688833085749483
 20
27.21287008676119
 30
0.0
  0
VERTEX
  8
0
 10
20.69544677969125
 20
27.210034252970313
 30
0.0
  0
VERTEX
  8
0
 10
20.7020437512716
 20
27.207184483878255
 30
0.0
  0
VERTEX
  8
0
 10
20.708624000490527
 20
27.20432077948501
 30
0.0
  0
VERTEX
  8
0
 10
20.71518752734803
 20
27.201443139790584
 30
0.0
  0
VERTEX
  8
0
 10
20.721734331844118
 20
27.198551564794972
 30
0.0
  0
VERTEX
  8
0
 10
20.72826441397878
 20
27.195646054498177
 30
0.0
  0
VERTEX
  8
0
 10
20.734777773752025
 20
27.1927266089002
 30
0.0
  0
VERTEX
  8
0
 10
20.74127441116385
 20
27.18979322800104
 30
0.0
  0
VERTEX
  8
0
 10
20.747754326214256
 20
27.18684591180069
 30
0.0
  0
VERTEX
  8
0
 10
20.754217518903236
 20
27.183884660299164
 30
0.0
  0
VERTEX
  8
0
 10
20.7606639892308
 20
27.18090947349645
 30
0.0
  0
VERTEX
  8
0
 10
20.76709373719694
 20
27.177920351392558
 30
0.0
  0
VERTEX
  8
0
 10
20.773506762801663
 20
27.174917293987473
 30
0.0
  0
VERTEX
  8
0
 10
20.779903066044966
 20
27.171900301281212
 30
0.0
  0
VERTEX
  8
0
 10
20.78628264692685
 20
27.168869373273765
 30
0.0
  0
VERTEX
  8
0
 10
20.792645505447307
 20
27.16582450996513
 30
0.0
  0
VERTEX
  8
0
 10
20.79899164160635
 20
27.162765711355316
 30
0.0
  0
VERTEX
  8
0
 10
20.805321055403965
 20
27.15969297744432
 30
0.0
  0
VERTEX
  8
0
 10
20.81163374684017
 20
27.156606308232135
 30
0.0
  0
VERTEX
  8
0
 10
20.817929715914946
 20
27.15350570371877
 30
0.0
  0
VERTEX
  8
0
 10
20.82420896262831
 20
27.15039116390422
 30
0.0
  0
VERTEX
  8
0
 10
20.830471486980247
 20
27.14726268878849
 30
0.0
  0
VERTEX
  8
0
 10
20.836717288970764
 20
27.144120278371574
 30
0.0
  0
VERTEX
  8
0
 10
20.84294636859986
 20
27.14096393265347
 30
0.0
  0
VERTEX
  8
0
 10
20.849158725867543
 20
27.13779365163419
 30
0.0
  0
VERTEX
  8
0
 10
20.8553543607738
 20
27.134609435313727
 30
0.0
  0
VERTEX
  8
0
 10
20.86153327331864
 20
27.131411283692074
 30
0.0
  0
VERTEX
  8
0
 10
20.867695463502056
 20
27.128199196769238
 30
0.0
  0
VERTEX
  8
0
 10
20.873840931324047
 20
27.12497317454522
 30
0.0
  0
VERTEX
  8
0
 10
20.879969676784626
 20
27.121733217020022
 30
0.0
  0
VERTEX
  8
0
 10
20.886081699883782
 20
27.118479324193633
 30
0.0
  0
VERTEX
  8
0
 10
20.892177000621512
 20
27.11521149606606
 30
0.0
  0
VERTEX
  8
0
 10
20.89825557899783
 20
27.111929732637314
 30
0.0
  0
VERTEX
  8
0
 10
20.904317435012725
 20
27.10863403390738
 30
0.0
  0
VERTEX
  8
0
 10
20.9103625686662
 20
27.10532439987626
 30
0.0
  0
VERTEX
  8
0
 10
20.91639097995825
 20
27.10200083054395
 30
0.0
  0
VERTEX
  8
0
 10
20.922402668888882
 20
27.098663325910465
 30
0.0
  0
VERTEX
  8
0
 10
20.928397635458097
 20
27.095311885975796
 30
0.0
  0
VERTEX
  8
0
 10
20.93437587966589
 20
27.091946510739938
 30
0.0
  0
VERTEX
  8
0
 10
20.940337401512263
 20
27.088567200202903
 30
0.0
  0
VERTEX
  8
0
 10
20.94628220099721
 20
27.085173954364674
 30
0.0
  0
VERTEX
  8
0
 10
20.95221027812074
 20
27.08176677322527
 30
0.0
  0
VERTEX
  8
0
 10
20.95812163288285
 20
27.078345656784684
 30
0.0
  0
VERTEX
  8
0
 10
20.964016265283544
 20
27.074910605042906
 30
0.0
  0
VERTEX
  8
0
 10
20.96989417532281
 20
27.071461617999947
 30
0.0
  0
VERTEX
  8
0
 10
20.97575536300066
 20
27.067998695655806
 30
0.0
  0
VERTEX
  8
0
 10
20.98159982831709
 20
27.064521838010485
 30
0.0
  0
VERTEX
  8
0
 10
20.987427571272097
 20
27.061031045063977
 30
0.0
  0
VERTEX
  8
0
 10
20.993238591865683
 20
27.057526316816283
 30
0.0
  0
VERTEX
  8
0
 10
20.99903289009785
 20
27.054007653267405
 30
0.0
  0
VERTEX
  8
0
 10
21.004810465968596
 20
27.050475054417348
 30
0.0
  0
VERTEX
  8
0
 10
21.010571319477926
 20
27.046928520266107
 30
0.0
  0
VERTEX
  8
0
 10
21.016315450625832
 20
27.043368050813676
 30
0.0
  0
VERTEX
  8
0
 10
21.022042859412316
 20
27.039793646060073
 30
0.0
  0
VERTEX
  8
0
 10
21.027753545837385
 20
27.036205306005275
 30
0.0
  0
VERTEX
  8
0
 10
21.03344750990103
 20
27.0326030306493
 30
0.0
  0
VERTEX
  8
0
 10
21.039124751603257
 20
27.028986819992138
 30
0.0
  0
VERTEX
  8
0
 10
21.04478527094406
 20
27.025356674033794
 30
0.0
  0
VERTEX
  8
0
 10
21.050429067923442
 20
27.021712592774268
 30
0.0
  0
VERTEX
  8
0
 10
21.056056142541408
 20
27.01805457621355
 30
0.0
  0
VERTEX
  8
0
 10
21.061666494797954
 20
27.01438262435166
 30
0.0
  0
VERTEX
  8
0
 10
21.067260124693078
 20
27.01069673718858
 30
0.0
  0
VERTEX
  8
0
 10
21.07283703222678
 20
27.00699691472432
 30
0.0
  0
VERTEX
  8
0
 10
21.07839721739906
 20
27.003283156958872
 30
0.0
  0
VERTEX
  8
0
 10
21.08394068020992
 20
26.999555463892246
 30
0.0
  0
VERTEX
  8
0
 10
21.089467420659364
 20
26.99581383552443
 30
0.0
  0
VERTEX
  8
0
 10
21.094977438747385
 20
26.992058271855434
 30
0.0
  0
VERTEX
  8
0
 10
21.100470734473987
 20
26.988288772885255
 30
0.0
  0
VERTEX
  8
0
 10
21.105947307839166
 20
26.984505338613886
 30
0.0
  0
VERTEX
  8
0
 10
21.11140715884293
 20
26.980707969041337
 30
0.0
  0
VERTEX
  8
0
 10
21.116850287485263
 20
26.976896664167608
 30
0.0
  0
VERTEX
  8
0
 10
21.122276693766185
 20
26.97307142399269
 30
0.0
  0
VERTEX
  8
0
 10
21.127686377685684
 20
26.96923224851659
 30
0.0
  0
VERTEX
  8
0
 10
21.133079339243757
 20
26.965379137739305
 30
0.0
  0
VERTEX
  8
0
 10
21.138455578440418
 20
26.961512091660836
 30
0.0
  0
VERTEX
  8
0
 10
21.143815095275652
 20
26.957631110281184
 30
0.0
  0
VERTEX
  8
0
 10
21.149157889749475
 20
26.953736193600356
 30
0.0
  0
VERTEX
  8
0
 10
21.154483961861864
 20
26.94982734161833
 30
0.0
  0
VERTEX
  8
0
 10
21.159793311612844
 20
26.945904554335137
 30
0.0
  0
VERTEX
  8
0
 10
21.165085939002402
 20
26.94196783175075
 30
0.0
  0
VERTEX
  8
0
 10
21.170361844030538
 20
26.938017173865177
 30
0.0
  0
VERTEX
  8
0
 10
21.17562102669725
 20
26.934052580678422
 30
0.0
  0
VERTEX
  8
0
 10
21.180863487002547
 20
26.930074052190488
 30
0.0
  0
VERTEX
  8
0
 10
21.186089224946414
 20
26.926081588401367
 30
0.0
  0
VERTEX
  8
0
 10
21.19129824052887
 20
26.922075189311062
 30
0.0
  0
VERTEX
  8
0
 10
21.196490533749902
 20
26.918054854919575
 30
0.0
  0
VERTEX
  8
0
 10
21.20166610460952
 20
26.914020585226908
 30
0.0
  0
VERTEX
  8
0
 10
21.20682495310771
 20
26.90997238023305
 30
0.0
  0
VERTEX
  8
0
 10
21.21196707924448
 20
26.905910239938013
 30
0.0
  0
VERTEX
  8
0
 10
21.217092483019833
 20
26.90183416434179
 30
0.0
  0
VERTEX
  8
0
 10
21.22220116443377
 20
26.89774415344439
 30
0.0
  0
VERTEX
  8
0
 10
21.227293123486277
 20
26.8936402072458
 30
0.0
  0
VERTEX
  8
0
 10
21.232368360177368
 20
26.889522325746025
 30
0.0
  0
VERTEX
  8
0
 10
21.237426874507037
 20
26.885390508945072
 30
0.0
  0
VERTEX
  8
0
 10
21.24246866647529
 20
26.88124475684293
 30
0.0
  0
VERTEX
  8
0
 10
21.247493736082117
 20
26.8770850694396
 30
0.0
  0
VERTEX
  8
0
 10
21.252502083327528
 20
26.8729114467351
 30
0.0
  0
VERTEX
  8
0
 10
21.257493708211513
 20
26.868723888729406
 30
0.0
  0
VERTEX
  8
0
 10
21.262468610734082
 20
26.864522395422533
 30
0.0
  0
VERTEX
  8
0
 10
21.267426790895232
 20
26.860306966814473
 30
0.0
  0
VERTEX
  8
0
 10
21.27236824869496
 20
26.85607760290523
 30
0.0
  0
VERTEX
  8
0
 10
21.27729298413327
 20
26.851834303694808
 30
0.0
  0
VERTEX
  8
0
 10
21.282200997210154
 20
26.847577069183195
 30
0.0
  0
VERTEX
  8
0
 10
21.28709228792562
 20
26.843305899370403
 30
0.0
  0
VERTEX
  8
0
 10
21.291966856279664
 20
26.839020794256427
 30
0.0
  0
VERTEX
  8
0
 10
21.29682470227229
 20
26.834721753841265
 30
0.0
  0
VERTEX
  8
0
 10
21.301665825903495
 20
26.83040877812492
 30
0.0
  0
VERTEX
  8
0
 10
21.306490227173278
 20
26.826081867107394
 30
0.0
  0
VERTEX
  8
0
 10
21.311297906081645
 20
26.821741020788682
 30
0.0
  0
VERTEX
  8
0
 10
21.31608886262859
 20
26.81738623916879
 30
0.0
  0
VERTEX
  8
0
 10
21.32086309681411
 20
26.81301752224771
 30
0.0
  0
VERTEX
  8
0
 10
21.325620608638214
 20
26.808634870025447
 30
0.0
  0
VERTEX
  8
0
 10
21.330361398100898
 20
26.804238282502002
 30
0.0
  0
VERTEX
  8
0
 10
21.335085465202162
 20
26.79982775967737
 30
0.0
  0
VERTEX
  8
0
 10
21.339792809941997
 20
26.79540330155156
 30
0.0
  0
VERTEX
  8
0
 10
21.344483432320423
 20
26.79096490812456
 30
0.0
  0
VERTEX
  8
0
 10
21.349157332337423
 20
26.78651257939638
 30
0.0
  0
VERTEX
  8
0
 10
21.353814509993008
 20
26.782046315367015
 30
0.0
  0
VERTEX
  8
0
 10
21.358454965287166
 20
26.777566116036464
 30
0.0
  0
VERTEX
  8
0
 10
21.363078698219905
 20
26.773071981404733
 30
0.0
  0
VERTEX
  8
0
 10
21.367685708791225
 20
26.768563911471816
 30
0.0
  0
VERTEX
  8
0
 10
21.372275997001125
 20
26.76404190623772
 30
0.0
  0
VERTEX
  8
0
 10
21.3768495628496
 20
26.759505965702438
 30
0.0
  0
VERTEX
  8
0
 10
21.38140640633666
 20
26.754956089865967
 30
0.0
  0
VERTEX
  8
0
 10
21.3859465274623
 20
26.75039227872832
 30
0.0
  0
VERTEX
  8
0
 10
21.390469926226515
 20
26.745814532289483
 30
0.0
  0
VERTEX
  8
0
 10
21.394976602629313
 20
26.74122285054947
 30
0.0
  0
VERTEX
  8
0
 10
21.39946655667069
 20
26.73661723350827
 30
0.0
  0
VERTEX
  8
0
 10
21.403939788350648
 20
26.731997681165883
 30
0.0
  0
VERTEX
  8
0
 10
21.40839629766918
 20
26.727364193522313
 30
0.0
  0
VERTEX
  8
0
 10
21.412836084626296
 20
26.722716770577563
 30
0.0
  0
VERTEX
  8
0
 10
21.41725914922199
 20
26.718055412331626
 30
0.0
  0
VERTEX
  8
0
 10
21.421665491456267
 20
26.713380118784507
 30
0.0
  0
VERTEX
  8
0
 10
21.42605511132912
 20
26.708690889936204
 30
0.0
  0
VERTEX
  8
0
 10
21.430428008840554
 20
26.703987725786718
 30
0.0
  0
VERTEX
  8
0
 10
21.434784183990566
 20
26.699270626336045
 30
0.0
  0
VERTEX
  8
0
 10
21.43912363677916
 20
26.694539591584192
 30
0.0
  0
VERTEX
  8
0
 10
21.443446367206334
 20
26.689794621531156
 30
0.0
  0
VERTEX
  8
0
 10
21.44775237527209
 20
26.685035716176934
 30
0.0
  0
VERTEX
  8
0
 10
21.45204166097642
 20
26.680262875521528
 30
0.0
  0
VERTEX
  8
0
 10
21.456314224319332
 20
26.67547609956494
 30
0.0
  0
VERTEX
  8
0
 10
21.46057006530082
 20
26.670675388307167
 30
0.0
  0
VERTEX
  8
0
 10
21.46480918392089
 20
26.66586074174821
 30
0.0
  0
VERTEX
  8
0
 10
21.469031580179543
 20
26.66103215988807
 30
0.0
  0
VERTEX
  8
0
 10
21.47323725407677
 20
26.656189642726744
 30
0.0
  0
VERTEX
  8
0
 10
21.477426205612584
 20
26.65133319026424
 30
0.0
  0
VERTEX
  8
0
 10
21.48159843478697
 20
26.64646280250055
 30
0.0
  0
VERTEX
  8
0
 10
21.48575394159994
 20
26.641578479435676
 30
0.0
  0
VERTEX
  8
0
 10
21.489892726051487
 20
26.636680221069618
 30
0.0
  0
VERTEX
  8
0
 10
21.494014788141616
 20
26.631768027402373
 30
0.0
  0
VERTEX
  8
0
 10
21.498120127870322
 20
26.626841898433952
 30
0.0
  0
VERTEX
  8
0
 10
21.50220874523761
 20
26.62190183416434
 30
0.0
  0
VERTEX
  8
0
 10
21.506280640243478
 20
26.61694783459355
 30
0.0
  0
VERTEX
  8
0
 10
21.510335812887924
 20
26.611979899721575
 30
0.0
  0
VERTEX
  8
0
 10
21.51437426317095
 20
26.60699802954841
 30
0.0
  0
VERTEX
  8
0
 10
21.518395991092557
 20
26.60200222407407
 30
0.0
  0
VERTEX
  8
0
 10
21.52240099665274
 20
26.596992483298543
 30
0.0
  0
VERTEX
  8
0
 10
21.526389279851507
 20
26.591968807221832
 30
0.0
  0
VERTEX
  8
0
 10
21.53036084068885
 20
26.58693119584394
 30
0.0
  0
VERTEX
  8
0
 10
21.534315679164774
 20
26.581879649164858
 30
0.0
  0
VERTEX
  8
0
 10
21.538253795279275
 20
26.576814167184594
 30
0.0
  0
VERTEX
  8
0
 10
21.54217518903236
 20
26.57173474990315
 30
0.0
  0
VERTEX
  8
0
 10
21.546079860424022
 20
26.56664139732052
 30
0.0
  0
VERTEX
  8
0
 10
21.549967809454266
 20
26.561534109436707
 30
0.0
  0
VERTEX
  8
0
 10
21.553839036123087
 20
26.55641288625171
 30
0.0
  0
VERTEX
  8
0
 10
21.557693540430492
 20
26.55127772776553
 30
0.0
  0
VERTEX
  8
0
 10
21.56153132237647
 20
26.546128633978164
 30
0.0
  0
VERTEX
  8
0
 10
21.56535238196103
 20
26.540965604889614
 30
0.0
  0
VERTEX
  8
0
 10
21.56915671918417
 20
26.535788640499888
 30
0.0
  0
VERTEX
  8
0
 10
21.572944334045893
 20
26.53059774080897
 30
0.0
  0
VERTEX
  8
0
 10
21.57671522654619
 20
26.525392905816872
 30
0.0
  0
VERTEX
  8
0
 10
21.580469396685068
 20
26.52017413552359
 30
0.0
  0
VERTEX
  8
0
 10
21.584206844462532
 20
26.514941429929127
 30
0.0
  0
VERTEX
  8
0
 10
21.587927569878566
 20
26.509694789033475
 30
0.0
  0
VERTEX
  8
0
 10
21.59163157293319
 20
26.504434212836642
 30
0.0
  0
VERTEX
  8
0
 10
21.59531885362638
 20
26.499159701338623
 30
0.0
  0
VERTEX
  8
0
 10
21.598989411958158
 20
26.49387125453942
 30
0.0
  0
VERTEX
  8
0
 10
21.60264324792852
 20
26.48856887243904
 30
0.0
  0
VERTEX
  8
0
 10
21.606280361537454
 20
26.483252555037474
 30
0.0
  0
VERTEX
  8
0
 10
21.60990075278497
 20
26.477922302334722
 30
0.0
  0
VERTEX
  8
0
 10
21.613504421671067
 20
26.472578114330787
 30
0.0
  0
VERTEX
  8
0
 10
21.617091368195737
 20
26.467219991025665
 30
0.0
  0
VERTEX
  8
0
 10
21.620661592359
 20
26.461847932419367
 30
0.0
  0
VERTEX
  8
0
 10
21.62421509416083
 20
26.45646193851188
 30
0.0
  0
VERTEX
  8
0
 10
21.627751873601245
 20
26.451062009303207
 30
0.0
  0
VERTEX
  8
0
 10
21.63127193068024
 20
26.445648144793353
 30
0.0
  0
VERTEX
  8
0
 10
21.63477526539781
 20
26.440220344982315
 30
0.0
  0
VERTEX
  8
0
 10
21.638261877753962
 20
26.434778609870094
 30
0.0
  0
VERTEX
  8
0
 10
21.641731767748695
 20
26.42932293945669
 30
0.0
  0
VERTEX
  8
0
 10
21.64518493538201
 20
26.4238533337421
 30
0.0
  0
VERTEX
  8
0
 10
21.6486213806539
 20
26.41836979272633
 30
0.0
  0
VERTEX
  8
0
 10
21.652041103564372
 20
26.412872316409377
 30
0.0
  0
VERTEX
  8
0
 10
21.65544410411342
 20
26.40736090479124
 30
0.0
  0
VERTEX
  8
0
 10
21.658830382301055
 20
26.401835557871912
 30
0.0
  0
VERTEX
  8
0
 10
21.662199938127262
 20
26.39629627565141
 30
0.0
  0
VERTEX
  8
0
 10
21.665552771592054
 20
26.390743058129715
 30
0.0
  0
VERTEX
  8
0
 10
21.66888888269542
 20
26.385175905306838
 30
0.0
  0
VERTEX
  8
0
 10
21.67220827143737
 20
26.379594817182785
 30
0.0
  0
VERTEX
  8
0
 10
21.675510937817897
 20
26.37399979375754
 30
0.0
  0
VERTEX
  8
0
 10
21.67879688183701
 20
26.368390835031114
 30
0.0
  0
VERTEX
  8
0
 10
21.682066103494698
 20
26.362767941003508
 30
0.0
  0
VERTEX
  8
0
 10
21.685318602790964
 20
26.35713111167472
 30
0.0
  0
VERTEX
  8
0
 10
21.688554379725808
 20
26.351480347044742
 30
0.0
  0
VERTEX
  8
0
 10
21.691773434299236
 20
26.345815647113582
 30
0.0
  0
VERTEX
  8
0
 10
21.69497576651124
 20
26.340137011881236
 30
0.0
  0
VERTEX
  8
0
 10
21.69816137636183
 20
26.334444441347713
 30
0.0
  0
VERTEX
  8
0
 10
21.70133026385099
 20
26.328737935512997
 30
0.0
  0
VERTEX
  8
0
 10
21.704482428978736
 20
26.323017494377105
 30
0.0
  0
VERTEX
  8
0
 10
21.707617871745065
 20
26.31728311794003
 30
0.0
  0
VERTEX
  8
0
 10
21.710736592149964
 20
26.311534806201767
 30
0.0
  0
VERTEX
  8
0
 10
21.71383859019345
 20
26.30577255916232
 30
0.0
  0
VERTEX
  8
0
 10
21.716923865875515
 20
26.299996376821696
 30
0.0
  0
VERTEX
  8
0
 10
21.71999241919616
 20
26.29420625917988
 30
0.0
  0
VERTEX
  8
0
 10
21.723044250155382
 20
26.288402206236885
 30
0.0
  0
VERTEX
  8
0
 10
21.726079358753182
 20
26.282584217992706
 30
0.0
  0
VERTEX
  8
0
 10
21.72909774498956
 20
26.27675229444734
 30
0.0
  0
VERTEX
  8
0
 10
21.73209940886452
 20
26.270906435600793
 30
0.0
  0
VERTEX
  8
0
 10
21.735084350378067
 20
26.26504664145306
 30
0.0
  0
VERTEX
  8
0
 10
21.738052569530186
 20
26.259172912004146
 30
0.0
  0
VERTEX
  8
0
 10
21.741004066320883
 20
26.25328524725405
 30
0.0
  0
VERTEX
  8
0
 10
21.743938840750165
 20
26.247383647202767
 30
0.0
  0
VERTEX
  8
0
 10
21.746856892818023
 20
26.241468111850303
 30
0.0
  0
VERTEX
  8
0
 10
21.749758222524463
 20
26.23553864119665
 30
0.0
  0
VERTEX
  8
0
 10
21.75264282986948
 20
26.22959523524182
 30
0.0
  0
VERTEX
  8
0
 10
21.75551071485308
 20
26.223637893985803
 30
0.0
  0
VERTEX
  8
0
 10
21.75836187747526
 20
26.2176666174286
 30
0.0
  0
VERTEX
  8
0
 10
21.761196317736015
 20
26.211681405570218
 30
0.0
  0
VERTEX
  8
0
 10
21.764014035635352
 20
26.20568225841065
 30
0.0
  0
VERTEX
  8
0
 10
21.766815031173266
 20
26.1996691759499
 30
0.0
  0
VERTEX
  8
0
 10
21.769599304349764
 20
26.193642158187963
 30
0.0
  0
VERTEX
  8
0
 10
21.77236685516484
 20
26.18760120512485
 30
0.0
  0
VERTEX
  8
0
 10
21.775117683618497
 20
26.181546316760546
 30
0.0
  0
VERTEX
  8
0
 10
21.77785178971073
 20
26.17547749309506
 30
0.0
  0
VERTEX
  8
0
 10
21.780569173441542
 20
26.16939473412839
 30
0.0
  0
VERTEX
  8
0
 10
21.78326983481094
 20
26.163298039860535
 30
0.0
  0
VERTEX
  8
0
 10
21.785953773818914
 20
26.1571874102915
 30
0.0
  0
VERTEX
  8
0
 10
21.788620990465468
 20
26.15106284542128
 30
0.0
  0
VERTEX
  8
0
 10
21.791271484750602
 20
26.144924345249876
 30
0.0
  0
VERTEX
  8
0
 10
21.793905256674314
 20
26.138771909777283
 30
0.0
  0
VERTEX
  8
0
 10
21.796522306236604
 20
26.132605539003514
 30
0.0
  0
VERTEX
  8
0
 10
21.799122633437477
 20
26.126425232928554
 30
0.0
  0
VERTEX
  8
0
 10
21.801706238276928
 20
26.12023099155242
 30
0.0
  0
VERTEX
  8
0
 10
21.80427312075496
 20
26.1140228148751
 30
0.0
  0
VERTEX
  8
0
 10
21.80682328087157
 20
26.10780070289659
 30
0.0
  0
VERTEX
  8
0
 10
21.80935671862676
 20
26.101564655616905
 30
0.0
  0
VERTEX
  8
0
 10
21.81187343402053
 20
26.09531467303603
 30
0.0
  0
VERTEX
  8
0
 10
21.814373427052878
 20
26.08905075515397
 30
0.0
  0
VERTEX
  8
0
 10
21.816856697723807
 20
26.082772901970735
 30
0.0
  0
VERTEX
  8
0
 10
21.819323246033314
 20
26.076481113486306
 30
0.0
  0
VERTEX
  8
0
 10
21.821773071981404
 20
26.070175389700697
 30
0.0
  0
VERTEX
  8
0
 10
21.824206175568072
 20
26.063855730613906
 30
0.0
  0
VERTEX
  8
0
 10
21.826622556793318
 20
26.057522136225927
 30
0.0
  0
VERTEX
  8
0
 10
21.829022215657147
 20
26.05117460653677
 30
0.0
  0
VERTEX
  8
0
 10
21.831405152159554
 20
26.04481314154643
 30
0.0
  0
VERTEX
  8
0
 10
21.83377136630054
 20
26.038437741254903
 30
0.0
  0
VERTEX
  8
0
 10
21.836120858080108
 20
26.03204840566219
 30
0.0
  0
VERTEX
  8
0
 10
21.838453627498254
 20
26.025645134768297
 30
0.0
  0
VERTEX
  8
0
 10
21.840769674554977
 20
26.019227928573223
 30
0.0
  0
VERTEX
  8
0
 10
21.843068999250285
 20
26.01279678707696
 30
0.0
  0
VERTEX
  8
0
 10
21.845351601584166
 20
26.006351710279514
 30
0.0
  0
VERTEX
  8
0
 10
21.847617481556632
 20
25.999892698180886
 30
0.0
  0
VERTEX
  8
0
 10
21.849866639167672
 20
25.993419750781072
 30
0.0
  0
VERTEX
  8
0
 10
21.852099074417296
 20
25.98693286808008
 30
0.0
  0
VERTEX
  8
0
 10
21.854314787305498
 20
25.980432050077898
 30
0.0
  0
VERTEX
  8
0
 10
21.856513777832284
 20
25.973917296774538
 30
0.0
  0
VERTEX
  8
0
 10
21.85869604599764
 20
25.96738860816999
 30
0.0
  0
VERTEX
  8
0
 10
21.860861591801584
 20
25.960845984264253
 30
0.0
  0
VERTEX
  8
0
 10
21.863010415244105
 20
25.95428942505734
 30
0.0
  0
VERTEX
  8
0
 10
21.865142516325207
 20
25.947718930549247
 30
0.0
  0
VERTEX
  8
0
 10
21.867257895044887
 20
25.941134500739963
 30
0.0
  0
VERTEX
  8
0
 10
21.869356551403147
 20
25.9345361356295
 30
0.0
  0
VERTEX
  8
0
 10
21.871438485399985
 20
25.927923835217847
 30
0.0
  0
VERTEX
  8
0
 10
21.873503697035403
 20
25.921297599505017
 30
0.0
  0
VERTEX
  8
0
 10
21.8755521863094
 20
25.914657428490997
 30
0.0
  0
VERTEX
  8
0
 10
21.87758395322198
 20
25.9080033221758
 30
0.0
  0
VERTEX
  8
0
 10
21.87959899777314
 20
25.901335280559422
 30
0.0
  0
VERTEX
  8
0
 10
21.881597319962875
 20
25.894653303641853
 30
0.0
  0
VERTEX
  8
0
 10
21.883578919791194
 20
25.8879573914231
 30
0.0
  0
VERTEX
  8
0
 10
21.88554379725809
 20
25.881247543903164
 30
0.0
  0
VERTEX
  8
0
 10
21.88749195236357
 20
25.87452376108205
 30
0.0
  0
VERTEX
  8
0
 10
21.889423385107623
 20
25.867786042959743
 30
0.0
  0
VERTEX
  8
0
 10
21.89133809549026
 20
25.86103438953626
 30
0.0
  0
VERTEX
  8
0
 10
21.89323608351147
 20
25.85426880081159
 30
0.0
  0
VERTEX
  8
0
 10
21.89511734917127
 20
25.84748927678574
 30
0.0
  0
VERTEX
  8
0
 10
21.896981892469643
 20
25.840695817458705
 30
0.0
  0
VERTEX
  8
0
 10
21.898829713406595
 20
25.833888422830483
 30
0.0
  0
VERTEX
  8
0
 10
21.900660811982128
 20
25.82706709290108
 30
0.0
  0
VERTEX
  8
0
 10
21.90247518819624
 20
25.82023182767049
 30
0.0
  0
VERTEX
  8
0
 10
21.904272842048936
 20
25.813382627138722
 30
0.0
  0
VERTEX
  8
0
 10
21.906053773540208
 20
25.806519491305764
 30
0.0
  0
VERTEX
  8
0
 10
21.90781798267006
 20
25.799642420171626
 30
0.0
  0
VERTEX
  8
0
 10
21.90956546943849
 20
25.792751413736305
 30
0.0
  0
VERTEX
  8
0
 10
21.9112962338455
 20
25.785846471999797
 30
0.0
  0
VERTEX
  8
0
 10
21.913010275891093
 20
25.77892759496211
 30
0.0
  0
VERTEX
  8
0
 10
21.914707595575262
 20
25.77199478262324
 30
0.0
  0
VERTEX
  8
0
 10
21.91638819289801
 20
25.76504803498318
 30
0.0
  0
VERTEX
  8
0
 10
21.918052067859342
 20
25.75808735204194
 30
0.0
  0
VERTEX
  8
0
 10
21.91969922045925
 20
25.751112733799516
 30
0.0
  0
VERTEX
  8
0
 10
21.92132965069774
 20
25.74412418025591
 30
0.0
  0
VERTEX
  8
0
 10
21.92294335857481
 20
25.73712169141112
 30
0.0
  0
VERTEX
  8
0
 10
21.924540344090456
 20
25.730105267265138
 30
0.0
  0
VERTEX
  8
0
 10
21.926120607244684
 20
25.723074907817985
 30
0.0
  0
VERTEX
  8
0
 10
21.927684148037493
 20
25.716030613069638
 30
0.0
  0
VERTEX
  8
0
 10
21.92923096646888
 20
25.708972383020118
 30
0.0
  0
VERTEX
  8
0
 10
21.930761062538842
 20
25.701900217669404
 30
0.0
  0
VERTEX
  8
0
 10
21.93227443624739
 20
25.69481411701751
 30
0.0
  0
VERTEX
  8
0
 10
21.933771087594515
 20
25.687714081064435
 30
0.0
  0
VERTEX
  8
0
 10
21.93525101658022
 20
25.68060010981017
 30
0.0
  0
VERTEX
  8
0
 10
21.936714223204508
 20
25.67347220325473
 30
0.0
  0
VERTEX
  8
0
 10
21.93816070746737
 20
25.666330361398103
 30
0.0
  0
VERTEX
  8
0
 10
21.939590469368817
 20
25.65917458424029
 30
0.0
  0
VERTEX
  8
0
 10
21.94100350890884
 20
25.652004871781294
 30
0.0
  0
VERTEX
  8
0
 10
21.94239982608744
 20
25.644821224021115
 30
0.0
  0
VERTEX
  8
0
 10
21.943779420904626
 20
25.637623640959752
 30
0.0
  0
VERTEX
  8
0
 10
21.945142293360387
 20
25.630412122597207
 30
0.0
  0
VERTEX
  8
0
 10
21.94648844345473
 20
25.623186668933474
 30
0.0
  0
VERTEX
  8
0
 10
21.947817871187652
 20
25.615947279968562
 30
0.0
  0
VERTEX
  8
0
 10
21.949130576559153
 20
25.608693955702464
 30
0.0
  0
VERTEX
  8
0
 10
21.95042655956923
 20
25.60142669613518
 30
0.0
  0
VERTEX
  8
0
 10
21.951705820217892
 20
25.59414550126672
 30
0.0
  0
VERTEX
  8
0
 10
21.952968358505135
 20
25.58685037109707
 30
0.0
  0
VERTEX
  8
0
 10
21.954214174430952
 20
25.579541305626236
 30
0.0
  0
VERTEX
  8
0
 10
21.95544326799535
 20
25.57221830485422
 30
0.0
  0
VERTEX
  8
0
 10
21.95665563919833
 20
25.564881368781023
 30
0.0
  0
VERTEX
  8
0
 10
21.95785128803989
 20
25.557530497406642
 30
0.0
  0
VERTEX
  8
0
 10
21.959030214520027
 20
25.550165690731074
 30
0.0
  0
VERTEX
  8
0
 10
21.960192418638748
 20
25.542786948754323
 30
0.0
  0
VERTEX
  8
0
 10
21.96133790039604
 20
25.53539427147639
 30
0.0
  0
VERTEX
  8
0
 10
21.962466659791914
 20
25.52798765889727
 30
0.0
  0
VERTEX
  8
0
 10
21.963578696826374
 20
25.520567111016973
 30
0.0
  0
VERTEX
  8
0
 10
21.964674011499408
 20
25.513132627835486
 30
0.0
  0
VERTEX
  8
0
 10
21.965752603811026
 20
25.505684209352818
 30
0.0
  0
VERTEX
  8
0
 10
21.96681447376122
 20
25.498221855568964
 30
0.0
  0
VERTEX
  8
0
 10
21.967859621349994
 20
25.49074556648393
 30
0.0
  0
VERTEX
  8
0
 10
21.968888046577348
 20
25.483255342097706
 30
0.0
  0
VERTEX
  8
0
 10
21.969899749443286
 20
25.475751182410306
 30
0.0
  0
VERTEX
  8
0
 10
21.9708947299478
 20
25.468233087421723
 30
0.0
  0
VERTEX
  8
0
 10
21.97187298809089
 20
25.46070105713195
 30
0.0
  0
VERTEX
  8
0
 10
21.972834523872564
 20
25.453155091540996
 30
0.0
  0
VERTEX
  8
0
 10
21.973779337292818
 20
25.445595190648852
 30
0.0
  0
VERTEX
  8
0
 10
21.97470742835165
 20
25.438021354455536
 30
0.0
  0
VERTEX
  8
0
 10
21.975618797049062
 20
25.43043358296103
 30
0.0
  0
VERTEX
  8
0
 10
21.976513443385056
 20
25.42283187616534
 30
0.0
  0
VERTEX
  8
0
 10
21.977391367359623
 20
25.415216234068467
 30
0.0
  0
VERTEX
  8
0
 10
21.978252568972774
 20
25.40758665667041
 30
0.0
  0
VERTEX
  8
0
 10
21.979097048224503
 20
25.39994314397117
 30
0.0
  0
VERTEX
  8
0
 10
21.979924805114813
 20
25.39228569597075
 30
0.0
  0
VERTEX
  8
0
 10
21.9807358396437
 20
25.38461431266914
 30
0.0
  0
VERTEX
  8
0
 10
21.98153015181117
 20
25.376928994066347
 30
0.0
  0
VERTEX
  8
0
 10
21.98230774161722
 20
25.369229740162375
 30
0.0
  0
VERTEX
  8
0
 10
21.98306860906185
 20
25.361516550957216
 30
0.0
  0
VERTEX
  8
0
 10
21.983812754145056
 20
25.353789426450874
 30
0.0
  0
VERTEX
  8
0
 10
21.984540176866844
 20
25.346048366643345
 30
0.0
  0
VERTEX
  8
0
 10
21.98525087722721
 20
25.33829337153464
 30
0.0
  0
VERTEX
  8
0
 10
21.98594485522616
 20
25.330524441124744
 30
0.0
  0
VERTEX
  8
0
 10
21.98662211086368
 20
25.32274157541367
 30
0.0
  0
VERTEX
  8
0
 10
21.98728264413979
 20
25.314944774401408
 30
0.0
  0
VERTEX
  8
0
 10
21.987926455054474
 20
25.307134038087966
 30
0.0
  0
VERTEX
  8
0
 10
21.988553543607736
 20
25.299309366473338
 30
0.0
  0
VERTEX
  8
0
 10
21.989163909799586
 20
25.291470759557527
 30
0.0
  0
VERTEX
  8
0
 10
21.989757553630007
 20
25.283618217340532
 30
0.0
  0
VERTEX
  8
0
 10
21.990334475099008
 20
25.275751739822354
 30
0.0
  0
VERTEX
  8
0
 10
21.990894674206594
 20
25.26787132700299
 30
0.0
  0
VERTEX
  8
0
 10
21.991438150952757
 20
25.259976978882445
 30
0.0
  0
VERTEX
  8
0
 10
21.991964905337497
 20
25.252068695460714
 30
0.0
  0
VERTEX
  8
0
 10
21.99247493736082
 20
25.2441464767378
 30
0.0
  0
VERTEX
  8
0
 10
21.992968247022723
 20
25.236210322713703
 30
0.0
  0
VERTEX
  8
0
 10
21.993444834323203
 20
25.228260233388426
 30
0.0
  0
VERTEX
  8
0
 10
21.993904699262266
 20
25.220296208761958
 30
0.0
  0
VERTEX
  8
0
 10
21.994347841839907
 20
25.21231824883431
 30
0.0
  0
VERTEX
  8
0
 10
21.994774262056126
 20
25.20432635360548
 30
0.0
  0
VERTEX
  8
0
 10
21.995183959910925
 20
25.196320523075464
 30
0.0
  0
VERTEX
  8
0
 10
21.99557693540431
 20
25.188300757244267
 30
0.0
  0
VERTEX
  8
0
 10
21.995953188536266
 20
25.180267056111884
 30
0.0
  0
VERTEX
  8
0
 10
21.9963127193068
 20
25.172219419678317
 30
0.0
  0
VERTEX
  8
0
 10
21.996655527715923
 20
25.16415784794357
 30
0.0
  0
VERTEX
  8
0
 10
21.99698161376362
 20
25.156082340907634
 30
0.0
  0
VERTEX
  8
0
 10
21.997290977449897
 20
25.147992898570514
 30
0.0
  0
VERTEX
  8
0
 10
21.99758361877475
 20
25.139889520932215
 30
0.0
  0
VERTEX
  8
0
 10
21.99785953773819
 20
25.131772207992732
 30
0.0
  0
VERTEX
  8
0
 10
21.998118734340206
 20
25.12364095975206
 30
0.0
  0
VERTEX
  8
0
 10
21.9983612085808
 20
25.11549577621021
 30
0.0
  0
VERTEX
  8
0
 10
21.998586960459978
 20
25.107336657367174
 30
0.0
  0
VERTEX
  8
0
 10
21.99879598997773
 20
25.099163603222955
 30
0.0
  0
VERTEX
  8
0
 10
21.998988297134066
 20
25.09097661377755
 30
0.0
  0
VERTEX
  8
0
 10
21.99916388192898
 20
25.082775689030967
 30
0.0
  0
VERTEX
  8
0
 10
21.999322744362477
 20
25.0745608289832
 30
0.0
  0
VERTEX
  8
0
 10
21.99946488443455
 20
25.066332033634243
 30
0.0
  0
VERTEX
  8
0
 10
21.9995903021452
 20
25.058089302984108
 30
0.0
  0
VERTEX
  8
0
 10
21.999698997494434
 20
25.049832637032786
 30
0.0
  0
VERTEX
  8
0
 10
21.999790970482245
 20
25.041562035780277
 30
0.0
  0
VERTEX
  8
0
 10
21.999866221108636
 20
25.03327749922659
 30
0.0
  0
VERTEX
  8
0
 10
21.99992474937361
 20
25.024979027371717
 30
0.0
  0
VERTEX
  8
0
 10
21.999966555277158
 20
25.016666620215663
 30
0.0
  0
VERTEX
  8
0
 10
21.99999163881929
 20
25.00834027775842
 30
0.0
  0
VERTEX
  8
0
 10
22.0
 20
25.0
 30
0.0
  0
VERTEX
  8
0
 10
22.0
 20
25.0
 30
0.0
  0
VERTEX
  8
0
 10
21.999859688500003
 20
24.992378869860474
 30
0.0
  0
VERTEX
  8
0
 10
21.999439379343745
 20
24.984540865489407
 30
0.0
  0
VERTEX
  8
0
 10
21.99874001054681
 20
24.976486503353716
 30
0.0
  0
VERTEX
  8
0
 10
21.997762520124823
 20
24.96821629992033
 30
0.0
  0
VERTEX
  8
0
 10
21.99650784609336
 20
24.959730771656165
 30
0.0
  0
VERTEX
  8
0
 10
21.994976926468038
 20
24.95103043502814
 30
0.0
  0
VERTEX
  8
0
 10
21.993170699264436
 20
24.94211580650319
 30
0.0
  0
VERTEX
  8
0
 10
21.99109010249817
 20
24.93298740254822
 30
0.0
  0
VERTEX
  8
0
 10
21.98873607418482
 20
24.923645739630157
 30
0.0
  0
VERTEX
  8
0
 10
21.986109552340007
 20
24.914091334215936
 30
0.0
  0
VERTEX
  8
0
 10
21.98321147497932
 20
24.90432470277247
 30
0.0
  0
VERTEX
  8
0
 10
21.98004278011836
 20
24.89434636176668
 30
0.0
  0
VERTEX
  8
0
 10
21.976604405772722
 20
24.884156827665485
 30
0.0
  0
VERTEX
  8
0
 10
21.97289728995801
 20
24.873756616935815
 30
0.0
  0
VERTEX
  8
0
 10
21.968922370689814
 20
24.86314624604459
 30
0.0
  0
VERTEX
  8
0
 10
21.96468058598374
 20
24.85232623145873
 30
0.0
  0
VERTEX
  8
0
 10
21.960172873855388
 20
24.84129708964515
 30
0.0
  0
VERTEX
  8
0
 10
21.95540017232035
 20
24.830059337070786
 30
0.0
  0
VERTEX
  8
0
 10
21.950363419394236
 20
24.818613490202548
 30
0.0
  0
VERTEX
  8
0
 10
21.945063553092627
 20
24.806960065507365
 30
0.0
  0
VERTEX
  8
0
 10
21.939501511431146
 20
24.795099579452156
 30
0.0
  0
VERTEX
  8
0
 10
21.933678232425365
 20
24.783032548503844
 30
0.0
  0
VERTEX
  8
0
 10
21.92759465409091
 20
24.770759489129347
 30
0.0
  0
VERTEX
  8
0
 10
21.921251714443358
 20
24.7582809177956
 30
0.0
  0
VERTEX
  8
0
 10
21.914650351498306
 20
24.7455973509695
 30
0.0
  0
VERTEX
  8
0
 10
21.90779150327138
 20
24.732709305117993
 30
0.0
  0
VERTEX
  8
0
 10
21.900676107778157
 20
24.719617296707998
 30
0.0
  0
VERTEX
  8
0
 10
21.893305103034237
 20
24.706321842206425
 30
0.0
  0
VERTEX
  8
0
 10
21.885679427055234
 20
24.692823458080213
 30
0.0
  0
VERTEX
  8
0
 10
21.877800017856725
 20
24.679122660796263
 30
0.0
  0
VERTEX
  8
0
 10
21.869667813454324
 20
24.66521996682151
 30
0.0
  0
VERTEX
  8
0
 10
21.86128375186362
 20
24.65111589262288
 30
0.0
  0
VERTEX
  8
0
 10
21.852648771100228
 20
24.636810954667283
 30
0.0
  0
VERTEX
  8
0
 10
21.843763809179727
 20
24.62230566942165
 30
0.0
  0
VERTEX
  8
0
 10
21.834629804117732
 20
24.6076005533529
 30
0.0
  0
VERTEX
  8
0
 10
21.82524769392983
 20
24.59269612292795
 30
0.0
  0
VERTEX
  8
0
 10
21.815618416631622
 20
24.57759289461373
 30
0.0
  0
VERTEX
  8
0
 10
21.805742910238713
 20
24.56229138487716
 30
0.0
  0
VERTEX
  8
0
 10
21.795622112766704
 20
24.54679211018516
 30
0.0
  0
VERTEX
  8
0
 10
21.78525696223118
 20
24.531095587004653
 30
0.0
  0
VERTEX
  8
0
 10
21.774648396647756
 20
24.51520233180256
 30
0.0
  0
VERTEX
  8
0
 10
21.763797354032015
 20
24.499112861045806
 30
0.0
  0
VERTEX
  8
0
 10
21.75270477239956
 20
24.482827691201297
 30
0.0
  0
VERTEX
  8
0
 10
21.741371589766008
 20
24.46634733873598
 30
0.0
  0
VERTEX
  8
0
 10
21.729798744146937
 20
24.449672320116765
 30
0.0
  0
VERTEX
  8
0
 10
21.717987173557948
 20
24.432803151810578
 30
0.0
  0
VERTEX
  8
0
 10
21.70593781601465
 20
24.415740350284338
 30
0.0
  0
VERTEX
  8
0
 10
21.693651609532637
 20
24.39848443200496
 30
0.0
  0
VERTEX
  8
0
 10
21.681129492127507
 20
24.38103591343938
 30
0.0
  0
VERTEX
  8
0
 10
21.66837240181486
 20
24.36339531105451
 30
0.0
  0
VERTEX
  8
0
 10
21.655381276610296
 20
24.345563141317275
 30
0.0
  0
VERTEX
  8
0
 10
21.642157054529402
 20
24.3275399206946
 30
0.0
  0
VERTEX
  8
0
 10
21.628700673587794
 20
24.3093261656534
 30
0.0
  0
VERTEX
  8
0
 10
21.615013071801066
 20
24.2909223926606
 30
0.0
  0
VERTEX
  8
0
 10
21.601095187184804
 20
24.272329118183126
 30
0.0
  0
VERTEX
  8
0
 10
21.586947957754624
 20
24.253546858687894
 30
0.0
  0
VERTEX
  8
0
 10
21.572572321526113
 20
24.23457613064182
 30
0.0
  0
VERTEX
  8
0
 10
21.55796921651488
 20
24.215417450511843
 30
0.0
  0
VERTEX
  8
0
 10
21.543139580736526
 20
24.19607133476488
 30
0.0
  0
VERTEX
  8
0
 10
21.52808435220663
 20
24.17653829986785
 30
0.0
  0
VERTEX
  8
0
 10
21.512804468940814
 20
24.15681886228767
 30
0.0
  0
VERTEX
  8
0
 10
21.49730086895466
 20
24.136913538491267
 30
0.0
  0
VERTEX
  8
0
 10
21.48157449026378
 20
24.11682284494557
 30
0.0
  0
VERTEX
  8
0
 10
21.465626270883764
 20
24.09654729811749
 30
0.0
  0
VERTEX
  8
0
 10
21.449457148830213
 20
24.07608741447395
 30
0.0
  0
VERTEX
  8
0
 10
21.433068062118725
 20
24.055443710481875
 30
0.0
  0
VERTEX
  8
0
 10
21.4164599487649
 20
24.03461670260819
 30
0.0
  0
VERTEX
  8
0
 10
21.399633746784335
 20
24.01360690731981
 30
0.0
  0
VERTEX
  8
0
 10
21.382590394192636
 20
23.99241484108367
 30
0.0
  0
VERTEX
  8
0
 10
21.365330829005394
 20
23.971041020366673
 30
0.0
  0
VERTEX
  8
0
 10
21.34785598923821
 20
23.94948596163575
 30
0.0
  0
VERTEX
  8
0
 10
21.33016681290668
 20
23.927750181357826
 30
0.0
  0
VERTEX
  8
0
 10
21.312264238026412
 20
23.905834195999823
 30
0.0
  0
VERTEX
  8
0
 10
21.294149202613
 20
23.88373852202866
 30
0.0
  0
VERTEX
  8
0
 10
21.275822644682037
 20
23.86146367591126
 30
0.0
  0
VERTEX
  8
0
 10
21.257285502249125
 20
23.83901017411454
 30
0.0
  0
VERTEX
  8
0
 10
21.238538713329863
 20
23.81637853310543
 30
0.0
  0
VERTEX
  8
0
 10
21.219583215939856
 20
23.793569269350847
 30
0.0
  0
VERTEX
  8
0
 10
21.2004199480947
 20
23.77058289931772
 30
0.0
  0
VERTEX
  8
0
 10
21.18104984780999
 20
23.74741993947296
 30
0.0
  0
VERTEX
  8
0
 10
21.16147385310133
 20
23.7240809062835
 30
0.0
  0
VERTEX
  8
0
 10
21.141692901984317
 20
23.700566316216257
 30
0.0
  0
VERTEX
  8
0
 10
21.121707932474546
 20
23.676876685738147
 30
0.0
  0
VERTEX
  8
0
 10
21.10151988258762
 20
23.6530125313161
 30
0.0
  0
VERTEX
  8
0
 10
21.081129690339136
 20
23.62897436941704
 30
0.0
  0
VERTEX
  8
0
 10
21.060538293744695
 20
23.60476271650788
 30
0.0
  0
VERTEX
  8
0
 10
21.039746630819895
 20
23.580378089055547
 30
0.0
  0
VERTEX
  8
0
 10
21.018755639580334
 20
23.555821003526965
 30
0.0
  0
VERTEX
  8
0
 10
20.9975662580416
 20
23.531091976389046
 30
0.0
  0
VERTEX
  8
0
 10
20.976179424219318
 20
23.506191524108726
 30
0.0
  0
VERTEX
  8
0
 10
20.954596076129064
 20
23.48112016315292
 30
0.0
  0
VERTEX
  8
0
 10
20.93281715178645
 20
23.45587840998855
 30
0.0
  0
VERTEX
  8
0
 10
20.910843589207065
 20
23.430466781082544
 30
0.0
  0
VERTEX
  8
0
 10
20.888676326406515
 20
23.404885792901812
 30
0.0
  0
VERTEX
  8
0
 10
20.8663163014004
 20
23.37913596191329
 30
0.0
  0
VERTEX
  8
0
 10
20.843764452204308
 20
23.353217804583885
 30
0.0
  0
VERTEX
  8
0
 10
20.82102171683385
 20
23.32713183738053
 30
0.0
  0
VERTEX
  8
0
 10
20.79808903330462
 20
23.30087857677015
 30
0.0
  0
VERTEX
  8
0
 10
20.774967339632212
 20
23.27445853921965
 30
0.0
  0
VERTEX
  8
0
 10
20.751657573832237
 20
23.247872241195967
 30
0.0
  0
VERTEX
  8
0
 10
20.728160673920286
 20
23.221120199166023
 30
0.0
  0
VERTEX
  8
0
 10
20.704477577911955
 20
23.194202929596734
 30
0.0
  0
VERTEX
  8
0
 10
20.68060922382285
 20
23.16712094895502
 30
0.0
  0
VERTEX
  8
0
 10
20.65655654966857
 20
23.13987477370781
 30
0.0
  0
VERTEX
  8
0
 10
20.632320493464697
 20
23.112464920322022
 30
0.0
  0
VERTEX
  8
0
 10
20.607901993226847
 20
23.08489190526458
 30
0.0
  0
VERTEX
  8
0
 10
20.58330198697062
 20
23.057156245002403
 30
0.0
  0
VERTEX
  8
0
 10
20.558521412711613
 20
23.029258456002417
 30
0.0
  0
VERTEX
  8
0
 10
20.533561208465414
 20
23.001199054731536
 30
0.0
  0
VERTEX
  8
0
 10
20.508422312247625
 20
22.97297855765668
 30
0.0
  0
VERTEX
  8
0
 10
20.483105662073857
 20
22.94459748124479
 30
0.0
  0
VERTEX
  8
0
 10
20.457612195959697
 20
22.916056341962776
 30
0.0
  0
VERTEX
  8
0
 10
20.431942851920756
 20
22.887355656277563
 30
0.0
  0
VERTEX
  8
0
 10
20.406098567972627
 20
22.858495940656073
 30
0.0
  0
VERTEX
  8
0
 10
20.380080282130898
 20
22.82947771156522
 30
0.0
  0
VERTEX
  8
0
 10
20.35388893241118
 20
22.80030148547193
 30
0.0
  0
VERTEX
  8
0
 10
20.32752545682907
 20
22.770967778843133
 30
0.0
  0
VERTEX
  8
0
 10
20.30099079340016
 20
22.741477108145745
 30
0.0
  0
VERTEX
  8
0
 10
20.274285880140056
 20
22.71182998984668
 30
0.0
  0
VERTEX
  8
0
 10
20.24741165506436
 20
22.68202694041287
 30
0.0
  0
VERTEX
  8
0
 10
20.220369056188666
 20
22.65206847631124
 30
0.0
  0
VERTEX
  8
0
 10
20.193159021528565
 20
22.621955114008696
 30
0.0
  0
VERTEX
  8
0
 10
20.165782489099673
 20
22.591687369972178
 30
0.0
  0
VERTEX
  8
0
 10
20.13824039691757
 20
22.5612657606686
 30
0.0
  0
VERTEX
  8
0
 10
20.110533682997872
 20
22.530690802564887
 30
0.0
  0
VERTEX
  8
0
 10
20.082663285356173
 20
22.499963012127957
 30
0.0
  0
VERTEX
  8
0
 10
20.05463014200807
 20
22.469082905824735
 30
0.0
  0
VERTEX
  8
0
 10
20.026435190969156
 20
22.43805100012214
 30
0.0
  0
VERTEX
  8
0
 10
19.998079370255034
 20
22.406867811487096
 30
0.0
  0
VERTEX
  8
0
 10
19.96956361788131
 20
22.37553385638653
 30
0.0
  0
VERTEX
  8
0
 10
19.940888871863574
 20
22.344049651287353
 30
0.0
  0
VERTEX
  8
0
 10
19.912056070217428
 20
22.312415712656488
 30
0.0
  0
VERTEX
  8
0
 10
19.88306615095847
 20
22.28063255696087
 30
0.0
  0
VERTEX
  8
0
 10
19.8539200521023
 20
22.24870070066741
 30
0.0
  0
VERTEX
  8
0
 10
19.824618711664517
 20
22.21662066024303
 30
0.0
  0
VERTEX
  8
0
 10
19.79516306766072
 20
22.184392952154663
 30
0.0
  0
VERTEX
  8
0
 10
19.765554058106503
 20
22.152018092869216
 30
0.0
  0
VERTEX
  8
0
 10
19.735792621017474
 20
22.119496598853615
 30
0.0
  0
VERTEX
  8
0
 10
19.705879694409223
 20
22.086828986574794
 30
0.0
  0
VERTEX
  8
0
 10
19.675816216297356
 20
22.05401577249966
 30
0.0
  0
VERTEX
  8
0
 10
19.64560312469747
 20
22.021057473095137
 30
0.0
  0
VERTEX
  8
0
 10
19.615241357625152
 20
21.987954604828158
 30
0.0
  0
VERTEX
  8
0
 10
19.584731853096017
 20
21.95470768416562
 30
0.0
  0
VERTEX
  8
0
 10
19.55407554912566
 20
21.921317227574477
 30
0.0
  0
VERTEX
  8
0
 10
19.523273383729673
 20
21.88778375152164
 30
0.0
  0
VERTEX
  8
0
 10
19.492326294923668
 20
21.854107772474023
 30
0.0
  0
VERTEX
  8
0
 10
19.461235220723236
 20
21.820289806898558
 30
0.0
  0
VERTEX
  8
0
 10
19.430001099143976
 20
21.786330371262157
 30
0.0
  0
VERTEX
  8
0
 10
19.39862486820148
 20
21.752229982031743
 30
0.0
  0
VERTEX
  8
0
 10
19.367107465911356
 20
21.717989155674246
 30
0.0
  0
VERTEX
  8
0
 10
19.335449830289203
 20
21.683608408656585
 30
0.0
  0
VERTEX
  8
0
 10
19.303652899350617
 20
21.649088257445676
 30
0.0
  0
VERTEX
  8
0
 10
19.271717611111185
 20
21.614429218508445
 30
0.0
  0
VERTEX
  8
0
 10
19.23964490358653
 20
21.579631808311817
 30
0.0
  0
VERTEX
  8
0
 10
19.20743571479224
 20
21.54469654332271
 30
0.0
  0
VERTEX
  8
0
 10
19.17509098274391
 20
21.50962394000805
 30
0.0
  0
VERTEX
  8
0
 10
19.14261164545714
 20
21.474414514834763
 30
0.0
  0
VERTEX
  8
0
 10
19.109998640947534
 20
21.439068784269757
 30
0.0
  0
VERTEX
  8
0
 10
19.077252907230687
 20
21.403587264779965
 30
0.0
  0
VERTEX
  8
0
 10
19.044375382322198
 20
21.3679704728323
 30
0.0
  0
VERTEX
  8
0
 10
19.011367004237666
 20
21.3322189248937
 30
0.0
  0
VERTEX
  8
0
 10
18.97822871099269
 20
21.29633313743107
 30
0.0
  0
VERTEX
  8
0
 10
18.944961440602867
 20
21.26031362691134
 30
0.0
  0
VERTEX
  8
0
 10
18.9115661310838
 20
21.22416090980143
 30
0.0
  0
VERTEX
  8
0
 10
18.878043720451085
 20
21.187875502568264
 30
0.0
  0
VERTEX
  8
0
 10
18.844395146720316
 20
21.15145792167876
 30
0.0
  0
VERTEX
  8
0
 10
18.8106213479071
 20
21.114908683599843
 30
0.0
  0
VERTEX
  8
0
 10
18.776723262027044
 20
21.078228304798436
 30
0.0
  0
VERTEX
  8
0
 10
18.742701827095722
 20
21.041417301741458
 30
0.0
  0
VERTEX
  8
0
 10
18.708557981128756
 20
21.00447619089584
 30
0.0
  0
VERTEX
  8
0
 10
18.674292662141735
 20
20.96740548872849
 30
0.0
  0
VERTEX
  8
0
 10
18.639906808150258
 20
20.93020571170634
 30
0.0
  0
VERTEX
  8
0
 10
18.605401357169917
 20
20.8928773762963
 30
0.0
  0
VERTEX
  8
0
 10
18.570777247216327
 20
20.855420998965307
 30
0.0
  0
VERTEX
  8
0
 10
18.536035416305076
 20
20.817837096180273
 30
0.0
  0
VERTEX
  8
0
 10
18.501176802451766
 20
20.780126184408132
 30
0.0
  0
VERTEX
  8
0
 10
18.46620234367199
 20
20.74228878011579
 30
0.0
  0
VERTEX
  8
0
 10
18.431112977981353
 20
20.70432539977017
 30
0.0
  0
VERTEX
  8
0
 10
18.395909643395456
 20
20.66623655983821
 30
0.0
  0
VERTEX
  8
0
 10
18.360593277929894
 20
20.628022776786825
 30
0.0
  0
VERTEX
  8
0
 10
18.325164819600264
 20
20.58968456708293
 30
0.0
  0
VERTEX
  8
0
 10
18.289625206422173
 20
20.551222447193453
 30
0.0
  0
VERTEX
  8
0
 10
18.253975376411212
 20
20.51263693358532
 30
0.0
  0
VERTEX
  8
0
 10
18.218216267582985
 20
20.47392854272544
 30
0.0
  0
VERTEX
  8
0
 10
18.182348817953084
 20
20.435097791080747
 30
0.0
  0
VERTEX
  8
0
 10
18.14637396553711
 20
20.39614519511815
 30
0.0
  0
VERTEX
  8
0
 10
18.11029264835066
 20
20.357071271304584
 30
0.0
  0
VERTEX
  8
0
 10
18.07410580440935
 20
20.317876536106972
 30
0.0
  0
VERTEX
  8
0
 10
18.037814371728754
 20
20.27856150599223
 30
0.0
  0
VERTEX
  8
0
 10
18.00141928832449
 20
20.239126697427277
 30
0.0
  0
VERTEX
  8
0
 10
17.96492149221215
 20
20.19957262687904
 30
0.0
  0
VERTEX
  8
0
 10
17.928321921407324
 20
20.15989981081444
 30
0.0
  0
VERTEX
  8
0
 10
17.891621513925628
 20
20.120108765700397
 30
0.0
  0
VERTEX
  8
0
 10
17.85482120778265
 20
20.08020000800384
 30
0.0
  0
VERTEX
  8
0
 10
17.81792194099399
 20
20.040174054191684
 30
0.0
  0
VERTEX
  8
0
 10
17.780924651575244
 20
20.00003142073085
 30
0.0
  0
VERTEX
  8
0
 10
17.743830277542017
 20
19.959772624088263
 30
0.0
  0
VERTEX
  8
0
 10
17.706639756909908
 20
19.91939818073084
 30
0.0
  0
VERTEX
  8
0
 10
17.66935402769451
 20
19.878908607125517
 30
0.0
  0
VERTEX
  8
0
 10
17.631974027911426
 20
19.8383044197392
 30
0.0
  0
VERTEX
  8
0
 10
17.594500695576258
 20
19.797586135038824
 30
0.0
  0
VERTEX
  8
0
 10
17.556934968704592
 20
19.756754269491292
 30
0.0
  0
VERTEX
  8
0
 10
17.51927778531205
 20
19.715809339563553
 30
0.0
  0
VERTEX
  8
0
 10
17.4815300834142
 20
19.67475186172251
 30
0.0
  0
VERTEX
  8
0
 10
17.443692801026668
 20
19.633582352435084
 30
0.0
  0
VERTEX
  8
0
 10
17.40576687616504
 20
19.59230132816821
 30
0.0
  0
VERTEX
  8
0
 10
17.36775324684492
 20
19.5509093053888
 30
0.0
  0
VERTEX
  8
0
 10
17.3296528510819
 20
19.509406800563777
 30
0.0
  0
VERTEX
  8
0
 10
17.291466626891584
 20
19.467794330160064
 30
0.0
  0
VERTEX
  8
0
 10
17.25319551228957
 20
19.426072410644586
 30
0.0
  0
VERTEX
  8
0
 10
17.21484044529145
 20
19.384241558484256
 30
0.0
  0
VERTEX
  8
0
 10
17.17640236391284
 20
19.342302290146005
 30
0.0
  0
VERTEX
  8
0
 10
17.137882206169323
 20
19.30025512209676
 30
0.0
  0
VERTEX
  8
0
 10
17.09928091007651
 20
19.258100570803432
 30
0.0
  0
VERTEX
  8
0
 10
17.060599413649985
 20
19.215839152732944
 30
0.0
  0
VERTEX
  8
0
 10
17.02183865490536
 20
19.173471384352226
 30
0.0
  0
VERTEX
  8
0
 10
16.98299957185823
 20
19.130997782128187
 30
0.0
  0
VERTEX
  8
0
 10
16.94408310252419
 20
19.08841886252776
 30
0.0
  0
VERTEX
  8
0
 10
16.905090184918837
 20
19.04573514201786
 30
0.0
  0
VERTEX
  8
0
 10
16.86602175705778
 20
19.00294713706542
 30
0.0
  0
VERTEX
  8
0
 10
16.826878756956614
 20
18.960055364137347
 30
0.0
  0
VERTEX
  8
0
 10
16.787662122630934
 20
18.917060339700576
 30
0.0
  0
VERTEX
  8
0
 10
16.748372792096344
 20
18.87396258022202
 30
0.0
  0
VERTEX
  8
0
 10
16.709011703368436
 20
18.830762602168612
 30
0.0
  0
VERTEX
  8
0
 10
16.66957979446282
 20
18.78746092200726
 30
0.0
  0
VERTEX
  8
0
 10
16.63007800339508
 20
18.744058056204896
 30
0.0
  0
VERTEX
  8
0
 10
16.59050726818083
 20
18.700554521228433
 30
0.0
  0
VERTEX
  8
0
 10
16.550868526835657
 20
18.65695083354481
 30
0.0
  0
VERTEX
  8
0
 10
16.511162717375168
 20
18.61324750962093
 30
0.0
  0
VERTEX
  8
0
 10
16.471390777814957
 20
18.56944506592372
 30
0.0
  0
VERTEX
  8
0
 10
16.431553646170624
 20
18.525544018920108
 30
0.0
  0
VERTEX
  8
0
 10
16.391652260457768
 20
18.481544885077014
 30
0.0
  0
VERTEX
  8
0
 10
16.35168755869199
 20
18.43744818086136
 30
0.0
  0
VERTEX
  8
0
 10
16.311660478888882
 20
18.39325442274006
 30
0.0
  0
VERTEX
  8
0
 10
16.27157195906405
 20
18.348964127180047
 30
0.0
  0
VERTEX
  8
0
 10
16.231422937233095
 20
18.30457781064824
 30
0.0
  0
VERTEX
  8
0
 10
16.191214351411606
 20
18.260095989611557
 30
0.0
  0
VERTEX
  8
0
 10
16.15094713961519
 20
18.215519180536923
 30
0.0
  0
VERTEX
  8
0
 10
16.11062223985944
 20
18.170847899891257
 30
0.0
  0
VERTEX
  8
0
 10
16.070240590159962
 20
18.126082664141485
 30
0.0
  0
VERTEX
  8
0
 10
16.029803128532347
 20
18.081223989754527
 30
0.0
  0
VERTEX
  8
0
 10
15.989310792992203
 20
18.036272393197308
 30
0.0
  0
VERTEX
  8
0
 10
15.948764521555121
 20
17.991228390936747
 30
0.0
  0
VERTEX
  8
0
 10
15.908165252236696
 20
17.946092499439757
 30
0.0
  0
VERTEX
  8
0
 10
15.867513923052542
 20
17.90086523517328
 30
0.0
  0
VERTEX
  8
0
 10
15.826811472018244
 20
17.855547114604228
 30
0.0
  0
VERTEX
  8
0
 10
15.786058837149415
 20
17.810138654199523
 30
0.0
  0
VERTEX
  8
0
 10
15.745256956461635
 20
17.76464037042608
 30
0.0
  0
VERTEX
  8
0
 10
15.70440676797052
 20
17.719052779750832
 30
0.0
  0
VERTEX
  8
0
 10
15.66350920969166
 20
17.6733763986407
 30
0.0
  0
VERTEX
  8
0
 10
15.622565219640654
 20
17.627611743562596
 30
0.0
  0
VERTEX
  8
0
 10
15.581575735833102
 20
17.58175933098345
 30
0.0
  0
VERTEX
  8
0
 10
15.540541696284604
 20
17.535819677370178
 30
0.0
  0
VERTEX
  8
0
 10
15.49946403901076
 20
17.489793299189717
 30
0.0
  0
VERTEX
  8
0
 10
15.45834370202717
 20
17.44368071290897
 30
0.0
  0
VERTEX
  8
0
 10
15.417181623349428
 20
17.397482434994874
 30
0.0
  0
VERTEX
  8
0
 10
15.375978740993135
 20
17.351198981914344
 30
0.0
  0
VERTEX
  8
0
 10
15.334735992973886
 20
17.3048308701343
 30
0.0
  0
VERTEX
  8
0
 10
15.29345431730729
 20
17.258378616121668
 30
0.0
  0
VERTEX
  8
0
 10
15.252134652008936
 20
17.211842736343367
 30
0.0
  0
VERTEX
  8
0
 10
15.21077793509443
 20
17.165223747266324
 30
0.0
  0
VERTEX
  8
0
 10
15.169385104579362
 20
17.118522165357454
 30
0.0
  0
VERTEX
  8
0
 10
15.127957098479339
 20
17.071738507083683
 30
0.0
  0
VERTEX
  8
0
 10
15.086494854809956
 20
17.024873288911937
 30
0.0
  0
VERTEX
  8
0
 10
15.044999311586814
 20
16.97792702730913
 30
0.0
  0
VERTEX
  8
0
 10
15.003471406825511
 20
16.930900238742186
 30
0.0
  0
VERTEX
  8
0
 10
14.961912078541648
 20
16.88379343967803
 30
0.0
  0
VERTEX
  8
0
 10
14.92032226475082
 20
16.83660714658358
 30
0.0
  0
VERTEX
  8
0
 10
14.878702903468627
 20
16.789341875925768
 30
0.0
  0
VERTEX
  8
0
 10
14.837054932710666
 20
16.741998144171504
 30
0.0
  0
VERTEX
  8
0
 10
14.79537929049254
 20
16.694576467787712
 30
0.0
  0
VERTEX
  8
0
 10
14.753676914829848
 20
16.64707736324132
 30
0.0
  0
VERTEX
  8
0
 10
14.711948743738187
 20
16.599501346999247
 30
0.0
  0
VERTEX
  8
0
 10
14.670195715233152
 20
16.55184893552841
 30
0.0
  0
VERTEX
  8
0
 10
14.628418767330349
 20
16.504120645295735
 30
0.0
  0
VERTEX
  8
0
 10
14.586618838045371
 20
16.45631699276815
 30
0.0
  0
VERTEX
  8
0
 10
14.544796865393815
 20
16.408438494412565
 30
0.0
  0
VERTEX
  8
0
 10
14.502953787391293
 20
16.36048566669591
 30
0.0
  0
VERTEX
  8
0
 10
14.461090542053391
 20
16.31245902608511
 30
0.0
  0
VERTEX
  8
0
 10
14.419208067395713
 20
16.264359089047083
 30
0.0
  0
VERTEX
  8
0
 10
14.377307301433857
 20
16.216186372048746
 30
0.0
  0
VERTEX
  8
0
 10
14.335389182183425
 20
16.16794139155703
 30
0.0
  0
VERTEX
  8
0
 10
14.293454647660008
 20
16.119624664038852
 30
0.0
  0
VERTEX
  8
0
 10
14.251504635879211
 20
16.07123670596113
 30
0.0
  0
VERTEX
  8
0
 10
14.209540084856625
 20
16.022778033790786
 30
0.0
  0
VERTEX
  8
0
 10
14.167561932607866
 20
15.974249163994756
 30
0.0
  0
VERTEX
  8
0
 10
14.12557111714852
 20
15.92565061303995
 30
0.0
  0
VERTEX
  8
0
 10
14.083568576494182
 20
15.876982897393292
 30
0.0
  0
VERTEX
  8
0
 10
14.041555248660465
 20
15.828246533521709
 30
0.0
  0
VERTEX
  8
0
 10
13.999532071662957
 20
15.779442037892114
 30
0.0
  0
VERTEX
  8
0
 10
13.957499983517259
 20
15.730569926971434
 30
0.0
  0
VERTEX
  8
0
 10
13.91545992223897
 20
15.68163071722659
 30
0.0
  0
VERTEX
  8
0
 10
13.873412825843687
 20
15.632624925124507
 30
0.0
  0
VERTEX
  8
0
 10
13.83135963234702
 20
15.583553067132106
 30
0.0
  0
VERTEX
  8
0
 10
13.789301279764551
 20
15.534415659716302
 30
0.0
  0
VERTEX
  8
0
 10
13.74723870611189
 20
15.485213219344027
 30
0.0
  0
VERTEX
  8
0
 10
13.705172849404633
 20
15.435946262482197
 30
0.0
  0
VERTEX
  8
0
 10
13.663104647658377
 20
15.386615305597735
 30
0.0
  0
VERTEX
  8
0
 10
13.621035038888726
 20
15.337220865157564
 30
0.0
  0
VERTEX
  8
0
 10
13.578964961111277
 20
15.287763457628607
 30
0.0
  0
VERTEX
  8
0
 10
13.536895352341622
 20
15.23824359947778
 30
0.0
  0
VERTEX
  8
0
 10
13.494827150595366
 20
15.188661807172014
 30
0.0
  0
VERTEX
  8
0
 10
13.452761293888111
 20
15.139018597178225
 30
0.0
  0
VERTEX
  8
0
 10
13.410698720235446
 20
15.089314485963333
 30
0.0
  0
VERTEX
  8
0
 10
13.368640367652983
 20
15.039549989994267
 30
0.0
  0
VERTEX
  8
0
 10
13.326587174156305
 20
14.989725625737943
 30
0.0
  0
VERTEX
  8
0
 10
13.284540077761026
 20
14.939841909661286
 30
0.0
  0
VERTEX
  8
0
 10
13.24250001648274
 20
14.88989935823122
 30
0.0
  0
VERTEX
  8
0
 10
13.200467928337039
 20
14.839898487914667
 30
0.0
  0
VERTEX
  8
0
 10
13.15844475133953
 20
14.789839815178542
 30
0.0
  0
VERTEX
  8
0
 10
13.11643142350581
 20
14.739723856489771
 30
0.0
  0
VERTEX
  8
0
 10
13.074428882851477
 20
14.689551128315278
 30
0.0
  0
VERTEX
  8
0
 10
13.03243806739213
 20
14.639322147121986
 30
0.0
  0
VERTEX
  8
0
 10
12.990459915143369
 20
14.589037429376813
 30
0.0
  0
VERTEX
  8
0
 10
12.948495364120786
 20
14.538697491546682
 30
0.0
  0
VERTEX
  8
0
 10
12.90654535233999
 20
14.488302850098513
 30
0.0
  0
VERTEX
  8
0
 10
12.864610817816576
 20
14.437854021499234
 30
0.0
  0
VERTEX
  8
0
 10
12.82269269856614
 20
14.387351522215761
 30
0.0
  0
VERTEX
  8
0
 10
12.780791932604286
 20
14.336795868715019
 30
0.0
  0
VERTEX
  8
0
 10
12.738909457946608
 20
14.28618757746393
 30
0.0
  0
VERTEX
  8
0
 10
12.697046212608708
 20
14.235527164929417
 30
0.0
  0
VERTEX
  8
0
 10
12.655203134606182
 20
14.1848151475784
 30
0.0
  0
VERTEX
  8
0
 10
12.61338116195463
 20
14.134052041877798
 30
0.0
  0
VERTEX
  8
0
 10
12.571581232669656
 20
14.083238364294541
 30
0.0
  0
VERTEX
  8
0
 10
12.529804284766849
 20
14.032374631295543
 30
0.0
  0
VERTEX
  8
0
 10
12.488051256261818
 20
13.98146135934773
 30
0.0
  0
VERTEX
  8
0
 10
12.446323085170155
 20
13.930499064918026
 30
0.0
  0
VERTEX
  8
0
 10
12.40462070950746
 20
13.879488264473348
 30
0.0
  0
VERTEX
  8
0
 10
12.362945067289335
 20
13.828429474480622
 30
0.0
  0
VERTEX
  8
0
 10
12.321297096531374
 20
13.777323211406769
 30
0.0
  0
VERTEX
  8
0
 10
12.27967773524918
 20
13.726169991718706
 30
0.0
  0
VERTEX
  8
0
 10
12.238087921458353
 20
13.674970331883365
 30
0.0
  0
VERTEX
  8
0
 10
12.196528593174486
 20
13.62372474836766
 30
0.0
  0
VERTEX
  8
0
 10
12.155000688413185
 20
13.572433757638517
 30
0.0
  0
VERTEX
  8
0
 10
12.113505145190041
 20
13.521097876162855
 30
0.0
  0
VERTEX
  8
0
 10
12.07204290152066
 20
13.469717620407598
 30
0.0
  0
VERTEX
  8
0
 10
12.030614895420637
 20
13.418293506839667
 30
0.0
  0
VERTEX
  8
0
 10
11.989222064905572
 20
13.366826051925987
 30
0.0
  0
VERTEX
  8
0
 10
11.947865347991058
 20
13.315315772133468
 30
0.0
  0
VERTEX
  8
0
 10
11.906545682692707
 20
13.26376318392905
 30
0.0
  0
VERTEX
  8
0
 10
11.86526400702611
 20
13.212168803779647
 30
0.0
  0
VERTEX
  8
0
 10
11.824021259006862
 20
13.16053314815218
 30
0.0
  0
VERTEX
  8
0
 10
11.78281837665057
 20
13.10885673351357
 30
0.0
  0
VERTEX
  8
0
 10
11.741656297972826
 20
13.05714007633074
 30
0.0
  0
VERTEX
  8
0
 10
11.700535960989232
 20
13.005383693070613
 30
0.0
  0
VERTEX
  8
0
 10
11.659458303715391
 20
12.953588100200111
 30
0.0
  0
VERTEX
  8
0
 10
11.618424264166894
 20
12.901753814186154
 30
0.0
  0
VERTEX
  8
0
 10
11.577434780359344
 20
12.849881351495668
 30
0.0
  0
VERTEX
  8
0
 10
11.536490790308338
 20
12.79797122859557
 30
0.0
  0
VERTEX
  8
0
 10
11.49559323202948
 20
12.746023961952783
 30
0.0
  0
VERTEX
  8
0
 10
11.454743043538363
 20
12.694040068034234
 30
0.0
  0
VERTEX
  8
0
 10
11.413941162850586
 20
12.642020063306841
 30
0.0
  0
VERTEX
  8
0
 10
11.373188527981753
 20
12.589964464237525
 30
0.0
  0
VERTEX
  8
0
 10
11.332486076947458
 20
12.537873787293211
 30
0.0
  0
VERTEX
  8
0
 10
11.291834747763303
 20
12.48574854894082
 30
0.0
  0
VERTEX
  8
0
 10
11.251235478444881
 20
12.433589265647269
 30
0.0
  0
VERTEX
  8
0
 10
11.2106892070078
 20
12.381396453879486
 30
0.0
  0
VERTEX
  8
0
 10
11.170196871467654
 20
12.329170630104393
 30
0.0
  0
VERTEX
  8
0
 10
11.129759409840041
 20
12.276912310788912
 30
0.0
  0
VERTEX
  8
0
 10
11.089377760140561
 20
12.22462201239996
 30
0.0
  0
VERTEX
  8
0
 10
11.049052860384812
 20
12.172300251404465
 30
0.0
  0
VERTEX
  8
0
 10
11.008785648588395
 20
12.119947544269346
 30
0.0
  0
VERTEX
  8
0
 10
10.968577062766906
 20
12.067564407461525
 30
0.0
  0
VERTEX
  8
0
 10
10.92842804093595
 20
12.015151357447923
 30
0.0
  0
VERTEX
  8
0
 10
10.888339521111117
 20
11.962708910695467
 30
0.0
  0
VERTEX
  8
0
 10
10.848312441308014
 20
11.910237583671073
 30
0.0
  0
VERTEX
  8
0
 10
10.808347739542235
 20
11.857737892841666
 30
0.0
  0
VERTEX
  8
0
 10
10.768446353829377
 20
11.805210354674166
 30
0.0
  0
VERTEX
  8
0
 10
10.728609222185042
 20
11.752655485635499
 30
0.0
  0
VERTEX
  8
0
 10
10.688837282624831
 20
11.700073802192584
 30
0.0
  0
VERTEX
  8
0
 10
10.649131473164339
 20
11.647465820812343
 30
0.0
  0
VERTEX
  8
0
 10
10.609492731819167
 20
11.594832057961693
 30
0.0
  0
VERTEX
  8
0
 10
10.569921996604913
 20
11.54217303010757
 30
0.0
  0
VERTEX
  8
0
 10
10.530420205537178
 20
11.489489253716881
 30
0.0
  0
VERTEX
  8
0
 10
10.490988296631556
 20
11.436781245256556
 30
0.0
  0
VERTEX
  8
0
 10
10.451627207903652
 20
11.384049521193518
 30
0.0
  0
VERTEX
  8
0
 10
10.412337877369062
 20
11.331294597994686
 30
0.0
  0
VERTEX
  8
0
 10
10.37312124304338
 20
11.27851699212698
 30
0.0
  0
VERTEX
  8
0
 10
10.333978242942214
 20
11.225717220057327
 30
0.0
  0
VERTEX
  8
0
 10
10.294909815081159
 20
11.172895798252647
 30
0.0
  0
VERTEX
  8
0
 10
10.25591689747581
 20
11.120053243179859
 30
0.0
  0
VERTEX
  8
0
 10
10.217000428141773
 20
11.067190071305887
 30
0.0
  0
VERTEX
  8
0
 10
10.17816134509464
 20
11.014306799097657
 30
0.0
  0
VERTEX
  8
0
 10
10.139400586350016
 20
10.961403943022084
 30
0.0
  0
VERTEX
  8
0
 10
10.100719089923494
 20
10.908482019546096
 30
0.0
  0
VERTEX
  8
0
 10
10.062117793830677
 20
10.85554154513661
 30
0.0
  0
VERTEX
  8
0
 10
10.02359763608716
 20
10.802583036260552
 30
0.0
  0
VERTEX
  8
0
 10
9.985159554708549
 20
10.749607009384842
 30
0.0
  0
VERTEX
  8
0
 10
9.946804487710432
 20
10.6966139809764
 30
0.0
  0
VERTEX
  8
0
 10
9.908533373108419
 20
10.643604467502152
 30
0.0
  0
VERTEX
  8
0
 10
9.870347148918103
 20
10.590578985429019
 30
0.0
  0
VERTEX
  8
0
 10
9.832246753155085
 20
10.537538051223923
 30
0.0
  0
VERTEX
  8
0
 10
9.794233123834962
 20
10.484482181353783
 30
0.0
  0
VERTEX
  8
0
 10
9.756307198973335
 20
10.431411892285528
 30
0.0
  0
VERTEX
  8
0
 10
9.718469916585798
 20
10.378327700486071
 30
0.0
  0
VERTEX
  8
0
 10
9.680722214687956
 20
10.325230122422342
 30
0.0
  0
VERTEX
  8
0
 10
9.643065031295405
 20
10.272119674561257
 30
0.0
  0
VERTEX
  8
0
 10
9.605499304423745
 20
10.218996873369742
 30
0.0
  0
VERTEX
  8
0
 10
9.568025972088572
 20
10.165862235314714
 30
0.0
  0
VERTEX
  8
0
 10
9.53064597230549
 20
10.112716276863102
 30
0.0
  0
VERTEX
  8
0
 10
9.493360243090093
 20
10.059559514481824
 30
0.0
  0
VERTEX
  8
0
 10
9.456169722457982
 20
10.006392464637802
 30
0.0
  0
VERTEX
  8
0
 10
9.419075348424755
 20
9.953215643797957
 30
0.0
  0
VERTEX
  8
0
 10
9.38207805900601
 20
9.900029568429213
 30
0.0
  0
VERTEX
  8
0
 10
9.345178792217348
 20
9.84683475499849
 30
0.0
  0
VERTEX
  8
0
 10
9.30837848607437
 20
9.793631719972714
 30
0.0
  0
VERTEX
  8
0
 10
9.27167807859267
 20
9.7404209798188
 30
0.0
  0
VERTEX
  8
0
 10
9.235078507787849
 20
9.68720305100368
 30
0.0
  0
VERTEX
  8
0
 10
9.198580711675504
 20
9.633978449994268
 30
0.0
  0
VERTEX
  8
0
 10
9.162185628271239
 20
9.58074769325749
 30
0.0
  0
VERTEX
  8
0
 10
9.125894195590647
 20
9.527511297260265
 30
0.0
  0
VERTEX
  8
0
 10
9.08970735164933
 20
9.474269778469516
 30
0.0
  0
VERTEX
  8
0
 10
9.053626034462887
 20
9.421023653352165
 30
0.0
  0
VERTEX
  8
0
 10
9.017651182046917
 20
9.367773438375135
 30
0.0
  0
VERTEX
  8
0
 10
8.981783732417018
 20
9.31451965000535
 30
0.0
  0
VERTEX
  8
0
 10
8.946024623588789
 20
9.261262804709727
 30
0.0
  0
VERTEX
  8
0
 10
8.910374793577827
 20
9.20800341895519
 30
0.0
  0
VERTEX
  8
0
 10
8.874835180399733
 20
9.154742009208663
 30
0.0
  0
VERTEX
  8
0
 10
8.839406722070105
 20
9.101479091937062
 30
0.0
  0
VERTEX
  8
0
 10
8.804090356604544
 20
9.048215183607319
 30
0.0
  0
VERTEX
  8
0
 10
8.768887022018648
 20
8.994950800686349
 30
0.0
  0
VERTEX
  8
0
 10
8.733797656328012
 20
8.941686459641069
 30
0.0
  0
VERTEX
  8
0
 10
8.698823197548238
 20
8.888422676938411
 30
0.0
  0
VERTEX
  8
0
 10
8.663964583694927
 20
8.835159969045296
 30
0.0
  0
VERTEX
  8
0
 10
8.629222752783676
 20
8.781898852428643
 30
0.0
  0
VERTEX
  8
0
 10
8.594598642830082
 20
8.728639843555374
 30
0.0
  0
VERTEX
  8
0
 10
8.560093191849749
 20
8.675383458892412
 30
0.0
  0
VERTEX
  8
0
 10
8.52570733785827
 20
8.62213021490668
 30
0.0
  0
VERTEX
  8
0
 10
8.491442018871243
 20
8.568880628065093
 30
0.0
  0
VERTEX
  8
0
 10
8.457298172904277
 20
8.515635214834582
 30
0.0
  0
VERTEX
  8
0
 10
8.423276737972959
 20
8.462394491682064
 30
0.0
  0
VERTEX
  8
0
 10
8.389378652092894
 20
8.409158975074465
 30
0.0
  0
VERTEX
  8
0
 10
8.355604853279681
 20
8.355929181478702
 30
0.0
  0
VERTEX
  8
0
 10
8.321956279548917
 20
8.3027056273617
 30
0.0
  0
VERTEX
  8
0
 10
8.2884338689162
 20
8.24948882919038
 30
0.0
  0
VERTEX
  8
0
 10
8.255038559397132
 20
8.196279303431664
 30
0.0
  0
VERTEX
  8
0
 10
8.22177128900731
 20
8.143077566552474
 30
0.0
  0
VERTEX
  8
0
 10
8.188632995762333
 20
8.08988413501973
 30
0.0
  0
VERTEX
  8
0
 10
8.155624617677798
 20
8.03669952530036
 30
0.0
  0
VERTEX
  8
0
 10
8.122747092769309
 20
7.983524253861281
 30
0.0
  0
VERTEX
  8
0
 10
8.090001359052462
 20
7.93035883716942
 30
0.0
  0
VERTEX
  8
0
 10
8.057388354542853
 20
7.8772037916916915
 30
0.0
  0
VERTEX
  8
0
 10
8.024909017256086
 20
7.824059633895022
 30
0.0
  0
VERTEX
  8
0
 10
7.992564285207756
 20
7.770926880246334
 30
0.0
  0
VERTEX
  8
0
 10
7.960355096413463
 20
7.717806047212548
 30
0.0
  0
VERTEX
  8
0
 10
7.928282388888807
 20
7.664697651260586
 30
0.0
  0
VERTEX
  8
0
 10
7.896347100649384
 20
7.611602208857371
 30
0.0
  0
VERTEX
  8
0
 10
7.864550169710798
 20
7.558520236469823
 30
0.0
  0
VERTEX
  8
0
 10
7.832892534088645
 20
7.505452250564868
 30
0.0
  0
VERTEX
  8
0
 10
7.80137513179852
 20
7.452398767609423
 30
0.0
  0
VERTEX
  8
0
 10
7.769998900856028
 20
7.399360304070413
 30
0.0
  0
VERTEX
  8
0
 10
7.738764779276765
 20
7.346337376414759
 30
0.0
  0
VERTEX
  8
0
 10
7.707673705076329
 20
7.2933305011093825
 30
0.0
  0
VERTEX
  8
0
 10
7.6767266162703205
 20
7.240340194621208
 30
0.0
  0
VERTEX
  8
0
 10
7.645924450874338
 20
7.187366973417152
 30
0.0
  0
VERTEX
  8
0
 10
7.61526814690398
 20
7.134411353964143
 30
0.0
  0
VERTEX
  8
0
 10
7.584758642374847
 20
7.081473852729102
 30
0.0
  0
VERTEX
  8
0
 10
7.554396875302536
 20
7.028554986178948
 30
0.0
  0
VERTEX
  8
0
 10
7.524183783702648
 20
6.975655270780605
 30
0.0
  0
VERTEX
  8
0
 10
7.494120305590779
 20
6.922775223000993
 30
0.0
  0
VERTEX
  8
0
 10
7.464207378982529
 20
6.869915359307037
 30
0.0
  0
VERTEX
  8
0
 10
7.434445941893498
 20
6.817076196165656
 30
0.0
  0
VERTEX
  8
0
 10
7.404836932339283
 20
6.764258250043775
 30
0.0
  0
VERTEX
  8
0
 10
7.375381288335484
 20
6.711462037408313
 30
0.0
  0
VERTEX
  8
0
 10
7.3460799478976995
 20
6.658688074726193
 30
0.0
  0
VERTEX
  8
0
 10
7.31693384904153
 20
6.605936878464338
 30
0.0
  0
VERTEX
  8
0
 10
7.287943929782571
 20
6.55320896508967
 30
0.0
  0
VERTEX
  8
0
 10
7.259111128136426
 20
6.50050485106911
 30
0.0
  0
VERTEX
  8
0
 10
7.23043638211869
 20
6.447825052869579
 30
0.0
  0
VERTEX
  8
0
 10
7.201920629744961
 20
6.395170086958002
 30
0.0
  0
VERTEX
  8
0
 10
7.173564809030841
 20
6.342540469801295
 30
0.0
  0
VERTEX
  8
0
 10
7.145369857991929
 20
6.289936717866388
 30
0.0
  0
VERTEX
  8
0
 10
7.117336714643821
 20
6.237359347620198
 30
0.0
  0
VERTEX
  8
0
 10
7.08946631700212
 20
6.184808875529651
 30
0.0
  0
VERTEX
  8
0
 10
7.061759603082421
 20
6.132285818061664
 30
0.0
  0
VERTEX
  8
0
 10
7.0342175109003255
 20
6.079790691683162
 30
0.0
  0
VERTEX
  8
0
 10
7.00684097847143
 20
6.027324012861067
 30
0.0
  0
VERTEX
  8
0
 10
6.979630943811334
 20
5.9748862980623
 30
0.0
  0
VERTEX
  8
0
 10
6.95258834493564
 20
5.922478063753784
 30
0.0
  0
VERTEX
  8
0
 10
6.92571411985994
 20
5.870099826402439
 30
0.0
  0
VERTEX
  8
0
 10
6.899009206599839
 20
5.81775210247519
 30
0.0
  0
VERTEX
  8
0
 10
6.872474543170933
 20
5.765435408438955
 30
0.0
  0
VERTEX
  8
0
 10
6.846111067588821
 20
5.71315026076066
 30
0.0
  0
VERTEX
  8
0
 10
6.819919717869103
 20
5.660897175907224
 30
0.0
  0
VERTEX
  8
0
 10
6.793901432027377
 20
5.608676670345572
 30
0.0
  0
VERTEX
  8
0
 10
6.768057148079242
 20
5.556489260542623
 30
0.0
  0
VERTEX
  8
0
 10
6.7423878040402965
 20
5.5043354629653
 30
0.0
  0
VERTEX
  8
0
 10
6.7168943379261385
 20
5.452215794080523
 30
0.0
  0
VERTEX
  8
0
 10
6.691577687752371
 20
5.400130770355219
 30
0.0
  0
VERTEX
  8
0
 10
6.666438791534588
 20
5.348080908256307
 30
0.0
  0
VERTEX
  8
0
 10
6.641478587288393
 20
5.296066724250711
 30
0.0
  0
VERTEX
  8
0
 10
6.616698013029381
 20
5.2440887348053495
 30
0.0
  0
VERTEX
  8
0
 10
6.592098006773151
 20
5.192147456387148
 30
0.0
  0
VERTEX
  8
0
 10
6.567679506535304
 20
5.140243405463025
 30
0.0
  0
VERTEX
  8
0
 10
6.54344345033144
 20
5.0883770984999055
 30
0.0
  0
VERTEX
  8
0
 10
6.519390776177152
 20
5.036549051964709
 30
0.0
  0
VERTEX
  8
0
 10
6.495522422088045
 20
4.98475978232436
 30
0.0
  0
VERTEX
  8
0
 10
6.471839326079715
 20
4.933009806045778
 30
0.0
  0
VERTEX
  8
0
 10
6.448342426167761
 20
4.8812996395958885
 30
0.0
  0
VERTEX
  8
0
 10
6.425032660367783
 20
4.8296297994416095
 30
0.0
  0
VERTEX
  8
0
 10
6.40191096669538
 20
4.778000802049866
 30
0.0
  0
VERTEX
  8
0
 10
6.378978283166148
 20
4.726413163887578
 30
0.0
  0
VERTEX
  8
0
 10
6.3562355477956896
 20
4.674867401421669
 30
0.0
  0
VERTEX
  8
0
 10
6.3336836985996
 20
4.623364031119055
 30
0.0
  0
VERTEX
  8
0
 10
6.311323673593481
 20
4.571903569446668
 30
0.0
  0
VERTEX
  8
0
 10
6.289156410792932
 20
4.520486532871426
 30
0.0
  0
VERTEX
  8
0
 10
6.267182848213549
 20
4.46911343786025
 30
0.0
  0
VERTEX
  8
0
 10
6.245403923870933
 20
4.417784800880062
 30
0.0
  0
VERTEX
  8
0
 10
6.223820575780682
 20
4.366501138397783
 30
0.0
  0
VERTEX
  8
0
 10
6.202433741958394
 20
4.315262966880338
 30
0.0
  0
VERTEX
  8
0
 10
6.1812443604196705
 20
4.264070802794647
 30
0.0
  0
VERTEX
  8
0
 10
6.160253369180108
 20
4.2129251626076325
 30
0.0
  0
VERTEX
  8
0
 10
6.1394617062553065
 20
4.161826562786215
 30
0.0
  0
VERTEX
  8
0
 10
6.118870309660865
 20
4.110775519797319
 30
0.0
  0
VERTEX
  8
0
 10
6.098480117412381
 20
4.059772550107864
 30
0.0
  0
VERTEX
  8
0
 10
6.078292067525454
 20
4.008818170184775
 30
0.0
  0
VERTEX
  8
0
 10
6.058307098015684
 20
3.9579128964949715
 30
0.0
  0
VERTEX
  8
0
 10
6.038526146898668
 20
3.9070572455053765
 30
0.0
  0
VERTEX
  8
0
 10
6.018950152190007
 20
3.8562517336829103
 30
0.0
  0
VERTEX
  8
0
 10
5.9995800519052995
 20
3.8054968774944986
 30
0.0
  0
VERTEX
  8
0
 10
5.980416784060139
 20
3.754793193407057
 30
0.0
  0
VERTEX
  8
0
 10
5.961461286670134
 20
3.7041411978875143
 30
0.0
  0
VERTEX
  8
0
 10
5.942714497750877
 20
3.6535414074027903
 30
0.0
  0
VERTEX
  8
0
 10
5.924177355317967
 20
3.6029943384198067
 30
0.0
  0
VERTEX
  8
0
 10
5.905850797387007
 20
3.5525005074054854
 30
0.0
  0
VERTEX
  8
0
 10
5.887735761973591
 20
3.502060430826748
 30
0.0
  0
VERTEX
  8
0
 10
5.86983318709332
 20
3.451674625150517
 30
0.0
  0
VERTEX
  8
0
 10
5.852144010761792
 20
3.4013436068437137
 30
0.0
  0
VERTEX
  8
0
 10
5.834669170994609
 20
3.351067892373262
 30
0.0
  0
VERTEX
  8
0
 10
5.8174096058073665
 20
3.3008479982060823
 30
0.0
  0
VERTEX
  8
0
 10
5.800366253215664
 20
3.250684440809096
 30
0.0
  0
VERTEX
  8
0
 10
5.7835400512351
 20
3.2005777366492265
 30
0.0
  0
VERTEX
  8
0
 10
5.766931937881276
 20
3.1505284021933955
 30
0.0
  0
VERTEX
  8
0
 10
5.750542851169788
 20
3.1005369539085237
 30
0.0
  0
VERTEX
  8
0
 10
5.7343737291162356
 20
3.050603908261535
 30
0.0
  0
VERTEX
  8
0
 10
5.718425509736218
 20
3.0007297817193503
 30
0.0
  0
VERTEX
  8
0
 10
5.702699131045334
 20
2.950915090748889
 30
0.0
  0
VERTEX
  8
0
 10
5.687195531059182
 20
2.9011603518170794
 30
0.0
  0
VERTEX
  8
0
 10
5.671915647793362
 20
2.851466081390839
 30
0.0
  0
VERTEX
  8
0
 10
5.656860419263474
 20
2.801832795937092
 30
0.0
  0
VERTEX
  8
0
 10
5.642030783485112
 20
2.7522610119227577
 30
0.0
  0
VERTEX
  8
0
 10
5.627427678473881
 20
2.702751245814761
 30
0.0
  0
VERTEX
  8
0
 10
5.613052042245375
 20
2.6533040140800224
 30
0.0
  0
VERTEX
  8
0
 10
5.598904812815195
 20
2.603919833185464
 30
0.0
  0
VERTEX
  8
0
 10
5.584986928198941
 20
2.5545992195980074
 30
0.0
  0
VERTEX
  8
0
 10
5.571299326412208
 20
2.5053426897845754
 30
0.0
  0
VERTEX
  8
0
 10
5.557842945470599
 20
2.45615076021209
 30
0.0
  0
VERTEX
  8
0
 10
5.5446187233897115
 20
2.407023947347472
 30
0.0
  0
VERTEX
  8
0
 10
5.531627598185143
 20
2.3579627676576447
 30
0.0
  0
VERTEX
  8
0
 10
5.518870507872494
 20
2.3089677376095294
 30
0.0
  0
VERTEX
  8
0
 10
5.5063483904673625
 20
2.2600393736700486
 30
0.0
  0
VERTEX
  8
0
 10
5.494062183985349
 20
2.211178192306124
 30
0.0
  0
VERTEX
  8
0
 10
5.48201282644205
 20
2.1623847099846776
 30
0.0
  0
VERTEX
  8
0
 10
5.470201255853064
 20
2.113659443172628
 30
0.0
  0
VERTEX
  8
0
 10
5.458628410233993
 20
2.0650029083369037
 30
0.0
  0
VERTEX
  8
0
 10
5.447295227600435
 20
2.0164156219444243
 30
0.0
  0
VERTEX
  8
0
 10
5.436202645967987
 20
1.967898100462111
 30
0.0
  0
VERTEX
  8
0
 10
5.425351603352249
 20
1.9194508603568856
 30
0.0
  0
VERTEX
  8
0
 10
5.4147430377688215
 20
1.871074418095671
 30
0.0
  0
VERTEX
  8
0
 10
5.4043778872333
 20
1.822769290145388
 30
0.0
  0
VERTEX
  8
0
 10
5.394257089761286
 20
1.7745359929729596
 30
0.0
  0
VERTEX
  8
0
 10
5.384381583368377
 20
1.726375043045307
 30
0.0
  0
VERTEX
  8
0
 10
5.374752306070172
 20
1.6782869568293532
 30
0.0
  0
VERTEX
  8
0
 10
5.365370195882271
 20
1.6302722507920189
 30
0.0
  0
VERTEX
  8
0
 10
5.356236190820272
 20
1.5823314414002274
 30
0.0
  0
VERTEX
  8
0
 10
5.3473512288997735
 20
1.5344650451208999
 30
0.0
  0
VERTEX
  8
0
 10
5.338716248136374
 20
1.4866735784209588
 30
0.0
  0
VERTEX
  8
0
 10
5.330332186545675
 20
1.4389575577673257
 30
0.0
  0
VERTEX
  8
0
 10
5.322199982143273
 20
1.3913174996269233
 30
0.0
  0
VERTEX
  8
0
 10
5.314320572944767
 20
1.3437539204666693
 30
0.0
  0
VERTEX
  8
0
 10
5.306694896965756
 20
1.296267336753493
 30
0.0
  0
VERTEX
  8
0
 10
5.29932389222184
 20
1.2488582649543127
 30
0.0
  0
VERTEX
  8
0
 10
5.292208496728617
 20
1.2015272215360508
 30
0.0
  0
VERTEX
  8
0
 10
5.285349648501686
 20
1.1542747229656294
 30
0.0
  0
VERTEX
  8
0
 10
5.278748285556646
 20
1.1071012857099698
 30
0.0
  0
VERTEX
  8
0
 10
5.272405345909095
 20
1.0600074262359946
 30
0.0
  0
VERTEX
  8
0
 10
5.266321767574633
 20
1.0129936610106256
 30
0.0
  0
VERTEX
  8
0
 10
5.260498488568858
 20
0.9660605065007846
 30
0.0
  0
VERTEX
  8
0
 10
5.2549364469073705
 20
0.9192084791733939
 30
0.0
  0
VERTEX
  8
0
 10
5.249636580605767
 20
0.8724380954953754
 30
0.0
  0
VERTEX
  8
0
 10
5.2445998276796475
 20
0.8257498719336512
 30
0.0
  0
VERTEX
  8
0
 10
5.239827126144613
 20
0.7791443249551433
 30
0.0
  0
VERTEX
  8
0
 10
5.235319414016258
 20
0.7326219710267734
 30
0.0
  0
VERTEX
  8
0
 10
5.231077629310184
 20
0.6861833266154638
 30
0.0
  0
VERTEX
  8
0
 10
5.227102710041991
 20
0.6398289081881365
 30
0.0
  0
VERTEX
  8
0
 10
5.223395594227275
 20
0.5935592322117133
 30
0.0
  0
VERTEX
  8
0
 10
5.219957219881636
 20
0.547374815153113
 30
0.0
  0
VERTEX
  8
0
 10
5.216788525020675
 20
0.5012761734792642
 30
0.0
  0
VERTEX
  8
0
 10
5.213890447659988
 20
0.45526382365708573
 30
0.0
  0
VERTEX
  8
0
 10
5.211263925815175
 20
0.4093382821534992
 30
0.0
  0
VERTEX
  8
0
 10
5.208909897501835
 20
0.3635000654354269
 30
0.0
  0
VERTEX
  8
0
 10
5.206829300735567
 20
0.3177496899697909
 30
0.0
  0
VERTEX
  8
0
 10
5.205023073531969
 20
0.2720876722235131
 30
0.0
  0
VERTEX
  8
0
 10
5.203492153906641
 20
0.2265145286635154
 30
0.0
  0
VERTEX
  8
0
 10
5.202237479875181
 20
0.18103077575671994
 30
0.0
  0
VERTEX
  8
0
 10
5.201259989453187
 20
0.1356369299700487
 30
0.0
  0
VERTEX
  8
0
 10
5.200560620656261
 20
0.09033350777042362
 30
0.0
  0
VERTEX
  8
0
 10
5.200140311499998
 20
0.045121025624766706
 30
0.0
  0
VERTEX
  8
0
 10
5.2
 20
0.0
 30
0.0
  0
SEQEND
  0
ENDSEC
  0
EOF
